<svg version="1.1" xmlns="http://www.w3.org/2000/svg" xmlns:xlink="http://www.w3.org/1999/xlink" width="43.9555" height="34.91265" viewBox="0,0,43.9555,34.91265"><g transform="translate(-218.02225,-162.54367)"><g data-paper-data="{&quot;isPaintingLayer&quot;:true}" fill="#ffffff" fill-rule="nonzero" stroke-linecap="square" stroke-linejoin="miter" stroke-miterlimit="10" stroke-dasharray="" stroke-dashoffset="0" style="mix-blend-mode: normal"><path d="M237.88868,194.44355h-13.8111c-1.48139,0 -2.44999,-0.31907 -2.9058,-0.95721c-0.43302,-0.63814 -0.64953,-1.21929 -0.64953,-1.74348c0,-1.00279 0.52419,-2.22209 1.57255,-3.65789c1.07117,-1.4358 3.05394,-3.36162 5.94834,-5.77741c2.89441,-2.4158 4.77463,-4.14789 5.64067,-5.19625c0.88883,-1.07116 1.33325,-2.26767 1.33325,-3.58952c0,-1.32185 -0.45582,-2.37023 -1.36744,-3.14511c-0.88884,-0.77487 -1.96,-1.16232 -3.21348,-1.16232c-1.09395,0 -2.05115,0.29628 -2.87162,0.88884c-0.82047,0.56977 -1.42442,1.41302 -1.81186,2.52976c-0.36464,1.11674 -0.7293,1.9258 -1.09394,2.42719c-0.36464,0.4786 -0.94581,0.71791 -1.74348,0.71791c-0.66093,0 -1.21929,-0.21652 -1.67511,-0.64954c-0.45582,-0.43302 -0.68372,-1.01418 -0.68372,-1.74348c0,-2.02837 0.86605,-3.91998 2.59813,-5.67486c1.73208,-1.77767 4.18208,-2.6665 7.34996,-2.6665c3.41859,0 5.92556,0.83186 7.5209,2.49557c1.59534,1.66371 2.39301,3.6123 2.39301,5.84579c0,1.75488 -0.52418,3.42999 -1.57255,5.02533c-1.04836,1.57255 -2.70069,3.27045 -4.95695,5.0937c-2.23348,1.80045 -3.66929,3.00836 -4.30742,3.6237c-0.63814,0.61534 -1.37884,1.48139 -2.22208,2.59813h9.77716c1.4814,0 2.48416,0.21651 3.00835,0.64953c0.54698,0.41023 0.82047,0.98 0.82047,1.70929c0,0.77488 -0.23931,1.36743 -0.71791,1.77766c-0.4786,0.38744 -1.26488,0.58117 -2.35882,0.58117zM259.47774,168.59901v22.32339c0,2.68929 -0.90024,4.03393 -2.70069,4.03393c-0.61534,0 -1.2307,-0.20511 -1.84604,-0.61534c-0.59256,-0.41023 -0.88883,-1.46999 -0.88883,-3.17928v-17.57155c-3.41859,2.57534 -5.67486,3.863 -6.7688,3.863c-0.63814,0 -1.16232,-0.20511 -1.57255,-0.61534c-0.41023,-0.41023 -0.61535,-0.9572 -0.61535,-1.64092c0,-0.4786 0.14814,-0.87744 0.44442,-1.19651c0.31907,-0.34186 0.97999,-0.7521 1.98278,-1.2307c3.32743,-1.61813 5.66346,-3.48695 7.00811,-5.60648c0.54698,-0.84325 0.96861,-1.40163 1.26488,-1.67512c0.31907,-0.29628 0.75209,-0.44441 1.29906,-0.44441c1.59534,0 2.39302,1.18511 2.39302,3.55533z" stroke="#000000" stroke-width="5"/><path d="M237.88868,194.44354h-13.8111c-1.48139,0 -2.44999,-0.31907 -2.9058,-0.95721c-0.43302,-0.63814 -0.64953,-1.21929 -0.64953,-1.74348c0,-1.00279 0.52419,-2.22209 1.57255,-3.65789c1.07117,-1.4358 3.05394,-3.36162 5.94834,-5.77741c2.89441,-2.4158 4.77463,-4.14789 5.64067,-5.19625c0.88883,-1.07116 1.33325,-2.26767 1.33325,-3.58952c0,-1.32185 -0.45582,-2.37023 -1.36744,-3.14511c-0.88884,-0.77487 -1.96,-1.16232 -3.21348,-1.16232c-1.09395,0 -2.05115,0.29628 -2.87162,0.88884c-0.82047,0.56977 -1.42442,1.41302 -1.81186,2.52976c-0.36464,1.11674 -0.7293,1.9258 -1.09394,2.42719c-0.36464,0.4786 -0.94581,0.71791 -1.74348,0.71791c-0.66093,0 -1.21929,-0.21652 -1.67511,-0.64954c-0.45582,-0.43302 -0.68372,-1.01418 -0.68372,-1.74348c0,-2.02837 0.86605,-3.91998 2.59813,-5.67486c1.73208,-1.77767 4.18208,-2.6665 7.34996,-2.6665c3.41859,0 5.92556,0.83186 7.5209,2.49557c1.59534,1.66371 2.39301,3.6123 2.39301,5.84579c0,1.75488 -0.52418,3.42999 -1.57255,5.02533c-1.04836,1.57255 -2.70069,3.27045 -4.95695,5.0937c-2.23348,1.80045 -3.66929,3.00836 -4.30742,3.6237c-0.63814,0.61534 -1.37884,1.48139 -2.22208,2.59813h9.77716c1.4814,0 2.48416,0.21651 3.00835,0.64953c0.54698,0.41023 0.82047,0.98 0.82047,1.70929c0,0.77488 -0.23931,1.36743 -0.71791,1.77766c-0.4786,0.38744 -1.26488,0.58117 -2.35882,0.58117zM259.47774,168.59901v22.32339c0,2.68929 -0.90024,4.03393 -2.70069,4.03393c-0.61534,0 -1.2307,-0.20511 -1.84604,-0.61534c-0.59256,-0.41023 -0.88883,-1.46999 -0.88883,-3.17928v-17.57155c-3.41859,2.57534 -5.67486,3.863 -6.7688,3.863c-0.63814,0 -1.16232,-0.20511 -1.57255,-0.61534c-0.41023,-0.41023 -0.61535,-0.9572 -0.61535,-1.64092c0,-0.4786 0.14814,-0.87744 0.44442,-1.19651c0.31907,-0.34186 0.97999,-0.7521 1.98278,-1.2307c3.32743,-1.61813 5.66346,-3.48695 7.00811,-5.60648c0.54698,-0.84325 0.96861,-1.40163 1.26488,-1.67512c0.31907,-0.29628 0.75209,-0.44441 1.29906,-0.44441c1.59534,0 2.39302,1.18511 2.39302,3.55533z" stroke="none" stroke-width="1"/></g></g></svg>