<svg version="1.1" xmlns="http://www.w3.org/2000/svg" xmlns:xlink="http://www.w3.org/1999/xlink" width="50.95435" height="35.04479" viewBox="0,0,50.95435,35.04479"><g transform="translate(-214.52282,-162.47761)"><g data-paper-data="{&quot;isPaintingLayer&quot;:true}" fill="#ffffff" fill-rule="nonzero" stroke-linecap="square" stroke-linejoin="miter" stroke-miterlimit="10" stroke-dasharray="" stroke-dashoffset="0" style="mix-blend-mode: normal"><path d="M230.76628,188.33807h-8.62803c-1.54599,0 -2.59182,-0.06821 -3.13747,-0.20462c-0.54565,-0.15916 -1.01172,-0.53428 -1.39821,-1.12539c-0.38649,-0.61385 -0.57974,-1.21634 -0.57974,-1.80744c0,-0.43198 0.11367,-0.86393 0.34103,-1.29591c0.25008,-0.4547 0.75027,-1.18224 1.50053,-2.18259l10.53782,-14.0845c0.77301,-1.02309 1.37549,-1.71652 1.80747,-2.08027c0.4547,-0.38649 1.01172,-0.57974 1.67106,-0.57974c0.7048,0 1.30728,0.21599 1.80747,0.64797c0.50018,0.40923 0.79573,0.87531 0.88668,1.39823c0.11367,0.50018 0.17053,1.39823 0.17053,2.69415v14.15273h0.85259c1.65968,0 2.63729,0.28419 2.93285,0.85258c0.29557,0.56839 0.44335,1.03446 0.44335,1.39823c0,1.47779 -1.01172,2.2167 -3.03515,2.2167h-1.19359v2.55773c0,1.06855 -0.04547,1.84156 -0.13642,2.319c-0.09095,0.47744 -0.36377,0.89805 -0.81847,1.26182c-0.43198,0.36377 -0.94351,0.54565 -1.53462,0.54565c-0.56839,0 -1.07992,-0.1705 -1.53462,-0.51153c-0.4547,-0.34103 -0.72752,-0.75026 -0.81847,-1.22771c-0.09095,-0.50018 -0.13641,-1.29591 -0.13641,-2.38721zM222.20645,183.87059h8.55985v-11.595zM252.74629,165.18218c3.0238,0 5.47921,1.14813 7.36624,3.44441c1.90977,2.27354 2.86465,6.13853 2.86465,11.595c0,5.50193 -1.00034,9.3442 -3.00106,11.52679c-2.00071,2.18259 -4.37655,3.27388 -7.12751,3.27388c-2.86465,0 -5.29731,-1.14813 -7.29803,-3.44438c-1.97797,-2.319 -2.96695,-6.07033 -2.96695,-11.25397c0,-5.36552 0.87531,-9.23053 2.62594,-11.595c1.77335,-2.36446 4.2856,-3.54671 7.53676,-3.54671zM252.74629,190.964c1.63694,0 2.83055,-0.78435 3.58082,-2.35309c0.77301,-1.59148 1.1595,-4.51296 1.1595,-8.76445c0,-3.84227 -0.37512,-6.57051 -1.12539,-8.18471c-0.75026,-1.63694 -1.95523,-2.45541 -3.61491,-2.45541c-1.56874,0 -2.73961,0.78438 -3.51259,2.35311c-0.77301,1.56874 -1.1595,4.38792 -1.1595,8.45753c0,4.13781 0.38649,7.00246 1.1595,8.59394c0.77301,1.56874 1.94388,2.35311 3.51261,2.35311z" stroke="#000000" stroke-width="5"/><path d="M230.76627,188.33807h-8.62803c-1.54599,0 -2.59182,-0.06821 -3.13747,-0.20462c-0.54565,-0.15916 -1.01172,-0.53428 -1.39821,-1.12539c-0.38649,-0.61385 -0.57974,-1.21634 -0.57974,-1.80744c0,-0.43198 0.11367,-0.86393 0.34103,-1.29591c0.25008,-0.4547 0.75027,-1.18224 1.50053,-2.18259l10.53782,-14.0845c0.77301,-1.02309 1.37549,-1.71652 1.80747,-2.08027c0.4547,-0.38649 1.01172,-0.57974 1.67106,-0.57974c0.7048,0 1.30728,0.21599 1.80747,0.64797c0.50018,0.40923 0.79573,0.87531 0.88668,1.39823c0.11367,0.50018 0.17053,1.39823 0.17053,2.69415v14.15273h0.85259c1.65968,0 2.63729,0.28419 2.93285,0.85258c0.29557,0.56839 0.44335,1.03446 0.44335,1.39823c0,1.47779 -1.01172,2.2167 -3.03515,2.2167h-1.19359v2.55773c0,1.06855 -0.04547,1.84156 -0.13642,2.319c-0.09095,0.47744 -0.36377,0.89805 -0.81847,1.26182c-0.43198,0.36377 -0.94351,0.54565 -1.53462,0.54565c-0.56839,0 -1.07992,-0.1705 -1.53462,-0.51153c-0.4547,-0.34103 -0.72752,-0.75026 -0.81847,-1.22771c-0.09095,-0.50018 -0.13641,-1.29591 -0.13641,-2.38721zM222.20644,183.87059h8.55985v-11.595zM252.74629,165.18218c3.0238,0 5.47921,1.14813 7.36624,3.44441c1.90977,2.27354 2.86465,6.13853 2.86465,11.595c0,5.50193 -1.00034,9.3442 -3.00106,11.52679c-2.00071,2.18259 -4.37655,3.27388 -7.12751,3.27388c-2.86465,0 -5.29731,-1.14813 -7.29803,-3.44438c-1.97797,-2.319 -2.96695,-6.07033 -2.96695,-11.25397c0,-5.36552 0.87531,-9.23053 2.62594,-11.595c1.77335,-2.36446 4.2856,-3.54671 7.53676,-3.54671zM252.74629,190.964c1.63694,0 2.83055,-0.78435 3.58082,-2.35309c0.77301,-1.59148 1.1595,-4.51296 1.1595,-8.76445c0,-3.84227 -0.37512,-6.57051 -1.12539,-8.18471c-0.75026,-1.63694 -1.95523,-2.45541 -3.61491,-2.45541c-1.56874,0 -2.73961,0.78438 -3.51259,2.35311c-0.77301,1.56874 -1.1595,4.38792 -1.1595,8.45753c0,4.13781 0.38649,7.00246 1.1595,8.59394c0.77301,1.56874 1.94388,2.35311 3.51261,2.35311z" stroke="none" stroke-width="1"/></g></g></svg>