<svg version="1.1" xmlns="http://www.w3.org/2000/svg" xmlns:xlink="http://www.w3.org/1999/xlink" width="149.27197" height="8.78717" viewBox="0,0,149.27197,8.78717"><g transform="translate(-165.36402,-175.60641)"><g data-paper-data="{&quot;isPaintingLayer&quot;:true}" fill="#ffa3f7" fill-rule="nonzero" stroke="none" stroke-width="1" stroke-linecap="square" stroke-linejoin="miter" stroke-miterlimit="10" stroke-dasharray="" stroke-dashoffset="0" style="mix-blend-mode: normal"><path d="M170.50295,180.98071v-1.01994h-0.9258c-0.43936,0 -0.69565,-0.06277 -0.76887,-0.1883c-0.07323,-0.13076 -0.10984,-0.24321 -0.10984,-0.33736c0,-0.35044 0.22753,-0.52566 0.68258,-0.52566h1.46714c0.40275,0 0.65642,0.07062 0.76103,0.21184c0.10984,0.136 0.16476,0.37136 0.16476,0.70611v0.98071c0,0.37136 -0.04969,0.62766 -0.14907,0.76888c-0.09938,0.14122 -0.42366,0.33737 -0.97287,0.58843c-0.5492,0.25106 -1.15855,0.37659 -1.82805,0.37659c-1.09316,0 -1.94312,-0.31645 -2.54985,-0.94933c-0.60673,-0.63288 -0.9101,-1.47237 -0.9101,-2.51846c0,-1.0461 0.30337,-1.88558 0.9101,-2.51846c0.61196,-0.63288 1.47499,-0.94933 2.58908,-0.94933c0.59627,0 1.0984,0.09938 1.50637,0.29814c0.41321,0.19352 0.71396,0.44459 0.90225,0.75319c0.19352,0.30337 0.29029,0.55182 0.29029,0.74534c0,0.15691 -0.06538,0.29552 -0.19614,0.41582c-0.12553,0.1203 -0.27722,0.18045 -0.45505,0.18045c-0.15691,0 -0.27722,-0.03661 -0.36091,-0.10984c-0.08369,-0.07323 -0.19615,-0.21968 -0.33737,-0.43936c-0.32429,-0.51259 -0.81072,-0.76888 -1.45929,-0.76888c-0.63811,0 -1.1324,0.21706 -1.48283,0.65119c-0.35044,0.4289 -0.52566,0.99117 -0.52566,1.68682c0,0.7898 0.18045,1.39392 0.54135,1.81236c0.3609,0.41844 0.8578,0.62765 1.49068,0.62765c0.57012,0 1.14548,-0.15954 1.72606,-0.47859zM176.45499,180.30599h-2.44786c0.01046,0.46551 0.136,0.81595 0.3766,1.05132c0.24583,0.23537 0.53874,0.35306 0.87871,0.35306c0.41844,0 0.81072,-0.18306 1.17685,-0.54919c0.15168,-0.15168 0.26153,-0.24584 0.32952,-0.28245c0.07323,-0.03661 0.1543,-0.05492 0.24322,-0.05492c0.11507,0 0.21184,0.03661 0.29029,0.10984c0.07845,0.06799 0.11768,0.15429 0.11768,0.2589c0,0.27722 -0.19091,0.57273 -0.57273,0.88656c-0.38182,0.3086 -0.90225,0.4629 -1.56129,0.4629c-0.83687,0 -1.47237,-0.23537 -1.90651,-0.70611c-0.4289,-0.47597 -0.64334,-1.08794 -0.64334,-1.83589c0,-0.75842 0.21445,-1.37038 0.64334,-1.83589c0.43413,-0.47074 1.03564,-0.70611 1.80451,-0.70611c0.73749,0 1.305,0.22229 1.70252,0.66688c0.40275,0.44459 0.60411,0.92579 0.60411,1.44361c0,0.22491 -0.06799,0.40535 -0.20398,0.54135c-0.13076,0.13076 -0.40798,0.19615 -0.83165,0.19615zM174.00713,179.59987h2.27525c-0.01569,-0.41844 -0.13076,-0.73488 -0.34521,-0.94933c-0.21445,-0.21968 -0.47859,-0.32952 -0.79242,-0.32952c-0.65904,0 -1.03825,0.42628 -1.13763,1.27885zM178.74216,177.56784v-0.74534c0,-0.3086 0.01308,-0.51782 0.03923,-0.62766c0.02615,-0.11507 0.09414,-0.21445 0.20398,-0.29814c0.10984,-0.08892 0.23799,-0.13338 0.38444,-0.13338c0.13076,0 0.25107,0.03923 0.36091,0.11768c0.10984,0.07845 0.18044,0.17522 0.21183,0.29029c0.03661,0.11507 0.05492,0.29814 0.05492,0.5492v0.84733h0.24322c0.30337,0 0.50474,0.03923 0.60412,0.11768c0.09938,0.07323 0.14907,0.18045 0.14907,0.32167c0,0.3086 -0.25629,0.4629 -0.76888,0.4629h-0.22752v2.30664c0,0.31383 0.02092,0.52828 0.06276,0.64335c0.04708,0.10984 0.16476,0.16476 0.35306,0.16476c0.09415,0 0.19614,-0.01308 0.30598,-0.03923c0.11507,-0.02615 0.20137,-0.03923 0.2589,-0.03923c0.12553,0 0.22753,0.04184 0.30598,0.12553c0.07845,0.07845 0.11769,0.17522 0.11769,0.29029c0,0.41321 -0.43152,0.61981 -1.29454,0.61981c-0.41844,0 -0.72703,-0.07845 -0.92579,-0.23537c-0.19352,-0.15691 -0.31645,-0.34521 -0.36875,-0.56489c-0.04708,-0.22491 -0.07061,-0.5152 -0.07061,-0.87087v-2.40078h-0.16476c-0.36613,0 -0.54919,-0.14907 -0.54919,-0.4472c0,-0.30337 0.19352,-0.45505 0.58058,-0.45505zM185.90644,182.41648l-1.52991,-3.86792c-0.09415,-0.25106 -0.14122,-0.42366 -0.14122,-0.51782c0,-0.14645 0.05753,-0.27721 0.1726,-0.39228c0.1203,-0.1203 0.26152,-0.18045 0.42366,-0.18045c0.14122,0 0.26152,0.04445 0.3609,0.13338c0.09938,0.08892 0.19614,0.26675 0.29029,0.5335l1.05917,3.07551l0.99641,-2.84798c0.13076,-0.3766 0.23537,-0.61981 0.31382,-0.72965c0.07845,-0.10984 0.21184,-0.16476 0.40013,-0.16476c0.17261,0 0.30859,0.05754 0.40797,0.17261c0.09938,0.11507 0.14907,0.23275 0.14907,0.35305c0,0.14122 -0.04969,0.33998 -0.14907,0.59627l-1.6319,4.26806c-0.21445,0.56489 -0.43936,0.9624 -0.67473,1.19254c-0.23014,0.23537 -0.62504,0.35306 -1.1847,0.35306c-0.7218,0 -1.08271,-0.18568 -1.08271,-0.55704c0,-0.1203 0.03923,-0.2223 0.11769,-0.30598c0.08369,-0.08369 0.19352,-0.12553 0.32952,-0.12553c0.02092,0 0.09154,0.00523 0.21184,0.01569c0.1203,0.01046 0.19091,0.0157 0.21183,0.0157c0.23014,0 0.40013,-0.05754 0.50997,-0.17261c0.10984,-0.10984 0.21706,-0.30076 0.32167,-0.57274zM191.77023,177.458c0.7741,0 1.38345,0.2406 1.82805,0.7218c0.44459,0.47597 0.66689,1.08271 0.66689,1.8202c0,0.74273 -0.22491,1.35208 -0.67473,1.82805c-0.44982,0.47597 -1.04609,0.71396 -1.78882,0.71396c-0.80549,0 -1.42791,-0.2406 -1.86727,-0.7218c-0.43413,-0.48644 -0.6512,-1.09316 -0.6512,-1.8202c0,-0.74273 0.2223,-1.35208 0.66689,-1.82805c0.44459,-0.47597 1.05132,-0.71395 1.8202,-0.71395zM191.77023,181.60837c0.38182,0 0.68257,-0.14122 0.90225,-0.42366c0.21968,-0.28768 0.32952,-0.68257 0.32952,-1.1847c0,-0.50735 -0.10984,-0.90225 -0.32952,-1.1847c-0.21968,-0.28768 -0.52043,-0.43151 -0.90225,-0.43151c-0.37136,0 -0.6695,0.14383 -0.89441,0.43151c-0.21968,0.28768 -0.32952,0.68257 -0.32952,1.1847c0,0.50735 0.10984,0.90225 0.32952,1.1847c0.22491,0.28244 0.52304,0.42366 0.89441,0.42366zM195.2159,180.68258v-2.18894c0,-0.27199 0.01047,-0.46813 0.03139,-0.58843c0.02092,-0.1203 0.08369,-0.22491 0.1883,-0.31383c0.10984,-0.08892 0.2406,-0.13338 0.39228,-0.13338c0.14645,0 0.2746,0.04184 0.38444,0.12553c0.11507,0.08369 0.18568,0.19352 0.21183,0.32952c0.02615,0.13076 0.03923,0.33213 0.03923,0.60412v1.7182c0,0.56489 0.0863,0.92579 0.2589,1.08271c0.17783,0.15691 0.37137,0.23538 0.58059,0.23538c0.2406,0 0.44982,-0.06799 0.62766,-0.20399c0.18306,-0.136 0.30598,-0.29814 0.36874,-0.48644c0.06799,-0.19352 0.10199,-0.57011 0.10199,-1.12977v-1.23962c0,-0.26675 0.01308,-0.4629 0.03923,-0.58843c0.02615,-0.12553 0.09415,-0.23014 0.20399,-0.31383c0.10984,-0.08892 0.2406,-0.13338 0.39228,-0.13338c0.14122,0 0.26676,0.04184 0.3766,0.12553c0.11507,0.08369 0.18306,0.1883 0.20398,0.31383c0.02615,0.1203 0.03923,0.31906 0.03923,0.59627v3.08336c0,0.25106 -0.01308,0.43413 -0.03923,0.5492c-0.02615,0.10984 -0.0863,0.2066 -0.18045,0.29029c-0.09415,0.08369 -0.21445,0.12553 -0.3609,0.12553c-0.40275,0 -0.59627,-0.29029 -0.58058,-0.87087c-0.41844,0.58058 -0.97025,0.87087 -1.65544,0.87087c-0.44982,0 -0.83427,-0.13599 -1.15332,-0.40797c-0.31383,-0.27199 -0.47074,-0.75581 -0.47074,-1.45146zM200.89759,181.50638v-3.20104c0,-0.56489 0.2066,-0.84733 0.61981,-0.84733c0.39228,0 0.59366,0.26152 0.60412,0.78456c0.25629,-0.52304 0.61458,-0.78456 1.07486,-0.78456c0.2406,0 0.48905,0.06538 0.74534,0.19614c0.25629,0.12553 0.38444,0.29814 0.38444,0.51782c0,0.15168 -0.05231,0.27722 -0.15692,0.3766c-0.09938,0.09938 -0.20922,0.14906 -0.32951,0.14906c-0.06799,0 -0.19092,-0.02615 -0.36875,-0.07845c-0.17261,-0.05754 -0.31906,-0.0863 -0.43936,-0.0863c-0.29814,0 -0.52043,0.15168 -0.66688,0.45505c-0.14645,0.30337 -0.21968,0.88656 -0.21968,1.74959v0.7218c0,0.31905 -0.01308,0.53351 -0.03923,0.64335c-0.02615,0.10984 -0.09414,0.21183 -0.20398,0.30598c-0.10984,0.08892 -0.23538,0.13338 -0.3766,0.13338c-0.136,0 -0.25891,-0.03923 -0.36875,-0.11768c-0.10984,-0.08369 -0.18044,-0.18045 -0.21183,-0.29029c-0.03139,-0.11507 -0.04708,-0.32429 -0.04708,-0.62766zM205.72434,178.76038c0,0.16215 0.08369,0.29029 0.25106,0.38444c0.16737,0.08892 0.54135,0.20399 1.12193,0.34521c1.13501,0.27722 1.70252,0.74796 1.70252,1.41223c0,0.52828 -0.19092,0.93364 -0.57274,1.21608c-0.38182,0.28244 -0.91533,0.42367 -1.60052,0.42367c-0.69565,0 -1.22131,-0.14384 -1.57698,-0.43151c-0.35044,-0.28768 -0.52567,-0.59105 -0.52567,-0.9101c0,-0.136 0.04707,-0.25368 0.14122,-0.35306c0.09938,-0.09938 0.2223,-0.14906 0.36875,-0.14906c0.19352,0 0.36352,0.12291 0.50997,0.36874c0.16737,0.26675 0.34783,0.44458 0.54136,0.5335c0.19876,0.08369 0.41321,0.12554 0.64335,0.12554c0.24583,0 0.4472,-0.05492 0.60412,-0.16476c0.15691,-0.10984 0.23537,-0.25107 0.23537,-0.42367c0,-0.15691 -0.06538,-0.29029 -0.19615,-0.40013c-0.13076,-0.11507 -0.49428,-0.24059 -1.09055,-0.37659c-0.59105,-0.136 -1.02255,-0.3269 -1.29453,-0.57273c-0.27199,-0.24583 -0.40798,-0.53874 -0.40798,-0.87872c0,-0.38182 0.16476,-0.71919 0.49428,-1.01209c0.33475,-0.2929 0.83164,-0.43936 1.49068,-0.43936c0.60673,0 1.09056,0.12553 1.45146,0.37659c0.3609,0.24583 0.54135,0.50213 0.54135,0.76888c0,0.136 -0.04707,0.25368 -0.14122,0.35306c-0.08892,0.09415 -0.21445,0.14122 -0.3766,0.14122c-0.2406,0 -0.45767,-0.1386 -0.65119,-0.41582c-0.19352,-0.27722 -0.48644,-0.41582 -0.87872,-0.41582c-0.20922,0 -0.39228,0.04445 -0.54919,0.13338c-0.15691,0.08369 -0.23537,0.20398 -0.23537,0.3609zM213.33573,180.30599h-2.44786c0.01046,0.46551 0.13599,0.81595 0.37659,1.05132c0.24583,0.23537 0.53874,0.35306 0.87872,0.35306c0.41844,0 0.81072,-0.18306 1.17685,-0.54919c0.15168,-0.15168 0.26153,-0.24584 0.32952,-0.28245c0.07322,-0.03661 0.15429,-0.05492 0.24321,-0.05492c0.11507,0 0.21184,0.03661 0.29029,0.10984c0.07846,0.06799 0.11768,0.15429 0.11768,0.2589c0,0.27722 -0.19091,0.57273 -0.57274,0.88656c-0.38182,0.3086 -0.90225,0.4629 -1.56129,0.4629c-0.83688,0 -1.47237,-0.23537 -1.9065,-0.70611c-0.4289,-0.47597 -0.64335,-1.08794 -0.64335,-1.83589c0,-0.75842 0.21445,-1.37038 0.64335,-1.83589c0.43413,-0.47074 1.03563,-0.70611 1.80451,-0.70611c0.7375,0 1.305,0.22229 1.70252,0.66688c0.40274,0.44459 0.60412,0.92579 0.60412,1.44361c0,0.22491 -0.06799,0.40535 -0.20399,0.54135c-0.13076,0.13076 -0.40797,0.19615 -0.83164,0.19615zM210.88788,179.59987h2.27525c-0.01569,-0.41844 -0.13076,-0.73488 -0.34521,-0.94933c-0.21445,-0.21968 -0.47858,-0.32952 -0.79241,-0.32952c-0.65904,0 -1.03825,0.42628 -1.13763,1.27885zM216.66638,176.6342v4.87217c0,0.30337 -0.01307,0.50997 -0.03923,0.61981c-0.02616,0.10461 -0.09676,0.20137 -0.21183,0.29029c-0.10984,0.08369 -0.23014,0.12553 -0.3609,0.12553c-0.13599,0 -0.26153,-0.04184 -0.3766,-0.12553c-0.11507,-0.08369 -0.18829,-0.18307 -0.21968,-0.29814c-0.02616,-0.11507 -0.03923,-0.31906 -0.03923,-0.61196v-4.87217c0,-0.3086 0.01308,-0.5152 0.03923,-0.61981c0.03139,-0.10984 0.10199,-0.20399 0.21184,-0.28244c0.11507,-0.08369 0.23798,-0.12553 0.36874,-0.12553c0.15168,0 0.28244,0.04445 0.39228,0.13338c0.11507,0.08369 0.18307,0.18569 0.20399,0.30598c0.02092,0.11507 0.03138,0.31121 0.03138,0.58843zM218.14584,177.56784v-0.36091c0,-0.63811 0.13338,-1.06439 0.40013,-1.27884c0.26675,-0.21445 0.64596,-0.32167 1.13763,-0.32167c0.79503,0 1.19254,0.17783 1.19254,0.5335c0,0.10984 -0.03923,0.20922 -0.11768,0.29814c-0.07322,0.08369 -0.1726,0.12553 -0.29814,0.12553c-0.02616,0 -0.10723,-0.00785 -0.24322,-0.02354c-0.13076,-0.02092 -0.20922,-0.03139 -0.23537,-0.03139c-0.1726,0 -0.31382,0.04707 -0.42366,0.14122c-0.10984,0.08892 -0.16476,0.29814 -0.16476,0.62766v0.29029h0.31383c0.47074,0 0.70612,0.14645 0.70612,0.43936c0,0.14645 -0.04446,0.26153 -0.13338,0.34521c-0.08892,0.07845 -0.27983,0.11768 -0.57274,0.11768h-0.31383v3.03628c0,0.23537 -0.01047,0.41321 -0.03139,0.53351c-0.01569,0.1203 -0.07061,0.23537 -0.16476,0.34521c-0.08892,0.10461 -0.23014,0.15691 -0.42367,0.15691c-0.19876,0 -0.35305,-0.06538 -0.4629,-0.19615c-0.10984,-0.13076 -0.16476,-0.41059 -0.16476,-0.83948v-3.03628h-0.34521c-0.3766,0 -0.56489,-0.15429 -0.56489,-0.4629c0,-0.2929 0.2066,-0.43936 0.61981,-0.43936zM228.38968,180.30599h-2.44786c0.01046,0.46551 0.13599,0.81595 0.37659,1.05132c0.24583,0.23537 0.53874,0.35306 0.87872,0.35306c0.41844,0 0.81072,-0.18306 1.17685,-0.54919c0.15168,-0.15168 0.26153,-0.24584 0.32952,-0.28245c0.07322,-0.03661 0.15429,-0.05492 0.24321,-0.05492c0.11507,0 0.21184,0.03661 0.2903,0.10984c0.07846,0.06799 0.11768,0.15429 0.11768,0.2589c0,0.27722 -0.19091,0.57273 -0.57273,0.88656c-0.38182,0.3086 -0.90226,0.4629 -1.5613,0.4629c-0.83688,0 -1.47237,-0.23537 -1.9065,-0.70611c-0.4289,-0.47597 -0.64335,-1.08794 -0.64335,-1.83589c0,-0.75842 0.21445,-1.37038 0.64335,-1.83589c0.43413,-0.47074 1.03563,-0.70611 1.80451,-0.70611c0.7375,0 1.305,0.22229 1.70252,0.66688c0.40274,0.44459 0.60412,0.92579 0.60412,1.44361c0,0.22491 -0.06799,0.40535 -0.20399,0.54135c-0.13076,0.13076 -0.40797,0.19615 -0.83164,0.19615zM225.94182,179.59987h2.27525c-0.01569,-0.41844 -0.13076,-0.73488 -0.34521,-0.94933c-0.21445,-0.21968 -0.47859,-0.32952 -0.79242,-0.32952c-0.65904,0 -1.03825,0.42628 -1.13763,1.27885zM231.10836,175.66134c0.16215,0 0.30075,0.06015 0.41582,0.18045c0.1203,0.1203 0.18045,0.26153 0.18045,0.42367c0,0.16737 -0.06015,0.31121 -0.18045,0.43151c-0.11507,0.1203 -0.25367,0.18045 -0.41582,0.18045c-0.16737,0 -0.31122,-0.06015 -0.43151,-0.18045c-0.1203,-0.1203 -0.18045,-0.26414 -0.18045,-0.43151c0,-0.16215 0.06015,-0.30337 0.18045,-0.42367c0.1203,-0.1203 0.26414,-0.18045 0.43151,-0.18045zM230.4964,182.40863v-3.915c0,-0.3086 0.01047,-0.5152 0.03139,-0.61981c0.02616,-0.10984 0.09153,-0.2066 0.19614,-0.29029c0.10984,-0.08369 0.23799,-0.12553 0.38444,-0.12553c0.13076,0 0.25106,0.03923 0.3609,0.11768c0.11507,0.07845 0.18568,0.17522 0.21183,0.29029c0.02616,0.10984 0.03923,0.31905 0.03923,0.62766v3.915c0,0.46028 -0.02354,0.81072 -0.07062,1.05132c-0.04708,0.2406 -0.17521,0.45505 -0.38443,0.64335c-0.20922,0.19352 -0.53351,0.29029 -0.97287,0.29029c-0.76365,0 -1.14547,-0.20399 -1.14547,-0.61196c0,-0.14122 0.04446,-0.26153 0.13338,-0.36091c0.08369,-0.09938 0.19615,-0.14906 0.33737,-0.14906l0.45505,0.03922c0.14645,0 0.25368,-0.05754 0.32167,-0.17261c0.06799,-0.11507 0.10199,-0.35828 0.10199,-0.72965zM236.49498,180.30599h-2.44786c0.01046,0.46551 0.136,0.81595 0.3766,1.05132c0.24583,0.23537 0.53873,0.35306 0.87871,0.35306c0.41844,0 0.81072,-0.18306 1.17685,-0.54919c0.15168,-0.15168 0.26153,-0.24584 0.32952,-0.28245c0.07322,-0.03661 0.15429,-0.05492 0.24321,-0.05492c0.11507,0 0.21184,0.03661 0.29029,0.10984c0.07846,0.06799 0.11768,0.15429 0.11768,0.2589c0,0.27722 -0.19091,0.57273 -0.57273,0.88656c-0.38182,0.3086 -0.90225,0.4629 -1.56129,0.4629c-0.83688,0 -1.47237,-0.23537 -1.9065,-0.70611c-0.4289,-0.47597 -0.64335,-1.08794 -0.64335,-1.83589c0,-0.75842 0.21445,-1.37038 0.64335,-1.83589c0.43413,-0.47074 1.03564,-0.70611 1.80451,-0.70611c0.7375,0 1.305,0.22229 1.70252,0.66688c0.40274,0.44459 0.60411,0.92579 0.60411,1.44361c0,0.22491 -0.06799,0.40535 -0.20398,0.54135c-0.13076,0.13076 -0.40798,0.19615 -0.83164,0.19615zM234.04712,179.59987h2.27525c-0.01569,-0.41844 -0.13076,-0.73488 -0.34521,-0.94933c-0.21445,-0.21968 -0.47859,-0.32952 -0.79242,-0.32952c-0.65904,0 -1.03825,0.42628 -1.13763,1.27885zM242.52454,180.44721c0.15168,0 0.27722,0.06015 0.3766,0.18045c0.10461,0.1203 0.15691,0.24322 0.15691,0.36875c0,0.33475 -0.20399,0.67735 -0.61196,1.02778c-0.40274,0.34521 -0.9441,0.51781 -1.62406,0.51781c-0.82118,0 -1.44099,-0.23275 -1.85942,-0.69826c-0.41844,-0.46551 -0.62766,-1.06963 -0.62766,-1.81235c0,-0.75319 0.21706,-1.37038 0.65119,-1.85158c0.43413,-0.4812 1.05133,-0.7218 1.85159,-0.7218c0.62243,0 1.13763,0.16475 1.5456,0.49427c0.40798,0.32429 0.61196,0.64335 0.61196,0.95718c0,0.15168 -0.05492,0.27983 -0.16476,0.38444c-0.10984,0.09938 -0.2406,0.14907 -0.39229,0.14907c-0.18306,0 -0.32691,-0.07584 -0.43151,-0.22753c-0.22491,-0.35044 -0.42628,-0.57011 -0.60412,-0.65903c-0.17784,-0.09415 -0.36874,-0.14123 -0.57273,-0.14123c-0.39751,0 -0.70612,0.1543 -0.92579,0.4629c-0.21445,0.30337 -0.32167,0.68257 -0.32167,1.13762c0,0.47074 0.11246,0.85518 0.33737,1.15331c0.23014,0.2929 0.5335,0.43936 0.9101,0.43936c0.21445,0 0.41321,-0.04969 0.59627,-0.14907c0.18306,-0.10461 0.33998,-0.2589 0.47074,-0.46289c0.13599,-0.20922 0.24322,-0.35306 0.32168,-0.43152c0.07846,-0.07845 0.18045,-0.11768 0.30598,-0.11768zM244.34882,177.56784v-0.74534c0,-0.3086 0.01307,-0.51782 0.03923,-0.62766c0.02616,-0.11507 0.09415,-0.21445 0.20399,-0.29814c0.10984,-0.08892 0.23799,-0.13338 0.38444,-0.13338c0.13076,0 0.25106,0.03923 0.36091,0.11768c0.10984,0.07845 0.18044,0.17522 0.21183,0.29029c0.03661,0.11507 0.05492,0.29814 0.05492,0.5492v0.84733h0.24321c0.30336,0 0.50474,0.03923 0.60412,0.11768c0.09938,0.07323 0.14907,0.18045 0.14907,0.32167c0,0.3086 -0.25629,0.4629 -0.76888,0.4629h-0.22753v2.30664c0,0.31383 0.02092,0.52828 0.06277,0.64335c0.04708,0.10984 0.16476,0.16476 0.35306,0.16476c0.09415,0 0.19614,-0.01308 0.30598,-0.03923c0.11507,-0.02615 0.20137,-0.03923 0.25891,-0.03923c0.12553,0 0.22753,0.04184 0.30599,0.12553c0.07846,0.07845 0.11768,0.17522 0.11768,0.29029c0,0.41321 -0.43152,0.61981 -1.29454,0.61981c-0.41844,0 -0.72703,-0.07845 -0.92579,-0.23537c-0.19353,-0.15691 -0.31645,-0.34521 -0.36875,-0.56489c-0.04708,-0.22491 -0.07061,-0.5152 -0.07061,-0.87087v-2.40078h-0.16476c-0.36613,0 -0.54919,-0.14907 -0.54919,-0.4472c0,-0.30337 0.19353,-0.45505 0.58058,-0.45505zM250.94456,180.30599h-2.44785c0.01046,0.46551 0.13599,0.81595 0.37659,1.05132c0.24583,0.23537 0.53873,0.35306 0.87872,0.35306c0.41844,0 0.81073,-0.18306 1.17686,-0.54919c0.15168,-0.15168 0.26152,-0.24584 0.32951,-0.28245c0.07322,-0.03661 0.1543,-0.05492 0.24322,-0.05492c0.11507,0 0.21183,0.03661 0.29029,0.10984c0.07845,0.06799 0.11768,0.15429 0.11768,0.2589c0,0.27722 -0.19091,0.57273 -0.57273,0.88656c-0.38183,0.3086 -0.90225,0.4629 -1.5613,0.4629c-0.83688,0 -1.47237,-0.23537 -1.9065,-0.70611c-0.4289,-0.47597 -0.64335,-1.08794 -0.64335,-1.83589c0,-0.75842 0.21445,-1.37038 0.64335,-1.83589c0.43413,-0.47074 1.03564,-0.70611 1.80451,-0.70611c0.73749,0 1.30499,0.22229 1.70251,0.66688c0.40274,0.44459 0.60412,0.92579 0.60412,1.44361c0,0.22491 -0.068,0.40535 -0.20399,0.54135c-0.13076,0.13076 -0.40797,0.19615 -0.83164,0.19615zM248.49671,179.59987h2.27525c-0.01569,-0.41844 -0.13076,-0.73488 -0.34521,-0.94933c-0.21445,-0.21968 -0.47858,-0.32952 -0.79242,-0.32952c-0.65904,0 -1.03824,0.42628 -1.13762,1.27885zM256.44062,181.82805v-0.12553c-0.4289,0.55966 -0.97286,0.83949 -1.6319,0.83949c-0.63811,0 -1.14547,-0.24321 -1.52206,-0.72965c-0.37659,-0.48644 -0.56489,-1.11409 -0.56489,-1.88296c0,-0.7218 0.18307,-1.31285 0.5492,-1.77313c0.37136,-0.46551 0.88133,-0.69826 1.5299,-0.69826c0.63288,0 1.17947,0.25629 1.63975,0.76888v-1.62405c0,-0.44459 0.05492,-0.72181 0.16476,-0.83165c0.11507,-0.10984 0.26937,-0.16476 0.4629,-0.16476c0.13599,0 0.25891,0.03923 0.36875,0.11768c0.11507,0.07323 0.18567,0.17261 0.21183,0.29814c0.02616,0.12553 0.03923,0.33213 0.03923,0.61981v4.91925c0,0.27722 -0.01569,0.47597 -0.04707,0.59627c-0.02616,0.1203 -0.09676,0.21445 -0.21183,0.28244c-0.11507,0.06799 -0.23799,0.10199 -0.36875,0.10199c-0.4132,0 -0.61981,-0.23799 -0.61981,-0.71396zM253.98492,179.96862c0,0.55966 0.11769,0.97025 0.35306,1.23177c0.23537,0.25629 0.50474,0.38444 0.80811,0.38444c0.35567,0 0.64858,-0.13338 0.87872,-0.40013c0.23014,-0.27199 0.34521,-0.64857 0.34521,-1.12978c0,-0.50213 -0.11245,-0.90225 -0.33736,-1.20039c-0.22491,-0.29814 -0.52304,-0.44721 -0.89441,-0.44721c-0.33998,0 -0.61719,0.13861 -0.83164,0.41583c-0.21445,0.27722 -0.32168,0.65903 -0.32168,1.14547zM259.71423,181.16117c0.18306,0 0.34259,0.06799 0.47858,0.20398c0.13599,0.13076 0.20399,0.29029 0.20399,0.47859c0,0.1883 -0.06799,0.35305 -0.20399,0.49427c-0.13599,0.136 -0.29552,0.20399 -0.47858,0.20399c-0.19353,0 -0.35829,-0.06799 -0.49428,-0.20399c-0.13599,-0.136 -0.20398,-0.30075 -0.20398,-0.49427c0,-0.1883 0.06799,-0.34783 0.20398,-0.47859c0.13599,-0.136 0.30075,-0.20398 0.49428,-0.20398zM266.00785,176.76758v1.71036h2.01635c0.2406,0 0.40536,0.01307 0.49428,0.03923c0.09415,0.02615 0.17522,0.0863 0.24321,0.18045c0.07322,0.08892 0.10984,0.1883 0.10984,0.29814c0,0.14122 -0.05231,0.26675 -0.15692,0.37659c-0.10461,0.10461 -0.33475,0.15691 -0.69042,0.15691h-2.01635v1.88297c0,0.27722 -0.01046,0.4812 -0.03138,0.61196c-0.02092,0.13076 -0.08107,0.25106 -0.18045,0.3609c-0.09938,0.10461 -0.2563,0.15691 -0.47074,0.15691c-0.20399,0 -0.35567,-0.0523 -0.45505,-0.15691c-0.09938,-0.10984 -0.15953,-0.23275 -0.18045,-0.36874c-0.02092,-0.14122 -0.03138,-0.34259 -0.03138,-0.60412v-4.55835c0,-0.48644 0.034,-0.76365 0.10199,-0.83165c0.07322,-0.07323 0.15169,-0.14122 0.23537,-0.20398c0.08369,-0.06799 0.34783,-0.102 0.79242,-0.102h2.66753c0.2406,0 0.40797,0.01047 0.50212,0.03139c0.09415,0.01569 0.18045,0.07061 0.25891,0.16476c0.07845,0.08892 0.11768,0.19876 0.11768,0.32952c0,0.12553 -0.03923,0.23537 -0.11768,0.32952c-0.07322,0.09415 -0.15953,0.15168 -0.25891,0.1726c-0.09415,0.01569 -0.26153,0.02354 -0.50212,0.02354zM273.17434,181.83589c-0.59105,0.47074 -1.17163,0.70611 -1.74175,0.70611c-0.53873,0 -0.95456,-0.13599 -1.24746,-0.40797c-0.28768,-0.27722 -0.43151,-0.61458 -0.43151,-1.01209c0,-0.33998 0.09677,-0.61458 0.29029,-0.8238c0.19876,-0.20922 0.41321,-0.35306 0.64335,-0.43151c0.23537,-0.08369 0.61458,-0.18045 1.13762,-0.29029c0.52305,-0.10984 0.9441,-0.20922 1.26315,-0.29814c-0.00523,-0.3766 -0.08107,-0.63027 -0.22753,-0.76103c-0.14645,-0.136 -0.36875,-0.20399 -0.66688,-0.20399c-0.56489,0 -0.93625,0.15953 -1.11408,0.47859c-0.09415,0.17783 -0.18046,0.30599 -0.25891,0.38444c-0.07322,0.07323 -0.18307,0.10984 -0.32952,0.10984c-0.13076,0 -0.25106,-0.04184 -0.3609,-0.12553c-0.10461,-0.08892 -0.15692,-0.20137 -0.15692,-0.33737c0,-0.32429 0.17523,-0.63289 0.52567,-0.92579c0.35044,-0.2929 0.90226,-0.43936 1.65544,-0.43936c0.76365,0 1.32069,0.13338 1.67113,0.40013c0.35567,0.26153 0.52304,0.79503 0.50212,1.60052l-0.02354,1.169c-0.01046,0.3609 0.02616,0.65642 0.10984,0.88656c0.08892,0.23014 0.13338,0.40536 0.13338,0.52566c0,0.13076 -0.06016,0.24844 -0.18045,0.35305c-0.11507,0.09938 -0.24322,0.14907 -0.38444,0.14907c-0.25629,0 -0.52566,-0.23537 -0.8081,-0.70611zM273.09588,180.03139c-0.1883,0.06799 -0.49689,0.14645 -0.92579,0.23537c-0.42367,0.08369 -0.72704,0.18045 -0.9101,0.29029c-0.17783,0.10984 -0.26675,0.26937 -0.26675,0.47859c0,0.18306 0.07061,0.34259 0.21183,0.47859c0.14645,0.136 0.34783,0.20399 0.60412,0.20399c0.27721,0 0.5335,-0.07584 0.76887,-0.22753c0.23537,-0.15168 0.37921,-0.32951 0.43151,-0.5335c0.05753,-0.20922 0.0863,-0.51782 0.0863,-0.92579zM277.59554,180.15692l-0.68258,0.6355v0.61196c0,0.30337 -0.01046,0.52043 -0.03139,0.65119c-0.02092,0.13076 -0.08891,0.24583 -0.20398,0.34521c-0.10984,0.09415 -0.2406,0.14122 -0.39229,0.14122c-0.13599,0 -0.26153,-0.04184 -0.37659,-0.12553c-0.11507,-0.08369 -0.18567,-0.18307 -0.21183,-0.29814c-0.02092,-0.1203 -0.03139,-0.33736 -0.03139,-0.65119v-4.77802c0,-0.44982 0.05492,-0.74272 0.16476,-0.87871c0.11507,-0.136 0.27721,-0.20399 0.48643,-0.20399c0.15692,0 0.28244,0.04445 0.37659,0.13338c0.09938,0.08892 0.15953,0.19615 0.18045,0.32167c0.02616,0.1203 0.03923,0.31906 0.03923,0.59627v2.75384l1.41223,-1.46714c0.21445,-0.22491 0.36091,-0.3609 0.43936,-0.40798c0.08369,-0.0523 0.17783,-0.07845 0.28244,-0.07845c0.16215,0 0.29552,0.0523 0.40013,0.15691c0.10461,0.10461 0.15691,0.21706 0.15691,0.33736c0,0.1883 -0.17261,0.44198 -0.51782,0.76104l-0.65904,0.61196l1.271,2.0085c0.18307,0.2929 0.2746,0.50474 0.2746,0.6355c0,0.14122 -0.05231,0.27199 -0.15692,0.39229c-0.10461,0.1203 -0.24845,0.18045 -0.43151,0.18045c-0.15169,0 -0.27459,-0.04445 -0.36874,-0.13338c-0.09415,-0.09415 -0.20399,-0.2406 -0.32952,-0.43936zM284.08356,180.30599h-2.44786c0.01046,0.46551 0.13599,0.81595 0.37659,1.05132c0.24583,0.23537 0.53874,0.35306 0.87872,0.35306c0.41844,0 0.81072,-0.18306 1.17685,-0.54919c0.15169,-0.15168 0.26153,-0.24584 0.32952,-0.28245c0.07322,-0.03661 0.1543,-0.05492 0.24322,-0.05492c0.11507,0 0.21183,0.03661 0.29029,0.10984c0.07846,0.06799 0.11769,0.15429 0.11769,0.2589c0,0.27722 -0.19092,0.57273 -0.57274,0.88656c-0.38183,0.3086 -0.90225,0.4629 -1.56129,0.4629c-0.83687,0 -1.47237,-0.23537 -1.9065,-0.70611c-0.4289,-0.47597 -0.64335,-1.08794 -0.64335,-1.83589c0,-0.75842 0.21446,-1.37038 0.64335,-1.83589c0.43413,-0.47074 1.03563,-0.70611 1.8045,-0.70611c0.7375,0 1.305,0.22229 1.70252,0.66688c0.40274,0.44459 0.60412,0.92579 0.60412,1.44361c0,0.22491 -0.06799,0.40535 -0.20399,0.54135c-0.13076,0.13076 -0.40797,0.19615 -0.83164,0.19615zM281.6357,179.59987h2.27525c-0.01569,-0.41844 -0.13076,-0.73488 -0.34521,-0.94933c-0.21445,-0.21968 -0.47858,-0.32952 -0.79242,-0.32952c-0.65904,0 -1.03824,0.42628 -1.13762,1.27885zM289.15178,177.56784v-0.74534c0,-0.3086 0.01307,-0.51782 0.03923,-0.62766c0.02616,-0.11507 0.09415,-0.21445 0.20398,-0.29814c0.10984,-0.08892 0.23799,-0.13338 0.38444,-0.13338c0.13076,0 0.25106,0.03923 0.3609,0.11768c0.10984,0.07845 0.18045,0.17522 0.21183,0.29029c0.03661,0.11507 0.05492,0.29814 0.05492,0.5492v0.84733h0.24321c0.30336,0 0.50474,0.03923 0.60412,0.11768c0.09938,0.07323 0.14907,0.18045 0.14907,0.32167c0,0.3086 -0.2563,0.4629 -0.76888,0.4629h-0.22753v2.30664c0,0.31383 0.02092,0.52828 0.06277,0.64335c0.04707,0.10984 0.16476,0.16476 0.35305,0.16476c0.09415,0 0.19615,-0.01308 0.30599,-0.03923c0.11507,-0.02615 0.20137,-0.03923 0.2589,-0.03923c0.12553,0 0.22753,0.04184 0.30599,0.12553c0.07845,0.07845 0.11768,0.17522 0.11768,0.29029c0,0.41321 -0.43151,0.61981 -1.29454,0.61981c-0.41844,0 -0.72703,-0.07845 -0.92579,-0.23537c-0.19353,-0.15691 -0.31645,-0.34521 -0.36875,-0.56489c-0.04708,-0.22491 -0.07061,-0.5152 -0.07061,-0.87087v-2.40078h-0.16476c-0.36613,0 -0.5492,-0.14907 -0.5492,-0.4472c0,-0.30337 0.19353,-0.45505 0.58059,-0.45505zM295.41797,181.83589c-0.59105,0.47074 -1.17162,0.70611 -1.74174,0.70611c-0.53873,0 -0.95456,-0.13599 -1.24747,-0.40797c-0.28767,-0.27722 -0.43151,-0.61458 -0.43151,-1.01209c0,-0.33998 0.09677,-0.61458 0.29029,-0.8238c0.19876,-0.20922 0.41321,-0.35306 0.64335,-0.43151c0.23537,-0.08369 0.61458,-0.18045 1.13763,-0.29029c0.52305,-0.10984 0.9441,-0.20922 1.26315,-0.29814c-0.00523,-0.3766 -0.08108,-0.63027 -0.22753,-0.76103c-0.14645,-0.136 -0.36875,-0.20399 -0.66688,-0.20399c-0.56489,0 -0.93625,0.15953 -1.11409,0.47859c-0.09415,0.17783 -0.18045,0.30599 -0.25891,0.38444c-0.07322,0.07323 -0.18307,0.10984 -0.32952,0.10984c-0.13076,0 -0.25106,-0.04184 -0.3609,-0.12553c-0.10461,-0.08892 -0.15691,-0.20137 -0.15691,-0.33737c0,-0.32429 0.17522,-0.63289 0.52566,-0.92579c0.35044,-0.2929 0.90225,-0.43936 1.65544,-0.43936c0.76365,0 1.3207,0.13338 1.67113,0.40013c0.35567,0.26153 0.52305,0.79503 0.50212,1.60052l-0.02354,1.169c-0.01046,0.3609 0.02615,0.65642 0.10984,0.88656c0.08892,0.23014 0.13338,0.40536 0.13338,0.52566c0,0.13076 -0.06015,0.24844 -0.18045,0.35305c-0.11507,0.09938 -0.24321,0.14907 -0.38443,0.14907c-0.25629,0 -0.52567,-0.23537 -0.80811,-0.70611zM295.33951,180.03139c-0.18829,0.06799 -0.49689,0.14645 -0.92579,0.23537c-0.42367,0.08369 -0.72704,0.18045 -0.9101,0.29029c-0.17784,0.10984 -0.26675,0.26937 -0.26675,0.47859c0,0.18306 0.07061,0.34259 0.21183,0.47859c0.14645,0.136 0.34783,0.20399 0.60411,0.20399c0.27722,0 0.53351,-0.07584 0.76888,-0.22753c0.23537,-0.15168 0.37921,-0.32951 0.43152,-0.5335c0.05753,-0.20922 0.0863,-0.51782 0.0863,-0.92579zM298.78003,178.76038c0,0.16215 0.08369,0.29029 0.25106,0.38444c0.16737,0.08892 0.54135,0.20399 1.12194,0.34521c1.13501,0.27722 1.70251,0.74796 1.70251,1.41223c0,0.52828 -0.19091,0.93364 -0.57273,1.21608c-0.38183,0.28244 -0.91533,0.42367 -1.60052,0.42367c-0.69565,0 -1.22132,-0.14384 -1.57698,-0.43151c-0.35044,-0.28768 -0.52566,-0.59105 -0.52566,-0.9101c0,-0.136 0.04707,-0.25368 0.14122,-0.35306c0.09938,-0.09938 0.2223,-0.14906 0.36875,-0.14906c0.19353,0 0.36352,0.12291 0.50997,0.36874c0.16737,0.26675 0.34782,0.44458 0.54135,0.5335c0.19876,0.08369 0.4132,0.12554 0.64334,0.12554c0.24583,0 0.44721,-0.05492 0.60412,-0.16476c0.15692,-0.10984 0.23537,-0.25107 0.23537,-0.42367c0,-0.15691 -0.06538,-0.29029 -0.19614,-0.40013c-0.13076,-0.11507 -0.49428,-0.24059 -1.09055,-0.37659c-0.59105,-0.136 -1.02256,-0.3269 -1.29454,-0.57273c-0.27198,-0.24583 -0.40797,-0.53874 -0.40797,-0.87872c0,-0.38182 0.16475,-0.71919 0.49427,-1.01209c0.33475,-0.2929 0.83165,-0.43936 1.49069,-0.43936c0.60673,0 1.09055,0.12553 1.45145,0.37659c0.3609,0.24583 0.54136,0.50213 0.54136,0.76888c0,0.136 -0.04708,0.25368 -0.14123,0.35306c-0.08892,0.09415 -0.21445,0.14122 -0.37659,0.14122c-0.2406,0 -0.45767,-0.1386 -0.65119,-0.41582c-0.19353,-0.27722 -0.48643,-0.41582 -0.87871,-0.41582c-0.20922,0 -0.39229,0.04445 -0.5492,0.13338c-0.15692,0.08369 -0.23537,0.20398 -0.23537,0.3609zM304.91643,180.15692l-0.68257,0.6355v0.61196c0,0.30337 -0.01047,0.52043 -0.03139,0.65119c-0.02092,0.13076 -0.08892,0.24583 -0.20398,0.34521c-0.10984,0.09415 -0.2406,0.14122 -0.39229,0.14122c-0.13599,0 -0.26153,-0.04184 -0.3766,-0.12553c-0.11507,-0.08369 -0.18567,-0.18307 -0.21183,-0.29814c-0.02092,-0.1203 -0.03139,-0.33736 -0.03139,-0.65119v-4.77802c0,-0.44982 0.05492,-0.74272 0.16476,-0.87871c0.11507,-0.136 0.27721,-0.20399 0.48643,-0.20399c0.15692,0 0.28244,0.04445 0.37659,0.13338c0.09938,0.08892 0.15953,0.19615 0.18045,0.32167c0.02616,0.1203 0.03923,0.31906 0.03923,0.59627v2.75384l1.41222,-1.46714c0.21445,-0.22491 0.3609,-0.3609 0.43936,-0.40798c0.08368,-0.0523 0.17783,-0.07845 0.28244,-0.07845c0.16215,0 0.29552,0.0523 0.40013,0.15691c0.10461,0.10461 0.15692,0.21706 0.15692,0.33736c0,0.1883 -0.1726,0.44198 -0.51782,0.76104l-0.65904,0.61196l1.271,2.0085c0.18306,0.2929 0.2746,0.50474 0.2746,0.6355c0,0.14122 -0.05231,0.27199 -0.15692,0.39229c-0.10461,0.1203 -0.24845,0.18045 -0.43151,0.18045c-0.15168,0 -0.27459,-0.04445 -0.36874,-0.13338c-0.09415,-0.09415 -0.20399,-0.2406 -0.32952,-0.43936zM308.99386,178.76038c0,0.16215 0.08368,0.29029 0.25106,0.38444c0.16737,0.08892 0.54136,0.20399 1.12194,0.34521c1.13501,0.27722 1.70252,0.74796 1.70252,1.41223c0,0.52828 -0.19092,0.93364 -0.57274,1.21608c-0.38182,0.28244 -0.91533,0.42367 -1.60052,0.42367c-0.69565,0 -1.22131,-0.14384 -1.57698,-0.43151c-0.35044,-0.28768 -0.52566,-0.59105 -0.52566,-0.9101c0,-0.136 0.04707,-0.25368 0.14122,-0.35306c0.09938,-0.09938 0.22229,-0.14906 0.36874,-0.14906c0.19353,0 0.36352,0.12291 0.50997,0.36874c0.16737,0.26675 0.34783,0.44458 0.54136,0.5335c0.19876,0.08369 0.4132,0.12554 0.64334,0.12554c0.24583,0 0.4472,-0.05492 0.60412,-0.16476c0.15692,-0.10984 0.23537,-0.25107 0.23537,-0.42367c0,-0.15691 -0.06538,-0.29029 -0.19615,-0.40013c-0.13076,-0.11507 -0.49428,-0.24059 -1.09055,-0.37659c-0.59105,-0.136 -1.02255,-0.3269 -1.29453,-0.57273c-0.27198,-0.24583 -0.40798,-0.53874 -0.40798,-0.87872c0,-0.38182 0.16476,-0.71919 0.49428,-1.01209c0.33475,-0.2929 0.83164,-0.43936 1.49068,-0.43936c0.60674,0 1.09055,0.12553 1.45146,0.37659c0.3609,0.24583 0.54135,0.50213 0.54135,0.76888c0,0.136 -0.04707,0.25368 -0.14122,0.35306c-0.08892,0.09415 -0.21445,0.14122 -0.37659,0.14122c-0.2406,0 -0.45767,-0.1386 -0.65119,-0.41582c-0.19353,-0.27722 -0.48644,-0.41582 -0.87872,-0.41582c-0.20922,0 -0.39228,0.04445 -0.54919,0.13338c-0.15692,0.08369 -0.23537,0.20398 -0.23537,0.3609zM313.95341,177.458c0.18306,0 0.34259,0.06799 0.47858,0.20398c0.13599,0.136 0.20398,0.29552 0.20398,0.47859c0,0.19352 -0.06799,0.35828 -0.20398,0.49428c-0.13599,0.136 -0.29552,0.20399 -0.47858,0.20399c-0.19353,0 -0.35829,-0.06799 -0.49428,-0.20399c-0.13599,-0.136 -0.20399,-0.30075 -0.20399,-0.49428c0,-0.18306 0.068,-0.34259 0.20399,-0.47859c0.13599,-0.136 0.30075,-0.20398 0.49428,-0.20398zM313.95341,181.16117c0.18306,0 0.34259,0.06799 0.47858,0.20398c0.13599,0.13076 0.20398,0.29029 0.20398,0.47859c0,0.1883 -0.06799,0.35305 -0.20398,0.49427c-0.13599,0.136 -0.29552,0.20399 -0.47858,0.20399c-0.19353,0 -0.35829,-0.06799 -0.49428,-0.20399c-0.13599,-0.136 -0.20399,-0.30075 -0.20399,-0.49427c0,-0.1883 0.068,-0.34783 0.20399,-0.47859c0.13599,-0.136 0.30075,-0.20398 0.49428,-0.20398z"/></g></g></svg>