<svg version="1.1" xmlns="http://www.w3.org/2000/svg" xmlns:xlink="http://www.w3.org/1999/xlink" width="387.33334" height="86.12408" viewBox="0,0,387.33334,86.12408"><g transform="translate(-46.4433,-172.3609)"><g data-paper-data="{&quot;isPaintingLayer&quot;:true}" fill-rule="nonzero" stroke="none" stroke-width="1" stroke-linejoin="miter" stroke-miterlimit="10" stroke-dasharray="" stroke-dashoffset="0" style="mix-blend-mode: normal"><path d="" fill="#ffffff" stroke-linecap="butt"/><path d="" fill="#ffffff" stroke-linecap="butt"/><path d="" fill="#ffffff" stroke-linecap="butt"/><path d="" fill="#ffffff" stroke-linecap="butt"/><path d="" fill="#ffffff" stroke-linecap="butt"/><path d="" fill="#ffffff" stroke-linecap="butt"/><path d="" fill="#ffffff" stroke-linecap="butt"/><path d="" fill="#ffffff" stroke-linecap="butt"/><path d="" fill="#ffffff" stroke-linecap="butt"/><path d="" fill="#ffffff" stroke-linecap="butt"/><path d="M116.21603,245.66095h1.47272c-0.45893,0.77142 -0.93142,1.62327 -1.47272,2.53959z" fill="none" stroke-linecap="butt"/><path d="M118.63079,258.48498c-1.5494,-0.25358 -2.35318,-1.23157 -2.41137,-2.93396c0.6925,1.19978 1.49807,2.15482 2.41137,2.93396z" fill="none" stroke-linecap="butt"/><path d="M114.98165,248.22345h1.22084c-0.01517,0.02566 -0.0304,0.05138 -0.04569,0.07714c-0.25371,0.42766 -0.77903,0.99281 -1.17515,1.55414z" fill="none" stroke-linecap="butt"/><path d="M156.09033,177.87653c-0.30208,-0.54167 -0.71354,-0.95312 -1.23437,-1.23437c-0.52083,-0.29167 -1.13021,-0.4375 -1.82812,-0.4375c-0.77083,0 -1.45833,0.17708 -2.0625,0.53125c-0.59375,0.34375 -1.05729,0.83854 -1.39062,1.48438c-0.33333,0.64583 -0.5,1.39063 -0.5,2.23438c0,0.875 0.16667,1.63541 0.5,2.28125c0.34375,0.64583 0.81771,1.14583 1.42188,1.5c0.61458,0.34375 1.32813,0.51563 2.14063,0.51563c1,0 1.8125,-0.26562 2.4375,-0.79687c0.63542,-0.53125 1.05208,-1.27084 1.25,-2.21875h-4.46875v-1.98437h7.04688v2.26563c-0.17708,0.91666 -0.55208,1.76041 -1.125,2.53125c-0.5625,0.77083 -1.29687,1.39063 -2.20312,1.85938c-0.89583,0.45833 -1.90625,0.6875 -3.03125,0.6875c-1.26042,0 -2.39583,-0.28125 -3.40625,-0.84375c-1.01042,-0.5625 -1.80729,-1.34896 -2.39062,-2.35937c-0.57292,-1.01042 -0.85937,-2.15625 -0.85937,-3.4375c0,-1.28125 0.28646,-2.42709 0.85938,-3.4375c0.58333,-1.02084 1.38021,-1.8125 2.39063,-2.375c1.01042,-0.5625 2.14063,-0.84375 3.39063,-0.84375c1.46875,0 2.74479,0.35938 3.82813,1.07813c1.08333,0.70833 1.82813,1.70833 2.23438,3zM170.94959,181.59528c0,0.375 -0.02083,0.70833 -0.0625,1h-7.5625c0.0625,0.75 0.32292,1.33854 0.78125,1.76563c0.45833,0.41666 1.02604,0.625 1.70313,0.625c0.96875,0 1.65625,-0.41667 2.0625,-1.25h2.82813c-0.30208,1 -0.875,1.82291 -1.71875,2.46875c-0.84375,0.63541 -1.88542,0.95313 -3.125,0.95313c-0.98958,0 -1.88021,-0.21875 -2.67187,-0.65625c-0.79167,-0.44792 -1.41146,-1.07292 -1.85937,-1.875c-0.4375,-0.8125 -0.65625,-1.75 -0.65625,-2.8125c0,-1.0625 0.21875,-2 0.65625,-2.8125c0.4375,-0.8125 1.04688,-1.43229 1.82813,-1.85937c0.78125,-0.4375 1.68229,-0.65625 2.70313,-0.65625c0.98958,0 1.86979,0.21354 2.64063,0.64063c0.78125,0.41666 1.38542,1.01563 1.8125,1.79688c0.42708,0.77083 0.64063,1.66146 0.64063,2.67188zM168.24646,180.84528c-0.01042,-0.66667 -0.25521,-1.20312 -0.73437,-1.60937c-0.46875,-0.40625 -1.04167,-0.60937 -1.71875,-0.60937c-0.65625,0 -1.20312,0.19791 -1.64062,0.59375c-0.4375,0.38541 -0.70833,0.92708 -0.8125,1.625zM175.89801,178.7984v5c0,0.34375 0.08333,0.59375 0.25,0.75c0.16667,0.15625 0.44792,0.23438 0.84375,0.23438h1.21875v2.20313h-1.64062c-2.19792,0 -3.29687,-1.06771 -3.29687,-3.20312v-4.98437h-1.23437v-2.14062h1.23438v-2.5625h2.625v2.5625h2.3125v2.14063zM194.42059,176.65778l-6.39062,15.21875h-2.78125l2.23438,-5.15625l-4.14062,-10.0625h2.92188l2.67188,7.21875l2.70313,-7.21875zM200.41077,187.15778c-0.98958,0 -1.88542,-0.21875 -2.6875,-0.65625c-0.79167,-0.44792 -1.41667,-1.07292 -1.875,-1.875c-0.44792,-0.8125 -0.67187,-1.75 -0.67187,-2.8125c0,-1.05209 0.22917,-1.97917 0.6875,-2.78125c0.46875,-0.8125 1.10417,-1.4375 1.90625,-1.875c0.8125,-0.44792 1.71875,-0.67187 2.71875,-0.67187c0.98958,0 1.89063,0.22396 2.70313,0.67188c0.8125,0.4375 1.44792,1.0625 1.90625,1.875c0.46875,0.80208 0.70313,1.72916 0.70313,2.78125c0,1.0625 -0.23958,2 -0.71875,2.8125c-0.47917,0.80208 -1.125,1.42708 -1.9375,1.875c-0.8125,0.4375 -1.72396,0.65625 -2.73437,0.65625zM200.41077,184.87653c0.46875,0 0.91146,-0.11459 1.32813,-0.34375c0.41667,-0.22917 0.75,-0.57292 1,-1.03125c0.25,-0.45834 0.375,-1.02084 0.375,-1.6875c0,-0.97917 -0.26042,-1.73437 -0.78125,-2.26562c-0.51042,-0.53125 -1.14062,-0.79687 -1.89062,-0.79687c-0.73958,0 -1.36458,0.26563 -1.875,0.79688c-0.5,0.53125 -0.75,1.28646 -0.75,2.26563c0,0.98958 0.24479,1.75 0.73438,2.28125c0.48958,0.52083 1.10938,0.78125 1.85938,0.78125zM217.48529,176.65778v10.32813h-2.64062v-1.3125c-0.33333,0.44791 -0.77083,0.80208 -1.3125,1.0625c-0.54167,0.25 -1.13021,0.375 -1.76562,0.375c-0.80208,0 -1.51562,-0.16667 -2.14062,-0.5c-0.625,-0.34375 -1.11458,-0.84896 -1.46875,-1.51562c-0.35417,-0.66667 -0.53125,-1.45834 -0.53125,-2.375v-6.0625h2.625v5.6875c0,0.8125 0.20313,1.44271 0.60938,1.89063c0.40625,0.4375 0.96354,0.65625 1.67188,0.65625c0.72917,0 1.29688,-0.21875 1.70313,-0.65625c0.40625,-0.44792 0.60938,-1.07812 0.60938,-1.89062v-5.6875zM222.67645,178.25153c0.33333,-0.54167 0.77083,-0.96875 1.3125,-1.28125c0.54167,-0.3125 1.16146,-0.46875 1.85938,-0.46875v2.73438h-0.70312c-0.8125,0 -1.42708,0.19791 -1.84375,0.59375c-0.41667,0.38541 -0.625,1.05208 -0.625,2v5.15625h-2.625v-10.32812h2.625zM231.55737,187.15778c-0.85417,0 -1.61979,-0.15104 -2.29687,-0.45312c-0.66667,-0.3125 -1.19792,-0.72917 -1.59375,-1.25c-0.38542,-0.52084 -0.59375,-1.09896 -0.625,-1.73437h2.625c0.05208,0.39583 0.24479,0.72396 0.57813,0.98438c0.34375,0.26041 0.77083,0.39063 1.28125,0.39063c0.5,0 0.89063,-0.09896 1.17188,-0.29687c0.28125,-0.19792 0.42188,-0.45312 0.42188,-0.76562c0,-0.33334 -0.17187,-0.58334 -0.51562,-0.75c-0.34375,-0.16667 -0.88542,-0.34896 -1.625,-0.54687c-0.78125,-0.1875 -1.41667,-0.38021 -1.90625,-0.57812c-0.48958,-0.19792 -0.91146,-0.5 -1.26562,-0.90625c-0.35417,-0.41667 -0.53125,-0.97396 -0.53125,-1.67187c0,-0.57292 0.16146,-1.09375 0.48438,-1.5625c0.33333,-0.47917 0.80729,-0.85417 1.42188,-1.125c0.625,-0.27084 1.35417,-0.40625 2.1875,-0.40625c1.22917,0 2.20833,0.30729 2.9375,0.92188c0.73958,0.61458 1.14583,1.44271 1.21875,2.48438h-2.5c-0.04167,-0.40625 -0.21354,-0.72917 -0.51562,-0.96875c-0.30208,-0.25 -0.70833,-0.375 -1.21875,-0.375c-0.47917,0 -0.84896,0.08854 -1.10937,0.26563c-0.25,0.17708 -0.375,0.42188 -0.375,0.73438c0,0.34375 0.17188,0.60938 0.51563,0.79688c0.35417,0.17708 0.90104,0.35938 1.64063,0.54688c0.73958,0.17708 1.35417,0.36979 1.84375,0.57813c0.48958,0.19791 0.91146,0.50521 1.26563,0.92188c0.35416,0.41666 0.53646,0.96354 0.54688,1.64063c0,0.60416 -0.16667,1.14063 -0.5,1.60938c-0.32292,0.46875 -0.79688,0.83854 -1.42188,1.10938c-0.61458,0.27083 -1.32812,0.40625 -2.14062,0.40625zM247.36566,181.59528c0,0.375 -0.02083,0.70833 -0.0625,1h-7.5625c0.0625,0.75 0.32291,1.33854 0.78125,1.76563c0.45833,0.41666 1.02604,0.625 1.70312,0.625c0.96875,0 1.65625,-0.41667 2.0625,-1.25h2.82812c-0.30208,1 -0.875,1.82291 -1.71875,2.46875c-0.84375,0.63541 -1.88541,0.95313 -3.125,0.95313c-0.98958,0 -1.88021,-0.21875 -2.67187,-0.65625c-0.79167,-0.44792 -1.41146,-1.07292 -1.85938,-1.875c-0.4375,-0.8125 -0.65625,-1.75 -0.65625,-2.8125c0,-1.0625 0.21875,-2 0.65625,-2.8125c0.4375,-0.8125 1.04688,-1.43229 1.82813,-1.85937c0.78125,-0.4375 1.68229,-0.65625 2.70312,-0.65625c0.98959,0 1.86979,0.21354 2.64062,0.64063c0.78125,0.41666 1.38542,1.01563 1.8125,1.79688c0.42709,0.77083 0.64063,1.66146 0.64063,2.67188zM244.66254,180.84528c-0.01041,-0.66667 -0.25521,-1.20312 -0.73437,-1.60937c-0.46875,-0.40625 -1.04166,-0.60937 -1.71875,-0.60937c-0.65625,0 -1.20312,0.19791 -1.64062,0.59375c-0.4375,0.38541 -0.70834,0.92708 -0.8125,1.625zM251.89215,173.1734v13.8125h-2.625v-13.8125zM259.20361,178.7984h-1.8125v8.1875h-2.65625v-8.1875h-1.17188v-2.14062h1.17188v-0.53125c0,-1.27084 0.35938,-2.20312 1.07812,-2.79687c0.72916,-0.59375 1.81771,-0.875 3.26562,-0.84375v2.20313c-0.625,-0.01042 -1.0625,0.09896 -1.3125,0.32813c-0.25,0.21875 -0.375,0.61979 -0.375,1.20313v0.4375h1.8125zM274.93958,181.59528c0,0.375 -0.02084,0.70833 -0.0625,1h-7.5625c0.0625,0.75 0.32291,1.33854 0.78125,1.76563c0.45833,0.41666 1.02604,0.625 1.70313,0.625c0.96875,0 1.65625,-0.41667 2.0625,-1.25h2.82813c-0.30209,1 -0.875,1.82291 -1.71875,2.46875c-0.84375,0.63541 -1.88542,0.95313 -3.125,0.95313c-0.98959,0 -1.88021,-0.21875 -2.67187,-0.65625c-0.79167,-0.44792 -1.41146,-1.07292 -1.85937,-1.875c-0.4375,-0.8125 -0.65625,-1.75 -0.65625,-2.8125c0,-1.0625 0.21875,-2 0.65625,-2.8125c0.4375,-0.8125 1.04688,-1.43229 1.82813,-1.85937c0.78125,-0.4375 1.68229,-0.65625 2.70313,-0.65625c0.98958,0 1.86979,0.21354 2.64063,0.64063c0.78125,0.41666 1.38541,1.01563 1.8125,1.79688c0.42708,0.77083 0.64063,1.66146 0.64063,2.67188zM272.23645,180.84528c-0.01042,-0.66667 -0.25521,-1.20312 -0.73437,-1.60937c-0.46875,-0.40625 -1.04167,-0.60937 -1.71875,-0.60937c-0.65625,0 -1.20312,0.19791 -1.64062,0.59375c-0.4375,0.38541 -0.70834,0.92708 -0.8125,1.625zM278.16919,175.4234c-0.46875,0 -0.85937,-0.14584 -1.17187,-0.4375c-0.30208,-0.29167 -0.45312,-0.65625 -0.45312,-1.09375c0,-0.4375 0.15104,-0.80209 0.45313,-1.09375c0.3125,-0.29167 0.70313,-0.4375 1.17188,-0.4375c0.45834,0 0.83854,0.14583 1.14063,0.4375c0.30209,0.29166 0.45313,0.65625 0.45313,1.09375c0,0.4375 -0.15104,0.80208 -0.45312,1.09375c-0.30208,0.29166 -0.68229,0.4375 -1.14062,0.4375zM279.46607,188.68903c0,1.14583 -0.28646,1.96875 -0.85937,2.46875c-0.5625,0.5 -1.375,0.75 -2.4375,0.75h-1.15625v-2.21875h0.75c0.39584,0 0.67188,-0.07812 0.82813,-0.23437c0.16667,-0.15625 0.25,-0.40625 0.25,-0.75v-12.04687h2.625zM291.6369,181.59528c0,0.375 -0.02083,0.70833 -0.0625,1h-7.5625c0.0625,0.75 0.32292,1.33854 0.78125,1.76563c0.45834,0.41666 1.02604,0.625 1.70313,0.625c0.96875,0 1.65625,-0.41667 2.0625,-1.25h2.82813c-0.30208,1 -0.875,1.82291 -1.71875,2.46875c-0.84375,0.63541 -1.88541,0.95313 -3.125,0.95313c-0.98958,0 -1.88021,-0.21875 -2.67187,-0.65625c-0.79166,-0.44792 -1.41146,-1.07292 -1.85937,-1.875c-0.4375,-0.8125 -0.65625,-1.75 -0.65625,-2.8125c0,-1.0625 0.21875,-2 0.65625,-2.8125c0.4375,-0.8125 1.04688,-1.43229 1.82813,-1.85937c0.78125,-0.4375 1.68229,-0.65625 2.70313,-0.65625c0.98959,0 1.86979,0.21354 2.64063,0.64063c0.78125,0.41666 1.38542,1.01563 1.8125,1.79688c0.42709,0.77083 0.64063,1.66146 0.64063,2.67188zM288.93378,180.84528c-0.01041,-0.66667 -0.25521,-1.20312 -0.73437,-1.60937c-0.46875,-0.40625 -1.04166,-0.60937 -1.71875,-0.60937c-0.65625,0 -1.20312,0.19791 -1.64062,0.59375c-0.4375,0.38541 -0.70833,0.92708 -0.8125,1.625zM292.86658,181.81403c0,-1.0625 0.21875,-1.99479 0.65625,-2.79687c0.4375,-0.80209 1.04166,-1.42187 1.8125,-1.85937c0.77083,-0.44792 1.65625,-0.67187 2.65625,-0.67187c1.28125,0 2.33854,0.32291 3.17188,0.96875c0.84375,0.63541 1.40625,1.53125 1.6875,2.6875h-2.8125c-0.14584,-0.44792 -0.39584,-0.79687 -0.75,-1.04687c-0.35417,-0.26042 -0.79687,-0.39062 -1.32812,-0.39062c-0.73959,0 -1.32812,0.27083 -1.76562,0.8125c-0.4375,0.54166 -0.65625,1.30729 -0.65625,2.29688c0,0.98958 0.21875,1.75521 0.65625,2.29688c0.4375,0.53125 1.02604,0.79688 1.76563,0.79688c1.0625,0 1.75521,-0.46875 2.07813,-1.40625h2.8125c-0.28125,1.11458 -0.84896,2.00521 -1.70312,2.67188c-0.84375,0.65625 -1.89584,0.98438 -3.15625,0.98438c-1,0 -1.88542,-0.21875 -2.65625,-0.65625c-0.77084,-0.44792 -1.375,-1.07292 -1.8125,-1.875c-0.4375,-0.80209 -0.65625,-1.73959 -0.65625,-2.8125zM307.81635,178.7984v5c0,0.34375 0.08334,0.59375 0.25,0.75c0.16667,0.15625 0.44792,0.23438 0.84375,0.23438h1.21875v2.20313h-1.64062c-2.19791,0 -3.29687,-1.06771 -3.29687,-3.20312v-4.98437h-1.23437v-2.14062h1.23438v-2.5625h2.625v2.5625h2.3125v2.14063zM321.61749,181.59528c0,0.375 -0.02083,0.70833 -0.0625,1h-7.5625c0.0625,0.75 0.32292,1.33854 0.78125,1.76563c0.45834,0.41666 1.02604,0.625 1.70313,0.625c0.96875,0 1.65625,-0.41667 2.0625,-1.25h2.82813c-0.30208,1 -0.875,1.82291 -1.71875,2.46875c-0.84375,0.63541 -1.88541,0.95313 -3.125,0.95313c-0.98958,0 -1.88021,-0.21875 -2.67187,-0.65625c-0.79166,-0.44792 -1.41146,-1.07292 -1.85937,-1.875c-0.4375,-0.8125 -0.65625,-1.75 -0.65625,-2.8125c0,-1.0625 0.21875,-2 0.65625,-2.8125c0.4375,-0.8125 1.04688,-1.43229 1.82813,-1.85937c0.78125,-0.4375 1.68229,-0.65625 2.70313,-0.65625c0.98959,0 1.86979,0.21354 2.64063,0.64063c0.78125,0.41666 1.38542,1.01563 1.8125,1.79688c0.42709,0.77083 0.64063,1.66146 0.64063,2.67188zM318.91437,180.84528c-0.01041,-0.66667 -0.25521,-1.20312 -0.73437,-1.60937c-0.46875,-0.40625 -1.04166,-0.60937 -1.71875,-0.60937c-0.65625,0 -1.20312,0.19791 -1.64062,0.59375c-0.4375,0.38541 -0.70833,0.92708 -0.8125,1.625zM322.84717,181.78278c0,-1.04167 0.20833,-1.96875 0.625,-2.78125c0.41666,-0.8125 0.98438,-1.43229 1.70313,-1.85937c0.72916,-0.4375 1.53646,-0.65625 2.42188,-0.65625c0.66666,0 1.30208,0.14583 1.90625,0.4375c0.61458,0.29166 1.10416,0.67708 1.46875,1.15625v-4.90625h2.64063v13.8125h-2.64062v-1.53125c-0.32292,0.51041 -0.77604,0.92188 -1.35937,1.23438c-0.58334,0.3125 -1.26562,0.46875 -2.04687,0.46875c-0.86459,0 -1.66146,-0.22396 -2.39062,-0.67187c-0.71875,-0.44792 -1.28646,-1.07812 -1.70312,-1.89062c-0.41667,-0.82292 -0.625,-1.76042 -0.625,-2.8125zM330.98779,181.81403c0,-0.63542 -0.125,-1.17709 -0.375,-1.625c-0.25,-0.45834 -0.58854,-0.80729 -1.01562,-1.04687c-0.41667,-0.23959 -0.86979,-0.35937 -1.35937,-0.35937c-0.47917,0 -0.92709,0.11979 -1.34375,0.35938c-0.40625,0.22916 -0.73959,0.57291 -1,1.03125c-0.25,0.44791 -0.375,0.98438 -0.375,1.60938c0,0.625 0.125,1.17188 0.375,1.64063c0.26041,0.45833 0.59896,0.8125 1.01563,1.0625c0.41666,0.25 0.85938,0.375 1.32813,0.375c0.48958,0 0.94271,-0.11979 1.35938,-0.35937c0.42708,-0.25 0.76563,-0.59896 1.01563,-1.04687c0.25,-0.45834 0.375,-1.00521 0.375,-1.64062z" fill="#ffffff" stroke-linecap="square"/><text transform="translate(46.8134,206.98256) scale(0.39188,0.39428)" font-size="40" xml:space="preserve" fill="#ffffff" fill-rule="nonzero" stroke="none" stroke-width="1" stroke-linecap="butt" stroke-linejoin="miter" stroke-miterlimit="10" stroke-dasharray="" stroke-dashoffset="0" font-family="Sans Serif" font-weight="normal" text-anchor="start" style="mix-blend-mode: normal"><tspan x="0" dy="0">You are not supposed to help the crew or the jester,</tspan><tspan x="0" dy="46.15px">                          it won't help you to win</tspan></text><text transform="translate(51.89648,260.50341) scale(0.5,0.5)" font-size="40" xml:space="preserve" fill="#ffffff" fill-rule="nonzero" stroke="none" stroke-width="1" stroke-linecap="butt" stroke-linejoin="miter" stroke-miterlimit="10" stroke-dasharray="" stroke-dashoffset="0" font-family="Sans Serif" font-weight="normal" text-anchor="start" style="mix-blend-mode: normal"><tspan x="0" dy="0"> </tspan></text></g></g></svg>