<svg version="1.1" xmlns="http://www.w3.org/2000/svg" xmlns:xlink="http://www.w3.org/1999/xlink" width="49.59617" height="34.91267" viewBox="0,0,49.59617,34.91267"><g transform="translate(-215.20192,-162.54367)"><g data-paper-data="{&quot;isPaintingLayer&quot;:true}" fill="#ffffff" fill-rule="nonzero" stroke-linecap="square" stroke-linejoin="miter" stroke-miterlimit="10" stroke-dasharray="" stroke-dashoffset="0" style="mix-blend-mode: normal"><path d="M233.35906,178.47873c3.12231,1.64092 4.68347,4.02254 4.68347,7.14486c0,2.48417 -0.9686,4.66067 -2.9058,6.5295c-1.91441,1.86883 -4.43277,2.80325 -7.55508,2.80325c-3.09951,0 -5.52672,-0.95721 -7.2816,-2.87162c-1.73208,-1.9372 -2.59812,-3.68068 -2.59812,-5.23044c0,-0.66093 0.2393,-1.21929 0.7179,-1.67511c0.4786,-0.4786 1.08256,-0.71791 1.81186,-0.71791c0.4786,0 0.90024,0.13675 1.26488,0.41024c0.38744,0.2507 0.75209,0.85465 1.09395,1.81185c0.97999,2.89441 2.64371,4.34161 4.99114,4.34161c1.27627,0 2.4272,-0.46721 3.45278,-1.40162c1.04836,-0.93442 1.57255,-2.21069 1.57255,-3.82882c0,-1.50418 -0.42163,-2.70068 -1.26488,-3.58952c-0.84325,-0.91162 -1.97138,-1.36744 -3.38441,-1.36744l-2.52975,0.17093c-1.4586,0 -2.1879,-0.67232 -2.1879,-2.01697c0,-1.4586 0.90024,-2.1879 2.70069,-2.1879c2.21069,0 3.66929,-0.42163 4.37579,-1.26487c0.7065,-0.84325 1.05976,-1.76627 1.05976,-2.76906c0,-1.09395 -0.36465,-1.99419 -1.09395,-2.70069c-0.7065,-0.7293 -1.65233,-1.09394 -2.83743,-1.09394c-2.14231,0 -3.60091,1.07116 -4.37579,3.21347c-0.4786,1.27627 -1.2307,1.91441 -2.25627,1.91441c-0.66093,0 -1.2079,-0.21652 -1.64092,-0.64954c-0.41023,-0.45581 -0.61535,-1.00279 -0.61535,-1.64092c0,-1.52697 0.85465,-3.03114 2.56394,-4.51254c1.73208,-1.50418 3.98835,-2.25627 6.76881,-2.25627c2.68928,0 4.8316,0.69512 6.42694,2.08534c1.59534,1.36744 2.39301,3.08813 2.39301,5.16207c0,2.37023 -1.11674,4.43276 -3.35021,6.18764zM252.04233,165.04368c3.03114,0 5.49253,1.15092 7.38415,3.45277c1.91441,2.27906 2.87162,6.15346 2.87162,11.6232c0,5.51533 -1.00279,9.36693 -3.00836,11.55483c-2.00557,2.1879 -4.38719,3.28184 -7.14485,3.28184c-2.87161,0 -5.31022,-1.15092 -7.31579,-3.45277c-1.98278,-2.32464 -2.97417,-6.08509 -2.97417,-11.28135c0,-5.37858 0.87743,-9.25297 2.63232,-11.6232c1.77767,-2.37023 4.29603,-3.55533 7.55508,-3.55533zM252.04233,190.88821c1.64092,0 2.83743,-0.78627 3.58952,-2.35882c0.77487,-1.59534 1.16231,-4.52394 1.16231,-8.78578c0,-3.85161 -0.37604,-6.58648 -1.12813,-8.20461c-0.75209,-1.64092 -1.95999,-2.46139 -3.6237,-2.46139c-1.57255,0 -2.74628,0.78628 -3.52115,2.35883c-0.77488,1.57255 -1.16232,4.39858 -1.16232,8.4781c0,4.14789 0.38744,7.0195 1.16232,8.61485c0.77488,1.57255 1.9486,2.35882 3.52115,2.35882z" stroke="#000000" stroke-width="5"/><path d="M233.35907,178.47873c3.12231,1.64092 4.68347,4.02254 4.68347,7.14486c0,2.48417 -0.9686,4.66067 -2.9058,6.5295c-1.91441,1.86883 -4.43277,2.80325 -7.55508,2.80325c-3.09951,0 -5.52672,-0.95721 -7.2816,-2.87162c-1.73208,-1.9372 -2.59812,-3.68068 -2.59812,-5.23044c0,-0.66093 0.2393,-1.21929 0.7179,-1.67511c0.4786,-0.4786 1.08256,-0.71791 1.81186,-0.71791c0.4786,0 0.90024,0.13675 1.26488,0.41024c0.38744,0.2507 0.75209,0.85465 1.09395,1.81185c0.97999,2.89441 2.64371,4.34161 4.99114,4.34161c1.27627,0 2.4272,-0.46721 3.45278,-1.40162c1.04836,-0.93442 1.57255,-2.21069 1.57255,-3.82882c0,-1.50418 -0.42163,-2.70068 -1.26488,-3.58952c-0.84325,-0.91162 -1.97138,-1.36744 -3.38441,-1.36744l-2.52975,0.17093c-1.4586,0 -2.1879,-0.67232 -2.1879,-2.01697c0,-1.4586 0.90024,-2.1879 2.70069,-2.1879c2.21069,0 3.66929,-0.42163 4.37579,-1.26487c0.7065,-0.84325 1.05976,-1.76627 1.05976,-2.76906c0,-1.09395 -0.36465,-1.99419 -1.09395,-2.70069c-0.7065,-0.7293 -1.65233,-1.09394 -2.83743,-1.09394c-2.14231,0 -3.60091,1.07116 -4.37579,3.21347c-0.4786,1.27627 -1.2307,1.91441 -2.25627,1.91441c-0.66093,0 -1.2079,-0.21652 -1.64092,-0.64954c-0.41023,-0.45581 -0.61535,-1.00279 -0.61535,-1.64092c0,-1.52697 0.85465,-3.03114 2.56394,-4.51254c1.73208,-1.50418 3.98835,-2.25627 6.76881,-2.25627c2.68928,0 4.8316,0.69512 6.42694,2.08534c1.59534,1.36744 2.39301,3.08813 2.39301,5.16207c0,2.37023 -1.11674,4.43276 -3.35021,6.18764zM252.04234,165.04368c3.03114,0 5.49253,1.15092 7.38415,3.45277c1.91441,2.27906 2.87162,6.15346 2.87162,11.6232c0,5.51533 -1.00279,9.36693 -3.00836,11.55483c-2.00557,2.1879 -4.38719,3.28184 -7.14485,3.28184c-2.87161,0 -5.31022,-1.15092 -7.31579,-3.45277c-1.98278,-2.32464 -2.97417,-6.08509 -2.97417,-11.28135c0,-5.37858 0.87743,-9.25297 2.63232,-11.6232c1.77767,-2.37023 4.29603,-3.55533 7.55508,-3.55533zM252.04234,190.88821c1.64092,0 2.83743,-0.78627 3.58952,-2.35882c0.77487,-1.59534 1.16231,-4.52394 1.16231,-8.78578c0,-3.85161 -0.37604,-6.58648 -1.12813,-8.20461c-0.75209,-1.64092 -1.95999,-2.46139 -3.6237,-2.46139c-1.57255,0 -2.74628,0.78628 -3.52115,2.35883c-0.77488,1.57255 -1.16232,4.39858 -1.16232,8.4781c0,4.14789 0.38744,7.0195 1.16232,8.61485c0.77488,1.57255 1.9486,2.35882 3.52115,2.35882z" stroke="none" stroke-width="1"/></g></g></svg>