<svg version="1.1" xmlns="http://www.w3.org/2000/svg" xmlns:xlink="http://www.w3.org/1999/xlink" width="194.76145" height="9.63102" viewBox="0,0,194.76145,9.63102"><g transform="translate(-142.61927,-175.18449)"><g data-paper-data="{&quot;isPaintingLayer&quot;:true}" fill-rule="nonzero" stroke="none" stroke-width="1" stroke-linecap="butt" stroke-linejoin="miter" stroke-miterlimit="10" stroke-dasharray="" stroke-dashoffset="0" style="mix-blend-mode: normal"><path d="" fill="#ff0000"/><path d="" fill="#ff0000"/><path d="" fill="#ff0000"/><path d="" fill="#ff0000"/><path d="" fill="#ff0000"/><path d="" fill="#ff0000"/><path d="" fill="#ff0000"/><path d="" fill="#ff0000"/><path d="" fill="#ff0000"/><path d="" fill="#ff0000"/><path d="" fill="#ff0000"/><path d="" fill="#ff0000"/><path d="" fill="#ff0000"/><path d="" fill="#ff0000"/><path d="" fill="#ff0000"/><path d="" fill="#ff0000"/><path d="" fill="#ff0000"/><path d="" fill="#ff0000"/><path d="" fill="#ff0000"/><path d="" fill="#ff0000"/><path d="" fill="#ff0000"/><path d="M319.10781,181.86602c-0.47008,0.61341 -1.06628,0.92011 -1.78861,0.92011c-0.6994,0 -1.25547,-0.26658 -1.66823,-0.79972c-0.41276,-0.53314 -0.61915,-1.22108 -0.61915,-2.06379c0,-0.79111 0.20065,-1.43891 0.60194,-1.94339c0.40703,-0.51021 0.96595,-0.76532 1.67681,-0.76532c0.69367,0 1.29275,0.2809 1.79722,0.8427v-1.78c0,-0.48729 0.0602,-0.79113 0.18059,-0.91152c0.12612,-0.12038 0.29524,-0.18058 0.50735,-0.18058c0.14905,0 0.28377,0.04299 0.40416,0.12898c0.12612,0.08025 0.20351,0.18918 0.23217,0.32677c0.02866,0.13759 0.043,0.36403 0.043,0.67932v5.39164c0,0.30383 -0.0172,0.52168 -0.0516,0.65353c-0.02866,0.13186 -0.10605,0.23505 -0.23217,0.30957c-0.12612,0.07452 -0.26085,0.11179 -0.40416,0.11179c-0.45288,0 -0.67933,-0.26085 -0.67933,-0.78253zM316.41628,179.96561c0,0.61341 0.12899,1.06342 0.38696,1.35006c0.25797,0.28091 0.55322,0.42136 0.88572,0.42136c0.38982,0 0.71085,-0.14618 0.9631,-0.43855c0.25225,-0.2981 0.37835,-0.71087 0.37835,-1.23828c0,-0.55034 -0.12324,-0.9889 -0.36976,-1.31566c-0.24651,-0.32676 -0.57328,-0.49015 -0.9803,-0.49015c-0.37264,0 -0.67645,0.15192 -0.9115,0.45575c-0.23505,0.30383 -0.35257,0.72233 -0.35257,1.25547z" fill="#ffa3f7"/><path d="M199.99094,182.0036v-0.13759c-0.47008,0.61341 -1.06629,0.92011 -1.78861,0.92011c-0.69939,0 -1.25547,-0.26658 -1.66823,-0.79972c-0.41276,-0.53314 -0.61915,-1.22108 -0.61915,-2.06379c0,-0.79111 0.20065,-1.43891 0.60194,-1.94339c0.40703,-0.51021 0.96597,-0.76532 1.67683,-0.76532c0.69367,0 1.29273,0.2809 1.79721,0.8427v-1.78c0,-0.48729 0.0602,-0.79113 0.18058,-0.91152c0.12612,-0.12038 0.29524,-0.18058 0.50735,-0.18058c0.14906,0 0.28377,0.04299 0.40416,0.12898c0.12612,0.08025 0.20352,0.18918 0.23217,0.32677c0.02866,0.13759 0.043,0.36403 0.043,0.67932v5.39164c0,0.30383 -0.01721,0.52168 -0.0516,0.65353c-0.02866,0.13186 -0.10605,0.23505 -0.23217,0.30957c-0.12612,0.07452 -0.26083,0.11179 -0.40416,0.11179c-0.45289,0 -0.67934,-0.26085 -0.67934,-0.78253zM197.29942,179.96561c0,0.61341 0.12899,1.06342 0.38696,1.35006c0.25797,0.28091 0.5532,0.42136 0.88571,0.42136c0.38983,0 0.71086,-0.14618 0.96311,-0.43855c0.25224,-0.2981 0.37835,-0.71087 0.37835,-1.23828c0,-0.55034 -0.12325,-0.9889 -0.36976,-1.31566c-0.2465,-0.32676 -0.57328,-0.49015 -0.9803,-0.49015c-0.37262,0 -0.67646,0.15192 -0.91151,0.45575c-0.23504,0.30383 -0.35255,0.72233 -0.35255,1.25547z" fill="#ffa3f7"/><path d="M181.37136,182.0036v-0.13759c-0.47008,0.61341 -1.06629,0.92011 -1.78863,0.92011c-0.69939,0 -1.25546,-0.26658 -1.66822,-0.79972c-0.41276,-0.53314 -0.61914,-1.22108 -0.61914,-2.06379c0,-0.79111 0.20065,-1.43891 0.60193,-1.94339c0.40703,-0.51021 0.96597,-0.76532 1.67683,-0.76532c0.69367,0 1.29274,0.2809 1.79722,0.8427v-1.78c0,-0.48729 0.0602,-0.79113 0.18058,-0.91152c0.12612,-0.12038 0.29524,-0.18058 0.50734,-0.18058c0.14906,0 0.28378,0.04299 0.40416,0.12898c0.12612,0.08025 0.20352,0.18918 0.23217,0.32677c0.02866,0.13759 0.04299,0.36403 0.04299,0.67932v5.39164c0,0.30383 -0.0172,0.52168 -0.05159,0.65353c-0.02866,0.13186 -0.10605,0.23505 -0.23217,0.30957c-0.12612,0.07452 -0.26084,0.11179 -0.40417,0.11179c-0.45289,0 -0.67933,-0.26085 -0.67933,-0.78253zM178.67984,179.96561c0,0.61341 0.12899,1.06342 0.38696,1.35006c0.25797,0.28091 0.5532,0.42136 0.88571,0.42136c0.38983,0 0.71086,-0.14618 0.96311,-0.43855c0.25224,-0.2981 0.37837,-0.71087 0.37837,-1.23828c0,-0.55034 -0.12326,-0.9889 -0.36976,-1.31566c-0.2465,-0.32676 -0.57328,-0.49015 -0.98031,-0.49015c-0.37262,0 -0.67647,0.15192 -0.91152,0.45575c-0.23504,0.30383 -0.35255,0.72233 -0.35255,1.25547z" fill="#ffa3f7"/><path d="M303.99547,181.86602v0.13759c0,0.52168 -0.22646,0.78252 -0.67934,0.78252c-0.17198,0 -0.31816,-0.043 -0.43854,-0.12899c-0.12039,-0.09172 -0.19206,-0.20065 -0.21498,-0.32676c-0.02294,-0.13186 -0.03439,-0.33824 -0.03439,-0.61915v-5.39164c0,-0.30956 0.01434,-0.53601 0.043,-0.67932c0.0344,-0.14332 0.11178,-0.25512 0.23217,-0.33537c0.12612,-0.08025 0.26083,-0.12038 0.40416,-0.12038c0.20637,0 0.37263,0.0602 0.49875,0.18058c0.12612,0.12038 0.18919,0.42422 0.18919,0.91152v1.78c0.5102,-0.56181 1.10928,-0.8427 1.79721,-0.8427c0.71086,0 1.26693,0.25511 1.66823,0.76532c0.40703,0.50448 0.61055,1.15229 0.61055,1.94339c0,0.84271 -0.20638,1.53064 -0.61914,2.06379c-0.41276,0.53314 -0.9717,0.79972 -1.67683,0.79972c-0.71086,0 -1.30419,-0.3067 -1.78001,-0.92011zM304.06425,180.06021c0,0.52741 0.12612,0.94018 0.37836,1.23828c0.25797,0.29237 0.58187,0.43855 0.9717,0.43855c0.32677,0 0.61914,-0.14045 0.87711,-0.42136c0.26371,-0.28664 0.39557,-0.73666 0.39557,-1.35006c0,-0.53314 -0.11752,-0.94877 -0.35257,-1.24687c-0.23505,-0.30383 -0.53888,-0.45576 -0.91151,-0.45576c-0.41276,0 -0.74238,0.16339 -0.9889,0.49015c-0.24651,0.32102 -0.36976,0.75672 -0.36976,1.30706z" fill="#ffa3f7"/><path d="M273.41831,178.13401c0.48728,-0.61341 1.08348,-0.92011 1.78861,-0.92011c0.6994,0 1.25547,0.26656 1.66823,0.79971c0.41276,0.52741 0.61914,1.20962 0.61914,2.04659c0,0.79685 -0.20351,1.45038 -0.61055,1.9606c-0.40129,0.51021 -0.95736,0.76533 -1.66823,0.76533c-0.68219,0 -1.28127,-0.28664 -1.79721,-0.85992v1.78861c0,0.49302 -0.0602,0.79972 -0.18058,0.9201c-0.12039,0.12038 -0.28377,0.18058 -0.49014,0.18058c-0.25225,0 -0.42995,-0.08311 -0.53315,-0.24936c-0.10319,-0.16625 -0.15479,-0.46436 -0.15479,-0.89431v-5.40024c0,-0.28091 0.01146,-0.48729 0.0344,-0.61913c0.02866,-0.13186 0.1032,-0.23791 0.22358,-0.31816c0.12039,-0.08025 0.26371,-0.12039 0.42996,-0.12039c0.44716,0 0.67073,0.25797 0.67073,0.77392zM276.11844,180.0344c0,-0.60195 -0.12899,-1.04621 -0.38697,-1.33285c-0.25225,-0.29237 -0.5446,-0.43857 -0.87711,-0.43857c-0.39557,0 -0.71946,0.1462 -0.9717,0.43857c-0.25225,0.29237 -0.37835,0.70226 -0.37835,1.22967c0,0.55607 0.12038,0.9975 0.36116,1.32426c0.24651,0.32102 0.57901,0.48155 0.9975,0.48155c0.3669,0 0.66787,-0.15192 0.90292,-0.45576c0.23505,-0.30383 0.35258,-0.71946 0.35258,-1.24687z" fill="#ffa3f7"/><path d="M311.55624,177.2139c0.84845,0 1.51631,0.26371 2.00359,0.79112c0.48728,0.52168 0.73093,1.18667 0.73093,1.99499c0,0.81405 -0.24651,1.48192 -0.73953,2.0036c-0.49302,0.52168 -1.14655,0.78252 -1.9606,0.78252c-0.88284,0 -1.56505,-0.26372 -2.04659,-0.79113c-0.47582,-0.53314 -0.71373,-1.19815 -0.71373,-1.99499c0,-0.81405 0.24364,-1.48191 0.73093,-2.00359c0.48728,-0.52168 1.15229,-0.78252 1.995,-0.78252zM311.55624,181.76283c0.41849,0 0.74812,-0.15478 0.98889,-0.46434c0.24078,-0.31529 0.36116,-0.74813 0.36116,-1.29848c0,-0.55607 -0.12039,-0.98888 -0.36116,-1.29846c-0.24078,-0.31529 -0.57041,-0.47297 -0.98889,-0.47297c-0.40703,0 -0.7338,0.15766 -0.98031,0.47297c-0.24078,0.31529 -0.36117,0.74811 -0.36117,1.29846c0,0.55607 0.12039,0.98892 0.36117,1.29848c0.24651,0.30956 0.57328,0.46434 0.98031,0.46434z" fill="#ffa3f7"/><path d="M151.26999,177.2139c0.84844,0 1.5163,0.26371 2.00359,0.79112c0.48729,0.52168 0.73093,1.18667 0.73093,1.99499c0,0.81405 -0.2465,1.48192 -0.73952,2.0036c-0.49302,0.52168 -1.14655,0.78252 -1.9606,0.78252c-0.88284,0 -1.56505,-0.26372 -2.04659,-0.79113c-0.47582,-0.53314 -0.71373,-1.19815 -0.71373,-1.99499c0,-0.81405 0.24364,-1.48191 0.73092,-2.00359c0.48729,-0.52168 1.15228,-0.78252 1.99499,-0.78252zM151.26999,181.76283c0.41848,0 0.74813,-0.15478 0.9889,-0.46434c0.24077,-0.31529 0.36116,-0.74813 0.36116,-1.29848c0,-0.55607 -0.12039,-0.98888 -0.36116,-1.29846c-0.24077,-0.31529 -0.57042,-0.47297 -0.9889,-0.47297c-0.40703,0 -0.7338,0.15766 -0.9803,0.47297c-0.24077,0.31529 -0.36116,0.74811 -0.36116,1.29846c0,0.55607 0.12039,0.98892 0.36116,1.29848c0.2465,0.30956 0.57328,0.46434 0.9803,0.46434z" fill="#ffa3f7"/><path d="M217.08965,177.2139c0.84844,0 1.5163,0.26371 2.0036,0.79112c0.48729,0.52168 0.73092,1.18667 0.73092,1.99499c0,0.81405 -0.2465,1.48192 -0.73953,2.0036c-0.49302,0.52168 -1.14654,0.78252 -1.96059,0.78252c-0.88284,0 -1.56505,-0.26372 -2.04659,-0.79113c-0.47582,-0.53314 -0.71373,-1.19815 -0.71373,-1.99499c0,-0.81405 0.24364,-1.48191 0.73093,-2.00359c0.48729,-0.52168 1.15227,-0.78252 1.99499,-0.78252zM217.06818,181.85454c0.9665,0 1.75,-0.7835 1.75,-1.75c0,-0.9665 -0.7835,-1.75 -1.75,-1.75c-0.9665,0 -1.75,0.7835 -1.75,1.75c0,0.9665 0.7835,1.75 1.75,1.75z" fill="#ffa3f7"/><path d="M193.60592,182.0122c-0.6478,0.51595 -1.28415,0.77392 -1.90901,0.77392c-0.59047,0 -1.04622,-0.14906 -1.36726,-0.44716c-0.31529,-0.30383 -0.47296,-0.6736 -0.47296,-1.10929c0,-0.37262 0.10607,-0.6736 0.31817,-0.90291c0.21785,-0.22931 0.45289,-0.38696 0.70513,-0.47295c0.25797,-0.09172 0.67359,-0.19779 1.24687,-0.31817c0.57328,-0.12038 1.03476,-0.22931 1.38446,-0.32676c-0.00573,-0.41276 -0.08886,-0.6908 -0.24938,-0.83413c-0.16052,-0.14906 -0.40416,-0.22357 -0.73092,-0.22357c-0.61913,0 -1.02617,0.17483 -1.22107,0.52453c-0.10318,0.1949 -0.19777,0.33536 -0.28376,0.42136c-0.08025,0.08025 -0.20065,0.12038 -0.36116,0.12038c-0.14332,0 -0.27517,-0.04587 -0.39556,-0.13759c-0.11466,-0.09745 -0.17198,-0.22071 -0.17198,-0.36977c0,-0.35543 0.19205,-0.69366 0.57614,-1.01469c0.3841,-0.32102 0.98889,-0.48156 1.81441,-0.48156c0.83697,0 1.44752,0.14619 1.83161,0.43856c0.38983,0.28664 0.57328,0.87137 0.55033,1.75422l-0.02578,1.28127c-0.01146,0.39557 0.02866,0.71946 0.12038,0.9717c0.09745,0.25224 0.14619,0.44429 0.14619,0.57614c0,0.14332 -0.06592,0.2723 -0.19778,0.38696c-0.12612,0.10893 -0.26657,0.16338 -0.42136,0.16338c-0.28091,0 -0.57613,-0.25797 -0.88571,-0.77392zM193.51992,180.0344c-0.20639,0.07452 -0.54462,0.16052 -1.0147,0.25797c-0.46435,0.09172 -0.79685,0.19778 -0.9975,0.31816c-0.19491,0.12038 -0.29237,0.29525 -0.29237,0.52456c0,0.20065 0.0774,0.37548 0.23217,0.52454c0.16052,0.14906 0.38122,0.22358 0.66213,0.22358c0.30383,0 0.58474,-0.08312 0.84271,-0.24937c0.25797,-0.16625 0.41562,-0.36116 0.47295,-0.58474c0.06306,-0.22931 0.0946,-0.56755 0.0946,-1.01469z" fill="#ffa3f7"/><path d="M284.85359,182.0122c-0.6478,0.51595 -1.28413,0.77392 -1.909,0.77392c-0.59047,0 -1.04623,-0.14906 -1.36727,-0.44716c-0.31529,-0.30383 -0.47295,-0.6736 -0.47295,-1.10929c0,-0.37262 0.10606,-0.6736 0.31817,-0.90291c0.21783,-0.22931 0.45288,-0.38696 0.70513,-0.47295c0.25797,-0.09172 0.67359,-0.19779 1.24687,-0.31817c0.57328,-0.12038 1.03476,-0.22931 1.38446,-0.32676c-0.00573,-0.41276 -0.08886,-0.6908 -0.24937,-0.83413c-0.16052,-0.14906 -0.40416,-0.22357 -0.73093,-0.22357c-0.61913,0 -1.02616,0.17483 -1.22108,0.52453c-0.10319,0.1949 -0.19777,0.33536 -0.28377,0.42136c-0.08026,0.08025 -0.20066,0.12038 -0.36117,0.12038c-0.14331,0 -0.27517,-0.04587 -0.39556,-0.13759c-0.11466,-0.09745 -0.17198,-0.22071 -0.17198,-0.36977c0,-0.35543 0.19205,-0.69366 0.57614,-1.01469c0.38409,-0.32102 0.9889,-0.48156 1.81442,-0.48156c0.83699,0 1.44752,0.14619 1.83161,0.43856c0.38982,0.28664 0.57328,0.87137 0.55034,1.75422l-0.02579,1.28127c-0.01146,0.39557 0.02867,0.71946 0.12039,0.9717c0.09746,0.25224 0.14619,0.44429 0.14619,0.57614c0,0.14332 -0.06593,0.2723 -0.19779,0.38696c-0.12612,0.10893 -0.26658,0.16338 -0.42135,0.16338c-0.28091,0 -0.57616,-0.25797 -0.88572,-0.77392zM284.7676,180.0344c-0.20637,0.07452 -0.54461,0.16052 -1.01469,0.25797c-0.46435,0.09172 -0.79685,0.19778 -0.9975,0.31816c-0.19491,0.12038 -0.29237,0.29525 -0.29237,0.52456c0,0.20065 0.0774,0.37548 0.23218,0.52454c0.16051,0.14906 0.38122,0.22358 0.66213,0.22358c0.30383,0 0.58474,-0.08312 0.84271,-0.24937c0.25797,-0.16625 0.41563,-0.36116 0.47295,-0.58474c0.06306,-0.22931 0.09459,-0.56755 0.09459,-1.01469z" fill="#ffa3f7"/><path d="M239.70835,182.0122c-0.6478,0.51595 -1.28414,0.77392 -1.90901,0.77392c-0.59047,0 -1.04623,-0.14906 -1.36727,-0.44716c-0.31529,-0.30383 -0.47295,-0.6736 -0.47295,-1.10929c0,-0.37262 0.10606,-0.6736 0.31816,-0.90291c0.21785,-0.22931 0.45289,-0.38696 0.70513,-0.47295c0.25797,-0.09172 0.67361,-0.19779 1.24687,-0.31817c0.57328,-0.12038 1.03476,-0.22931 1.38446,-0.32676c-0.00573,-0.41276 -0.08886,-0.6908 -0.24938,-0.83413c-0.16052,-0.14906 -0.40416,-0.22357 -0.73092,-0.22357c-0.61913,0 -1.02616,0.17483 -1.22107,0.52453c-0.10318,0.1949 -0.19779,0.33536 -0.28378,0.42136c-0.08025,0.08025 -0.20065,0.12038 -0.36116,0.12038c-0.14332,0 -0.27517,-0.04587 -0.39556,-0.13759c-0.11466,-0.09745 -0.17198,-0.22071 -0.17198,-0.36977c0,-0.35543 0.19206,-0.69366 0.57614,-1.01469c0.3841,-0.32102 0.98889,-0.48156 1.81441,-0.48156c0.83697,0 1.44752,0.14619 1.83161,0.43856c0.38983,0.28664 0.57328,0.87137 0.55033,1.75422l-0.02579,1.28127c-0.01146,0.39557 0.02867,0.71946 0.12039,0.9717c0.09745,0.25224 0.14619,0.44429 0.14619,0.57614c0,0.14332 -0.06591,0.2723 -0.19778,0.38696c-0.12612,0.10893 -0.26657,0.16338 -0.42136,0.16338c-0.28091,0 -0.57613,-0.25797 -0.88571,-0.77392zM239.62235,180.0344c-0.20639,0.07452 -0.54461,0.16052 -1.0147,0.25797c-0.46435,0.09172 -0.79685,0.19778 -0.9975,0.31816c-0.19491,0.12038 -0.29237,0.29525 -0.29237,0.52456c0,0.20065 0.07739,0.37548 0.23218,0.52454c0.16052,0.14906 0.38123,0.22358 0.66214,0.22358c0.30383,0 0.58474,-0.08312 0.84271,-0.24937c0.25797,-0.16625 0.41563,-0.36116 0.47296,-0.58474c0.06306,-0.22931 0.09458,-0.56755 0.09458,-1.01469z" fill="#ffa3f7"/><path d="M187.86583,180.33538h-2.68292c0.01146,0.51022 0.14905,0.8943 0.41275,1.15228c0.26944,0.25797 0.59048,0.38696 0.9631,0.38696c0.45863,0 0.88857,-0.20064 1.28986,-0.60193c0.16625,-0.16625 0.28664,-0.26945 0.36116,-0.30957c0.08025,-0.04012 0.16912,-0.06019 0.26658,-0.06019c0.12612,0 0.23217,0.04013 0.31817,0.12039c0.08599,0.07452 0.12898,0.16911 0.12898,0.28377c0,0.30383 -0.20925,0.62773 -0.62774,0.9717c-0.41848,0.33824 -0.98889,0.50735 -1.71122,0.50735c-0.91724,0 -1.61377,-0.25797 -2.08959,-0.77392c-0.47008,-0.52168 -0.70513,-1.19241 -0.70513,-2.0122c0,-0.83124 0.23504,-1.50198 0.70513,-2.01218c0.47582,-0.51595 1.13508,-0.77392 1.97779,-0.77392c0.80832,0 1.43033,0.24364 1.86602,0.73093c0.44143,0.48729 0.66213,1.01469 0.66213,1.58224c0,0.2465 -0.07452,0.44428 -0.22358,0.59333c-0.14332,0.14332 -0.44717,0.21499 -0.91152,0.21499zM187.67666,179.56146c-0.01719,-0.45863 -0.14331,-0.80545 -0.37835,-1.04049c-0.23504,-0.24077 -0.52454,-0.36116 -0.86851,-0.36116c-0.72232,0 -1.13794,0.46723 -1.24687,1.40165z" fill="#ffa3f7"/><path d="M297.41724,180.33538h-2.68293c0.01146,0.51022 0.14906,0.8943 0.41276,1.15228c0.26945,0.25797 0.59046,0.38696 0.96309,0.38696c0.45862,0 0.88858,-0.20064 1.28987,-0.60193c0.16625,-0.16625 0.28664,-0.26945 0.36116,-0.30957c0.08026,-0.04012 0.16911,-0.06019 0.26657,-0.06019c0.12612,0 0.23217,0.04013 0.31817,0.12039c0.086,0.07452 0.12899,0.16911 0.12899,0.28377c0,0.30383 -0.20924,0.62773 -0.62773,0.9717c-0.41849,0.33824 -0.98889,0.50735 -1.71123,0.50735c-0.91724,0 -1.61377,-0.25797 -2.08958,-0.77392c-0.47008,-0.52168 -0.70513,-1.19241 -0.70513,-2.0122c0,-0.83124 0.23505,-1.50198 0.70513,-2.01218c0.47582,-0.51595 1.13508,-0.77392 1.9778,-0.77392c0.80831,0 1.43031,0.24364 1.86601,0.73093c0.44142,0.48729 0.66214,1.01469 0.66214,1.58224c0,0.2465 -0.07453,0.44428 -0.22358,0.59333c-0.14331,0.14332 -0.44715,0.21499 -0.9115,0.21499zM297.22806,179.56146c-0.0172,-0.45863 -0.14332,-0.80545 -0.37837,-1.04049c-0.23505,-0.24077 -0.52455,-0.36116 -0.86851,-0.36116c-0.72232,0 -1.13794,0.46723 -1.24687,1.40165z" fill="#ffa3f7"/><path d="M172.29937,180.33538h-2.68293c0.01146,0.51022 0.14906,0.8943 0.41276,1.15228c0.26944,0.25797 0.59047,0.38696 0.9631,0.38696c0.45863,0 0.88858,-0.20064 1.28987,-0.60193c0.16625,-0.16625 0.28664,-0.26945 0.36116,-0.30957c0.08025,-0.04012 0.16912,-0.06019 0.26658,-0.06019c0.12612,0 0.23217,0.04013 0.31816,0.12039c0.08599,0.07452 0.12898,0.16911 0.12898,0.28377c0,0.30383 -0.20925,0.62773 -0.62772,0.9717c-0.41848,0.33824 -0.9889,0.50735 -1.71122,0.50735c-0.91724,0 -1.61377,-0.25797 -2.08958,-0.77392c-0.47008,-0.52168 -0.70514,-1.19241 -0.70514,-2.0122c0,-0.83124 0.23505,-1.50198 0.70514,-2.01218c0.47582,-0.51595 1.13508,-0.77392 1.97779,-0.77392c0.80832,0 1.43032,0.24364 1.86601,0.73093c0.44143,0.48729 0.66213,1.01469 0.66213,1.58224c0,0.2465 -0.07452,0.44428 -0.22358,0.59333c-0.14332,0.14332 -0.44715,0.21499 -0.9115,0.21499zM172.11019,179.56146c-0.01719,-0.45863 -0.14333,-0.80545 -0.37837,-1.04049c-0.23504,-0.24077 -0.52453,-0.36116 -0.8685,-0.36116c-0.72232,0 -1.13794,0.46723 -1.24687,1.40165z" fill="#ffa3f7"/><path d="M328.38472,180.33538h-2.68293c0.01146,0.51022 0.14906,0.8943 0.41276,1.15228c0.26945,0.25797 0.59047,0.38696 0.9631,0.38696c0.45862,0 0.88857,-0.20064 1.28986,-0.60193c0.16625,-0.16625 0.28665,-0.26945 0.36118,-0.30957c0.08026,-0.04012 0.16912,-0.06019 0.26657,-0.06019c0.12612,0 0.23217,0.04013 0.31817,0.12039c0.086,0.07452 0.12898,0.16911 0.12898,0.28377c0,0.30383 -0.20925,0.62773 -0.62774,0.9717c-0.41849,0.33824 -0.98889,0.50735 -1.71122,0.50735c-0.91724,0 -1.61376,-0.25797 -2.08958,-0.77392c-0.47008,-0.52168 -0.70513,-1.19241 -0.70513,-2.0122c0,-0.83124 0.23505,-1.50198 0.70513,-2.01218c0.47582,-0.51595 1.13508,-0.77392 1.9778,-0.77392c0.80831,0 1.43032,0.24364 1.866,0.73093c0.44142,0.48729 0.66213,1.01469 0.66213,1.58224c0,0.2465 -0.07452,0.44428 -0.22358,0.59333c-0.14331,0.14332 -0.44715,0.21499 -0.9115,0.21499zM328.19553,179.56146c-0.01719,-0.45863 -0.14332,-0.80545 -0.37837,-1.04049c-0.23505,-0.24077 -0.52454,-0.36116 -0.8685,-0.36116c-0.72232,0 -1.13794,0.46723 -1.24687,1.40165z" fill="#ffa3f7"/><path d="M210.67471,179.54426l-1.79721,-2.78612c-0.29237,-0.44716 -0.43857,-0.75959 -0.43857,-0.93731c0,-0.17771 0.06879,-0.32677 0.20639,-0.44716c0.13759,-0.12612 0.30097,-0.18918 0.49016,-0.18918c0.18344,0 0.32678,0.0516 0.42995,0.15479c0.10318,0.10318 0.26945,0.33822 0.49876,0.70513l1.37586,2.22717l1.38446,-2.22717c0.24077,-0.39557 0.41562,-0.63634 0.52455,-0.72233c0.10893,-0.09172 0.24938,-0.13758 0.42136,-0.13758c0.17771,0 0.32964,0.06306 0.45576,0.18918c0.13186,0.12038 0.19778,0.26657 0.19778,0.43856c0,0.16625 -0.14332,0.47009 -0.42996,0.91152l-1.84022,2.8205v2.00359c0,0.32676 -0.01433,0.56181 -0.043,0.70513c-0.02293,0.14332 -0.10031,0.26943 -0.23217,0.37835c-0.13186,0.10318 -0.28664,0.15479 -0.46435,0.15479c-0.16625,0 -0.3153,-0.04873 -0.44715,-0.14619c-0.13186,-0.10318 -0.21498,-0.22644 -0.24938,-0.36976c-0.02866,-0.14906 -0.04299,-0.38983 -0.04299,-0.72232z" fill="#ffa3f7"/><path d="M144.85504,179.54426l-1.79721,-2.78612c-0.29237,-0.44716 -0.43856,-0.75959 -0.43856,-0.93731c0,-0.17771 0.06879,-0.32677 0.20638,-0.44716c0.13759,-0.12612 0.30097,-0.18918 0.49016,-0.18918c0.18344,0 0.32676,0.0516 0.42995,0.15479c0.10318,0.10318 0.26943,0.33822 0.49874,0.70513l1.37586,2.22717l1.38446,-2.22717c0.24077,-0.39557 0.41563,-0.63634 0.52455,-0.72233c0.10893,-0.09172 0.24937,-0.13758 0.42135,-0.13758c0.17771,0 0.32964,0.06306 0.45576,0.18918c0.13186,0.12038 0.19777,0.26657 0.19777,0.43856c0,0.16625 -0.14331,0.47009 -0.42995,0.91152l-1.84022,2.8205v2.00359c0,0.32676 -0.01434,0.56181 -0.043,0.70513c-0.02293,0.14332 -0.1003,0.26943 -0.23217,0.37835c-0.13186,0.10318 -0.28665,0.15479 -0.46436,0.15479c-0.16625,0 -0.31529,-0.04873 -0.44716,-0.14619c-0.13186,-0.10318 -0.21499,-0.22644 -0.24938,-0.36976c-0.02866,-0.14906 -0.04298,-0.38983 -0.04298,-0.72232z" fill="#ffa3f7"/><path d="M220.86622,178.34898c0,-0.2981 0.01145,-0.51308 0.03439,-0.64495c0.02293,-0.13186 0.09173,-0.24651 0.20639,-0.34396c0.12038,-0.09745 0.26372,-0.14619 0.42996,-0.14619c0.16052,0 0.30097,0.04587 0.42135,0.13758c0.12612,0.09172 0.20352,0.21211 0.23218,0.36116c0.02866,0.14332 0.043,0.36403 0.043,0.66213v1.88322c0,0.61914 0.09458,1.01468 0.28377,1.18667c0.19491,0.17199 0.40702,0.25798 0.63632,0.25798c0.2637,0 0.49302,-0.07451 0.68793,-0.22357c0.20065,-0.14906 0.33535,-0.32677 0.40416,-0.53315c0.07452,-0.21211 0.11178,-0.62488 0.11178,-1.23827v-1.35865c0,-0.29237 0.01434,-0.50735 0.043,-0.64495c0.02866,-0.13759 0.1032,-0.25224 0.22358,-0.34396c0.12038,-0.09745 0.2637,-0.14619 0.42995,-0.14619c0.15479,0 0.29238,0.04587 0.41276,0.13758c0.12612,0.09172 0.20064,0.20638 0.22358,0.34397c0.02866,0.13186 0.043,0.3497 0.043,0.65353v3.37946c0,0.27518 -0.01434,0.47582 -0.043,0.60193c-0.02866,0.12038 -0.0946,0.22644 -0.19779,0.31816c-0.10318,0.09172 -0.23504,0.13759 -0.39556,0.13759c-0.44143,0 -0.65353,-0.31818 -0.63634,-0.95451c-0.45863,0.63634 -1.06342,0.95451 -1.81441,0.95451c-0.49302,0 -0.91436,-0.14906 -1.26406,-0.44716c-0.34397,-0.2981 -0.51595,-0.82838 -0.51595,-1.59083z" fill="#ffa3f7"/><path d="M155.04657,180.74814v-2.39916c0,-0.2981 0.01146,-0.51308 0.03439,-0.64495c0.02293,-0.13186 0.09173,-0.24651 0.20639,-0.34396c0.12038,-0.09745 0.26371,-0.14619 0.42996,-0.14619c0.16052,0 0.30097,0.04587 0.42136,0.13758c0.12612,0.09172 0.20352,0.21211 0.23218,0.36116c0.02866,0.14332 0.04299,0.36403 0.04299,0.66213v1.88322c0,0.61914 0.09459,1.01468 0.28378,1.18667c0.19491,0.17199 0.40702,0.25798 0.63632,0.25798c0.2637,0 0.49302,-0.07451 0.68793,-0.22357c0.20065,-0.14906 0.33537,-0.32677 0.40416,-0.53315c0.07452,-0.21211 0.11179,-0.62488 0.11179,-1.23827v-1.35865c0,-0.29237 0.01433,-0.50735 0.04299,-0.64495c0.02866,-0.13759 0.1032,-0.25224 0.22358,-0.34396c0.12038,-0.09745 0.2637,-0.14619 0.42995,-0.14619c0.15479,0 0.29237,0.04587 0.41276,0.13758c0.12612,0.09172 0.20063,0.20638 0.22358,0.34397c0.02866,0.13186 0.043,0.3497 0.043,0.65353v3.37946c0,0.27518 -0.01434,0.47582 -0.043,0.60193c-0.02866,0.12038 -0.09459,0.22644 -0.19777,0.31816c-0.10318,0.09172 -0.23504,0.13759 -0.39556,0.13759c-0.44143,0 -0.65353,-0.31818 -0.63633,-0.95451c-0.45863,0.63634 -1.06342,0.95451 -1.81441,0.95451c-0.49302,0 -0.91437,-0.14906 -1.26407,-0.44716c-0.34397,-0.2981 -0.51595,-0.82838 -0.51595,-1.59083z" fill="#ffa3f7"/><path d="M247.18545,181.65103c0,0.29237 -0.01433,0.50448 -0.04299,0.63634c-0.02293,0.13186 -0.0946,0.24939 -0.21498,0.35257c-0.11466,0.09745 -0.25511,0.14619 -0.42136,0.14619c-0.14906,0 -0.28664,-0.043 -0.41276,-0.12899c-0.12612,-0.09172 -0.20638,-0.20924 -0.24077,-0.35257c-0.02866,-0.14332 -0.043,-0.36116 -0.043,-0.65354v-1.96919c0,-0.55034 -0.08312,-0.92011 -0.24937,-1.10929c-0.16052,-0.18918 -0.3841,-0.28377 -0.67074,-0.28377c-0.25797,0 -0.48728,0.07452 -0.68793,0.22358c-0.19491,0.14906 -0.3325,0.33823 -0.41275,0.56754c-0.08025,0.22358 -0.12039,0.60768 -0.12039,1.15228v1.41886c0,0.28664 -0.01146,0.49588 -0.03441,0.62774c-0.02293,0.12612 -0.09746,0.24364 -0.22358,0.35256c-0.12038,0.10318 -0.26084,0.15479 -0.42136,0.15479c-0.14906,0 -0.28663,-0.04587 -0.41275,-0.13758c-0.12612,-0.09172 -0.20352,-0.20638 -0.23217,-0.34397c-0.02866,-0.13759 -0.043,-0.35543 -0.043,-0.65353v-3.37945c0,-0.30383 0.01434,-0.51595 0.043,-0.63634c0.02866,-0.12038 0.10031,-0.22071 0.21497,-0.30097c0.12038,-0.08025 0.25225,-0.12039 0.39556,-0.12039c0.13185,0 0.26943,0.05446 0.41276,0.16339c0.14906,0.10318 0.22358,0.35829 0.22358,0.76532c0.45289,-0.61913 1.04049,-0.92871 1.76282,-0.92871c0.27517,0 0.54461,0.05446 0.80831,0.16339c0.26944,0.10318 0.48729,0.2723 0.65354,0.50735c0.17199,0.22931 0.27518,0.46722 0.30957,0.71373c0.04012,0.2465 0.06019,0.51595 0.06019,0.80832z" fill="#ffa3f7"/><path d="M252.64288,178.64136c0,0.17771 0.09173,0.31816 0.27517,0.42135c0.18344,0.09745 0.59334,0.22359 1.22968,0.37837c1.244,0.30383 1.86601,0.81978 1.86601,1.54784c0,0.57901 -0.20926,1.0233 -0.62774,1.33286c-0.41848,0.30956 -1.00323,0.46435 -1.75422,0.46435c-0.76245,0 -1.33861,-0.15765 -1.72843,-0.47295c-0.3841,-0.31529 -0.57613,-0.6478 -0.57613,-0.9975c0,-0.14906 0.05161,-0.27803 0.1548,-0.38696c0.10893,-0.10893 0.24364,-0.16338 0.40415,-0.16338c0.21211,0 0.39842,0.13472 0.55894,0.40415c0.18344,0.29237 0.38123,0.48728 0.59334,0.58474c0.21785,0.09172 0.45289,0.13759 0.70513,0.13759c0.26944,0 0.49015,-0.0602 0.66213,-0.18059c0.17199,-0.12038 0.25798,-0.27517 0.25798,-0.46435c0,-0.17199 -0.07166,-0.31817 -0.21498,-0.43856c-0.14332,-0.12612 -0.54174,-0.26369 -1.19527,-0.41275c-0.6478,-0.14906 -1.12075,-0.35831 -1.41885,-0.62774c-0.2981,-0.26944 -0.44716,-0.59047 -0.44716,-0.9631c0,-0.41848 0.18059,-0.78826 0.54175,-1.10929c0.36689,-0.32102 0.9115,-0.48155 1.63383,-0.48155c0.66501,0 1.19527,0.13758 1.59083,0.41276c0.39557,0.26944 0.59334,0.55034 0.59334,0.84271c0,0.14906 -0.0516,0.27804 -0.15479,0.38697c-0.09745,0.10318 -0.23505,0.15478 -0.41277,0.15478c-0.2637,0 -0.50162,-0.15192 -0.71373,-0.45575c-0.21211,-0.30383 -0.53314,-0.45575 -0.9631,-0.45575c-0.22931,0 -0.42996,0.04873 -0.60195,0.14619c-0.17199,0.09172 -0.25796,0.22358 -0.25796,0.39557z" fill="#ffa3f7"/><path d="M331.70844,178.64136c0,0.17771 0.09173,0.31816 0.27518,0.42135c0.18344,0.09745 0.59334,0.22359 1.22968,0.37837c1.244,0.30383 1.86599,0.81978 1.86599,1.54784c0,0.57901 -0.20925,1.0233 -0.62774,1.33286c-0.41849,0.30956 -1.00323,0.46435 -1.75422,0.46435c-0.76245,0 -1.33859,-0.15765 -1.72841,-0.47295c-0.38409,-0.31529 -0.57614,-0.6478 -0.57614,-0.9975c0,-0.14906 0.05158,-0.27803 0.15479,-0.38696c0.10893,-0.10893 0.24364,-0.16338 0.40415,-0.16338c0.21211,0 0.39843,0.13472 0.55894,0.40415c0.18344,0.29237 0.38124,0.48728 0.59334,0.58474c0.21783,0.09172 0.45288,0.13759 0.70512,0.13759c0.26945,0 0.49015,-0.0602 0.66214,-0.18059c0.17198,-0.12038 0.25796,-0.27517 0.25796,-0.46435c0,-0.17199 -0.07166,-0.31817 -0.21497,-0.43856c-0.14331,-0.12612 -0.54174,-0.26369 -1.19527,-0.41275c-0.6478,-0.14906 -1.12076,-0.35831 -1.41886,-0.62774c-0.2981,-0.26944 -0.44716,-0.59047 -0.44716,-0.9631c0,-0.41848 0.18059,-0.78826 0.54174,-1.10929c0.3669,-0.32102 0.9115,-0.48155 1.63383,-0.48155c0.66501,0 1.19527,0.13758 1.59084,0.41276c0.39557,0.26944 0.59334,0.55034 0.59334,0.84271c0,0.14906 -0.05158,0.27804 -0.15479,0.38697c-0.09746,0.10318 -0.23505,0.15478 -0.41276,0.15478c-0.26371,0 -0.50162,-0.15192 -0.71372,-0.45575c-0.21211,-0.30383 -0.53314,-0.45575 -0.96311,-0.45575c-0.22931,0 -0.42995,0.04873 -0.60193,0.14619c-0.17198,0.09172 -0.25797,0.22358 -0.25797,0.39557z" fill="#ffa3f7"/><path d="M234.4756,180.49016c0.16625,0 0.30383,0.06592 0.41275,0.19778c0.11466,0.13186 0.17199,0.26657 0.17199,0.40417c0,0.36689 -0.22359,0.74238 -0.67075,1.12648c-0.44143,0.37835 -1.03476,0.56755 -1.78,0.56755c-0.90004,0 -1.57938,-0.25512 -2.038,-0.76533c-0.45863,-0.51021 -0.68793,-1.17235 -0.68793,-1.9864c0,-0.82551 0.23792,-1.50198 0.71374,-2.02939c0.47582,-0.52741 1.15229,-0.79112 2.02939,-0.79112c0.6822,0 1.24687,0.18058 1.69403,0.54174c0.44716,0.35543 0.67074,0.70513 0.67074,1.04909c0,0.16625 -0.0602,0.30669 -0.18058,0.42135c-0.12038,0.10893 -0.26372,0.16339 -0.42996,0.16339c-0.20065,0 -0.35829,-0.08314 -0.47295,-0.24939c-0.2465,-0.3841 -0.46723,-0.62486 -0.66214,-0.72232c-0.1949,-0.10318 -0.40414,-0.15479 -0.62772,-0.15479c-0.43569,0 -0.77392,0.16911 -1.0147,0.50735c-0.23504,0.3325 -0.35256,0.74812 -0.35256,1.24687c0,0.51595 0.12327,0.93731 0.36977,1.26407c0.25224,0.32102 0.58474,0.48155 0.9975,0.48155c0.23504,0 0.45288,-0.05445 0.65353,-0.16337c0.20065,-0.11466 0.37262,-0.28377 0.51595,-0.50735c0.14906,-0.22931 0.26658,-0.38697 0.35257,-0.47296c0.08599,-0.08599 0.19778,-0.12898 0.33537,-0.12898z" fill="#ffa3f7"/><path d="M291.82335,180.49016c0.16625,0 0.30383,0.06592 0.41275,0.19778c0.11466,0.13186 0.17198,0.26657 0.17198,0.40417c0,0.36689 -0.22358,0.74238 -0.67073,1.12648c-0.44142,0.37835 -1.03476,0.56755 -1.78002,0.56755c-0.90004,0 -1.57936,-0.25512 -2.03798,-0.76533c-0.45862,-0.51021 -0.68794,-1.17235 -0.68794,-1.9864c0,-0.82551 0.23791,-1.50198 0.71373,-2.02939c0.47582,-0.52741 1.15228,-0.79112 2.02939,-0.79112c0.68219,0 1.24687,0.18058 1.69403,0.54174c0.44716,0.35543 0.67073,0.70513 0.67073,1.04909c0,0.16625 -0.0602,0.30669 -0.18058,0.42135c-0.12039,0.10893 -0.26371,0.16339 -0.42996,0.16339c-0.20065,0 -0.35829,-0.08314 -0.47295,-0.24939c-0.24651,-0.3841 -0.46722,-0.62486 -0.66214,-0.72232c-0.1949,-0.10318 -0.40415,-0.15479 -0.62773,-0.15479c-0.43568,0 -0.77393,0.16911 -1.0147,0.50735c-0.23505,0.3325 -0.35256,0.74812 -0.35256,1.24687c0,0.51595 0.12325,0.93731 0.36976,1.26407c0.25225,0.32102 0.58474,0.48155 0.9975,0.48155c0.23505,0 0.45288,-0.05445 0.65353,-0.16337c0.20065,-0.11466 0.37262,-0.28377 0.51594,-0.50735c0.14905,-0.22931 0.26657,-0.38697 0.35258,-0.47296c0.086,-0.08599 0.19778,-0.12898 0.33536,-0.12898z" fill="#ffa3f7"/><path d="M257.39079,177.33428v-0.81692c0,-0.33824 0.01433,-0.56755 0.043,-0.68794c0.02866,-0.12612 0.1032,-0.23504 0.22358,-0.32676c0.12039,-0.09745 0.26084,-0.14619 0.42135,-0.14619c0.14331,0 0.27517,0.04298 0.39555,0.12898c0.12039,0.08599 0.19778,0.19205 0.23218,0.31817c0.04012,0.12612 0.06019,0.32677 0.06019,0.60193v0.92871h0.26658c0.33249,0 0.5532,0.04299 0.66213,0.12899c0.10893,0.08025 0.16339,0.19779 0.16339,0.35256c0,0.33824 -0.2809,0.50735 -0.84271,0.50735h-0.24937v2.52813c0,0.34397 0.02294,0.57901 0.0688,0.70513c0.05159,0.12038 0.18058,0.18058 0.38696,0.18058c0.10319,0 0.21497,-0.01433 0.33535,-0.04299c0.12612,-0.02866 0.22071,-0.043 0.28377,-0.043c0.13759,0 0.24937,0.04588 0.33537,0.1376c0.086,0.08599 0.12899,0.19205 0.12899,0.31816c0,0.45289 -0.47295,0.67933 -1.41885,0.67933c-0.4586,0 -0.79685,-0.08599 -1.01468,-0.25797c-0.21211,-0.17199 -0.34684,-0.37835 -0.40416,-0.61913c-0.05159,-0.2465 -0.07739,-0.56468 -0.07739,-0.95451v-2.63133h-0.18058c-0.40129,0 -0.60195,-0.16339 -0.60195,-0.49016c0,-0.3325 0.21212,-0.49874 0.63634,-0.49874z" fill="#ffa3f7"/><path d="M264.95155,176.31099v5.34004c0,0.3325 -0.01433,0.55896 -0.043,0.67934c-0.02866,0.11466 -0.10606,0.22071 -0.23218,0.31816c-0.12039,0.09172 -0.25224,0.13758 -0.39557,0.13758c-0.14905,0 -0.28663,-0.04587 -0.41275,-0.13758c-0.12612,-0.09172 -0.20639,-0.20065 -0.24079,-0.32677c-0.02866,-0.12612 -0.043,-0.34971 -0.043,-0.67074v-5.34004c0,-0.33824 0.01433,-0.56466 0.043,-0.67932c0.0344,-0.12038 0.1118,-0.22358 0.23219,-0.30958c0.12612,-0.09172 0.26083,-0.13758 0.40414,-0.13758c0.16625,0 0.30957,0.04873 0.42996,0.14618c0.12612,0.09172 0.20064,0.20351 0.22357,0.33536c0.02294,0.12612 0.0344,0.34109 0.0344,0.64494z" fill="#ffa3f7"/><path d="M267.73396,176.31099v5.34004c0,0.3325 -0.01433,0.55896 -0.043,0.67934c-0.02866,0.11466 -0.10606,0.22071 -0.23218,0.31816c-0.12039,0.09172 -0.25223,0.13758 -0.39556,0.13758c-0.14905,0 -0.28664,-0.04587 -0.41276,-0.13758c-0.12612,-0.09172 -0.20638,-0.20065 -0.24078,-0.32677c-0.02866,-0.12612 -0.04299,-0.34971 -0.04299,-0.67074v-5.34004c0,-0.33824 0.01433,-0.56466 0.04299,-0.67932c0.0344,-0.12038 0.11179,-0.22358 0.23218,-0.30958c0.12612,-0.09172 0.26085,-0.13758 0.40416,-0.13758c0.16625,0 0.30956,0.04873 0.42995,0.14618c0.12612,0.09172 0.20064,0.20351 0.22358,0.33536c0.02294,0.12612 0.0344,0.34109 0.0344,0.64494z" fill="#ffa3f7"/><path d="M279.98159,176.31099v5.34004c0,0.3325 -0.01433,0.55896 -0.043,0.67934c-0.02866,0.11466 -0.10605,0.22071 -0.23217,0.31816c-0.12039,0.09172 -0.25225,0.13758 -0.39556,0.13758c-0.14905,0 -0.28664,-0.04587 -0.41276,-0.13758c-0.12612,-0.09172 -0.20637,-0.20065 -0.24077,-0.32677c-0.02866,-0.12612 -0.043,-0.34971 -0.043,-0.67074v-5.34004c0,-0.33824 0.01433,-0.56466 0.043,-0.67932c0.0344,-0.12038 0.11178,-0.22358 0.23217,-0.30958c0.12612,-0.09172 0.26085,-0.13758 0.40416,-0.13758c0.16625,0 0.30956,0.04873 0.42995,0.14618c0.12612,0.09172 0.20064,0.20351 0.22358,0.33536c0.02294,0.12612 0.0344,0.34109 0.0344,0.64494z" fill="#ffa3f7"/><path d="M164.23161,181.65104v-3.50843c0,-0.61913 0.22644,-0.92871 0.67933,-0.92871c0.42996,0 0.65067,0.28663 0.66214,0.85992c0.28091,-0.57328 0.6736,-0.85992 1.17808,-0.85992c0.2637,0 0.53601,0.07166 0.81692,0.21498c0.28091,0.13759 0.42136,0.32677 0.42136,0.56755c0,0.16625 -0.05733,0.30383 -0.17199,0.41275c-0.10893,0.10893 -0.22929,0.16339 -0.36116,0.16339c-0.07452,0 -0.20926,-0.02866 -0.40416,-0.08599c-0.18919,-0.06306 -0.34969,-0.09459 -0.48155,-0.09459c-0.32676,0 -0.57041,0.16625 -0.73092,0.49875c-0.16052,0.3325 -0.24078,0.97169 -0.24078,1.91761v0.79112c0,0.3497 -0.01433,0.58474 -0.04299,0.70512c-0.02866,0.12038 -0.1032,0.23218 -0.22358,0.33537c-0.12038,0.09745 -0.25798,0.14619 -0.41276,0.14619c-0.14906,0 -0.28377,-0.043 -0.40415,-0.129c-0.12038,-0.09172 -0.19779,-0.19778 -0.23218,-0.31816c-0.03439,-0.12612 -0.05159,-0.35543 -0.05159,-0.68794z" fill="#ffa3f7"/><path d="M323.15154,178.33178v3.31924c0,0.32676 -0.01433,0.55035 -0.043,0.67074c-0.02866,0.12038 -0.10606,0.22931 -0.23218,0.32677c-0.12039,0.09172 -0.25225,0.13758 -0.39557,0.13758c-0.14905,0 -0.28663,-0.04587 -0.41275,-0.13758c-0.12612,-0.09172 -0.20638,-0.20065 -0.24078,-0.32677c-0.02866,-0.12612 -0.043,-0.34971 -0.043,-0.67074v-3.30205c0,-0.30383 0.01146,-0.51882 0.0344,-0.64495c0.02294,-0.12612 0.09458,-0.23791 0.21497,-0.33536c0.12612,-0.10318 0.26943,-0.15479 0.42996,-0.15479c0.16051,0 0.2981,0.04587 0.41276,0.13758c0.12039,0.08599 0.19492,0.19778 0.22358,0.33536c0.0344,0.13759 0.05158,0.35257 0.05158,0.64494z" fill="#ffa3f7"/><path d="M262.16914,178.33178v3.31924c0,0.32676 -0.01434,0.55035 -0.043,0.67074c-0.02866,0.12038 -0.10606,0.22931 -0.23218,0.32677c-0.12039,0.09172 -0.25224,0.13758 -0.39556,0.13758c-0.14905,0 -0.28663,-0.04587 -0.41275,-0.13758c-0.12612,-0.09172 -0.20639,-0.20065 -0.24078,-0.32677c-0.02866,-0.12612 -0.043,-0.34971 -0.043,-0.67074v-3.30205c0,-0.30383 0.01146,-0.51882 0.0344,-0.64495c0.02294,-0.12612 0.09459,-0.23791 0.21497,-0.33536c0.12612,-0.10318 0.26945,-0.15479 0.42996,-0.15479c0.16052,0 0.29809,0.04587 0.41275,0.13758c0.12039,0.08599 0.19491,0.19778 0.22358,0.33536c0.0344,0.13759 0.0516,0.35257 0.0516,0.64494z" fill="#ffa3f7"/><path d="M162.21118,176.69795c-0.22358,0.01146 -0.41564,-0.05733 -0.57614,-0.20638c-0.15479,-0.14906 -0.23217,-0.3325 -0.23217,-0.55035c0,-0.21785 0.07739,-0.39842 0.23217,-0.54174c0.16052,-0.14332 0.34684,-0.21498 0.55895,-0.21498c0.2465,0 0.45002,0.10032 0.61053,0.30097c0.16625,0.19491 0.24938,0.46721 0.24938,0.81692c0,0.51021 -0.15193,0.9545 -0.45576,1.33286c-0.2981,0.37262 -0.57614,0.55895 -0.83411,0.55895c-0.10318,0 -0.18631,-0.03439 -0.24937,-0.1032c-0.06306,-0.06879 -0.09458,-0.14907 -0.09458,-0.24078c0,-0.13186 0.08313,-0.24938 0.24938,-0.35255c0.34397,-0.21211 0.52454,-0.4787 0.54174,-0.79972z" fill="#ffa3f7"/><path d="M203.57892,181.27269c0.20065,0 0.37549,0.07451 0.52455,0.22357c0.14906,0.14332 0.22358,0.31816 0.22358,0.52454c0,0.20639 -0.07452,0.38697 -0.22358,0.54175c-0.14906,0.14906 -0.3239,0.22358 -0.52455,0.22358c-0.21211,0 -0.39269,-0.07452 -0.54175,-0.22358c-0.14906,-0.14906 -0.22357,-0.32965 -0.22357,-0.54175c0,-0.20639 0.07452,-0.38123 0.22357,-0.52454c0.14906,-0.14906 0.32964,-0.22357 0.54175,-0.22357z" fill="#ffa3f7"/><path d="M336.63261,181.27269c0.20065,0 0.37549,0.07451 0.52454,0.22357c0.14905,0.14332 0.22358,0.31816 0.22358,0.52454c0,0.20639 -0.07452,0.38697 -0.22358,0.54175c-0.14905,0.14906 -0.3239,0.22358 -0.52454,0.22358c-0.21211,0 -0.39269,-0.07452 -0.54174,-0.22358c-0.14905,-0.14906 -0.22358,-0.32965 -0.22358,-0.54175c0,-0.20639 0.07453,-0.38123 0.22358,-0.52454c0.14905,-0.14906 0.32964,-0.22357 0.54174,-0.22357z" fill="#ffa3f7"/><path d="M261.49841,175.24469c0.17771,0 0.32963,0.06592 0.45576,0.19779c0.13185,0.13186 0.19779,0.28665 0.19779,0.46436c0,0.18344 -0.06593,0.34108 -0.19779,0.47295c-0.12612,0.13186 -0.27803,0.19779 -0.45576,0.19779c-0.18344,0 -0.34109,-0.06593 -0.47296,-0.19779c-0.13185,-0.13186 -0.19778,-0.2895 -0.19778,-0.47295c0,-0.17771 0.06591,-0.3325 0.19778,-0.46436c0.13185,-0.13186 0.28951,-0.19779 0.47296,-0.19779z" fill="#ffa3f7"/><path d="M322.4808,175.24469c0.17771,0 0.32964,0.06592 0.45576,0.19779c0.13185,0.13186 0.19778,0.28665 0.19778,0.46436c0,0.18344 -0.06592,0.34108 -0.19778,0.47295c-0.12612,0.13186 -0.27805,0.19779 -0.45576,0.19779c-0.18344,0 -0.34109,-0.06593 -0.47294,-0.19779c-0.13185,-0.13186 -0.19778,-0.2895 -0.19778,-0.47295c0,-0.17771 0.06593,-0.3325 0.19778,-0.46436c0.13185,-0.13186 0.2895,-0.19779 0.47294,-0.19779z" fill="#ffa3f7"/></g></g></svg>