<svg version="1.1" xmlns="http://www.w3.org/2000/svg" xmlns:xlink="http://www.w3.org/1999/xlink" width="73.87002" height="87.25" viewBox="0,0,73.87002,87.25"><g transform="translate(-204.26418,-135.475)"><g data-paper-data="{&quot;isPaintingLayer&quot;:true}" fill-rule="nonzero" stroke-linejoin="miter" stroke-miterlimit="10" stroke-dasharray="" stroke-dashoffset="0" style="mix-blend-mode: normal"><path d="M234.35773,214.87171c-14.54441,0 -25.65869,-7.208 -25.17993,-19.98224c0.60894,-16.24749 11.09754,-20.21324 25.64195,-20.21324c14.54441,0 25.87295,5.23286 25.87295,17.67215c0,12.43929 -11.79057,22.52333 -26.33497,22.52333z" fill="#23a6bb" stroke="#000000" stroke-width="7.5" stroke-linecap="butt"/><path d="M234.35773,214.87171c-9.43571,0 -22.16196,-5.60773 -25.33563,-15.65941c-1.71829,-5.44219 1.64971,-14.14657 4.64753,-19.5043c4.30021,-5.64973 12.4429,-5.03177 21.15012,-5.03177c14.54441,0 25.87295,5.23287 25.87295,17.67216c0,5.26552 -2.11265,10.10903 -5.65253,13.94432c-4.82275,5.2252 -12.29466,8.57901 -20.68245,8.57901z" fill="#23a6bb" stroke="#000000" stroke-width="7.5" stroke-linecap="butt"/><path d="M212.87425,173.69443c-0.02096,-4.17662 1.82777,-12.94753 16.7188,-17.23568c19.67281,-5.66514 25.45905,1.33086 27.15928,5.7786c0.67769,1.77281 1.11253,3.28549 -0.86739,6.1744c-1.30974,1.91105 -3.38347,3.8835 -4.80647,4.22442c-2.81003,0.67324 -6.96708,-2.27806 -16.97568,-2.00827c-9.18846,0.24767 -15.43426,3.94749 -19.32085,4.9226c-1.8638,0.40966 -1.90056,-0.43515 -1.90769,-1.85607z" fill="#23a6bb" stroke="#000000" stroke-width="7.5" stroke-linecap="butt"/><path d="M212.87425,173.69443c-0.02096,-4.17662 1.82777,-12.94753 16.7188,-17.23568c19.67281,-5.66514 25.45905,1.33086 27.15928,5.7786c0.67769,1.77281 1.11253,3.28549 -0.86739,6.1744c-1.30974,1.91105 -3.38347,3.8835 -4.80647,4.22442c-2.81003,0.67324 -6.96708,-2.27806 -16.97568,-2.00827c-9.18846,0.24767 -15.43426,3.94749 -19.32085,4.9226c-1.8638,0.40966 -1.90056,-0.43515 -1.90769,-1.85607z" fill="#f1e7a9" stroke="none" stroke-width="7.5" stroke-linecap="butt"/><path d="M215.41105,165.45033c2.2704,-3.35915 6.48302,-6.7745 14.182,-8.99157c14.99798,-4.31895 21.92496,-1.2791 25.12352,2.38028c0.13521,0.1547 -2.36279,1.77935 -3.73212,3.53592c-0.64974,0.83348 -1.10918,1.62137 -1.41815,2.23631c-0.3785,0.75335 -1.31438,1.13142 -2.53816,0.96955c-3.26988,-0.43249 -9.685,-1.19456 -12.70865,-0.95979c-11.07813,0.86015 -22.56518,8.54393 -18.90844,0.82931z" fill="#f1e7a9" stroke="none" stroke-width="7.5" stroke-linecap="butt"/><path d="M234.35773,214.87171c-14.54441,0 -26.16123,-6.21611 -24.94892,-18.59618c0.92404,-9.43618 10.86653,-21.5993 25.41094,-21.5993c14.54441,0 25.87295,5.23286 25.87295,17.67215c0,4.91756 -1.53573,12.10048 -5.31615,15.1345c-5.47597,4.3948 -12.22418,7.38882 -21.01882,7.38882z" fill="#cbc38e" stroke="none" stroke-width="7.5" stroke-linecap="butt"/><path d="M207.09872,189.69179l2.93622,2.20859c0,0 0.08719,1.082 0.5295,1.94288c0.67253,1.30895 1.86298,2.40976 2.42712,0.80794c2.57217,-7.30349 10.78947,-14.55682 19.98012,-14.66177c12.10354,-0.38446 17.12626,3.15242 19.5966,7.18984c2.67655,4.37445 2.95782,12.6521 -1.04638,17.82214c-1.41198,1.82309 1.50142,5.20523 -0.85898,6.95286c-5.69001,4.21285 -17.92225,5.92056 -17.92225,5.92056c0,0 -9.19375,-0.49471 -14.37505,-3.06251c-4.4624,-2.21152 -4.81508,-6.43803 -7.00767,-7.63049c-3.85742,-2.09789 -4.25923,-17.49003 -4.25923,-17.49003z" fill="#000000" stroke="none" stroke-width="7.5" stroke-linecap="butt"/><path d="M245.21513,206.3244c-1.24021,-0.18922 -4.73335,-1.59781 -4.93069,-3.99662c-0.36625,-3.49199 4.60395,-4.28324 2.25448,-10.03058c-1.21059,-2.49065 -2.24914,-6.56117 -11.74069,-5.25133c-4.84491,0.66861 -8.9976,6.54164 -10.18331,6.69494c-1.34019,0.17326 -2.54255,-0.74218 -2.92896,-2.17705c-0.29011,-3.28033 10.35141,-13.53221 26.13499,-7.8605c3.90553,1.37619 6.76081,4.77926 7.74562,7.58931c2.41628,6.89461 -2.94858,15.55101 -6.35144,15.03184z" fill="#121212" stroke="none" stroke-width="7.5" stroke-linecap="butt"/><path d="M254.82774,199.45122l0.46202,8.1623c0,0 -5.73029,5.38851 -12.30367,5.35644c-0.41359,-0.00202 -5.71976,-0.79691 -3.05486,-3.75411c1.5317,-1.69971 4.18217,-1.22325 7.05313,-1.80233c6.37705,-1.28628 7.84339,-7.9623 7.84339,-7.9623z" fill="#cbc38e" stroke="none" stroke-width="7.5" stroke-linecap="butt"/><path d="M226.37505,189.975v-54.5h16v54.5z" fill="none" stroke="none" stroke-width="0" stroke-linecap="butt"/><path d="M219.87505,222.725v-9.25h26.75v9.25z" fill="none" stroke="none" stroke-width="0" stroke-linecap="butt"/><g stroke-width="7.5" stroke-linecap="butt"><path d="M268.71169,194.40625c-0.06178,-0.63059 -0.15366,-1.31339 -0.28445,-2.04684c0.70402,1.57884 1.42784,3.14895 2.18823,4.70728c-1.17073,1.5779 -1.57121,0.73401 -1.90378,-2.66043z" fill="#23a6bb" stroke="#000000"/><path d="M268.46473,199.81589c0,0 0.82262,-2.63284 -0.0375,-7.45646c0.70437,1.57962 1.42855,3.15049 2.18935,4.70957c-1.21016,1.7072 -2.15185,2.74689 -2.15185,2.74689z" fill="#115a31" stroke="none"/><path d="M261.07244,178.79411c0,0 0.51331,-0.7791 1.38113,-1.73305c0.24892,1.22634 0.43114,2.50061 0.86916,3.4918c0.01218,0.02756 0.02435,0.05512 0.03652,0.08268c-1.28643,-1.39646 -2.28681,-1.84143 -2.28681,-1.84143z" fill="#115a31" stroke="none"/></g><path d="M268.14354,197.76181c-4.90313,-1.88037 -12.03718,-6.31809 -15.9347,-8.07386c-7.2149,-3.25018 -6.2652,-7.31675 -4.10325,-12.04287c2.24674,-4.91147 5.33877,-11.67081 7.1395,-15.60729c0.89091,-1.94756 0.87432,-4.10734 1.65128,-2.268c0.6848,1.62116 3.3005,5.37216 5.24685,9.92314c3.44129,8.04642 7.47271,18.59359 9.61631,24.29123c0.94412,2.50944 -1.54136,4.57328 -3.61599,3.77765z" fill="#ffffff" stroke="#000000" stroke-width="5.5" stroke-linecap="butt"/><path d="M269.24438,197.53535c-4.99284,-1.91794 -11.26073,-6.15999 -15.00649,-7.8474c-7.2149,-3.25018 -8.29427,-7.31675 -6.13232,-12.04287c1.81894,-3.97628 5.46301,-11.58138 7.49317,-15.80193c0.87505,-1.81915 1.6202,-1.76886 2.44459,0.24189c1.83749,4.48174 5.37552,12.78923 8.32979,19.71174c1.82313,4.27198 3.42394,8.01653 4.2656,10.00903c1.22728,2.9054 1.00612,6.65164 -1.39433,5.72953z" fill="#f1e7a9" stroke="none" stroke-width="0" stroke-linecap="butt"/><g fill="#ffffff" stroke-linecap="square"><path d="M210.73216,205.80557v0.39929c0,1.51398 -0.65717,2.27098 -1.97151,2.27098c-0.49912,0 -0.92336,-0.12478 -1.27275,-0.37434c-0.34938,-0.26619 -0.55735,-0.5823 -0.62389,-0.94832c-0.06655,-0.38266 -0.09982,-0.9816 -0.09982,-1.79682v-15.64728c0,-0.89841 0.04159,-1.55558 0.12478,-1.97151c0.09982,-0.41593 0.32443,-0.74035 0.67381,-0.97328c0.36602,-0.23292 0.75699,-0.34938 1.17292,-0.34938c0.59894,0 1.08142,0.17469 1.44744,0.52407c0.36602,0.34938 0.54903,1.23115 0.54903,2.64531v5.16585c1.48071,-1.63045 3.2193,-2.44567 5.21576,-2.44567c2.06301,0 3.67682,0.74035 4.84142,2.22107c1.18124,1.46407 1.77186,3.34408 1.77186,5.64001c0,2.44567 -0.59894,4.44213 -1.79682,5.98939c-1.19788,1.54726 -2.82,2.32089 -4.86638,2.32089c-2.06301,0 -3.78496,-0.89009 -5.16585,-2.67027zM210.9318,200.56486c0,1.53062 0.36602,2.7285 1.09805,3.59363c0.74867,0.8485 1.68867,1.27275 2.82,1.27275c0.94832,0 1.79682,-0.40761 2.54549,-1.22283c0.76531,-0.83186 1.14797,-2.13788 1.14797,-3.91806c0,-1.54726 -0.34106,-2.75346 -1.02319,-3.61859c-0.68213,-0.88177 -1.56389,-1.32266 -2.64531,-1.32266c-1.19788,0 -2.15452,0.47416 -2.86992,1.42248c-0.7154,0.93169 -1.0731,2.19611 -1.0731,3.79328zM232.67453,192.30449c2.4623,0 4.40054,0.76531 5.8147,2.29593c1.41416,1.51398 2.12124,3.4439 2.12124,5.78974c0,2.36248 -0.7154,4.30072 -2.1462,5.8147c-1.4308,1.51398 -3.32744,2.27098 -5.68992,2.27098c-2.56212,0 -4.54195,-0.76531 -5.93948,-2.29593c-1.38089,-1.54726 -2.07133,-3.47718 -2.07133,-5.78974c0,-2.36248 0.70708,-4.30072 2.12124,-5.8147c1.41416,-1.51398 3.34408,-2.27098 5.78974,-2.27098zM232.67453,205.5061c1.21451,0 2.17115,-0.4492 2.86992,-1.34761c0.69876,-0.91504 1.04814,-2.17115 1.04814,-3.76832c0,-1.6138 -0.34938,-2.86992 -1.04814,-3.76832c-0.69876,-0.91504 -1.6554,-1.37257 -2.86992,-1.37257c-1.18124,0 -2.12956,0.45753 -2.84496,1.37257c-0.69876,0.91504 -1.04814,2.17115 -1.04814,3.76832c0,1.6138 0.34938,2.86992 1.04814,3.76832c0.7154,0.89841 1.66372,1.34761 2.84496,1.34761zM254.59024,206.20487v-0.39929c-1.36425,1.78018 -3.09452,2.67027 -5.1908,2.67027c-2.02974,0 -3.64354,-0.77363 -4.84142,-2.32089c-1.19788,-1.54726 -1.79682,-3.54372 -1.79682,-5.98939c0,-2.29593 0.5823,-4.17594 1.74691,-5.64001c1.18124,-1.48071 2.80337,-2.22107 4.86638,-2.22107c2.0131,0 3.75169,0.81522 5.21576,2.44567v-5.16585c0,-1.41416 0.17469,-2.29593 0.52407,-2.64531c0.36602,-0.34938 0.85682,-0.52407 1.47239,-0.52407c0.43257,0 0.82354,0.12478 1.17292,0.37434c0.36602,0.23292 0.59062,0.54903 0.67381,0.94832c0.08319,0.39929 0.12478,1.05646 0.12478,1.97151v15.64728c0,0.88177 -0.04991,1.51398 -0.14973,1.89664c-0.08319,0.38266 -0.30779,0.68213 -0.67381,0.89841c-0.36602,0.21628 -0.75699,0.32443 -1.17292,0.32443c-1.31434,0 -1.97151,-0.75699 -1.97151,-2.27098zM246.77908,200.29034c0,1.78018 0.37434,3.0862 1.12301,3.91806c0.74867,0.81522 1.60549,1.22283 2.57045,1.22283c1.13133,0 2.06301,-0.42425 2.79505,-1.27275c0.73204,-0.86513 1.09805,-2.06301 1.09805,-3.59363c0,-1.59717 -0.3577,-2.86992 -1.0731,-3.81824c-0.7154,-0.94832 -1.66372,-1.42248 -2.84496,-1.42248c-1.08142,0 -1.96319,0.44088 -2.64531,1.32266c-0.68213,0.88177 -1.02319,2.09629 -1.02319,3.64354zM266.40056,208.07655l-4.86638,-12.3032c-0.29947,-0.79859 -0.4492,-1.34761 -0.4492,-1.64708c0,-0.46584 0.18301,-0.88177 0.54903,-1.24779c0.38266,-0.38266 0.83186,-0.57398 1.34761,-0.57398c0.4492,0 0.83186,0.14141 1.14797,0.42425c0.3161,0.28283 0.62389,0.8485 0.92336,1.69699l3.36903,9.78267l3.16938,-9.05895c0.41593,-1.19788 0.74867,-1.97151 0.99823,-2.32089c0.24956,-0.34938 0.67381,-0.52407 1.27275,-0.52407c0.54903,0 0.9816,0.18301 1.2977,0.54903c0.3161,0.36602 0.47416,0.74035 0.47416,1.12301c0,0.4492 -0.15806,1.08142 -0.47416,1.89664l-5.1908,13.57595c-0.68213,1.79682 -1.39752,3.06124 -2.1462,3.79328c-0.73204,0.74867 -1.98814,1.12301 -3.76832,1.12301c-2.29593,0 -3.4439,-0.59062 -3.4439,-1.77186c0,-0.38266 0.12478,-0.70708 0.37434,-0.97328c0.26619,-0.26619 0.61557,-0.39929 1.04814,-0.39929c0.06655,0 0.29115,0.01663 0.67381,0.04991c0.38266,0.03328 0.60726,0.04991 0.67381,0.04991c0.73204,0 1.27275,-0.18301 1.62213,-0.54903c0.34938,-0.34938 0.69044,-0.95664 1.02319,-1.82177z" stroke="#000000" stroke-width="5"/><path d="M210.48216,205.80557v0.39929c0,1.51398 -0.65717,2.27098 -1.97151,2.27098c-0.49912,0 -0.92336,-0.12478 -1.27275,-0.37434c-0.34938,-0.26619 -0.55735,-0.5823 -0.62389,-0.94832c-0.06655,-0.38266 -0.09982,-0.9816 -0.09982,-1.79682v-15.64728c0,-0.89841 0.04159,-1.55558 0.12478,-1.97151c0.09982,-0.41593 0.32443,-0.74035 0.67381,-0.97328c0.36602,-0.23292 0.75699,-0.34938 1.17292,-0.34938c0.59894,0 1.08142,0.17469 1.44744,0.52407c0.36602,0.34938 0.54903,1.23115 0.54903,2.64531v5.16585c1.48071,-1.63045 3.2193,-2.44567 5.21576,-2.44567c2.06301,0 3.67682,0.74035 4.84142,2.22107c1.18124,1.46407 1.77186,3.34408 1.77186,5.64001c0,2.44567 -0.59894,4.44213 -1.79682,5.98939c-1.19788,1.54726 -2.82,2.32089 -4.86638,2.32089c-2.06301,0 -3.78496,-0.89009 -5.16585,-2.67027zM210.68181,200.56486c0,1.53062 0.36602,2.7285 1.09805,3.59363c0.74867,0.8485 1.68867,1.27275 2.82,1.27275c0.94832,0 1.79682,-0.40761 2.54549,-1.22283c0.76531,-0.83186 1.14797,-2.13788 1.14797,-3.91806c0,-1.54726 -0.34106,-2.75346 -1.02319,-3.61859c-0.68213,-0.88177 -1.56389,-1.32266 -2.64531,-1.32266c-1.19788,0 -2.15452,0.47416 -2.86992,1.42248c-0.7154,0.93169 -1.0731,2.19611 -1.0731,3.79328zM232.42454,192.30449c2.4623,0 4.40054,0.76531 5.8147,2.29593c1.41416,1.51398 2.12124,3.4439 2.12124,5.78974c0,2.36248 -0.7154,4.30072 -2.1462,5.8147c-1.4308,1.51398 -3.32744,2.27098 -5.68992,2.27098c-2.56212,0 -4.54195,-0.76531 -5.93948,-2.29593c-1.38089,-1.54726 -2.07133,-3.47718 -2.07133,-5.78974c0,-2.36248 0.70708,-4.30072 2.12124,-5.8147c1.41416,-1.51398 3.34408,-2.27098 5.78974,-2.27098zM232.42454,205.5061c1.21451,0 2.17115,-0.4492 2.86992,-1.34761c0.69876,-0.91504 1.04814,-2.17115 1.04814,-3.76832c0,-1.6138 -0.34938,-2.86992 -1.04814,-3.76832c-0.69876,-0.91504 -1.6554,-1.37257 -2.86992,-1.37257c-1.18124,0 -2.12956,0.45753 -2.84496,1.37257c-0.69876,0.91504 -1.04814,2.17115 -1.04814,3.76832c0,1.6138 0.34938,2.86992 1.04814,3.76832c0.7154,0.89841 1.66372,1.34761 2.84496,1.34761zM254.34024,206.20487v-0.39929c-1.36425,1.78018 -3.09452,2.67027 -5.1908,2.67027c-2.02974,0 -3.64354,-0.77363 -4.84142,-2.32089c-1.19788,-1.54726 -1.79682,-3.54372 -1.79682,-5.98939c0,-2.29593 0.5823,-4.17594 1.74691,-5.64001c1.18124,-1.48071 2.80337,-2.22107 4.86638,-2.22107c2.0131,0 3.75169,0.81522 5.21576,2.44567v-5.16585c0,-1.41416 0.17469,-2.29593 0.52407,-2.64531c0.36602,-0.34938 0.85682,-0.52407 1.47239,-0.52407c0.43257,0 0.82354,0.12478 1.17292,0.37434c0.36602,0.23292 0.59062,0.54903 0.67381,0.94832c0.08319,0.39929 0.12478,1.05646 0.12478,1.97151v15.64728c0,0.88177 -0.04991,1.51398 -0.14973,1.89664c-0.08319,0.38266 -0.30779,0.68213 -0.67381,0.89841c-0.36602,0.21628 -0.75699,0.32443 -1.17292,0.32443c-1.31434,0 -1.97151,-0.75699 -1.97151,-2.27098zM246.52908,200.29034c0,1.78018 0.37434,3.0862 1.12301,3.91806c0.74867,0.81522 1.60549,1.22283 2.57045,1.22283c1.13133,0 2.06301,-0.42425 2.79505,-1.27275c0.73204,-0.86513 1.09805,-2.06301 1.09805,-3.59363c0,-1.59717 -0.3577,-2.86992 -1.0731,-3.81824c-0.7154,-0.94832 -1.66372,-1.42248 -2.84496,-1.42248c-1.08142,0 -1.96319,0.44088 -2.64531,1.32266c-0.68213,0.88177 -1.02319,2.09629 -1.02319,3.64354zM266.15056,208.07655l-4.86638,-12.3032c-0.29947,-0.79859 -0.4492,-1.34761 -0.4492,-1.64708c0,-0.46584 0.18301,-0.88177 0.54903,-1.24779c0.38266,-0.38266 0.83186,-0.57398 1.34761,-0.57398c0.4492,0 0.83186,0.14141 1.14797,0.42425c0.3161,0.28283 0.62389,0.8485 0.92336,1.69699l3.36903,9.78267l3.16938,-9.05895c0.41593,-1.19788 0.74867,-1.97151 0.99823,-2.32089c0.24956,-0.34938 0.67381,-0.52407 1.27275,-0.52407c0.54903,0 0.9816,0.18301 1.2977,0.54903c0.3161,0.36602 0.47416,0.74035 0.47416,1.12301c0,0.4492 -0.15806,1.08142 -0.47416,1.89664l-5.1908,13.57595c-0.68213,1.79682 -1.39752,3.06124 -2.1462,3.79328c-0.73204,0.74867 -1.98814,1.12301 -3.76832,1.12301c-2.29593,0 -3.4439,-0.59062 -3.4439,-1.77186c0,-0.38266 0.12478,-0.70708 0.37434,-0.97328c0.26619,-0.26619 0.61557,-0.39929 1.04814,-0.39929c0.06655,0 0.29115,0.01663 0.67381,0.04991c0.38266,0.03328 0.60726,0.04991 0.67381,0.04991c0.73204,0 1.27275,-0.18301 1.62213,-0.54903c0.34938,-0.34938 0.69044,-0.95664 1.02319,-1.82177z" stroke="none" stroke-width="1"/></g></g></g></svg>