<svg version="1.1" xmlns="http://www.w3.org/2000/svg" xmlns:xlink="http://www.w3.org/1999/xlink" width="59.72768" height="34.39987" viewBox="0,0,59.72768,34.39987"><g transform="translate(-215.15065,-162.80006)"><g data-paper-data="{&quot;isPaintingLayer&quot;:true}" fill="#ffffff" fill-rule="nonzero" stroke-linecap="square" stroke-linejoin="miter" stroke-miterlimit="10" stroke-dasharray="" stroke-dashoffset="0" style="mix-blend-mode: normal"><path d="M235.01708,194.69993h-13.8111c-1.48139,0 -2.44999,-0.31907 -2.9058,-0.9572c-0.43302,-0.63814 -0.64953,-1.21929 -0.64953,-1.74348c0,-1.00279 0.52419,-2.22209 1.57255,-3.65789c1.07117,-1.43581 3.05394,-3.36162 5.94834,-5.77742c2.89441,-2.4158 4.77463,-4.14789 5.64067,-5.19625c0.88883,-1.07116 1.33325,-2.26767 1.33325,-3.58952c0,-1.32185 -0.45582,-2.37023 -1.36744,-3.1451c-0.88884,-0.77487 -1.96,-1.16233 -3.21348,-1.16233c-1.09395,0 -2.05115,0.29628 -2.87162,0.88884c-0.82047,0.56977 -1.42442,1.41302 -1.81186,2.52976c-0.36464,1.11674 -0.7293,1.92581 -1.09394,2.4272c-0.36464,0.4786 -0.94581,0.71791 -1.74348,0.71791c-0.66093,0 -1.21929,-0.21652 -1.67511,-0.64954c-0.45582,-0.43302 -0.68372,-1.01418 -0.68372,-1.74348c0,-2.02837 0.86605,-3.91997 2.59813,-5.67486c1.73208,-1.77767 4.18208,-2.6665 7.34996,-2.6665c3.41859,0 5.92556,0.83186 7.5209,2.49557c1.59534,1.66371 2.39301,3.6123 2.39301,5.84579c0,1.75488 -0.52418,3.42999 -1.57255,5.02532c-1.04836,1.57255 -2.70069,3.27045 -4.95695,5.0937c-2.23348,1.80045 -3.66929,3.00836 -4.30742,3.62371c-0.63814,0.61535 -1.37884,1.48139 -2.22208,2.59813h9.77716c1.4814,0 2.48416,0.21652 3.00835,0.64953c0.54698,0.41023 0.82047,0.98 0.82047,1.7093c0,0.77487 -0.23931,1.36744 -0.71791,1.77766c-0.4786,0.38744 -1.26488,0.58116 -2.35882,0.58116zM259.47264,194.69993h-13.8111c-1.4814,0 -2.44998,-0.31907 -2.9058,-0.9572c-0.43302,-0.63814 -0.64953,-1.21929 -0.64953,-1.74348c0,-1.00279 0.52419,-2.22209 1.57255,-3.65789c1.07117,-1.43581 3.05394,-3.36162 5.94834,-5.77742c2.89441,-2.4158 4.77463,-4.14789 5.64068,-5.19625c0.88884,-1.07116 1.33324,-2.26767 1.33324,-3.58952c0,-1.32185 -0.45581,-2.37023 -1.36744,-3.1451c-0.88883,-0.77487 -1.95999,-1.16233 -3.21347,-1.16233c-1.09395,0 -2.05115,0.29628 -2.87162,0.88884c-0.82047,0.56977 -1.42442,1.41302 -1.81185,2.52976c-0.36464,1.11674 -0.7293,1.92581 -1.09395,2.4272c-0.36464,0.4786 -0.94581,0.71791 -1.74349,0.71791c-0.66093,0 -1.21929,-0.21652 -1.6751,-0.64954c-0.45581,-0.43302 -0.68372,-1.01418 -0.68372,-1.74348c0,-2.02837 0.86605,-3.91997 2.59813,-5.67486c1.73208,-1.77767 4.18207,-2.6665 7.34996,-2.6665c3.41859,0 5.92555,0.83186 7.52089,2.49557c1.59534,1.66371 2.39301,3.6123 2.39301,5.84579c0,1.75488 -0.52419,3.42999 -1.57256,5.02532c-1.04836,1.57255 -2.70069,3.27045 -4.95695,5.0937c-2.23348,1.80045 -3.66929,3.00836 -4.30742,3.62371c-0.63813,0.61535 -1.37884,1.48139 -2.22208,2.59813h9.77717c1.4814,0 2.48417,0.21652 3.00835,0.64953c0.54697,0.41023 0.58116,3.07674 0.10256,3.48696c-0.4786,0.38744 -1.26488,0.58116 -2.35883,0.58116z" stroke="#000000" stroke-width="5"/><path d="M235.01708,194.69993h-13.8111c-1.48139,0 -2.44999,-0.31907 -2.9058,-0.9572c-0.43302,-0.63814 -0.64953,-1.21929 -0.64953,-1.74348c0,-1.00279 0.52419,-2.22209 1.57255,-3.65789c1.07117,-1.43581 3.05394,-3.36162 5.94834,-5.77742c2.89441,-2.4158 4.77463,-4.14789 5.64067,-5.19625c0.88883,-1.07116 1.33325,-2.26767 1.33325,-3.58952c0,-1.32185 -0.45582,-2.37023 -1.36744,-3.1451c-0.88884,-0.77487 -1.96,-1.16233 -3.21348,-1.16233c-1.09395,0 -2.05115,0.29628 -2.87162,0.88884c-0.82047,0.56977 -1.42442,1.41302 -1.81186,2.52976c-0.36464,1.11674 -0.7293,1.92581 -1.09394,2.4272c-0.36464,0.4786 -0.94581,0.71791 -1.74348,0.71791c-0.66093,0 -1.21929,-0.21652 -1.67511,-0.64954c-0.45582,-0.43302 -0.68372,-1.01418 -0.68372,-1.74348c0,-2.02837 0.86605,-3.91997 2.59813,-5.67486c1.73208,-1.77767 4.18208,-2.6665 7.34996,-2.6665c3.41859,0 5.92556,0.83186 7.5209,2.49557c1.59534,1.66371 2.39301,3.6123 2.39301,5.84579c0,1.75488 -0.52418,3.42999 -1.57255,5.02532c-1.04836,1.57255 -2.70069,3.27045 -4.95695,5.0937c-2.23348,1.80045 -3.66929,3.00836 -4.30742,3.62371c-0.63814,0.61535 -1.37884,1.48139 -2.22208,2.59813h9.77716c1.4814,0 2.48416,0.21652 3.00835,0.64953c0.54698,0.41023 0.82047,0.98 0.82047,1.7093c0,0.77487 -0.23931,1.36744 -0.71791,1.77766c-0.4786,0.38744 -1.26488,0.58116 -2.35882,0.58116zM259.27264,194.69993h-13.8111c-1.4814,0 -2.44998,-0.31907 -2.9058,-0.9572c-0.43302,-0.63814 -0.64953,-1.21929 -0.64953,-1.74348c0,-1.00279 0.52419,-2.22209 1.57255,-3.65789c1.07117,-1.43581 3.05394,-3.36162 5.94834,-5.77742c2.89441,-2.4158 4.77463,-4.14789 5.64068,-5.19625c0.88884,-1.07116 1.33324,-2.26767 1.33324,-3.58952c0,-1.32185 -0.45581,-2.37023 -1.36744,-3.1451c-0.88883,-0.77487 -1.95999,-1.16233 -3.21347,-1.16233c-1.09395,0 -2.05115,0.29628 -2.87162,0.88884c-0.82047,0.56977 -1.42442,1.41302 -1.81185,2.52976c-0.36464,1.11674 -0.7293,1.92581 -1.09395,2.4272c-0.36464,0.4786 -0.94581,0.71791 -1.74349,0.71791c-0.66093,0 -1.21929,-0.21652 -1.6751,-0.64954c-0.45581,-0.43302 -0.68372,-1.01418 -0.68372,-1.74348c0,-2.02837 0.86605,-3.91997 2.59813,-5.67486c1.73208,-1.77767 4.18207,-2.6665 7.34996,-2.6665c3.41859,0 5.92555,0.83186 7.52089,2.49557c1.59534,1.66371 2.39301,3.6123 2.39301,5.84579c0,1.75488 -0.52419,3.42999 -1.57256,5.02532c-1.04836,1.57255 -2.70069,3.27045 -4.95695,5.0937c-2.23348,1.80045 -3.66929,3.00836 -4.30742,3.62371c-0.63813,0.61535 -1.37884,1.48139 -2.22208,2.59813h9.77717c1.4814,0 2.48417,0.21652 3.00835,0.64953c0.54697,0.41023 0.82047,0.98 0.82047,1.7093c0,0.77487 -0.23931,1.36744 -0.71791,1.77766c-0.4786,0.38744 -1.26488,0.58116 -2.35883,0.58116z" stroke="none" stroke-width="1"/></g></g></svg>