<svg version="1.1" xmlns="http://www.w3.org/2000/svg" xmlns:xlink="http://www.w3.org/1999/xlink" width="326.51964" height="85.95844" viewBox="0,0,326.51964,85.95844"><g transform="translate(-76.74018,-172.52654)"><g data-paper-data="{&quot;isPaintingLayer&quot;:true}" fill-rule="nonzero" stroke="none" stroke-width="1" stroke-linejoin="miter" stroke-miterlimit="10" stroke-dasharray="" stroke-dashoffset="0" style="mix-blend-mode: normal"><path d="" fill="#ffffff" stroke-linecap="butt"/><path d="M86.30267,174.13592v2.10938h-3.48437v10.90625h-2.60937v-10.90625h-3.46875v-2.10937zM90.81732,178.41717c0.33333,-0.54167 0.77083,-0.96875 1.3125,-1.28125c0.54167,-0.3125 1.16146,-0.46875 1.85938,-0.46875v2.73438h-0.70312c-0.8125,0 -1.42708,0.19792 -1.84375,0.59375c-0.41667,0.38542 -0.625,1.05208 -0.625,2v5.15625h-2.625v-10.32812h2.625zM97.05758,175.58904c-0.45833,0 -0.84375,-0.14583 -1.15625,-0.4375c-0.30208,-0.29167 -0.45312,-0.65625 -0.45312,-1.09375c0,-0.4375 0.15104,-0.80208 0.45313,-1.09375c0.3125,-0.29167 0.69792,-0.4375 1.15625,-0.4375c0.45833,0 0.83854,0.14583 1.14063,0.4375c0.3125,0.29167 0.46875,0.65625 0.46875,1.09375c0,0.4375 -0.15625,0.80208 -0.46875,1.09375c-0.30208,0.29167 -0.68229,0.4375 -1.14062,0.4375zM98.35446,176.82342v10.32813h-2.625v-10.32812zM100.24402,181.97967c0,-1.0625 0.21875,-1.99479 0.65625,-2.79687c0.4375,-0.80208 1.04167,-1.42187 1.8125,-1.85937c0.77083,-0.44792 1.65625,-0.67187 2.65625,-0.67187c1.28125,0 2.33854,0.32292 3.17188,0.96875c0.84375,0.63542 1.40625,1.53125 1.6875,2.6875h-2.8125c-0.14583,-0.44792 -0.39583,-0.79687 -0.75,-1.04687c-0.35417,-0.26042 -0.79687,-0.39062 -1.32812,-0.39062c-0.73958,0 -1.32812,0.27083 -1.76562,0.8125c-0.4375,0.54167 -0.65625,1.30729 -0.65625,2.29688c0,0.98958 0.21875,1.75521 0.65625,2.29688c0.4375,0.53125 1.02604,0.79688 1.76563,0.79688c1.0625,0 1.75521,-0.46875 2.07813,-1.40625h2.8125c-0.28125,1.11458 -0.84896,2.00521 -1.70312,2.67188c-0.84375,0.65625 -1.89583,0.98438 -3.15625,0.98438c-1,0 -1.88542,-0.21875 -2.65625,-0.65625c-0.77083,-0.44792 -1.375,-1.07292 -1.8125,-1.875c-0.4375,-0.80208 -0.65625,-1.73958 -0.65625,-2.8125zM118.27197,187.15154l-3.50003,-4.40625v4.40625h-2.625v-13.8125h2.625v7.85938l3.46878,-4.375h3.39063l-4.54687,5.17188l4.57813,5.15625zM137.37298,176.82342l-6.39062,15.21875h-2.78125l2.23438,-5.15625l-4.14062,-10.0625h2.92188l2.67188,7.21875l2.70313,-7.21875zM143.36316,187.32342c-0.98958,0 -1.88542,-0.21875 -2.6875,-0.65625c-0.79167,-0.44792 -1.41667,-1.07292 -1.875,-1.875c-0.44792,-0.8125 -0.67187,-1.75 -0.67187,-2.8125c0,-1.05208 0.22917,-1.97917 0.6875,-2.78125c0.46875,-0.8125 1.10417,-1.4375 1.90625,-1.875c0.8125,-0.44792 1.71875,-0.67187 2.71875,-0.67187c0.98958,0 1.89063,0.22396 2.70313,0.67188c0.8125,0.4375 1.44792,1.0625 1.90625,1.875c0.46875,0.80208 0.70313,1.72917 0.70313,2.78125c0,1.0625 -0.23958,2 -0.71875,2.8125c-0.47917,0.80208 -1.125,1.42708 -1.9375,1.875c-0.8125,0.4375 -1.72396,0.65625 -2.73437,0.65625zM143.36316,185.04217c0.46875,0 0.91146,-0.11458 1.32813,-0.34375c0.41667,-0.22917 0.75,-0.57292 1,-1.03125c0.25,-0.45833 0.375,-1.02083 0.375,-1.6875c0,-0.97917 -0.26042,-1.73437 -0.78125,-2.26562c-0.51042,-0.53125 -1.14062,-0.79687 -1.89062,-0.79687c-0.73958,0 -1.36458,0.26563 -1.875,0.79688c-0.5,0.53125 -0.75,1.28646 -0.75,2.26563c0,0.98958 0.24479,1.75 0.73438,2.28125c0.48958,0.52083 1.10938,0.78125 1.85938,0.78125zM160.43774,176.82342v10.32813h-2.64062v-1.3125c-0.33333,0.44792 -0.77083,0.80208 -1.3125,1.0625c-0.54167,0.25 -1.13021,0.375 -1.76562,0.375c-0.80208,0 -1.51562,-0.16667 -2.14062,-0.5c-0.625,-0.34375 -1.11458,-0.84896 -1.46875,-1.51562c-0.35417,-0.66667 -0.53125,-1.45833 -0.53125,-2.375v-6.0625h2.625v5.6875c0,0.8125 0.20313,1.44271 0.60938,1.89063c0.40625,0.4375 0.96354,0.65625 1.67188,0.65625c0.72917,0 1.29688,-0.21875 1.70313,-0.65625c0.40625,-0.44792 0.60938,-1.07812 0.60938,-1.89062v-5.6875zM165.6289,178.41717c0.33333,-0.54167 0.77083,-0.96875 1.3125,-1.28125c0.54167,-0.3125 1.16146,-0.46875 1.85938,-0.46875v2.73438h-0.70312c-0.8125,0 -1.42708,0.19792 -1.84375,0.59375c-0.41667,0.38542 -0.625,1.05208 -0.625,2v5.15625h-2.625v-10.32812h2.625zM174.30932,181.97967c0,-1.0625 0.21875,-1.99479 0.65625,-2.79687c0.4375,-0.80208 1.04167,-1.42187 1.8125,-1.85937c0.77083,-0.44792 1.65625,-0.67187 2.65625,-0.67187c1.28125,0 2.33854,0.32292 3.17188,0.96875c0.84375,0.63542 1.40625,1.53125 1.6875,2.6875h-2.8125c-0.14583,-0.44792 -0.39583,-0.79687 -0.75,-1.04687c-0.35417,-0.26042 -0.79687,-0.39062 -1.32812,-0.39062c-0.73958,0 -1.32812,0.27083 -1.76562,0.8125c-0.4375,0.54167 -0.65625,1.30729 -0.65625,2.29688c0,0.98958 0.21875,1.75521 0.65625,2.29688c0.4375,0.53125 1.02604,0.79688 1.76563,0.79688c1.0625,0 1.75521,-0.46875 2.07813,-1.40625h2.8125c-0.28125,1.11458 -0.84896,2.00521 -1.70312,2.67188c-0.84375,0.65625 -1.89583,0.98438 -3.15625,0.98438c-1,0 -1.88542,-0.21875 -2.65625,-0.65625c-0.77083,-0.44792 -1.375,-1.07292 -1.8125,-1.875c-0.4375,-0.80208 -0.65625,-1.73958 -0.65625,-2.8125zM188.83728,178.41717c0.33333,-0.54167 0.77083,-0.96875 1.3125,-1.28125c0.54167,-0.3125 1.16146,-0.46875 1.85938,-0.46875v2.73438h-0.70312c-0.8125,0 -1.42708,0.19792 -1.84375,0.59375c-0.41667,0.38542 -0.625,1.05208 -0.625,2v5.15625h-2.625v-10.32812h2.625zM203.35876,181.76092c0,0.375 -0.02083,0.70833 -0.0625,1h-7.5625c0.0625,0.75 0.32292,1.33854 0.78125,1.76563c0.45833,0.41667 1.02604,0.625 1.70313,0.625c0.96875,0 1.65625,-0.41667 2.0625,-1.25h2.82813c-0.30208,1 -0.875,1.82292 -1.71875,2.46875c-0.84375,0.63542 -1.88542,0.95313 -3.125,0.95313c-0.98958,0 -1.88021,-0.21875 -2.67187,-0.65625c-0.79167,-0.44792 -1.41146,-1.07292 -1.85937,-1.875c-0.4375,-0.8125 -0.65625,-1.75 -0.65625,-2.8125c0,-1.0625 0.21875,-2 0.65625,-2.8125c0.4375,-0.8125 1.04688,-1.43229 1.82813,-1.85937c0.78125,-0.4375 1.68229,-0.65625 2.70313,-0.65625c0.98958,0 1.86979,0.21354 2.64063,0.64063c0.78125,0.41667 1.38542,1.01563 1.8125,1.79688c0.42708,0.77083 0.64063,1.66146 0.64063,2.67188zM200.65564,181.01092c-0.01042,-0.66667 -0.25521,-1.20312 -0.73437,-1.60937c-0.46875,-0.40625 -1.04167,-0.60937 -1.71875,-0.60937c-0.65625,0 -1.20312,0.19792 -1.64062,0.59375c-0.4375,0.38542 -0.70833,0.92708 -0.8125,1.625zM219.58844,176.82342l-3.01562,10.32813h-2.8125l-1.89062,-7.21875l-1.89062,7.21875h-2.82812l-3.04687,-10.32812h2.65625l1.82813,7.85938l1.96875,-7.85937h2.76563l1.9375,7.84375l1.82813,-7.84375zM233.84991,176.66717c1.27083,0 2.29167,0.39063 3.0625,1.17188c0.78125,0.77083 1.17188,1.85417 1.17188,3.25v6.0625h-2.60937v-5.70312c0,-0.8125 -0.20833,-1.43229 -0.625,-1.85937c-0.40625,-0.42708 -0.96354,-0.64062 -1.67187,-0.64062c-0.70833,0 -1.27083,0.21354 -1.6875,0.64063c-0.41667,0.42708 -0.625,1.04688 -0.625,1.85938v5.70313h-2.60937v-5.70312c0,-0.8125 -0.20833,-1.43229 -0.625,-1.85937c-0.40625,-0.42708 -0.96354,-0.64062 -1.67187,-0.64062c-0.71875,0 -1.28646,0.21354 -1.70312,0.64063c-0.41667,0.42708 -0.625,1.04688 -0.625,1.85938v5.70313h-2.625v-10.32812h2.625v1.25c0.33333,-0.4375 0.76042,-0.78125 1.28125,-1.03125c0.53125,-0.25 1.11458,-0.375 1.75,-0.375c0.8125,0 1.53646,0.17188 2.17188,0.51563c0.63542,0.34375 1.125,0.83333 1.46875,1.46875c0.33333,-0.60417 0.81771,-1.08333 1.45313,-1.4375c0.64583,-0.36458 1.34375,-0.54687 2.09375,-0.54687zM239.88604,181.94842c0,-1.04167 0.20833,-1.96875 0.625,-2.78125c0.41667,-0.8125 0.98438,-1.43229 1.70313,-1.85937c0.71875,-0.4375 1.51563,-0.65625 2.39063,-0.65625c0.78125,0 1.45833,0.15625 2.03125,0.46875c0.58333,0.30208 1.04688,0.69271 1.39063,1.17188v-1.46875h2.625v10.32813h-2.625v-1.51562c-0.33333,0.48958 -0.79687,0.89583 -1.39062,1.21875c-0.59375,0.3125 -1.27604,0.46875 -2.04687,0.46875c-0.86458,0 -1.65625,-0.22396 -2.375,-0.67187c-0.71875,-0.44792 -1.28646,-1.07812 -1.70312,-1.89062c-0.41667,-0.82292 -0.625,-1.76042 -0.625,-2.8125zM248.02667,181.97967c0,-0.63542 -0.125,-1.17708 -0.375,-1.625c-0.25,-0.45833 -0.58854,-0.80729 -1.01562,-1.04687c-0.41667,-0.23958 -0.86979,-0.35937 -1.35937,-0.35937c-0.47917,0 -0.92708,0.11979 -1.34375,0.35938c-0.40625,0.22917 -0.73958,0.57292 -1,1.03125c-0.25,0.44792 -0.375,0.98438 -0.375,1.60938c0,0.625 0.125,1.17188 0.375,1.64063c0.26042,0.45833 0.59896,0.8125 1.01563,1.0625c0.41667,0.25 0.85938,0.375 1.32813,0.375c0.48958,0 0.94271,-0.11979 1.35938,-0.35937c0.42708,-0.25 0.76563,-0.59896 1.01563,-1.04687c0.25,-0.45833 0.375,-1.00521 0.375,-1.64062zM256.25378,178.96404v5c0,0.34375 0.08333,0.59375 0.25,0.75c0.16667,0.15625 0.44792,0.23438 0.84375,0.23438h1.21875v2.20313h-1.64062c-2.19792,0 -3.29687,-1.06771 -3.29687,-3.20312v-4.98437h-1.23437v-2.14062h1.23438v-2.5625h2.625v2.5625h2.3125v2.14063zM270.05487,181.76092c0,0.375 -0.02083,0.70833 -0.0625,1h-7.5625c0.0625,0.75 0.32292,1.33854 0.78125,1.76563c0.45833,0.41667 1.02604,0.625 1.70313,0.625c0.96875,0 1.65625,-0.41667 2.0625,-1.25h2.82813c-0.30208,1 -0.875,1.82292 -1.71875,2.46875c-0.84375,0.63542 -1.88542,0.95313 -3.125,0.95313c-0.98958,0 -1.88021,-0.21875 -2.67187,-0.65625c-0.79167,-0.44792 -1.41146,-1.07292 -1.85937,-1.875c-0.4375,-0.8125 -0.65625,-1.75 -0.65625,-2.8125c0,-1.0625 0.21875,-2 0.65625,-2.8125c0.4375,-0.8125 1.04688,-1.43229 1.82813,-1.85937c0.78125,-0.4375 1.68229,-0.65625 2.70313,-0.65625c0.98958,0 1.86979,0.21354 2.64063,0.64063c0.78125,0.41667 1.38542,1.01563 1.8125,1.79688c0.42708,0.77083 0.64063,1.66146 0.64063,2.67188zM267.35174,181.01092c-0.01042,-0.66667 -0.25521,-1.20312 -0.73437,-1.60937c-0.46875,-0.40625 -1.04167,-0.60937 -1.71875,-0.60937c-0.65625,0 -1.20312,0.19792 -1.64062,0.59375c-0.4375,0.38542 -0.70833,0.92708 -0.8125,1.625zM275.92517,187.32342c-0.85417,0 -1.61979,-0.15104 -2.29687,-0.45312c-0.66667,-0.3125 -1.19792,-0.72917 -1.59375,-1.25c-0.38542,-0.52083 -0.59375,-1.09896 -0.625,-1.73437h2.625c0.05208,0.39583 0.24479,0.72396 0.57813,0.98438c0.34375,0.26042 0.77083,0.39063 1.28125,0.39063c0.5,0 0.89063,-0.09896 1.17188,-0.29687c0.28125,-0.19792 0.42188,-0.45312 0.42188,-0.76562c0,-0.33333 -0.17187,-0.58333 -0.51562,-0.75c-0.34375,-0.16667 -0.88542,-0.34896 -1.625,-0.54687c-0.78125,-0.1875 -1.41667,-0.38021 -1.90625,-0.57812c-0.48958,-0.19792 -0.91146,-0.5 -1.26562,-0.90625c-0.35417,-0.41667 -0.53125,-0.97396 -0.53125,-1.67187c0,-0.57292 0.16146,-1.09375 0.48438,-1.5625c0.33333,-0.47917 0.80729,-0.85417 1.42188,-1.125c0.625,-0.27083 1.35417,-0.40625 2.1875,-0.40625c1.22917,0 2.20833,0.30729 2.9375,0.92188c0.73958,0.61458 1.14583,1.44271 1.21875,2.48438h-2.5c-0.04167,-0.40625 -0.21354,-0.72917 -0.51562,-0.96875c-0.30208,-0.25 -0.70833,-0.375 -1.21875,-0.375c-0.47917,0 -0.84896,0.08854 -1.10937,0.26563c-0.25,0.17708 -0.375,0.42188 -0.375,0.73438c0,0.34375 0.17188,0.60938 0.51563,0.79688c0.35417,0.17708 0.90104,0.35938 1.64063,0.54688c0.73958,0.17708 1.35417,0.36979 1.84375,0.57813c0.48958,0.19792 0.91146,0.50521 1.26563,0.92188c0.35417,0.41667 0.53646,0.96354 0.54688,1.64063c0,0.60417 -0.16667,1.14063 -0.5,1.60938c-0.32292,0.46875 -0.79687,0.83854 -1.42187,1.10938c-0.61458,0.27083 -1.32812,0.40625 -2.14062,0.40625zM287.89239,175.58904c-0.45833,0 -0.84375,-0.14583 -1.15625,-0.4375c-0.30208,-0.29167 -0.45312,-0.65625 -0.45312,-1.09375c0,-0.4375 0.15104,-0.80208 0.45313,-1.09375c0.3125,-0.29167 0.69792,-0.4375 1.15625,-0.4375c0.45833,0 0.83854,0.14583 1.14063,0.4375c0.3125,0.29167 0.46875,0.65625 0.46875,1.09375c0,0.4375 -0.15625,0.80208 -0.46875,1.09375c-0.30208,0.29167 -0.68229,0.4375 -1.14062,0.4375zM289.18927,176.82342v10.32813h-2.625v-10.32812zM297.48504,176.66717c1.22917,0 2.22396,0.39063 2.98438,1.17188c0.76042,0.77083 1.14063,1.85417 1.14063,3.25v6.0625h-2.60937v-5.70312c0,-0.82292 -0.20833,-1.45312 -0.625,-1.89062c-0.40625,-0.44792 -0.96354,-0.67187 -1.67187,-0.67187c-0.71875,0 -1.28646,0.22396 -1.70312,0.67188c-0.41667,0.4375 -0.625,1.06771 -0.625,1.89063v5.70313h-2.625v-10.32812h2.625v1.28125c0.34375,-0.44792 0.78646,-0.79687 1.32813,-1.04687c0.54167,-0.26042 1.13542,-0.39062 1.78125,-0.39062zM307.12933,178.96404v5c0,0.34375 0.08333,0.59375 0.25,0.75c0.16667,0.15625 0.44792,0.23438 0.84375,0.23438h1.21875v2.20313h-1.64062c-2.19792,0 -3.29687,-1.06771 -3.29687,-3.20312v-4.98437h-1.23437v-2.14062h1.23438v-2.5625h2.625v2.5625h2.3125v2.14063zM315.91485,187.32342c-0.98958,0 -1.88542,-0.21875 -2.6875,-0.65625c-0.79167,-0.44792 -1.41667,-1.07292 -1.875,-1.875c-0.44792,-0.8125 -0.67187,-1.75 -0.67187,-2.8125c0,-1.05208 0.22917,-1.97917 0.6875,-2.78125c0.46875,-0.8125 1.10417,-1.4375 1.90625,-1.875c0.8125,-0.44792 1.71875,-0.67187 2.71875,-0.67187c0.98958,0 1.89063,0.22396 2.70313,0.67188c0.8125,0.4375 1.44792,1.0625 1.90625,1.875c0.46875,0.80208 0.70313,1.72917 0.70313,2.78125c0,1.0625 -0.23958,2 -0.71875,2.8125c-0.47917,0.80208 -1.125,1.42708 -1.9375,1.875c-0.8125,0.4375 -1.72396,0.65625 -2.73437,0.65625zM315.91485,185.04217c0.46875,0 0.91146,-0.11458 1.32813,-0.34375c0.41667,-0.22917 0.75,-0.57292 1,-1.03125c0.25,-0.45833 0.375,-1.02083 0.375,-1.6875c0,-0.97917 -0.26042,-1.73437 -0.78125,-2.26562c-0.51042,-0.53125 -1.14062,-0.79687 -1.89062,-0.79687c-0.73958,0 -1.36458,0.26563 -1.875,0.79688c-0.5,0.53125 -0.75,1.28646 -0.75,2.26563c0,0.98958 0.24479,1.75 0.73438,2.28125c0.48958,0.52083 1.10938,0.78125 1.85938,0.78125zM330.71087,178.96404v5c0,0.34375 0.08333,0.59375 0.25,0.75c0.16667,0.15625 0.44792,0.23438 0.84375,0.23438h1.21875v2.20313h-1.64062c-2.19792,0 -3.29687,-1.06771 -3.29687,-3.20312v-4.98437h-1.23437v-2.14062h1.23438v-2.5625h2.625v2.5625h2.3125v2.14063zM340.73077,176.66717c0.78125,0 1.47396,0.17188 2.07813,0.51563c0.61458,0.34375 1.09375,0.84896 1.4375,1.51563c0.34375,0.65625 0.51563,1.45313 0.51563,2.39063v6.0625h-2.60937v-5.70312c0,-0.82292 -0.20833,-1.45312 -0.625,-1.89062c-0.40625,-0.44792 -0.96354,-0.67187 -1.67187,-0.67187c-0.71875,0 -1.28646,0.22396 -1.70312,0.67188c-0.41667,0.4375 -0.625,1.06771 -0.625,1.89063v5.70313h-2.625v-13.8125h2.625v4.76563c0.33333,-0.44792 0.77604,-0.79687 1.32813,-1.04687c0.5625,-0.26042 1.1875,-0.39062 1.875,-0.39062zM348.56256,175.58904c-0.45833,0 -0.84375,-0.14583 -1.15625,-0.4375c-0.30208,-0.29167 -0.45312,-0.65625 -0.45312,-1.09375c0,-0.4375 0.15104,-0.80208 0.45313,-1.09375c0.3125,-0.29167 0.69792,-0.4375 1.15625,-0.4375c0.45833,0 0.83854,0.14583 1.14063,0.4375c0.3125,0.29167 0.46875,0.65625 0.46875,1.09375c0,0.4375 -0.15625,0.80208 -0.46875,1.09375c-0.30208,0.29167 -0.68229,0.4375 -1.14062,0.4375zM349.85943,176.82342v10.32813h-2.625v-10.32812zM358.15521,176.66717c1.22917,0 2.22396,0.39063 2.98438,1.17188c0.76042,0.77083 1.14063,1.85417 1.14063,3.25v6.0625h-2.60937v-5.70312c0,-0.82292 -0.20833,-1.45312 -0.625,-1.89062c-0.40625,-0.44792 -0.96354,-0.67187 -1.67187,-0.67187c-0.71875,0 -1.28646,0.22396 -1.70312,0.67188c-0.41667,0.4375 -0.625,1.06771 -0.625,1.89063v5.70313h-2.625v-10.32812h2.625v1.28125c0.34375,-0.44792 0.78646,-0.79687 1.32813,-1.04687c0.54167,-0.26042 1.13542,-0.39062 1.78125,-0.39062zM370.87762,187.15154l-3.5,-4.40625v4.40625h-2.625v-13.8125h2.625v7.85938l3.46875,-4.375h3.39063l-4.54687,5.17188l4.57813,5.15625zM376.97601,175.58904c-0.45833,0 -0.84375,-0.14583 -1.15625,-0.4375c-0.30208,-0.29167 -0.45312,-0.65625 -0.45312,-1.09375c0,-0.4375 0.15104,-0.80208 0.45313,-1.09375c0.3125,-0.29167 0.69792,-0.4375 1.15625,-0.4375c0.45833,0 0.83854,0.14583 1.14063,0.4375c0.3125,0.29167 0.46875,0.65625 0.46875,1.09375c0,0.4375 -0.15625,0.80208 -0.46875,1.09375c-0.30208,0.29167 -0.68229,0.4375 -1.14062,0.4375zM378.27288,176.82342v10.32813h-2.625v-10.32812zM386.56866,176.66717c1.22917,0 2.22396,0.39063 2.98438,1.17188c0.76042,0.77083 1.14063,1.85417 1.14063,3.25v6.0625h-2.60937v-5.70312c0,-0.82292 -0.20833,-1.45312 -0.625,-1.89062c-0.40625,-0.44792 -0.96354,-0.67187 -1.67187,-0.67187c-0.71875,0 -1.28646,0.22396 -1.70312,0.67188c-0.41667,0.4375 -0.625,1.06771 -0.625,1.89063v5.70313h-2.625v-10.32812h2.625v1.28125c0.34375,-0.44792 0.78646,-0.79687 1.32813,-1.04687c0.54167,-0.26042 1.13542,-0.39062 1.78125,-0.39062zM397.21294,176.65154c0.78125,0 1.46354,0.15104 2.04688,0.45313c0.58333,0.30208 1.04167,0.69792 1.375,1.1875v-1.46875h2.625v10.40625c0,0.95833 -0.19271,1.8125 -0.57812,2.5625c-0.38542,0.75 -0.96354,1.34375 -1.73437,1.78125c-0.77083,0.44792 -1.70312,0.67188 -2.79687,0.67188c-1.46875,0 -2.67187,-0.34375 -3.60937,-1.03125c-0.9375,-0.67708 -1.46875,-1.60937 -1.59375,-2.79687h2.59375c0.13542,0.47917 0.42708,0.85417 0.875,1.125c0.45833,0.28125 1.01042,0.42188 1.65625,0.42188c0.76042,0 1.375,-0.22917 1.84375,-0.6875c0.47917,-0.44792 0.71875,-1.13021 0.71875,-2.04687v-1.60937c-0.33333,0.48958 -0.79687,0.89583 -1.39062,1.21875c-0.59375,0.32292 -1.27083,0.48438 -2.03125,0.48438c-0.86458,0 -1.66146,-0.22396 -2.39062,-0.67187c-0.71875,-0.44792 -1.28646,-1.07812 -1.70312,-1.89062c-0.41667,-0.82292 -0.625,-1.76042 -0.625,-2.8125c0,-1.04167 0.20833,-1.96875 0.625,-2.78125c0.41667,-0.8125 0.98438,-1.43229 1.70313,-1.85937c0.71875,-0.4375 1.51563,-0.65625 2.39063,-0.65625zM400.63482,181.97967c0,-0.63542 -0.125,-1.17708 -0.375,-1.625c-0.25,-0.45833 -0.58854,-0.80729 -1.01562,-1.04687c-0.41667,-0.23958 -0.86979,-0.35937 -1.35937,-0.35937c-0.47917,0 -0.92708,0.11979 -1.34375,0.35938c-0.40625,0.22917 -0.73958,0.57292 -1,1.03125c-0.25,0.44792 -0.375,0.98438 -0.375,1.60938c0,0.625 0.125,1.17188 0.375,1.64063c0.26042,0.45833 0.59896,0.8125 1.01563,1.0625c0.41667,0.25 0.85938,0.375 1.32813,0.375c0.48958,0 0.94271,-0.11979 1.35938,-0.35937c0.42708,-0.25 0.76563,-0.59896 1.01563,-1.04687c0.25,-0.45833 0.375,-1.00521 0.375,-1.64062z" fill="#ffffff" stroke-linecap="square"/><path d="" fill="#ffffff" stroke-linecap="butt"/><path d="M203.98212,204.34843c0,-1.04167 0.20833,-1.96875 0.625,-2.78125c0.41667,-0.8125 0.98438,-1.43229 1.70313,-1.85937c0.71875,-0.4375 1.51563,-0.65625 2.39063,-0.65625c0.78125,0 1.45833,0.15625 2.03125,0.46875c0.58333,0.30208 1.04688,0.69271 1.39063,1.17188v-1.46875h2.625v10.32813h-2.625v-1.51562c-0.33333,0.48958 -0.79687,0.89583 -1.39062,1.21875c-0.59375,0.3125 -1.27604,0.46875 -2.04687,0.46875c-0.86458,0 -1.65625,-0.22396 -2.375,-0.67187c-0.71875,-0.44792 -1.28646,-1.07812 -1.70312,-1.89062c-0.41667,-0.82292 -0.625,-1.76042 -0.625,-2.8125zM212.12275,204.37968c0,-0.63542 -0.125,-1.17708 -0.375,-1.625c-0.25,-0.45833 -0.58854,-0.80729 -1.01562,-1.04687c-0.41667,-0.23958 -0.86979,-0.35937 -1.35937,-0.35937c-0.47917,0 -0.92708,0.11979 -1.34375,0.35938c-0.40625,0.22917 -0.73958,0.57292 -1,1.03125c-0.25,0.44792 -0.375,0.98438 -0.375,1.60938c0,0.625 0.125,1.17188 0.375,1.64063c0.26042,0.45833 0.59896,0.8125 1.01563,1.0625c0.41667,0.25 0.85938,0.375 1.32813,0.375c0.48958,0 0.94271,-0.11979 1.35938,-0.35937c0.42708,-0.25 0.76563,-0.59896 1.01563,-1.04687c0.25,-0.45833 0.375,-1.00521 0.375,-1.64062z" fill="#ffffff" stroke-linecap="butt"/><path d="M139.69269,204.34843c0,-1.04167 0.20833,-1.96875 0.625,-2.78125c0.41667,-0.8125 0.98438,-1.43229 1.70313,-1.85937c0.71875,-0.4375 1.51563,-0.65625 2.39063,-0.65625c0.78121,0 1.45827,0.15625 2.03119,0.46875c0.58333,0.30208 1.04688,0.69271 1.39063,1.17188v-1.46875h2.625v10.32813h-2.625v-1.51562c-0.33333,0.48958 -0.79687,0.89583 -1.39062,1.21875c-0.59375,0.3125 -1.27602,0.46875 -2.04681,0.46875c-0.86458,0 -1.65625,-0.22396 -2.375,-0.67187c-0.71875,-0.44792 -1.28646,-1.07812 -1.70312,-1.89062c-0.41667,-0.82292 -0.625,-1.76042 -0.625,-2.8125zM147.83326,204.37968c0,-0.63542 -0.125,-1.17708 -0.375,-1.625c-0.25,-0.45833 -0.58854,-0.80729 -1.01562,-1.04687c-0.41667,-0.23958 -0.86977,-0.35937 -1.35931,-0.35937c-0.47917,0 -0.92708,0.11979 -1.34375,0.35938c-0.40625,0.22917 -0.73958,0.57292 -1,1.03125c-0.25,0.44792 -0.375,0.98438 -0.375,1.60938c0,0.625 0.125,1.17188 0.375,1.64063c0.26042,0.45833 0.59896,0.8125 1.01563,1.0625c0.41667,0.25 0.85938,0.375 1.32813,0.375c0.48954,0 0.94265,-0.11979 1.35931,-0.35937c0.42708,-0.25 0.76563,-0.59896 1.01563,-1.04687c0.25,-0.45833 0.375,-1.00521 0.375,-1.64062z" fill="#ffffff" stroke-linecap="butt"/><path d="" fill="#ffffff" stroke-linecap="butt"/><path d="" fill="#ffffff" stroke-linecap="butt"/><path d="M180.57307,209.72343c-0.98958,0 -1.88542,-0.21875 -2.6875,-0.65625c-0.79167,-0.44792 -1.41667,-1.07292 -1.875,-1.875c-0.44792,-0.8125 -0.67187,-1.75 -0.67187,-2.8125c0,-1.05208 0.22917,-1.97917 0.6875,-2.78125c0.46875,-0.8125 1.10417,-1.4375 1.90625,-1.875c0.8125,-0.44792 1.71875,-0.67187 2.71875,-0.67187c0.98958,0 1.89063,0.22396 2.70313,0.67188c0.8125,0.4375 1.44792,1.0625 1.90625,1.875c0.46875,0.80208 0.70313,1.72917 0.70313,2.78125c0,1.0625 -0.23958,2 -0.71875,2.8125c-0.47917,0.80208 -1.125,1.42708 -1.9375,1.875c-0.8125,0.4375 -1.72396,0.65625 -2.73437,0.65625zM180.57307,207.44218c0.46875,0 0.91146,-0.11458 1.32813,-0.34375c0.41667,-0.22917 0.75,-0.57292 1,-1.03125c0.25,-0.45833 0.375,-1.02083 0.375,-1.6875c0,-0.97917 -0.26042,-1.73437 -0.78125,-2.26562c-0.51042,-0.53125 -1.14062,-0.79687 -1.89062,-0.79687c-0.73958,0 -1.36458,0.26563 -1.875,0.79688c-0.5,0.53125 -0.75,1.28646 -0.75,2.26563c0,0.98958 0.24479,1.75 0.73438,2.28125c0.48958,0.52083 1.10938,0.78125 1.85938,0.78125z" fill="#ffffff" stroke-linecap="butt"/><path d="" fill="#ffffff" stroke-linecap="butt"/><path d="M234.44941,204.16093c0,0.375 -0.02083,0.70833 -0.0625,1h-7.5625c0.0625,0.75 0.32292,1.33854 0.78125,1.76563c0.45833,0.41667 1.02604,0.625 1.70313,0.625c0.96875,0 1.65625,-0.41667 2.0625,-1.25h2.82813c-0.30208,1 -0.875,1.82292 -1.71875,2.46875c-0.84375,0.63542 -1.88542,0.95313 -3.125,0.95313c-0.98958,0 -1.88021,-0.21875 -2.67187,-0.65625c-0.79167,-0.44792 -1.41146,-1.07292 -1.85937,-1.875c-0.4375,-0.8125 -0.65625,-1.75 -0.65625,-2.8125c0,-1.0625 0.21875,-2 0.65625,-2.8125c0.4375,-0.8125 1.04688,-1.43229 1.82813,-1.85937c0.78125,-0.4375 1.68229,-0.65625 2.70313,-0.65625c0.98958,0 1.86979,0.21354 2.64063,0.64063c0.78125,0.41667 1.38542,1.01563 1.8125,1.79688c0.42708,0.77083 0.64063,1.66146 0.64063,2.67188zM231.74628,203.41093c-0.01042,-0.66667 -0.25521,-1.20312 -0.73437,-1.60937c-0.46875,-0.40625 -1.04167,-0.60937 -1.71875,-0.60937c-0.65625,0 -1.20312,0.19792 -1.64062,0.59375c-0.4375,0.38542 -0.70833,0.92708 -0.8125,1.625z" fill="#ffffff" stroke-linecap="butt"/><path d="M269.97095,204.16093c0,0.375 -0.02083,0.70833 -0.0625,1h-7.5625c0.0625,0.75 0.32292,1.33854 0.78125,1.76563c0.45833,0.41667 1.02604,0.625 1.70313,0.625c0.96875,0 1.65625,-0.41667 2.0625,-1.25h2.82813c-0.30208,1 -0.875,1.82292 -1.71875,2.46875c-0.84375,0.63542 -1.88542,0.95313 -3.125,0.95313c-0.98958,0 -1.88021,-0.21875 -2.67187,-0.65625c-0.79167,-0.44792 -1.41146,-1.07292 -1.85937,-1.875c-0.4375,-0.8125 -0.65625,-1.75 -0.65625,-2.8125c0,-1.0625 0.21875,-2 0.65625,-2.8125c0.4375,-0.8125 1.04688,-1.43229 1.82813,-1.85937c0.78125,-0.4375 1.68229,-0.65625 2.70313,-0.65625c0.98958,0 1.86979,0.21354 2.64063,0.64063c0.78125,0.41667 1.38542,1.01563 1.8125,1.79688c0.42708,0.77083 0.64063,1.66146 0.64063,2.67188zM267.26783,203.41093c-0.01042,-0.66667 -0.25521,-1.20312 -0.73437,-1.60937c-0.46875,-0.40625 -1.04167,-0.60937 -1.71875,-0.60937c-0.65625,0 -1.20312,0.19792 -1.64062,0.59375c-0.4375,0.38542 -0.70833,0.92708 -0.8125,1.625z" fill="#ffffff" stroke-linecap="butt"/><path d="M133.86091,199.06718c0.78125,0 1.47396,0.17188 2.07813,0.51563c0.61458,0.34375 1.09375,0.84896 1.4375,1.51563c0.34375,0.65625 0.51563,1.45313 0.51563,2.39063v6.0625h-2.60937v-5.70312c0,-0.82292 -0.20833,-1.45312 -0.625,-1.89062c-0.40625,-0.44792 -0.96354,-0.67187 -1.67187,-0.67187c-0.71875,0 -1.28646,0.22396 -1.70312,0.67188c-0.41667,0.4375 -0.625,1.06771 -0.625,1.89063v5.70313h-2.625v-13.8125h2.625v4.76563c0.33333,-0.44792 0.77604,-0.79687 1.32813,-1.04687c0.5625,-0.26042 1.1875,-0.39062 1.875,-0.39062z" fill="#ffffff" stroke-linecap="butt"/><path d="M253.85792,199.06718c0.78125,0 1.47396,0.17188 2.07813,0.51563c0.61458,0.34375 1.09375,0.84896 1.4375,1.51563c0.34375,0.65625 0.51563,1.45313 0.51563,2.39063v6.0625h-2.60937v-5.70312c0,-0.82292 -0.20833,-1.45312 -0.625,-1.89062c-0.40625,-0.44792 -0.96354,-0.67187 -1.67187,-0.67187c-0.71875,0 -1.28646,0.22396 -1.70312,0.67188c-0.41667,0.4375 -0.625,1.06771 -0.625,1.89063v5.70313h-2.625v-13.8125h2.625v4.76563c0.33333,-0.44792 0.77604,-0.79687 1.32813,-1.04687c0.5625,-0.26042 1.1875,-0.39062 1.875,-0.39062z" fill="#ffffff" stroke-linecap="butt"/><path d="M174.58289,199.22343l-6.39062,15.21875h-2.78125l2.23438,-5.15625l-4.14062,-10.0625h2.92188l2.67188,7.21875l2.70313,-7.21875z" fill="#ffffff" stroke-linecap="butt"/><path d="M197.64765,199.22343v10.32813h-2.64062v-1.3125c-0.33333,0.44792 -0.77083,0.80208 -1.3125,1.0625c-0.54167,0.25 -1.13021,0.375 -1.76562,0.375c-0.80208,0 -1.51562,-0.16667 -2.14062,-0.5c-0.625,-0.34375 -1.11458,-0.84896 -1.46875,-1.51562c-0.35417,-0.66667 -0.53125,-1.45833 -0.53125,-2.375v-6.0625h2.625v5.6875c0,0.8125 0.20313,1.44271 0.60938,1.89063c0.40625,0.4375 0.96354,0.65625 1.67188,0.65625c0.72917,0 1.29688,-0.21875 1.70313,-0.65625c0.40625,-0.44792 0.60938,-1.07812 0.60938,-1.89062v-5.6875z" fill="#ffffff" stroke-linecap="butt"/><path d="M243.83802,201.36405v5c0,0.34375 0.08333,0.59375 0.25,0.75c0.16667,0.15625 0.44792,0.23438 0.84375,0.23438h1.21875v2.20313h-1.64062c-2.19792,0 -3.29687,-1.06771 -3.29687,-3.20312v-4.98437h-1.23437v-2.14062h1.23438v-2.5625h2.625v2.5625h2.3125v2.14063z" fill="#ffffff" stroke-linecap="butt"/><path d="M156.06037,201.36405v5c0,0.34375 0.08333,0.59375 0.25,0.75c0.16667,0.15625 0.44792,0.23438 0.84375,0.23438h1.21875v2.20313h-1.64062c-2.19792,0 -3.29687,-1.06771 -3.29687,-3.20312v-4.98437h-1.23437v-2.14062h1.23438v-2.5625h2.625v2.5625h2.3125v2.14063z" fill="#ffffff" stroke-linecap="butt"/><path d="M123.84101,201.36405v5c0,0.34375 0.08333,0.59375 0.25,0.75c0.16667,0.15625 0.44792,0.23438 0.84375,0.23438h1.21875v2.20313h-1.64062c-2.19792,0 -3.29687,-1.06771 -3.29687,-3.20312v-4.98437h-1.23437v-2.14062h1.23438v-2.5625h2.625v2.5625h2.3125v2.14063z" fill="#ffffff" stroke-linecap="butt"/><path d="" fill="#ffffff" stroke-linecap="butt"/><path d="M219.92792,200.81718c0.33333,-0.54167 0.77083,-0.96875 1.3125,-1.28125c0.54167,-0.3125 1.16146,-0.46875 1.85938,-0.46875v2.73438h-0.70312c-0.8125,0 -1.42708,0.19792 -1.84375,0.59375c-0.41667,0.38542 -0.625,1.05208 -0.625,2v5.15625h-2.625v-10.32812h2.625z" fill="#ffffff" stroke-linecap="butt"/><path d="" fill="#ffffff" stroke-linecap="butt"/><path d="" fill="#ffffff" stroke-linecap="butt"/><path d="" fill="#ffffff" stroke-linecap="butt"/><path d="" fill="#ffffff" stroke-linecap="butt"/><path d="M116.21603,245.66095h1.47272c-0.45893,0.77142 -0.93142,1.62327 -1.47272,2.53959z" fill="#ffffff" stroke-linecap="butt"/><path d="M118.63079,258.48498c-1.5494,-0.25358 -2.35318,-1.23157 -2.41137,-2.93396c0.6925,1.19978 1.49807,2.15482 2.41137,2.93396z" fill="#ffffff" stroke-linecap="butt"/><path d="M114.98165,248.22345h1.22084c-0.01517,0.02566 -0.0304,0.05138 -0.04569,0.07714c-0.25371,0.42766 -0.77903,0.99281 -1.17515,1.55414z" fill="#ffffff" stroke-linecap="butt"/><g fill="#e82027" stroke-linecap="butt"><path d="M305.17585,200.2078c0.33333,-0.46875 0.79167,-0.85937 1.375,-1.17187c0.59375,-0.32292 1.27083,-0.48437 2.03125,-0.48437c0.88542,0 1.68229,0.21875 2.39063,0.65625c0.71875,0.42708 1.28646,1.04167 1.70313,1.84375c0.41667,0.80208 0.625,1.73438 0.625,2.79688c0,1.05208 -0.20833,1.98958 -0.625,2.8125c-0.41667,0.8125 -0.98437,1.44271 -1.70312,1.89063c-0.70833,0.44792 -1.50521,0.67188 -2.39062,0.67188c-0.76042,0 -1.43229,-0.15625 -2.01562,-0.46875c-0.57292,-0.3125 -1.03646,-0.70312 -1.39062,-1.17187v6.39063h-2.625v-15.25h2.625zM310.62897,203.84843c0,-0.625 -0.13021,-1.16146 -0.39062,-1.60937c-0.25,-0.45833 -0.58333,-0.80208 -1,-1.03125c-0.41667,-0.23958 -0.86458,-0.35937 -1.34375,-0.35937c-0.47917,0 -0.92708,0.11979 -1.34375,0.35938c-0.40625,0.23958 -0.73958,0.59375 -1,1.0625c-0.25,0.45833 -0.375,0.99479 -0.375,1.60938c0,0.625 0.125,1.16667 0.375,1.625c0.26042,0.45833 0.59375,0.8125 1,1.0625c0.41667,0.23958 0.86458,0.35938 1.34375,0.35938c0.47917,0 0.92708,-0.125 1.34375,-0.375c0.41667,-0.25 0.75,-0.60417 1,-1.0625c0.26042,-0.45833 0.39063,-1.00521 0.39063,-1.64062z"/><path d="M295.84284,198.56718c1.27083,0 2.29167,0.39063 3.0625,1.17188c0.78125,0.77083 1.17188,1.85417 1.17188,3.25v6.0625h-2.60937v-5.70312c0,-0.8125 -0.20833,-1.43229 -0.625,-1.85937c-0.40625,-0.42708 -0.96354,-0.64062 -1.67187,-0.64062c-0.70833,0 -1.27083,0.21354 -1.6875,0.64063c-0.41667,0.42708 -0.625,1.04688 -0.625,1.85938v5.70313h-2.60937v-5.70312c0,-0.8125 -0.20833,-1.43229 -0.625,-1.85937c-0.40625,-0.42708 -0.96354,-0.64062 -1.67187,-0.64062c-0.71875,0 -1.28646,0.21354 -1.70312,0.64063c-0.41667,0.42708 -0.625,1.04688 -0.625,1.85938v5.70313h-2.625v-10.32812h2.625v1.25c0.33333,-0.4375 0.76042,-0.78125 1.28125,-1.03125c0.53125,-0.25 1.11458,-0.375 1.75,-0.375c0.8125,0 1.53646,0.17188 2.17188,0.51563c0.63542,0.34375 1.125,0.83333 1.46875,1.46875c0.33333,-0.60417 0.81771,-1.08333 1.45313,-1.4375c0.64583,-0.36458 1.34375,-0.54687 2.09375,-0.54687z"/><path d="M349.10254,209.22343c-0.98958,0 -1.88542,-0.21875 -2.6875,-0.65625c-0.79167,-0.44792 -1.41667,-1.07292 -1.875,-1.875c-0.44792,-0.8125 -0.67187,-1.75 -0.67187,-2.8125c0,-1.05208 0.22917,-1.97917 0.6875,-2.78125c0.46875,-0.8125 1.10417,-1.4375 1.90625,-1.875c0.8125,-0.44792 1.71875,-0.67187 2.71875,-0.67187c0.98958,0 1.89063,0.22396 2.70313,0.67188c0.8125,0.4375 1.44792,1.0625 1.90625,1.875c0.46875,0.80208 0.70313,1.72917 0.70313,2.78125c0,1.0625 -0.23958,2 -0.71875,2.8125c-0.47917,0.80208 -1.125,1.42708 -1.9375,1.875c-0.8125,0.4375 -1.72396,0.65625 -2.73437,0.65625zM349.10254,206.94218c0.46875,0 0.91146,-0.11458 1.32813,-0.34375c0.41667,-0.22917 0.75,-0.57292 1,-1.03125c0.25,-0.45833 0.375,-1.02083 0.375,-1.6875c0,-0.97917 -0.26042,-1.73437 -0.78125,-2.26562c-0.51042,-0.53125 -1.14062,-0.79687 -1.89062,-0.79687c-0.73958,0 -1.36458,0.26563 -1.875,0.79688c-0.5,0.53125 -0.75,1.28646 -0.75,2.26563c0,0.98958 0.24479,1.75 0.73438,2.28125c0.48958,0.52083 1.10938,0.78125 1.85938,0.78125z"/><path d="M319.79352,209.22343c-0.98958,0 -1.88542,-0.21875 -2.6875,-0.65625c-0.79167,-0.44792 -1.41667,-1.07292 -1.875,-1.875c-0.44792,-0.8125 -0.67187,-1.75 -0.67187,-2.8125c0,-1.05208 0.22917,-1.97917 0.6875,-2.78125c0.46875,-0.8125 1.10417,-1.4375 1.90625,-1.875c0.8125,-0.44792 1.71875,-0.67187 2.71875,-0.67187c0.98958,0 1.89063,0.22396 2.70313,0.67188c0.8125,0.4375 1.44792,1.0625 1.90625,1.875c0.46875,0.80208 0.70313,1.72917 0.70313,2.78125c0,1.0625 -0.23958,2 -0.71875,2.8125c-0.47917,0.80208 -1.125,1.42708 -1.9375,1.875c-0.8125,0.4375 -1.72396,0.65625 -2.73437,0.65625zM319.79352,206.94218c0.46875,0 0.91146,-0.11458 1.32813,-0.34375c0.41667,-0.22917 0.75,-0.57292 1,-1.03125c0.25,-0.45833 0.375,-1.02083 0.375,-1.6875c0,-0.97917 -0.26042,-1.73437 -0.78125,-2.26562c-0.51042,-0.53125 -1.14062,-0.79687 -1.89062,-0.79687c-0.73958,0 -1.36458,0.26563 -1.875,0.79688c-0.5,0.53125 -0.75,1.28646 -0.75,2.26563c0,0.98958 0.24479,1.75 0.73438,2.28125c0.48958,0.52083 1.10938,0.78125 1.85938,0.78125z"/><path d="M331.07123,209.22343c-0.85417,0 -1.61979,-0.15104 -2.29687,-0.45312c-0.66667,-0.3125 -1.19792,-0.72917 -1.59375,-1.25c-0.38542,-0.52083 -0.59375,-1.09896 -0.625,-1.73437h2.625c0.05208,0.39583 0.24479,0.72396 0.57813,0.98438c0.34375,0.26042 0.77083,0.39063 1.28125,0.39063c0.5,0 0.89063,-0.09896 1.17188,-0.29687c0.28125,-0.19792 0.42188,-0.45312 0.42188,-0.76562c0,-0.33333 -0.17187,-0.58333 -0.51562,-0.75c-0.34375,-0.16667 -0.88542,-0.34896 -1.625,-0.54687c-0.78125,-0.1875 -1.41667,-0.38021 -1.90625,-0.57812c-0.48958,-0.19792 -0.91146,-0.5 -1.26562,-0.90625c-0.35417,-0.41667 -0.53125,-0.97396 -0.53125,-1.67187c0,-0.57292 0.16146,-1.09375 0.48438,-1.5625c0.33333,-0.47917 0.80729,-0.85417 1.42188,-1.125c0.625,-0.27083 1.35417,-0.40625 2.1875,-0.40625c1.22917,0 2.20833,0.30729 2.9375,0.92188c0.73958,0.61458 1.14583,1.44271 1.21875,2.48438h-2.5c-0.04167,-0.40625 -0.21354,-0.72917 -0.51562,-0.96875c-0.30208,-0.25 -0.70833,-0.375 -1.21875,-0.375c-0.47917,0 -0.84896,0.08854 -1.10937,0.26563c-0.25,0.17708 -0.375,0.42188 -0.375,0.73438c0,0.34375 0.17188,0.60938 0.51563,0.79688c0.35417,0.17708 0.90104,0.35938 1.64063,0.54688c0.73958,0.17708 1.35417,0.36979 1.84375,0.57813c0.48958,0.19792 0.91146,0.50521 1.26563,0.92188c0.35417,0.41667 0.53646,0.96354 0.54688,1.64063c0,0.60417 -0.16667,1.14063 -0.5,1.60938c-0.32292,0.46875 -0.79687,0.83854 -1.42187,1.10938c-0.61458,0.27083 -1.32812,0.40625 -2.14062,0.40625z"/><path d="M340.31702,200.86405v5c0,0.34375 0.08333,0.59375 0.25,0.75c0.16667,0.15625 0.44792,0.23438 0.84375,0.23438h1.21875v2.20313h-1.64062c-2.19792,0 -3.29687,-1.06771 -3.29687,-3.20312v-4.98437h-1.23437v-2.14062h1.23438v-2.5625h2.625v2.5625h2.3125v2.14063z"/><path d="M359.0365,200.31718c0.33333,-0.54167 0.77083,-0.96875 1.3125,-1.28125c0.54167,-0.3125 1.16146,-0.46875 1.85938,-0.46875v2.73438h-0.70312c-0.8125,0 -1.42708,0.19792 -1.84375,0.59375c-0.41667,0.38542 -0.625,1.05208 -0.625,2v5.15625h-2.625v-10.32812h2.625z"/><path d="M280.43769,196.03593v13.01563h-2.625v-13.01562z"/></g></g></g></svg>