<svg version="1.1" xmlns="http://www.w3.org/2000/svg" xmlns:xlink="http://www.w3.org/1999/xlink" width="50.51918" height="35.11778" viewBox="0,0,50.51918,35.11778"><g transform="translate(-214.74041,-162.44111)"><g data-paper-data="{&quot;isPaintingLayer&quot;:true}" fill="#ffffff" fill-rule="nonzero" stroke-linecap="square" stroke-linejoin="miter" stroke-miterlimit="10" stroke-dasharray="" stroke-dashoffset="0" style="mix-blend-mode: normal"><path d="M234.60684,194.54606h-13.8111c-1.48139,0 -2.44999,-0.31907 -2.9058,-0.95721c-0.43302,-0.63814 -0.64953,-1.21928 -0.64953,-1.74347c0,-1.00279 0.52419,-2.22209 1.57255,-3.6579c1.07117,-1.43581 3.05394,-3.36162 5.94834,-5.77741c2.89441,-2.4158 4.77463,-4.14789 5.64067,-5.19626c0.88883,-1.07117 1.33325,-2.26766 1.33325,-3.58951c0,-1.32185 -0.45582,-2.37023 -1.36744,-3.14511c-0.88884,-0.77488 -1.96,-1.16232 -3.21348,-1.16232c-1.09395,0 -2.05115,0.29628 -2.87162,0.88884c-0.82047,0.56977 -1.42442,1.41302 -1.81186,2.52976c-0.36464,1.11673 -0.7293,1.92581 -1.09394,2.4272c-0.36464,0.4786 -0.94581,0.7179 -1.74348,0.7179c-0.66093,0 -1.21929,-0.21651 -1.67511,-0.64953c-0.45582,-0.43302 -0.68372,-1.01419 -0.68372,-1.74348c0,-2.02837 0.86605,-3.91997 2.59813,-5.67485c1.73208,-1.77767 4.18208,-2.6665 7.34996,-2.6665c3.41859,0 5.92556,0.83186 7.5209,2.49557c1.59534,1.66371 2.39301,3.61231 2.39301,5.84579c0,1.75488 -0.52418,3.42999 -1.57255,5.02533c-1.04836,1.57255 -2.70069,3.27045 -4.95695,5.0937c-2.23348,1.80045 -3.66929,3.00836 -4.30742,3.6237c-0.63814,0.61535 -1.37884,1.4814 -2.22208,2.59813h9.77716c1.4814,0 2.48416,0.21652 3.00835,0.64953c0.54698,0.41023 0.82047,0.98 0.82047,1.7093c0,0.77487 -0.23931,1.36744 -0.71791,1.77766c-0.4786,0.38744 -1.26488,0.58116 -2.35882,0.58116zM253.5294,188.35842h-8.64903c-1.54976,0 -2.59812,-0.06837 -3.1451,-0.20511c-0.54698,-0.15953 -1.01418,-0.53557 -1.40162,-1.12813c-0.38744,-0.61534 -0.58116,-1.21929 -0.58116,-1.81186c0,-0.43301 0.11396,-0.86605 0.34186,-1.29906c0.2507,-0.45582 0.75209,-1.1851 1.50418,-2.18789l10.56344,-14.11877c0.77487,-1.02558 1.37884,-1.7207 1.81185,-2.08534c0.45581,-0.38744 1.01418,-0.58115 1.67511,-0.58115c0.70651,0 1.31046,0.21651 1.81185,0.64953c0.50139,0.41023 0.79767,0.87743 0.88883,1.40162c0.11396,0.50139 0.17093,1.40162 0.17093,2.70069v14.18714h0.85465c1.66371,0 2.64371,0.28488 2.93998,0.85465c0.29627,0.56976 0.44442,1.03698 0.44442,1.40162c0,1.48139 -1.01417,2.22208 -3.04254,2.22208h-1.19651v2.56395c0,1.07117 -0.04559,1.84604 -0.13675,2.32464c-0.09116,0.4786 -0.36464,0.90023 -0.82045,1.26488c-0.43302,0.36464 -0.94581,0.54698 -1.53837,0.54698c-0.56977,0 -1.08255,-0.17093 -1.53837,-0.51279c-0.45581,-0.34186 -0.7293,-0.75209 -0.82046,-1.23069c-0.09116,-0.50139 -0.13674,-1.29907 -0.13674,-2.39301zM244.94874,183.88006h8.58066v-11.6232z" stroke="#000000" stroke-width="5"/><path d="M234.60684,194.54607h-13.8111c-1.48139,0 -2.44999,-0.31907 -2.9058,-0.95721c-0.43302,-0.63814 -0.64953,-1.21928 -0.64953,-1.74347c0,-1.00279 0.52419,-2.22209 1.57255,-3.6579c1.07117,-1.43581 3.05394,-3.36162 5.94834,-5.77741c2.89441,-2.4158 4.77463,-4.14789 5.64067,-5.19626c0.88883,-1.07117 1.33325,-2.26766 1.33325,-3.58951c0,-1.32185 -0.45582,-2.37023 -1.36744,-3.14511c-0.88884,-0.77488 -1.96,-1.16232 -3.21348,-1.16232c-1.09395,0 -2.05115,0.29628 -2.87162,0.88884c-0.82047,0.56977 -1.42442,1.41302 -1.81186,2.52976c-0.36464,1.11673 -0.7293,1.92581 -1.09394,2.4272c-0.36464,0.4786 -0.94581,0.7179 -1.74348,0.7179c-0.66093,0 -1.21929,-0.21651 -1.67511,-0.64953c-0.45582,-0.43302 -0.68372,-1.01419 -0.68372,-1.74348c0,-2.02837 0.86605,-3.91997 2.59813,-5.67485c1.73208,-1.77767 4.18208,-2.6665 7.34996,-2.6665c3.41859,0 5.92556,0.83186 7.5209,2.49557c1.59534,1.66371 2.39301,3.61231 2.39301,5.84579c0,1.75488 -0.52418,3.42999 -1.57255,5.02533c-1.04836,1.57255 -2.70069,3.27045 -4.95695,5.0937c-2.23348,1.80045 -3.66929,3.00836 -4.30742,3.6237c-0.63814,0.61535 -1.37884,1.4814 -2.22208,2.59813h9.77716c1.4814,0 2.48416,0.21652 3.00835,0.64953c0.54698,0.41023 0.82047,0.98 0.82047,1.7093c0,0.77487 -0.23931,1.36744 -0.71791,1.77766c-0.4786,0.38744 -1.26488,0.58116 -2.35882,0.58116zM253.5294,188.35843h-8.64903c-1.54976,0 -2.59812,-0.06837 -3.1451,-0.20511c-0.54698,-0.15953 -1.01418,-0.53557 -1.40162,-1.12813c-0.38744,-0.61534 -0.58116,-1.21929 -0.58116,-1.81186c0,-0.43301 0.11396,-0.86605 0.34186,-1.29906c0.2507,-0.45582 0.75209,-1.1851 1.50418,-2.18789l10.56344,-14.11877c0.77487,-1.02558 1.37884,-1.7207 1.81185,-2.08534c0.45581,-0.38744 1.01418,-0.58115 1.67511,-0.58115c0.70651,0 1.31046,0.21651 1.81185,0.64953c0.50139,0.41023 0.79767,0.87743 0.88883,1.40162c0.11396,0.50139 0.17093,1.40162 0.17093,2.70069v14.18714h0.85465c1.66371,0 2.64371,0.28488 2.93998,0.85465c0.29627,0.56976 0.44442,1.03698 0.44442,1.40162c0,1.48139 -1.01417,2.22208 -3.04254,2.22208h-1.19651v2.56395c0,1.07117 -0.04559,1.84604 -0.13675,2.32464c-0.09116,0.4786 -0.36464,0.90023 -0.82045,1.26488c-0.43302,0.36464 -0.94581,0.54698 -1.53837,0.54698c-0.56977,0 -1.08255,-0.17093 -1.53837,-0.51279c-0.45581,-0.34186 -0.7293,-0.75209 -0.82046,-1.23069c-0.09116,-0.50139 -0.13674,-1.29907 -0.13674,-2.39301zM244.94874,183.88006h8.58066v-11.6232z" stroke="none" stroke-width="1"/></g></g></svg>