<svg version="1.1" xmlns="http://www.w3.org/2000/svg" xmlns:xlink="http://www.w3.org/1999/xlink" width="49.32268" height="34.91266" viewBox="0,0,49.32268,34.91266"><g transform="translate(-215.33866,-162.54367)"><g data-paper-data="{&quot;isPaintingLayer&quot;:true}" fill="#ffffff" fill-rule="nonzero" stroke-linecap="square" stroke-linejoin="miter" stroke-miterlimit="10" stroke-dasharray="" stroke-dashoffset="0" style="mix-blend-mode: normal"><path d="M235.2051,194.44354h-13.8111c-1.48139,0 -2.44998,-0.31907 -2.9058,-0.95721c-0.43302,-0.63814 -0.64953,-1.21929 -0.64953,-1.74348c0,-1.00279 0.52419,-2.22208 1.57255,-3.65789c1.07117,-1.4358 3.05393,-3.36162 5.94834,-5.77742c2.89441,-2.4158 4.77463,-4.1479 5.64067,-5.19626c0.88884,-1.07117 1.33325,-2.26766 1.33325,-3.58952c0,-1.32185 -0.45582,-2.37023 -1.36744,-3.14511c-0.88884,-0.77488 -1.96,-1.16231 -3.21348,-1.16231c-1.09394,0 -2.05115,0.29627 -2.87161,0.88883c-0.82047,0.56976 -1.42442,1.41302 -1.81186,2.52975c-0.36464,1.11674 -0.7293,1.92581 -1.09394,2.4272c-0.36464,0.4786 -0.94581,0.71791 -1.74348,0.71791c-0.66093,0 -1.21929,-0.21652 -1.67511,-0.64953c-0.45582,-0.43302 -0.68372,-1.01418 -0.68372,-1.74348c0,-2.02837 0.86605,-3.91998 2.59813,-5.67486c1.73208,-1.77767 4.18207,-2.66651 7.34996,-2.66651c3.41859,0 5.92556,0.83185 7.5209,2.49556c1.59534,1.66371 2.39301,3.61232 2.39301,5.8458c0,1.75488 -0.52419,3.42998 -1.57255,5.02532c-1.04836,1.57255 -2.70068,3.27045 -4.95695,5.0937c-2.23348,1.80045 -3.66929,3.00836 -4.30742,3.62371c-0.63814,0.61534 -1.37884,1.48139 -2.22208,2.59813h9.77716c1.48139,0 2.48417,0.21652 3.00836,0.64953c0.54698,0.41023 0.82046,0.97999 0.82046,1.70929c0,0.77488 -0.23931,1.36744 -0.71791,1.77767c-0.4786,0.38744 -1.26488,0.58116 -2.35882,0.58116zM251.90558,165.04367c3.03115,0 5.49253,1.15093 7.38415,3.45278c1.91441,2.27905 2.87162,6.15347 2.87162,11.62321c0,5.51532 -1.00279,9.36693 -3.00835,11.55483c-2.00557,2.1879 -4.38719,3.28185 -7.14485,3.28185c-2.87161,0 -5.31021,-1.15093 -7.31579,-3.45278c-1.98278,-2.32464 -2.97417,-6.08508 -2.97417,-11.28134c0,-5.37858 0.87744,-9.25297 2.63232,-11.6232c1.77767,-2.37023 4.29603,-3.55534 7.55508,-3.55534zM251.90558,190.88821c1.64092,0 2.83743,-0.78628 3.58952,-2.35883c0.77488,-1.59534 1.16232,-4.52393 1.16232,-8.78576c0,-3.85161 -0.37604,-6.58648 -1.12813,-8.20461c-0.75209,-1.64092 -1.95999,-2.46139 -3.62371,-2.46139c-1.57255,0 -2.74627,0.78627 -3.52115,2.35882c-0.77488,1.57255 -1.16232,4.39858 -1.16232,8.4781c0,4.14789 0.38744,7.0195 1.16232,8.61484c0.77488,1.57255 1.9486,2.35883 3.52115,2.35883z" stroke="#000000" stroke-width="5"/><path d="M235.20509,194.44354h-13.8111c-1.48139,0 -2.44999,-0.31907 -2.9058,-0.95721c-0.43302,-0.63813 -0.64953,-1.21929 -0.64953,-1.74348c0,-1.00279 0.52419,-2.22208 1.57255,-3.65789c1.07117,-1.43581 3.05394,-3.36162 5.94834,-5.77742c2.89441,-2.4158 4.77463,-4.1479 5.64067,-5.19626c0.88883,-1.07117 1.33325,-2.26766 1.33325,-3.58952c0,-1.32185 -0.45582,-2.37023 -1.36744,-3.14511c-0.88884,-0.77488 -1.96,-1.16232 -3.21348,-1.16232c-1.09395,0 -2.05115,0.29627 -2.87162,0.88883c-0.82047,0.56976 -1.42442,1.41302 -1.81186,2.52975c-0.36464,1.11674 -0.7293,1.92581 -1.09394,2.4272c-0.36464,0.4786 -0.94581,0.71791 -1.74348,0.71791c-0.66093,0 -1.21929,-0.21652 -1.67511,-0.64953c-0.45582,-0.43302 -0.68372,-1.01418 -0.68372,-1.74348c0,-2.02837 0.86605,-3.91998 2.59813,-5.67486c1.73208,-1.77767 4.18208,-2.6665 7.34996,-2.6665c3.41859,0 5.92556,0.83185 7.5209,2.49556c1.59534,1.66371 2.39301,3.61231 2.39301,5.8458c0,1.75488 -0.52418,3.42998 -1.57255,5.02532c-1.04836,1.57255 -2.70069,3.27045 -4.95695,5.0937c-2.23348,1.80045 -3.66929,3.00836 -4.30742,3.62371c-0.63814,0.61535 -1.37884,1.4814 -2.22208,2.59813h9.77716c1.4814,0 2.48416,0.21652 3.00835,0.64953c0.54698,0.41023 0.82047,0.98 0.82047,1.70929c0,0.77488 -0.23931,1.36744 -0.71791,1.77767c-0.4786,0.38744 -1.26488,0.58116 -2.35882,0.58116zM251.90558,165.04367c3.03114,0 5.49253,1.15092 7.38415,3.45277c1.91441,2.27905 2.87162,6.15347 2.87162,11.62321c0,5.51532 -1.00279,9.36693 -3.00836,11.55483c-2.00557,2.1879 -4.38719,3.28184 -7.14485,3.28184c-2.87161,0 -5.31022,-1.15093 -7.31579,-3.45278c-1.98278,-2.32464 -2.97417,-6.08509 -2.97417,-11.28134c0,-5.37858 0.87743,-9.25297 2.63232,-11.6232c1.77767,-2.37023 4.29603,-3.55534 7.55508,-3.55534zM251.90558,190.8882c1.64092,0 2.83743,-0.78627 3.58952,-2.35883c0.77487,-1.59534 1.16231,-4.52393 1.16231,-8.78577c0,-3.85161 -0.37604,-6.58648 -1.12813,-8.20461c-0.75209,-1.64092 -1.95999,-2.46139 -3.6237,-2.46139c-1.57255,0 -2.74628,0.78627 -3.52115,2.35882c-0.77488,1.57255 -1.16232,4.39858 -1.16232,8.4781c0,4.14789 0.38744,7.01951 1.16232,8.61484c0.77488,1.57255 1.9486,2.35883 3.52115,2.35883z" stroke="none" stroke-width="1"/></g></g></svg>