<svg version="1.1" xmlns="http://www.w3.org/2000/svg" xmlns:xlink="http://www.w3.org/1999/xlink" width="251.46358" height="95.42657" viewBox="0,0,251.46358,95.42657"><g transform="translate(-3.27934,-228.23418)"><g data-paper-data="{&quot;isPaintingLayer&quot;:true}" fill-rule="nonzero" stroke-linejoin="miter" stroke-miterlimit="10" stroke-dasharray="" stroke-dashoffset="0" style="mix-blend-mode: normal"><path d="M168.19398,233.07969c-0.40938,0.25342 -0.8285,0.42399 -1.25737,0.51172c-0.42887,0.07798 -0.71641,0.11696 -0.86261,0.11696c-0.13646,0 -0.24367,-0.01462 -0.32165,-0.04386c-0.06823,-0.03898 -0.13159,-0.08285 -0.19007,-0.13159c-0.05848,-0.08773 -0.12183,-0.24367 -0.19006,-0.46786c-0.05848,-0.22419 -0.08773,-0.41425 -0.08773,-0.5702c0,-0.1657 0.0536,-0.29729 0.16082,-0.39476c0.10722,-0.10722 0.30216,-0.19007 0.58482,-0.24855c0.84799,-0.17544 1.42794,-0.34602 1.73985,-0.51172c0.3119,-0.17544 0.54096,-0.31678 0.68717,-0.424c0.14621,-0.10722 0.28267,-0.19981 0.40938,-0.27779c0.26317,-0.15595 0.53121,-0.23393 0.80413,-0.23393c0.27292,0 0.49223,0.08285 0.65793,0.24855c0.1657,0.1657 0.24855,0.4045 0.24855,0.7164v10.26364c0,0.1657 -0.05361,0.3119 -0.16083,0.43861c-0.09747,0.11696 -0.2193,0.17544 -0.36551,0.17544h-1.35971c-0.14621,0 -0.26805,-0.05848 -0.36551,-0.17544c-0.08773,-0.12671 -0.13159,-0.27292 -0.13159,-0.43861zM204.32671,240.97479c0,-0.32165 0.02436,-0.52634 0.0731,-0.61406c0.05848,-0.13646 0.21444,-0.26804 0.46786,-0.39475c0.25342,-0.12671 0.57995,-0.30704 0.97958,-0.54096c0.39963,-0.23393 0.80901,-0.4971 1.22813,-0.78951c0.42887,-0.30215 0.84799,-0.62868 1.25737,-0.97958c0.40938,-0.3509 0.77489,-0.71641 1.09654,-1.09654c0.72128,-0.83825 1.08192,-1.63262 1.08192,-2.38315c0,-0.63356 -0.22906,-1.11604 -0.68717,-1.44744c-0.37039,-0.25342 -0.74077,-0.38013 -1.11116,-0.38013c-0.37039,0 -0.67255,0.02925 -0.90648,0.08773c-0.23393,0.05848 -0.45324,0.14621 -0.65793,0.26317c-0.46786,0.26317 -0.78951,0.62381 -0.96496,1.08192c-0.14621,0.40938 -0.38988,0.61407 -0.73103,0.61407c-0.06823,0 -0.14133,-0.00487 -0.21931,-0.01462c-0.07798,-0.0195 -0.21444,-0.04387 -0.40938,-0.0731c-0.42887,-0.07798 -0.6433,-0.3119 -0.6433,-0.70179c0,-0.39963 0.06336,-0.74565 0.19007,-1.03806c0.12671,-0.29241 0.30215,-0.55558 0.52634,-0.78951c0.22419,-0.24367 0.48248,-0.45324 0.77489,-0.62868c0.29241,-0.18519 0.59944,-0.34115 0.92109,-0.46786c0.65305,-0.24367 1.22813,-0.36551 1.72523,-0.36551c0.4971,0 0.91135,0.02437 1.24275,0.0731c0.3314,0.04873 0.65305,0.13159 0.96496,0.24855c0.32165,0.10722 0.62869,0.25342 0.9211,0.43861c0.29241,0.18519 0.5507,0.41425 0.77489,0.68716c0.47761,0.58482 0.7164,1.32073 0.7164,2.20771c0,1.35484 -0.60919,2.60734 -1.82757,3.75749c-0.6433,0.60432 -1.25737,1.09167 -1.84219,1.46206l-1.73985,1.0673l5.21954,-0.11696c0.24367,-0.00975 0.39963,0.04873 0.46786,0.17544c0.06823,0.12671 0.10234,0.29241 0.10234,0.4971v0.86262c0,0.22419 -0.05848,0.37526 -0.17544,0.45324c-0.10722,0.06823 -0.26804,0.10234 -0.48248,0.10234h-7.66118c-0.20469,0 -0.37039,-0.03898 -0.4971,-0.11696c-0.11696,-0.08773 -0.17544,-0.24367 -0.17544,-0.46785zM246.01445,241.98361c0.21444,-0.3314 0.44836,-0.43374 0.70179,-0.30703c0.07798,0.03898 0.20469,0.11697 0.38013,0.23393c0.17544,0.11696 0.38013,0.22905 0.61406,0.33627c0.23393,0.10722 0.46786,0.19007 0.70179,0.24855c0.41912,0.11696 0.83337,0.17545 1.24275,0.17545c0.40938,0 0.76515,-0.03898 1.0673,-0.11696c0.3119,-0.07798 0.5897,-0.20469 0.83337,-0.38014c0.55558,-0.38013 0.83337,-0.91622 0.83337,-1.60826c0,-0.63356 -0.28754,-1.12578 -0.86262,-1.47668c-0.54584,-0.32165 -1.25736,-0.48248 -2.1346,-0.48248c-0.39963,0 -0.68717,0.01463 -0.86261,0.04387c-0.23393,0.03898 -0.38501,0.05848 -0.45324,0.05848c-0.06823,0 -0.14133,-0.04386 -0.21931,-0.13159c-0.06823,-0.09747 -0.12184,-0.20469 -0.16082,-0.32165c-0.06823,-0.23393 -0.10235,-0.43861 -0.10235,-0.61406c0,-0.17544 0.02437,-0.32166 0.0731,-0.43862c0.05848,-0.11696 0.18032,-0.19494 0.36551,-0.23392c1.89093,-0.41912 3.08006,-1.03807 3.56742,-1.85682c0.19494,-0.30215 0.29241,-0.61893 0.29241,-0.95033c0,-0.3314 -0.05848,-0.59944 -0.17545,-0.80413c-0.11696,-0.20469 -0.27292,-0.37526 -0.46786,-0.51172c-0.38988,-0.28267 -0.86749,-0.424 -1.43282,-0.424c-0.44836,0 -0.82363,0.08285 -1.12579,0.24855c-0.56533,0.3119 -0.89673,0.68717 -0.99419,1.12579c-0.07798,0.30215 -0.27779,0.45324 -0.59945,0.45324c-0.32165,0 -0.57021,-0.02437 -0.74565,-0.0731c-0.17544,-0.05848 -0.3119,-0.13159 -0.40937,-0.21931c-0.15595,-0.13646 -0.23393,-0.35577 -0.23393,-0.65793c0,-0.30215 0.06336,-0.59457 0.19007,-0.87723c0.12671,-0.28267 0.29729,-0.53608 0.51172,-0.76027c0.22419,-0.22419 0.4776,-0.41913 0.76027,-0.58482c0.28267,-0.17544 0.58482,-0.31677 0.90648,-0.42399c0.63356,-0.22419 1.24762,-0.33628 1.84219,-0.33628c0.60432,0 1.1599,0.0731 1.66675,0.21931c0.51659,0.13646 0.96983,0.3509 1.35971,0.6433c0.88698,0.65305 1.33047,1.54978 1.33047,2.69019c0,0.95521 -0.37038,1.77397 -1.11116,2.45625c-0.51659,0.45811 -1.1599,0.81875 -1.92991,1.08192c1.03319,0 1.88605,0.3119 2.5586,0.93571c0.63356,0.60432 0.95034,1.29149 0.95034,2.0615c0,0.77002 -0.13646,1.41819 -0.40938,1.94454c-0.27292,0.52634 -0.62868,0.9747 -1.0673,1.34509c-0.91622,0.74078 -1.96891,1.11116 -3.15805,1.11116c-1.79345,0 -3.17754,-0.39963 -4.15224,-1.19889c-0.3119,-0.24367 -0.46785,-0.4435 -0.46785,-0.59945c0,-0.14621 0.03898,-0.27779 0.11696,-0.39475z" fill="#ffffff" stroke="none" stroke-width="1" stroke-linecap="square"/><path d="M246.01445,241.98361c0.21444,-0.3314 0.44836,-0.43374 0.70179,-0.30703c0.07798,0.03898 0.20469,0.11697 0.38013,0.23393c0.17544,0.11696 0.38013,0.22905 0.61406,0.33627c0.23393,0.10722 0.46786,0.19007 0.70179,0.24855c0.41912,0.11696 0.83337,0.17545 1.24275,0.17545c0.40938,0 0.76515,-0.03898 1.0673,-0.11696c0.3119,-0.07798 0.5897,-0.20469 0.83337,-0.38014c0.55558,-0.38013 0.83337,-0.91622 0.83337,-1.60826c0,-0.63356 -0.28754,-1.12578 -0.86262,-1.47668c-0.54584,-0.32165 -1.25736,-0.48248 -2.1346,-0.48248c-0.39963,0 -0.68717,0.01463 -0.86261,0.04387c-0.23393,0.03898 -0.38501,0.05848 -0.45324,0.05848c-0.06823,0 -0.14133,-0.04386 -0.21931,-0.13159c-0.06823,-0.09747 -0.12184,-0.20469 -0.16082,-0.32165c-0.06823,-0.23393 -0.10235,-0.43861 -0.10235,-0.61406c0,-0.17544 0.02437,-0.32166 0.0731,-0.43862c0.05848,-0.11696 0.18032,-0.19494 0.36551,-0.23392c1.89093,-0.41912 3.08006,-1.03807 3.56742,-1.85682c0.19494,-0.30215 0.29241,-0.61893 0.29241,-0.95033c0,-0.3314 -0.05848,-0.59944 -0.17545,-0.80413c-0.11696,-0.20469 -0.27292,-0.37526 -0.46786,-0.51172c-0.38988,-0.28267 -0.86749,-0.424 -1.43282,-0.424c-0.44836,0 -0.82363,0.08285 -1.12579,0.24855c-0.56533,0.3119 -0.89673,0.68717 -0.99419,1.12579c-0.07798,0.30215 -0.27779,0.45324 -0.59945,0.45324c-0.32165,0 -0.57021,-0.02437 -0.74565,-0.0731c-0.17544,-0.05848 -0.3119,-0.13159 -0.40937,-0.21931c-0.15595,-0.13646 -0.23393,-0.35577 -0.23393,-0.65793c0,-0.30215 0.06336,-0.59457 0.19007,-0.87723c0.12671,-0.28267 0.29729,-0.53608 0.51172,-0.76027c0.22419,-0.22419 0.4776,-0.41913 0.76027,-0.58482c0.28267,-0.17544 0.58482,-0.31677 0.90648,-0.42399c0.63356,-0.22419 1.24762,-0.33628 1.84219,-0.33628c0.60432,0 1.1599,0.0731 1.66675,0.21931c0.51659,0.13646 0.96983,0.3509 1.35971,0.6433c0.88698,0.65305 1.33047,1.54978 1.33047,2.69019c0,0.95521 -0.37038,1.77397 -1.11116,2.45625c-0.51659,0.45811 -1.1599,0.81875 -1.92991,1.08192c1.03319,0 1.88605,0.3119 2.5586,0.93571c0.63356,0.60432 0.95034,1.29149 0.95034,2.0615c0,0.77002 -0.13646,1.41819 -0.40938,1.94454c-0.27292,0.52634 -0.62868,0.9747 -1.0673,1.34509c-0.91622,0.74078 -1.96891,1.11116 -3.15805,1.11116c-1.79345,0 -3.17754,-0.39963 -4.15224,-1.19889c-0.3119,-0.24367 -0.46785,-0.4435 -0.46785,-0.59945c0,-0.14621 0.03898,-0.27779 0.11696,-0.39475z" fill="#737373" stroke="none" stroke-width="1" stroke-linecap="square"/><path d="M9.59977,230.53754v9.57241c0,0.63317 -0.02492,1.0794 -0.07478,1.33864c-0.04487,0.25427 -0.18696,0.47862 -0.42627,0.67306c-0.23433,0.18945 -0.5185,0.28419 -0.85254,0.28419c-0.33902,0 -0.63566,-0.09722 -0.88993,-0.29165c-0.24928,-0.19942 -0.39885,-0.42876 -0.44871,-0.68802c-0.04487,-0.26424 -0.0673,-0.70298 -0.0673,-1.31621v-9.57241c0,-0.63317 0.02243,-1.07191 0.0673,-1.31621c0.04985,-0.24429 0.19694,-0.46865 0.44124,-0.67306c0.24928,-0.2094 0.53845,-0.3141 0.86749,-0.3141c0.32407,0 0.61074,0.09473 0.86002,0.28418c0.24928,0.18945 0.39885,0.4163 0.4487,0.68053c0.04986,0.25925 0.07478,0.70547 0.07478,1.33864zM27.00398,235.8173v4.4048c0,0.60326 -0.02493,1.02953 -0.07479,1.27881c-0.04986,0.24429 -0.18696,0.45618 -0.41131,0.63566c-0.21937,0.17948 -0.48111,0.26923 -0.78524,0.26923c-0.29913,0 -0.56088,-0.08725 -0.78524,-0.26175c-0.21937,-0.17948 -0.35647,-0.40135 -0.41132,-0.66559c-0.05485,-0.26424 -0.08226,-0.68303 -0.08226,-1.25638v-3.73174c0,-1.09185 -0.12963,-1.77488 -0.38888,-2.04909c-0.25925,-0.2792 -0.61323,-0.41879 -1.06194,-0.41879c-0.46865,0 -0.86251,0.12962 -1.18159,0.38887c-0.31908,0.25925 -0.53844,0.59828 -0.6581,1.01708c-0.11966,0.41381 -0.17948,1.06691 -0.17948,1.95935v2.83433c0,0.60326 -0.02492,1.03203 -0.07478,1.2863c-0.04487,0.24928 -0.18198,0.46118 -0.41132,0.63567c-0.22435,0.1745 -0.4886,0.26175 -0.79271,0.26175c-0.39387,0 -0.70297,-0.13212 -0.92732,-0.39636c-0.22435,-0.26424 -0.33653,-0.86002 -0.33653,-1.78734v-3.50739c0,-0.99713 -0.07479,-1.69511 -0.22436,-2.09396c-0.14957,-0.39885 -0.53844,-0.59828 -1.16663,-0.59828c-0.65312,0 -1.16913,0.2094 -1.54804,0.62819c-0.3789,0.41381 -0.56836,1.30624 -0.56836,2.67728v2.89416c0,0.5883 -0.01994,1.00211 -0.05983,1.24142c-0.03988,0.23433 -0.17201,0.4512 -0.39636,0.65062c-0.22435,0.19444 -0.4861,0.29166 -0.78523,0.29166c-0.28418,0 -0.54344,-0.08725 -0.77776,-0.26175c-0.23433,-0.1745 -0.38139,-0.3839 -0.44122,-0.62819c-0.05485,-0.24928 -0.08226,-0.68053 -0.08226,-1.29377v-6.18467c0,-0.5883 0.02741,-0.98715 0.08226,-1.19655c0.05485,-0.21438 0.19195,-0.40135 0.41131,-0.56089c0.21937,-0.16453 0.45868,-0.24678 0.71793,-0.24678c0.81266,0 1.21899,0.5185 1.21899,1.55551c0.85753,-1.03701 1.88706,-1.55551 3.08859,-1.55551c1.29127,0 2.22858,0.5185 2.81189,1.55551c0.8675,-1.03701 1.87958,-1.55551 3.03624,-1.55551c0.89242,0 1.65523,0.24678 2.2884,0.74036c0.63816,0.48859 0.95724,1.50317 0.95724,3.04373zM31.76026,233.73083c0.90738,-1.13174 2.01669,-1.69761 3.32791,-1.69761c1.31122,0 2.35072,0.49358 3.11851,1.48073c0.77278,0.98217 1.15916,2.2535 1.15916,3.81401c0,1.48571 -0.37891,2.7047 -1.13672,3.65696c-0.75283,0.94727 -1.79233,1.42091 -3.11851,1.42091c-1.27134,0 -2.38812,-0.52848 -3.35034,-1.58543v3.32791c0,0.91736 -0.11467,1.48821 -0.344,1.71257c-0.22435,0.22435 -0.52848,0.33653 -0.91237,0.33653c-0.46865,0 -0.80019,-0.15456 -0.99463,-0.46367c-0.19444,-0.30911 -0.29165,-0.86252 -0.29165,-1.66021v-10.07345c0,-0.52348 0.02243,-0.90739 0.0673,-1.15168c0.04986,-0.24429 0.18696,-0.44124 0.41131,-0.5908c0.22435,-0.14957 0.49358,-0.22435 0.80767,-0.22435c0.83759,0 1.25638,0.47612 1.25638,1.42838zM36.78577,237.27561c0,-1.12176 -0.23681,-1.95188 -0.71046,-2.49032c-0.46865,-0.53844 -1.01707,-0.80767 -1.64525,-0.80767c-0.73289,0 -1.33614,0.27421 -1.80978,0.82263c-0.47364,0.54842 -0.71045,1.31372 -0.71045,2.29588c0,1.02704 0.22933,1.84468 0.68801,2.45293c0.45868,0.60326 1.0744,0.90489 1.84718,0.90489c0.68802,0 1.24891,-0.28168 1.68265,-0.84506c0.43874,-0.56338 0.6581,-1.34113 0.6581,-2.33327zM45.90948,232.03322c1.58044,0 2.82437,0.4886 3.73174,1.46578c0.90738,0.9722 1.36107,2.21113 1.36107,3.71679c0,1.51564 -0.46117,2.75955 -1.3835,3.73174c-0.91736,0.9722 -2.13385,1.45829 -3.64948,1.45829c-1.64525,0 -2.9141,-0.49108 -3.80653,-1.47325c-0.89243,-0.98715 -1.33864,-2.22608 -1.33864,-3.71679c0,-1.51065 0.4512,-2.75207 1.3536,-3.72427c0.90738,-0.9722 2.1513,-1.4583 3.73174,-1.4583zM45.90948,240.50629c0.77278,0 1.38352,-0.28916 1.83222,-0.86749c0.4537,-0.58331 0.68053,-1.39099 0.68053,-2.42301c0,-1.03203 -0.22684,-1.83971 -0.68053,-2.42302c-0.4487,-0.58331 -1.05945,-0.87498 -1.83222,-0.87498c-0.76281,0 -1.37105,0.29415 -1.82474,0.88246c-0.4537,0.58331 -0.68053,1.3885 -0.68053,2.41554c0,1.03701 0.22436,1.84468 0.67307,2.42301c0.4537,0.57834 1.06443,0.86749 1.83221,0.86749zM54.9453,234.68807c0,0.32905 0.17201,0.5883 0.51602,0.77775c0.34401,0.18446 1.1093,0.42377 2.29588,0.71793c2.31334,0.55839 3.47,1.52062 3.47,2.88668c0,1.07689 -0.38887,1.90202 -1.16664,2.47537c-0.77775,0.57335 -1.86962,0.86002 -3.27556,0.86002c-1.4209,0 -2.49032,-0.29165 -3.20825,-0.87498c-0.71793,-0.5883 -1.07689,-1.20901 -1.07689,-1.86213c0,-0.2792 0.09971,-0.51851 0.29913,-0.71794c0.19942,-0.19942 0.44372,-0.29914 0.73289,-0.29914c0.39885,0 0.74784,0.24929 1.04698,0.74785c0.33902,0.54842 0.71045,0.91237 1.11429,1.09185c0.40384,0.1745 0.83759,0.26174 1.30125,0.26174c0.50854,0 0.92235,-0.11218 1.24142,-0.33652c0.32407,-0.22933 0.48609,-0.5185 0.48609,-0.86749c0,-0.31907 -0.1371,-0.59578 -0.4113,-0.83011c-0.26922,-0.23433 -1.00959,-0.48859 -2.22109,-0.7628c-1.21151,-0.2792 -2.09396,-0.66808 -2.64737,-1.16664c-0.5534,-0.50355 -0.83011,-1.10182 -0.83011,-1.79483c0,-0.77776 0.33653,-1.46577 1.00959,-2.06405c0.67804,-0.59828 1.69262,-0.89741 3.04373,-0.89741c1.24142,0 2.22857,0.25178 2.96146,0.75532c0.73787,0.50355 1.10681,1.02705 1.10681,1.57048c0,0.28418 -0.09472,0.52598 -0.28417,0.7254c-0.18447,0.19444 -0.44123,0.29166 -0.77029,0.29166c-0.49357,0 -0.93978,-0.2817 -1.33863,-0.84507c-0.39386,-0.56835 -0.98965,-0.85254 -1.78735,-0.85254c-0.42876,0 -0.80518,0.08724 -1.12925,0.26174c-0.31907,0.1745 -0.47862,0.42378 -0.47862,0.74785zM63.811,232.25757v-1.53308c0,-0.63317 0.02492,-1.06194 0.07478,-1.28629c0.05485,-0.22933 0.19195,-0.43126 0.41132,-0.60576c0.22435,-0.17948 0.48609,-0.26923 0.78523,-0.26923c0.2742,0 0.521,0.08227 0.74037,0.24679c0.21937,0.15954 0.36395,0.35398 0.43374,0.58331c0.0698,0.22933 0.1047,0.60326 0.1047,1.12176v1.74248h0.49357c0.6232,0 1.03701,0.07729 1.24142,0.23184c0.2094,0.14957 0.3141,0.37142 0.3141,0.66558c0,0.62819 -0.5235,0.94228 -1.57048,0.94228h-0.47862v4.71142c0,0.63317 0.04487,1.06693 0.13461,1.30125c0.08974,0.22933 0.33154,0.34401 0.72541,0.34401c0.18447,0 0.39386,-0.02493 0.62819,-0.07479c0.23433,-0.05485 0.40882,-0.08226 0.52349,-0.08226c0.25427,0 0.46117,0.08476 0.62071,0.25427c0.15954,0.16453 0.23931,0.36644 0.23931,0.60575c0,0.83261 -0.88245,1.2489 -2.64736,1.2489c-0.85255,0 -1.48074,-0.15705 -1.88457,-0.47115c-0.40384,-0.31907 -0.65311,-0.70547 -0.74784,-1.15916c-0.09472,-0.45868 -0.14209,-1.05196 -0.14209,-1.77987v-4.89838h-0.33653c-0.75782,0 -1.13672,-0.30911 -1.13672,-0.92732c0,-0.60825 0.39635,-0.91237 1.18907,-0.91237zM74.62668,232.03322c1.58044,0 2.82437,0.4886 3.73174,1.46578c0.90739,0.9722 1.36107,2.21113 1.36107,3.71679c0,1.51564 -0.46117,2.75955 -1.3835,3.73174c-0.91736,0.9722 -2.13386,1.45829 -3.64948,1.45829c-1.64526,0 -2.9141,-0.49108 -3.80653,-1.47325c-0.89243,-0.98715 -1.33863,-2.22608 -1.33863,-3.71679c0,-1.51065 0.45119,-2.75207 1.35359,-3.72427c0.90739,-0.9722 2.1513,-1.4583 3.73174,-1.4583zM74.62668,240.50629c0.77277,0 1.38352,-0.28916 1.83221,-0.86749c0.45369,-0.58331 0.68054,-1.39099 0.68054,-2.42301c0,-1.03203 -0.22684,-1.83971 -0.68054,-2.42302c-0.44871,-0.58331 -1.05945,-0.87498 -1.83221,-0.87498c-0.76281,0 -1.37104,0.29415 -1.82474,0.88246c-0.45369,0.58331 -0.68054,1.3885 -0.68054,2.41554c0,1.03701 0.22435,1.84468 0.67306,2.42301c0.45369,0.57834 1.06444,0.86749 1.83222,0.86749zM81.71063,240.29689v-6.54363c0,-1.14669 0.42129,-1.72004 1.26386,-1.72004c0.80268,0 1.21401,0.52848 1.23394,1.58543c0.52848,-1.05695 1.25887,-1.58543 2.19118,-1.58543c0.49358,0 1.00211,0.12964 1.5256,0.38888c0.52848,0.25427 0.79272,0.60576 0.79272,1.05446c0,0.3141 -0.10719,0.57335 -0.32158,0.77775c-0.2094,0.19942 -0.43375,0.29914 -0.67306,0.29914c-0.13959,0 -0.38888,-0.05484 -0.74784,-0.16453c-0.35896,-0.10969 -0.6581,-0.16452 -0.89741,-0.16452c-0.61324,0 -1.06942,0.30911 -1.36856,0.92732c-0.29914,0.61821 -0.44871,1.80979 -0.44871,3.57469v1.47326c0,0.64813 -0.02743,1.08686 -0.08227,1.3162c-0.04985,0.22435 -0.18695,0.42877 -0.4113,0.61324c-0.22435,0.18446 -0.4836,0.27671 -0.77775,0.27671c-0.2792,0 -0.53097,-0.08227 -0.75532,-0.24679c-0.22435,-0.16453 -0.36894,-0.35897 -0.43375,-0.58331c-0.05983,-0.22933 -0.08974,-0.65561 -0.08974,-1.27881zM92.04772,234.68807c0,0.32905 0.17201,0.5883 0.51602,0.77775c0.344,0.18446 1.1093,0.42377 2.29588,0.71793c2.31333,0.55839 3.47,1.52062 3.47,2.88668c0,1.07689 -0.38887,1.90202 -1.16663,2.47537c-0.77775,0.57335 -1.86961,0.86002 -3.27555,0.86002c-1.42091,0 -2.49032,-0.29165 -3.20825,-0.87498c-0.71793,-0.5883 -1.07689,-1.20901 -1.07689,-1.86213c0,-0.2792 0.09971,-0.51851 0.29914,-0.71794c0.19943,-0.19942 0.44372,-0.29914 0.73288,-0.29914c0.39885,0 0.74784,0.24929 1.04698,0.74785c0.33902,0.54842 0.71045,0.91237 1.11429,1.09185c0.40384,0.1745 0.83758,0.26174 1.30125,0.26174c0.50853,0 0.92235,-0.11218 1.24142,-0.33652c0.32407,-0.22933 0.4861,-0.5185 0.4861,-0.86749c0,-0.31907 -0.1371,-0.59578 -0.41131,-0.83011c-0.26922,-0.23433 -1.0096,-0.48859 -2.2211,-0.7628c-1.21151,-0.2792 -2.09396,-0.66808 -2.64737,-1.16664c-0.5534,-0.50355 -0.8301,-1.10182 -0.8301,-1.79483c0,-0.77776 0.33653,-1.46577 1.00959,-2.06405c0.67804,-0.59828 1.69262,-0.89741 3.04372,-0.89741c1.24142,0 2.22857,0.25178 2.96147,0.75532c0.73787,0.50355 1.10681,1.02705 1.10681,1.57048c0,0.28418 -0.09473,0.52598 -0.28418,0.7254c-0.18447,0.19444 -0.44123,0.29166 -0.77028,0.29166c-0.49358,0 -0.93979,-0.2817 -1.33864,-0.84507c-0.39387,-0.56835 -0.98964,-0.85254 -1.78735,-0.85254c-0.42876,0 -0.80518,0.08724 -1.12925,0.26174c-0.31907,0.1745 -0.47861,0.42378 -0.47861,0.74785zM102.18474,232.03322c0.37891,0 0.70547,0.1371 0.97967,0.41132c0.2742,0.2742 0.41132,0.60077 0.41132,0.97968c0,0.39387 -0.13711,0.73039 -0.41132,1.00959c-0.2742,0.2742 -0.60076,0.41132 -0.97967,0.41132c-0.39387,0 -0.73039,-0.1371 -1.00959,-0.41132c-0.2742,-0.2792 -0.41132,-0.61572 -0.41132,-1.00959c0,-0.37891 0.13711,-0.70547 0.41132,-0.97968c0.2792,-0.2742 0.61572,-0.41132 1.00959,-0.41132zM102.18474,239.59393c0.37891,0 0.70547,0.1371 0.97967,0.41131c0.2742,0.2742 0.41132,0.60076 0.41132,0.97967c0,0.38888 -0.13711,0.72292 -0.41132,1.00211c-0.2742,0.2792 -0.60076,0.4188 -0.97967,0.4188c-0.39387,0 -0.73039,-0.1371 -1.00959,-0.41132c-0.2742,-0.2792 -0.41132,-0.61572 -0.41132,-1.00959c0,-0.37891 0.13711,-0.70547 0.41132,-0.97967c0.2792,-0.2742 0.61572,-0.41131 1.00959,-0.41131z" fill="#ffffff" stroke="none" stroke-width="1" stroke-linecap="square"/><path d="M9.43557,308.78211v-6.78125c0,-0.57291 0.02084,-0.98959 0.0625,-1.25c0.05209,-0.27084 0.19271,-0.5 0.42188,-0.6875c0.22916,-0.19791 0.51563,-0.29687 0.85938,-0.29687c0.3125,0 0.58854,0.09375 0.82813,0.28125c0.25,0.1875 0.39584,0.41666 0.4375,0.6875c0.05209,0.26041 0.07813,0.68229 0.07813,1.26563v6.39063c0,1.95834 -0.40625,3.3125 -1.21875,4.0625c-0.80209,0.75 -1.88541,1.125 -3.25,1.125c-1.45834,0 -2.55209,-0.40625 -3.28125,-1.21875c-0.72916,-0.82291 -1.09375,-1.83854 -1.09375,-3.04687c0,-0.4375 0.11979,-0.76562 0.35938,-0.98437c0.25,-0.21875 0.55209,-0.32812 0.90625,-0.32812c0.38541,0 0.65104,0.10938 0.79687,0.32813c0.15625,0.21875 0.30209,0.58334 0.4375,1.09375c0.14584,0.51041 0.26562,0.88021 0.35937,1.10938c0.10416,0.21875 0.27604,0.42188 0.51563,0.60938c0.23959,0.1875 0.5625,0.28125 0.96875,0.28125c1.20834,0 1.8125,-0.88021 1.8125,-2.64062zM21.83324,309.12586h-4.875c0.02084,0.92709 0.27084,1.625 0.75,2.09375c0.48959,0.46875 1.07291,0.70313 1.75,0.70313c0.83334,0 1.61458,-0.36459 2.34375,-1.09375c0.30209,-0.30209 0.52084,-0.48959 0.65625,-0.5625c0.14584,-0.07291 0.30729,-0.10937 0.48438,-0.10937c0.22916,0 0.42188,0.07291 0.57813,0.21875c0.15625,0.13541 0.23438,0.30729 0.23438,0.51563c0,0.55209 -0.38021,1.14063 -1.14062,1.76563c-0.76041,0.61458 -1.79687,0.92188 -3.10937,0.92188c-1.66666,0 -2.93229,-0.46875 -3.79687,-1.40625c-0.85416,-0.94791 -1.28125,-2.16666 -1.28125,-3.65625c0,-1.51041 0.42709,-2.72916 1.28125,-3.65625c0.86459,-0.9375 2.0625,-1.40625 3.59375,-1.40625c1.46875,0 2.59896,0.44271 3.39062,1.32813c0.80209,0.88541 1.20313,1.84375 1.20313,2.875c0,0.44791 -0.13541,0.80729 -0.40625,1.07813c-0.26041,0.26041 -0.8125,0.39063 -1.65625,0.39063zM16.95824,307.71961h4.53125c-0.03125,-0.83334 -0.26041,-1.46354 -0.6875,-1.89062c-0.42709,-0.4375 -0.95312,-0.65625 -1.57812,-0.65625c-1.3125,0 -2.06771,0.84896 -2.26562,2.54688zM27.87261,306.04774c0,0.32291 0.16666,0.57813 0.5,0.76563c0.33334,0.17709 1.07813,0.40625 2.23438,0.6875c2.26042,0.55209 3.39063,1.48959 3.39063,2.8125c0,1.05209 -0.38021,1.85938 -1.14063,2.42188c-0.76042,0.5625 -1.82291,0.84375 -3.1875,0.84375c-1.38541,0 -2.43229,-0.28646 -3.14062,-0.85937c-0.69791,-0.57291 -1.04687,-1.17709 -1.04687,-1.8125c0,-0.27084 0.09375,-0.50521 0.28125,-0.70312c0.19791,-0.19791 0.44271,-0.29687 0.73438,-0.29687c0.38541,0 0.72396,0.24479 1.01563,0.73438c0.33334,0.53125 0.69271,0.88541 1.07813,1.0625c0.39584,0.16666 0.82291,0.25 1.28125,0.25c0.48959,0 0.89063,-0.10937 1.20313,-0.32812c0.3125,-0.21875 0.46875,-0.5 0.46875,-0.84375c0,-0.3125 -0.13021,-0.57812 -0.39062,-0.79687c-0.26041,-0.22916 -0.98438,-0.47916 -2.17188,-0.75c-1.17709,-0.27084 -2.03646,-0.65104 -2.57812,-1.14062c-0.54166,-0.48959 -0.8125,-1.07291 -0.8125,-1.75c0,-0.76041 0.32813,-1.43229 0.98438,-2.01562c0.66666,-0.58334 1.65625,-0.875 2.96875,-0.875c1.20834,0 2.17188,0.25 2.89063,0.75c0.71875,0.48959 1.07813,1 1.07813,1.53125c0,0.27084 -0.09375,0.50521 -0.28125,0.70313c-0.17709,0.1875 -0.42709,0.28125 -0.75,0.28125c-0.47917,0 -0.91146,-0.27604 -1.29688,-0.82812c-0.38541,-0.55209 -0.96875,-0.82812 -1.75,-0.82812c-0.41666,0 -0.78125,0.08854 -1.09375,0.26563c-0.3125,0.16666 -0.46875,0.40625 -0.46875,0.71875zM36.49978,303.67274v-1.48437c0,-0.61459 0.02604,-1.03125 0.07813,-1.25c0.05209,-0.22916 0.1875,-0.42709 0.40625,-0.59375c0.21875,-0.17709 0.47396,-0.26562 0.76563,-0.26562c0.26041,0 0.5,0.07813 0.71875,0.23438c0.21875,0.15625 0.35938,0.34896 0.42188,0.57813c0.07291,0.22916 0.10938,0.59375 0.10938,1.09375v1.6875h0.48438c0.60416,0 1.00521,0.07813 1.20313,0.23438c0.19791,0.14584 0.29688,0.35938 0.29688,0.64063c0,0.61459 -0.51041,0.92188 -1.53125,0.92188h-0.45312v4.59375c0,0.625 0.04166,1.05209 0.125,1.28125c0.09375,0.21875 0.32813,0.32813 0.70313,0.32813c0.1875,0 0.39063,-0.02604 0.60938,-0.07812c0.22916,-0.05209 0.40104,-0.07812 0.51563,-0.07812c0.25,0 0.45313,0.08334 0.60938,0.25c0.15625,0.15625 0.23438,0.34896 0.23438,0.57813c0,0.82292 -0.85937,1.23438 -2.57812,1.23438c-0.83334,0 -1.44791,-0.15625 -1.84375,-0.46875c-0.38541,-0.3125 -0.63021,-0.6875 -0.73437,-1.125c-0.09375,-0.44791 -0.14062,-1.02604 -0.14062,-1.73437v-4.78125h-0.32813c-0.72917,0 -1.09375,-0.29687 -1.09375,-0.89062c0,-0.60416 0.38541,-0.90625 1.15625,-0.90625zM49.63543,309.12586h-4.875c0.02084,0.92709 0.27084,1.625 0.75,2.09375c0.48959,0.46875 1.07291,0.70313 1.75,0.70313c0.83334,0 1.61459,-0.36459 2.34375,-1.09375c0.30209,-0.30209 0.52084,-0.48959 0.65625,-0.5625c0.14584,-0.07291 0.30729,-0.10937 0.48438,-0.10937c0.22916,0 0.42188,0.07291 0.57813,0.21875c0.15625,0.13541 0.23438,0.30729 0.23438,0.51563c0,0.55209 -0.38021,1.14063 -1.14062,1.76563c-0.76041,0.61458 -1.79687,0.92188 -3.10937,0.92188c-1.66666,0 -2.93229,-0.46875 -3.79687,-1.40625c-0.85416,-0.94791 -1.28125,-2.16666 -1.28125,-3.65625c0,-1.51041 0.42709,-2.72916 1.28125,-3.65625c0.86459,-0.9375 2.0625,-1.40625 3.59375,-1.40625c1.46875,0 2.59896,0.44271 3.39063,1.32813c0.80209,0.88541 1.20313,1.84375 1.20313,2.875c0,0.44791 -0.13541,0.80729 -0.40625,1.07813c-0.26041,0.26041 -0.8125,0.39063 -1.65625,0.39063zM44.76043,307.71961h4.53125c-0.03125,-0.83334 -0.26041,-1.46354 -0.6875,-1.89062c-0.42709,-0.4375 -0.95312,-0.65625 -1.57812,-0.65625c-1.3125,0 -2.06771,0.84896 -2.26562,2.54688zM53.76855,311.51649v-6.375c0,-1.125 0.41146,-1.6875 1.23438,-1.6875c0.78125,0 1.18229,0.52084 1.20313,1.5625c0.51041,-1.04166 1.22396,-1.5625 2.14062,-1.5625c0.47917,0 0.97396,0.13021 1.48438,0.39063c0.51042,0.25 0.76563,0.59375 0.76563,1.03125c0,0.30209 -0.10416,0.55209 -0.3125,0.75c-0.19791,0.19791 -0.41666,0.29688 -0.65625,0.29688c-0.13541,0 -0.38021,-0.05209 -0.73437,-0.15625c-0.34375,-0.11459 -0.63541,-0.17187 -0.875,-0.17187c-0.59375,0 -1.03646,0.30209 -1.32812,0.90625c-0.29166,0.60416 -0.4375,1.76563 -0.4375,3.48438v1.4375c0,0.63541 -0.02604,1.0625 -0.07812,1.28125c-0.05209,0.21875 -0.1875,0.42188 -0.40625,0.60938c-0.21875,0.17708 -0.46875,0.26563 -0.75,0.26563c-0.27084,0 -0.51562,-0.07812 -0.73437,-0.23437c-0.21875,-0.16667 -0.35937,-0.35937 -0.42187,-0.57812c-0.0625,-0.22916 -0.09375,-0.64584 -0.09375,-1.25zM63.38119,306.04774c0,0.32291 0.16667,0.57813 0.5,0.76563c0.33334,0.17709 1.07812,0.40625 2.23437,0.6875c2.26041,0.55209 3.39062,1.48959 3.39062,2.8125c0,1.05209 -0.38021,1.85938 -1.14062,2.42188c-0.76041,0.5625 -1.82291,0.84375 -3.1875,0.84375c-1.38541,0 -2.43229,-0.28646 -3.14062,-0.85937c-0.69791,-0.57291 -1.04687,-1.17709 -1.04687,-1.8125c0,-0.27084 0.09375,-0.50521 0.28125,-0.70312c0.19792,-0.19791 0.44271,-0.29687 0.73438,-0.29687c0.38542,0 0.72396,0.24479 1.01563,0.73438c0.33334,0.53125 0.69271,0.88541 1.07812,1.0625c0.39584,0.16666 0.82292,0.25 1.28125,0.25c0.48959,0 0.89063,-0.10937 1.20313,-0.32812c0.3125,-0.21875 0.46875,-0.5 0.46875,-0.84375c0,-0.3125 -0.13021,-0.57812 -0.39062,-0.79687c-0.26041,-0.22916 -0.98437,-0.47916 -2.17187,-0.75c-1.17708,-0.27084 -2.03646,-0.65104 -2.57812,-1.14062c-0.54166,-0.48959 -0.8125,-1.07291 -0.8125,-1.75c0,-0.76041 0.32813,-1.43229 0.98438,-2.01562c0.66667,-0.58334 1.65625,-0.875 2.96875,-0.875c1.20834,0 2.17187,0.25 2.89062,0.75c0.71875,0.48959 1.07812,1 1.07812,1.53125c0,0.27084 -0.09375,0.50521 -0.28125,0.70313c-0.17708,0.1875 -0.42708,0.28125 -0.75,0.28125c-0.47916,0 -0.91146,-0.27604 -1.29687,-0.82812c-0.38541,-0.55209 -0.96875,-0.82812 -1.75,-0.82812c-0.41666,0 -0.78125,0.08854 -1.09375,0.26563c-0.3125,0.16666 -0.46875,0.40625 -0.46875,0.71875zM73.25835,303.45399c0.36458,0 0.68229,0.13541 0.95313,0.40625c0.27083,0.27084 0.40625,0.58854 0.40625,0.95313c0,0.38541 -0.13542,0.71354 -0.40625,0.98438c-0.27084,0.27084 -0.58854,0.40625 -0.95312,0.40625c-0.38542,0 -0.71354,-0.13541 -0.98437,-0.40625c-0.27084,-0.27084 -0.40625,-0.59896 -0.40625,-0.98437c0,-0.36459 0.13541,-0.68229 0.40625,-0.95312c0.27083,-0.27084 0.59896,-0.40625 0.98438,-0.40625zM73.25835,310.82899c0.36458,0 0.68229,0.13541 0.95313,0.40625c0.27083,0.26041 0.40625,0.57813 0.40625,0.95313c0,0.375 -0.13542,0.70313 -0.40625,0.98438c-0.27084,0.27083 -0.58854,0.40625 -0.95312,0.40625c-0.38542,0 -0.71354,-0.13542 -0.98437,-0.40625c-0.27084,-0.27083 -0.40625,-0.59896 -0.40625,-0.98437c0,-0.375 0.13541,-0.69271 0.40625,-0.95312c0.27083,-0.27084 0.59896,-0.40625 0.98438,-0.40625z" fill="#ffa3f7" stroke="none" stroke-width="1" stroke-linecap="square"/><path d="" fill="#ffffff" stroke="none" stroke-width="1" stroke-linecap="butt"/><path d="M167.19398,306.41303c-0.40938,0.25342 -0.8285,0.42399 -1.25737,0.51172c-0.42887,0.07798 -0.71641,0.11696 -0.86261,0.11696c-0.13646,0 -0.24367,-0.01462 -0.32165,-0.04386c-0.06823,-0.03898 -0.13159,-0.08285 -0.19007,-0.13159c-0.05848,-0.08773 -0.12183,-0.24367 -0.19006,-0.46786c-0.05848,-0.22419 -0.08773,-0.41425 -0.08773,-0.5702c0,-0.1657 0.0536,-0.29729 0.16082,-0.39476c0.10722,-0.10722 0.30216,-0.19007 0.58482,-0.24855c0.84799,-0.17544 1.42794,-0.34602 1.73985,-0.51172c0.3119,-0.17544 0.54096,-0.31678 0.68717,-0.424c0.14621,-0.10722 0.28267,-0.19981 0.40938,-0.27779c0.26317,-0.15595 0.53121,-0.23393 0.80413,-0.23393c0.27292,0 0.49223,0.08285 0.65793,0.24855c0.1657,0.1657 0.24855,0.4045 0.24855,0.7164v10.26364c0,0.1657 -0.05361,0.3119 -0.16083,0.43861c-0.09747,0.11696 -0.2193,0.17544 -0.36551,0.17544h-1.35971c-0.14621,0 -0.26805,-0.05848 -0.36551,-0.17544c-0.08773,-0.12671 -0.13159,-0.27292 -0.13159,-0.43861z" fill="#ffbefa" stroke="none" stroke-width="1" stroke-linecap="butt"/><path d="" fill="#ffffff" stroke="none" stroke-width="1" stroke-linecap="butt"/><path d="" fill="#ffffff" stroke="none" stroke-width="1" stroke-linecap="butt"/><path d="M154.29766,318.66048c0,-5.96671 0,-17.78364 0,-21.0907c0,-1.68601 1.79152,-3.48046 3.47551,-3.48046c3.32714,0 15.27915,0 21.20952,0c2.05458,0 3.38639,1.79445 3.38639,3.48046c0,3.30706 0,15.12399 0,21.0907c0,2.11909 -1.63462,3.50027 -3.20816,3.50027c-3.29112,0 -15.67116,0 -21.6254,0c-1.97099,0 -3.23787,-1.38118 -3.23787,-3.50027z" fill="none" stroke="#ffa3f7" stroke-width="3" stroke-linecap="butt"/></g></g></svg>