<svg version="1.1" xmlns="http://www.w3.org/2000/svg" xmlns:xlink="http://www.w3.org/1999/xlink" width="412.4649" height="18.63789" viewBox="0,0,412.4649,18.63789"><g transform="translate(-6.54856,-264.075)"><g data-paper-data="{&quot;isPaintingLayer&quot;:true}" fill="#ffffff" fill-rule="nonzero" stroke="none" stroke-width="1" stroke-linejoin="miter" stroke-miterlimit="10" stroke-dasharray="" stroke-dashoffset="0" style="mix-blend-mode: normal"><path d="" stroke-linecap="butt"/><path d="M9.06899,268.31666v8.62901c0,0.55687 -0.02663,0.95151 -0.0799,1.18395c-0.05327,0.22759 -0.18885,0.43581 -0.40676,0.62466c-0.2179,0.18401 -0.47697,0.27602 -0.77719,0.27602c-0.30507,0 -0.56897,-0.08474 -0.79172,-0.25422c-0.2179,-0.17432 -0.35106,-0.38013 -0.39948,-0.61739c-0.04358,-0.24212 -0.06537,-0.64645 -0.06537,-1.213v-9.65316c0,-0.60044 0.10653,-1.05078 0.3196,-1.35101c0.21307,-0.30023 0.67308,-0.45034 1.38006,-0.45034h0.82077c0.71666,0 1.17426,0.09927 1.3728,0.2978c0.19854,0.19854 0.40191,0.69245 0.61014,1.48174l1.93935,7.29253l1.91029,-7.29253c0.20822,-0.78446 0.4116,-1.27595 0.61014,-1.47449c0.19854,-0.20338 0.65855,-0.30506 1.38006,-0.30506h0.82077c0.63434,0 1.075,0.12348 1.32195,0.37043c0.24696,0.24696 0.37043,0.72393 0.37043,1.4309v9.65316c0,0.56655 -0.02179,0.96362 -0.06537,1.19121c-0.03874,0.22759 -0.16948,0.43339 -0.39223,0.61739c-0.2179,0.18401 -0.48181,0.27602 -0.79172,0.27602c-0.26632,0 -0.51328,-0.07747 -0.74088,-0.23243c-0.22759,-0.15496 -0.37286,-0.35349 -0.43581,-0.59561c-0.05811,-0.24696 -0.08716,-0.66582 -0.08716,-1.25658v-8.62901l-2.09915,8.48375c-0.2518,1.01689 -0.50603,1.64397 -0.76267,1.88124c-0.25665,0.23243 -0.60287,0.34865 -1.03867,0.34865c-0.50844,0 -0.88372,-0.14527 -1.12584,-0.43581c-0.23727,-0.29054 -0.47213,-0.88856 -0.70456,-1.79408zM28.26997,277.63571c-1.18153,0.92973 -2.33884,1.39459 -3.47194,1.39459c-1.07015,0 -1.89335,-0.27117 -2.46958,-0.81351c-0.57139,-0.54718 -0.85709,-1.213 -0.85709,-1.99746c0,-0.67308 0.19369,-1.21542 0.58108,-1.62702c0.39223,-0.41644 0.81835,-0.70697 1.27837,-0.87162c0.46002,-0.16464 1.20816,-0.35348 2.24441,-0.56655c1.0411,-0.2179 1.87882,-0.41644 2.51316,-0.59561c-0.00484,-0.75056 -0.15253,-1.25658 -0.44307,-1.51807c-0.29054,-0.26632 -0.73361,-0.39949 -1.32922,-0.39949c-1.12342,0 -1.85944,0.31475 -2.20809,0.94426c-0.19369,0.35833 -0.3656,0.61255 -0.51571,0.76266c-0.15011,0.15011 -0.36801,0.22517 -0.65372,0.22517c-0.26148,0 -0.49875,-0.08474 -0.71182,-0.25422c-0.20822,-0.17432 -0.31233,-0.39707 -0.31233,-0.66824c0,-0.64402 0.34623,-1.25416 1.03868,-1.83039c0.6973,-0.57623 1.79408,-0.86435 3.29035,-0.86435c1.51565,0 2.62454,0.26149 3.32667,0.78446c0.70213,0.52297 1.03142,1.58101 0.98784,3.17413l-0.05811,2.32431c-0.02422,0.71666 0.05084,1.30258 0.22517,1.75776c0.17432,0.45518 0.26148,0.80383 0.26148,1.04594c0,0.26148 -0.11622,0.4915 -0.34865,0.69003c-0.22759,0.19854 -0.48665,0.2978 -0.77719,0.2978c-0.5036,0 -1.03384,-0.46486 -1.5907,-1.39459zM28.10293,274.04755c-0.36801,0.14527 -0.97815,0.30264 -1.8304,0.47212c-0.84741,0.16949 -1.44786,0.36318 -1.80134,0.58108c-0.35348,0.2179 -0.53023,0.53508 -0.53023,0.95151c0,0.35833 0.14043,0.67308 0.42128,0.94426c0.28085,0.27117 0.67792,0.40676 1.19121,0.40676c0.54718,0 1.0532,-0.14769 1.51807,-0.44307c0.4697,-0.30023 0.75783,-0.65614 0.86435,-1.06773c0.11138,-0.41159 0.16706,-1.02657 0.16706,-1.84492zM36.60301,275.38404l-1.81587,2.62211c-0.32443,0.46002 -0.5835,0.74571 -0.77719,0.85709c-0.19369,0.11138 -0.39949,0.16706 -0.61739,0.16706c-0.31475,0 -0.58108,-0.09685 -0.79898,-0.29054c-0.21307,-0.19369 -0.31959,-0.41401 -0.31959,-0.66097c0,-0.28085 0.16948,-0.65856 0.50844,-1.13311l2.24442,-3.21772l-1.99019,-2.68022c-0.34381,-0.46002 -0.51571,-0.83046 -0.51571,-1.11131c0,-0.2857 0.10411,-0.52056 0.31233,-0.70456c0.20822,-0.18401 0.48181,-0.27601 0.82077,-0.27601c0.2857,0 0.52055,0.0799 0.70455,0.23969c0.18401,0.15496 0.40676,0.41401 0.66824,0.77719l1.57617,2.19357l1.5907,-2.19357c0.32443,-0.46002 0.58592,-0.7433 0.78446,-0.84983c0.19854,-0.11138 0.40676,-0.16706 0.62466,-0.16706c0.31959,0 0.5835,0.092 0.79172,0.27601c0.21307,0.18401 0.3196,0.39949 0.3196,0.64645c0,0.29538 -0.17675,0.68519 -0.53023,1.16942l-1.99019,2.68022l2.22262,3.21772c0.36318,0.50844 0.54476,0.87888 0.54476,1.11131c0,0.28085 -0.11138,0.51328 -0.33412,0.69729c-0.2179,0.18401 -0.46002,0.27602 -0.72635,0.27602c-0.50844,0 -0.99994,-0.34138 -1.47449,-1.02415zM44.38764,276.29924c0.36801,0 0.68519,0.13316 0.95151,0.39948c0.26632,0.26632 0.39949,0.58351 0.39949,0.95152c0,0.3777 -0.13316,0.70213 -0.39949,0.97331c-0.26632,0.27117 -0.5835,0.40676 -0.95151,0.40676c-0.38254,0 -0.7094,-0.13316 -0.98057,-0.39949c-0.26632,-0.27117 -0.39949,-0.59802 -0.39949,-0.98057c0,-0.36801 0.13316,-0.68519 0.39949,-0.95152c0.27117,-0.26632 0.59802,-0.39948 0.98057,-0.39948zM56.948,273.61901v3.1814c0,0.98299 -0.12832,1.60039 -0.38496,1.85219c-0.2518,0.2518 -0.57623,0.3777 -0.97331,0.3777c-0.29538,0 -0.56171,-0.08474 -0.79898,-0.25422c-0.23243,-0.16949 -0.3777,-0.3777 -0.43581,-0.62467c-0.05327,-0.24696 -0.0799,-0.69729 -0.0799,-1.35101v-9.04303c0,-0.76024 0.05084,-1.27837 0.15253,-1.55438c0.10169,-0.28085 0.2857,-0.4697 0.55202,-0.56655c0.27117,-0.09685 0.67309,-0.14527 1.20574,-0.14527h3.25404c1.93693,0 3.24919,0.37528 3.9368,1.12584c0.68761,0.75056 1.03142,1.6827 1.03142,2.79643c0,2.8037 -1.65607,4.20555 -4.96822,4.20555zM58.78566,267.5758h-1.83766v3.95859h1.83766c1.11373,0 1.87155,-0.17917 2.27347,-0.5375c0.40676,-0.35833 0.61013,-0.84256 0.61013,-1.45269c0,-0.43581 -0.11379,-0.82319 -0.34138,-1.16216c-0.22274,-0.33896 -0.52539,-0.55687 -0.90793,-0.65372c-0.38254,-0.10169 -0.9273,-0.15253 -1.63428,-0.15253zM68.96542,267.30705v9.67495c0,0.59561 -0.02906,1.00237 -0.08716,1.22027c-0.05327,0.21307 -0.19127,0.40434 -0.41401,0.57381c-0.22274,0.16949 -0.46486,0.25422 -0.72635,0.25422c-0.26632,0 -0.51571,-0.08232 -0.74814,-0.24696c-0.22759,-0.16949 -0.37043,-0.36559 -0.42854,-0.58834c-0.05327,-0.22274 -0.0799,-0.62709 -0.0799,-1.213v-9.67495c0,-0.61013 0.02905,-1.02173 0.08716,-1.23479c0.05811,-0.2179 0.19611,-0.40676 0.41402,-0.56655c0.22274,-0.1598 0.46486,-0.23969 0.72635,-0.23969c0.30507,0 0.56656,0.08716 0.78446,0.26148c0.22274,0.16949 0.35591,0.37286 0.39948,0.61014c0.04842,0.23243 0.07264,0.62224 0.07264,1.16942zM77.78874,277.63571c-1.18153,0.92973 -2.33884,1.39459 -3.47194,1.39459c-1.07015,0 -1.89335,-0.27117 -2.46958,-0.81351c-0.57139,-0.54718 -0.85709,-1.213 -0.85709,-1.99746c0,-0.67308 0.19368,-1.21542 0.58108,-1.62702c0.39223,-0.41644 0.81835,-0.70697 1.27837,-0.87162c0.46002,-0.16464 1.20816,-0.35348 2.24442,-0.56655c1.0411,-0.2179 1.87882,-0.41644 2.51316,-0.59561c-0.00484,-0.75056 -0.15253,-1.25658 -0.44307,-1.51807c-0.29054,-0.26632 -0.73361,-0.39949 -1.32922,-0.39949c-1.12342,0 -1.85945,0.31475 -2.2081,0.94426c-0.19369,0.35833 -0.36559,0.61255 -0.5157,0.76266c-0.15011,0.15011 -0.36801,0.22517 -0.65372,0.22517c-0.26148,0 -0.49876,-0.08474 -0.71182,-0.25422c-0.20822,-0.17432 -0.31233,-0.39707 -0.31233,-0.66824c0,-0.64402 0.34623,-1.25416 1.03868,-1.83039c0.6973,-0.57623 1.79408,-0.86435 3.29035,-0.86435c1.51565,0 2.62454,0.26149 3.32667,0.78446c0.70213,0.52297 1.03142,1.58101 0.98784,3.17413l-0.05811,2.32431c-0.02422,0.71666 0.05084,1.30258 0.22517,1.75776c0.17432,0.45518 0.26148,0.80383 0.26148,1.04594c0,0.26148 -0.11622,0.4915 -0.34865,0.69003c-0.22759,0.19854 -0.48665,0.2978 -0.77719,0.2978c-0.5036,0 -1.03384,-0.46486 -1.5907,-1.39459zM77.62168,274.04755c-0.36801,0.14527 -0.97815,0.30264 -1.8304,0.47212c-0.84741,0.16949 -1.44786,0.36318 -1.80134,0.58108c-0.35348,0.2179 -0.53023,0.53508 -0.53023,0.95151c0,0.35833 0.14043,0.67308 0.42128,0.94426c0.28085,0.27117 0.67792,0.40676 1.19121,0.40676c0.54718,0 1.0532,-0.14769 1.51807,-0.44307c0.4697,-0.30023 0.75783,-0.65614 0.86435,-1.06773c0.11138,-0.41159 0.16706,-1.02657 0.16706,-1.84492zM85.09035,278.78335l-3.03614,-7.6775c-0.18885,-0.49876 -0.28327,-0.84014 -0.28327,-1.02415c0,-0.2857 0.11864,-0.54476 0.35591,-0.77719c0.23727,-0.23243 0.51571,-0.34865 0.8353,-0.34865c0.28085,0 0.51813,0.08716 0.71182,0.26149c0.19854,0.16949 0.39223,0.52055 0.58108,1.0532l2.09188,6.10133l1.99019,-5.65825c0.26148,-0.73603 0.4697,-1.213 0.62466,-1.43091c0.15496,-0.2179 0.41886,-0.32685 0.79172,-0.32685c0.33896,0 0.60529,0.1138 0.79898,0.34138c0.19854,0.22274 0.2978,0.45276 0.2978,0.69003c0,0.28085 -0.09927,0.67792 -0.2978,1.19121l-3.23225,8.46195c-0.43097,1.12826 -0.87645,1.9224 -1.33648,2.38242c-0.46002,0.46002 -1.24205,0.69003 -2.34611,0.69003c-1.44301,0 -2.16452,-0.36801 -2.16452,-1.10405c0,-0.24212 0.08232,-0.44549 0.24696,-0.61014c0.16464,-0.1598 0.38254,-0.23969 0.65371,-0.23969c0.04358,0 0.18159,0.00726 0.41402,0.02179c0.23727,0.01936 0.3777,0.02905 0.42128,0.02905c0.46002,0 0.79656,-0.11138 1.00963,-0.33412c0.2179,-0.2179 0.43097,-0.5956 0.63919,-1.1331zM99.57009,274.59958h-4.86652c0.02422,0.92004 0.27601,1.61492 0.7554,2.08462c0.48423,0.4697 1.06047,0.70455 1.72871,0.70455c0.83288,0 1.61492,-0.36318 2.34611,-1.08952c0.29538,-0.30507 0.51328,-0.49392 0.65371,-0.56655c0.14527,-0.07264 0.30507,-0.10895 0.47939,-0.10895c0.22274,0 0.41402,0.07022 0.57381,0.21064c0.16464,0.14043 0.24696,0.31233 0.24696,0.5157c0,0.55687 -0.38254,1.14279 -1.14763,1.75776c-0.76024,0.61497 -1.79166,0.92246 -3.09424,0.92246c-1.66092,0 -2.91992,-0.46729 -3.77701,-1.40185c-0.85225,-0.93457 -1.27837,-2.14756 -1.27837,-3.639c0,-1.50112 0.42612,-2.71412 1.27837,-3.639c0.85709,-0.92973 2.0483,-1.39459 3.57363,-1.39459c1.46238,0 2.58822,0.43823 3.37751,1.31469c0.79414,0.87646 1.19121,1.8304 1.19121,2.86181c0,0.45034 -0.13316,0.80866 -0.39949,1.075c-0.26148,0.26148 -0.80867,0.39223 -1.64154,0.39223zM94.70356,273.19047h4.51062c-0.02905,-0.82319 -0.25665,-1.45027 -0.68277,-1.88124c-0.42128,-0.43097 -0.94426,-0.64645 -1.56891,-0.64645c-1.31227,0 -2.06524,0.84257 -2.25894,2.52769zM103.68302,276.982v-6.35554c0,-1.11373 0.40918,-1.6706 1.22753,-1.6706c0.77961,0 1.17911,0.51329 1.19847,1.53986c0.51329,-1.02657 1.22268,-1.53986 2.1282,-1.53986c0.47939,0 0.97331,0.12591 1.48175,0.3777c0.51329,0.24696 0.76993,0.58834 0.76993,1.02415c0,0.30507 -0.10411,0.55687 -0.31233,0.7554c-0.20338,0.19369 -0.42128,0.29054 -0.65371,0.29054c-0.13558,0 -0.3777,-0.05327 -0.72635,-0.1598c-0.34865,-0.10653 -0.63919,-0.1598 -0.87162,-0.1598c-0.59561,0 -1.03867,0.30023 -1.32921,0.90067c-0.29054,0.60044 -0.43581,1.75776 -0.43581,3.47194v1.43091c0,0.6295 -0.02663,1.05562 -0.0799,1.27837c-0.04842,0.2179 -0.18159,0.41644 -0.39949,0.59561c-0.2179,0.17916 -0.4697,0.26875 -0.7554,0.26875c-0.27117,0 -0.5157,-0.0799 -0.73361,-0.23969c-0.2179,-0.1598 -0.35833,-0.34865 -0.42128,-0.56655c-0.05811,-0.22274 -0.08716,-0.63677 -0.08716,-1.24205zM113.72296,271.5344c0,0.31959 0.16706,0.57139 0.50118,0.7554c0.33412,0.17916 1.07742,0.41159 2.22989,0.6973c2.24684,0.54234 3.37026,1.47691 3.37026,2.8037c0,1.04594 -0.3777,1.84734 -1.13311,2.40421c-0.7554,0.55687 -1.81587,0.8353 -3.1814,0.8353c-1.38006,0 -2.41874,-0.28327 -3.11603,-0.84983c-0.6973,-0.57139 -1.04594,-1.17426 -1.04594,-1.80861c0,-0.27117 0.09685,-0.5036 0.29054,-0.6973c0.19369,-0.19369 0.43097,-0.29054 0.71182,-0.29054c0.38739,0 0.72635,0.24212 1.01689,0.72635c0.32928,0.53265 0.69003,0.88615 1.08225,1.06047c0.39223,0.16949 0.81352,0.25422 1.26385,0.25422c0.49392,0 0.89583,-0.10895 1.20574,-0.32685c0.31475,-0.22274 0.47212,-0.5036 0.47212,-0.84256c0,-0.3099 -0.13316,-0.57866 -0.39948,-0.80625c-0.26148,-0.22759 -0.98057,-0.47455 -2.15726,-0.74088c-1.17669,-0.27117 -2.03377,-0.64887 -2.57127,-1.13311c-0.5375,-0.48907 -0.80625,-1.07015 -0.80625,-1.74323c0,-0.7554 0.32685,-1.42364 0.98057,-2.00472c0.65855,-0.58108 1.64397,-0.87162 2.95623,-0.87162c1.20574,0 2.16452,0.24454 2.87634,0.73361c0.71666,0.48907 1.075,0.99752 1.075,1.52533c0,0.27601 -0.092,0.51086 -0.27601,0.70455c-0.17916,0.18885 -0.42855,0.28327 -0.74814,0.28327c-0.47939,0 -0.91278,-0.2736 -1.30016,-0.82077c-0.38254,-0.55202 -0.9612,-0.82804 -1.73597,-0.82804c-0.41644,0 -0.78204,0.08474 -1.09679,0.25422c-0.3099,0.16949 -0.46486,0.41159 -0.46486,0.72635zM123.56863,268.95585c0.36801,0 0.68519,0.13316 0.95151,0.39949c0.26632,0.26632 0.39949,0.5835 0.39949,0.95151c0,0.38254 -0.13316,0.7094 -0.39949,0.98057c-0.26632,0.26632 -0.5835,0.39949 -0.95151,0.39949c-0.38254,0 -0.7094,-0.13316 -0.98057,-0.39949c-0.26632,-0.27117 -0.39948,-0.59802 -0.39948,-0.98057c0,-0.36801 0.13316,-0.68519 0.39948,-0.95151c0.27117,-0.26632 0.59803,-0.39949 0.98057,-0.39949zM123.56863,276.29924c0.36801,0 0.68519,0.13316 0.95151,0.39948c0.26632,0.26632 0.39949,0.58351 0.39949,0.95152c0,0.3777 -0.13316,0.70213 -0.39949,0.97331c-0.26632,0.27117 -0.5835,0.40676 -0.95151,0.40676c-0.38254,0 -0.7094,-0.13316 -0.98057,-0.39949c-0.26632,-0.27117 -0.39948,-0.59802 -0.39948,-0.98057c0,-0.36801 0.13316,-0.68519 0.39948,-0.95152c0.27117,-0.26632 0.59803,-0.39948 0.98057,-0.39948z" stroke-linecap="square"/><path d="M324.68602,277.46745c-0.46162,-0.3314 -0.83188,-0.7359 -1.11077,-1.2135c-0.26928,-0.48735 -0.40392,-1.00394 -0.40392,-1.54978c0,-0.55558 0.06732,-1.02344 0.20196,-1.40357c0.13464,-0.38988 0.31256,-0.7359 0.53375,-1.03806c0.3943,-0.54584 0.94728,-1.0137 1.65894,-1.40358c0.02885,-0.0195 0.0529,-0.03411 0.07213,-0.04386c0.02885,-0.00975 0.04328,-0.02924 0.04328,-0.05848c0,-0.02924 -0.06732,-0.07797 -0.20196,-0.14621c-0.12502,-0.06823 -0.31256,-0.18519 -0.5626,-0.35089c-0.25004,-0.1657 -0.47604,-0.36552 -0.678,-0.59945c-0.46162,-0.53609 -0.69243,-1.17452 -0.69243,-1.9153c0,-1.26711 0.5049,-2.22233 1.51469,-2.86563c0.83669,-0.53609 1.83205,-0.80413 2.98611,-0.80413c1.25983,0 2.29367,0.29729 3.10151,0.89186c0.89439,0.6433 1.34158,1.52053 1.34158,2.6317c0,1.23787 -0.452,2.22233 -1.35601,2.95335c-0.25966,0.20469 -0.47124,0.34602 -0.63473,0.424c-0.16349,0.07798 -0.24524,0.12671 -0.24524,0.1462c0,0.0195 0.10578,0.06822 0.31736,0.14621c0.21157,0.07798 0.46644,0.21444 0.76456,0.40938c0.29813,0.19494 0.55779,0.42887 0.77898,0.70179c0.50008,0.60432 0.75013,1.24275 0.75013,1.91529c0,0.67255 -0.13945,1.26224 -0.41834,1.76909c-0.26928,0.50684 -0.63473,0.93572 -1.09635,1.28661c-0.93285,0.74077 -2.0292,1.11117 -3.28904,1.11117c-1.33677,0 -2.46197,-0.3314 -3.37559,-0.9942zM325.42177,274.32403c0,0.35089 0.07213,0.6628 0.21639,0.93572c0.15387,0.26317 0.35583,0.48248 0.60587,0.65792c0.48085,0.3314 1.10596,0.4971 1.87534,0.4971c1.10596,0 1.8561,-0.38988 2.2504,-1.16964c0.13464,-0.25342 0.20195,-0.5507 0.20195,-0.89186c0,-0.34115 -0.09617,-0.64818 -0.28851,-0.92109c-0.18272,-0.27292 -0.42796,-0.50685 -0.73571,-0.70179c-0.50008,-0.3314 -1.22136,-0.62869 -2.16384,-0.89186c-0.47123,0.10722 -0.8992,0.37526 -1.28388,0.80413c-0.45201,0.4971 -0.678,1.05755 -0.678,1.68136zM330.23994,267.93485c0,-0.57508 -0.21639,-1.03318 -0.64916,-1.37433c-0.40392,-0.31191 -0.91362,-0.46786 -1.52912,-0.46786c-0.98094,0 -1.65894,0.3509 -2.034,1.05268c-0.12502,0.22418 -0.18754,0.4776 -0.18754,0.76027c0,0.28267 0.06252,0.53609 0.18754,0.76027c0.13464,0.22418 0.32218,0.43375 0.5626,0.62869c0.44238,0.37039 1.05787,0.68716 1.84647,0.95033c1.20213,-0.51659 1.80321,-1.28661 1.80321,-2.31005z" stroke-linecap="butt"/><path d="M364.75528,278.14c0.15387,-0.23393 0.29813,-0.35089 0.43277,-0.35089c0.14426,0 0.31256,0.06336 0.5049,0.19007c0.19234,0.12671 0.38468,0.23393 0.57702,0.32166c0.20196,0.08772 0.40391,0.16082 0.60587,0.2193c0.44238,0.11696 0.89438,0.17545 1.35601,0.17545c0.46162,0 0.89921,-0.10722 1.31274,-0.32166c0.42315,-0.21443 0.76936,-0.50684 1.03864,-0.87723c0.50008,-0.69204 0.78379,-1.657 0.85111,-2.89487c-0.56741,0.42887 -1.35601,0.71641 -2.3658,0.86262c-0.28851,0.03899 -0.64915,0.05848 -1.08192,0.05848c-0.43277,0 -0.91362,-0.10722 -1.44257,-0.32165c-0.52894,-0.21443 -0.98575,-0.52146 -1.37043,-0.92109c-0.8463,-0.86749 -1.26945,-2.0079 -1.26945,-3.42122c0,-1.34509 0.48085,-2.44651 1.44256,-3.30424c0.92324,-0.848 2.07248,-1.27199 3.44773,-1.27199c2.56776,0 4.12091,1.37921 4.65947,4.13762c0.17311,0.85774 0.25966,1.68624 0.25966,2.4855c0,0.78951 -0.03847,1.47667 -0.11541,2.0615c-0.06732,0.57508 -0.18753,1.1404 -0.36064,1.69599c-0.16349,0.55558 -0.38468,1.08192 -0.66358,1.57902c-0.2789,0.50684 -0.62992,0.95033 -1.05307,1.33047c-0.92324,0.81875 -2.09653,1.22813 -3.51985,1.22813c-0.904,0 -1.78878,-0.21931 -2.65431,-0.65793c-0.76936,-0.38013 -1.15405,-0.72615 -1.15405,-1.03806c0,-0.10722 0.03846,-0.20957 0.1154,-0.30704zM371.37664,272.71576c0,-2.91436 -0.904,-4.37155 -2.71202,-4.37155c-0.73089,0 -1.32716,0.22905 -1.78878,0.68716c-0.47123,0.48735 -0.70686,1.10629 -0.70686,1.85681c0,1.23787 0.48566,2.05176 1.45699,2.44164c0.32698,0.12671 0.70686,0.19007 1.13963,0.19007c1.08672,0 1.95707,-0.26804 2.61104,-0.80413z" stroke-linecap="butt"/><path d="M247.73053,278.46164c-0.79822,0 -1.51469,-0.15108 -2.14941,-0.45324c-0.62511,-0.30216 -1.15405,-0.74077 -1.58683,-1.31585c-0.85592,-1.1404 -1.28388,-2.76328 -1.28388,-4.86865c0,-1.38408 0.10099,-2.46113 0.30295,-3.23114c0.20196,-0.77002 0.43276,-1.40845 0.69243,-1.9153c0.26928,-0.51659 0.6203,-0.96983 1.05307,-1.35971c0.92323,-0.82849 2.17827,-1.24275 3.76509,-1.24275c0.77898,0 1.55797,0.16083 2.33695,0.48248c0.48086,0.18519 0.79822,0.37526 0.95209,0.5702c0.16349,0.18519 0.24524,0.35089 0.24524,0.4971c0,0.14621 -0.06252,0.31678 -0.18754,0.51172l-0.21639,0.32165c-0.23081,0.35089 -0.43758,0.53121 -0.6203,0.54096c-0.18272,0.00975 -0.3895,-0.07798 -0.6203,-0.26317c-0.48086,-0.38013 -1.21657,-0.5702 -2.20712,-0.5702c-1.12519,0 -1.96669,0.48735 -2.52447,1.46206c-0.46162,0.80901 -0.70686,1.90068 -0.73571,3.27501c0.5674,-0.75052 1.42813,-1.21839 2.58218,-1.40357c0.29812,-0.04874 0.65396,-0.07311 1.06749,-0.07311c0.42315,0 0.89439,0.0926 1.41372,0.27779c0.51932,0.18519 0.9617,0.45324 1.32716,0.80413c0.79822,0.75052 1.19732,1.77396 1.19732,3.07032c0,1.33535 -0.40873,2.466 -1.22617,3.39197c-0.88477,0.9942 -2.07729,1.4913 -3.57755,1.4913zM250.28384,273.8123c0,-1.54003 -0.85112,-2.31005 -2.55333,-2.31005c-0.51932,0 -0.99056,0.10722 -1.41372,0.32166c-0.69243,0.35089 -1.12519,0.67255 -1.29831,0.96496v0.02924c0,1.18914 0.27409,2.09562 0.82226,2.71943c0.49047,0.57508 1.15405,0.86262 1.99074,0.86262c0.69243,0 1.26464,-0.22419 1.71664,-0.67255c0.49047,-0.4776 0.73571,-1.11604 0.73571,-1.91529z" stroke-linecap="butt"/><path d="M205.23779,272.40873c0.63472,-0.44836 1.43775,-0.67254 2.40907,-0.67254c1.15405,0 2.11576,0.37039 2.88513,1.11116c0.82707,0.79926 1.2406,1.87631 1.2406,3.23114c0,1.42307 -0.48086,2.56348 -1.44257,3.42122c-0.94247,0.848 -2.20231,1.27199 -3.7795,1.27199c-1.20213,0 -2.26482,-0.25342 -3.18806,-0.76027c-0.38468,-0.20469 -0.76936,-0.51172 -1.15405,-0.9211c-0.19234,-0.20469 -0.17793,-0.46786 0.04328,-0.78951l0.40392,-0.57021c0.15387,-0.24367 0.30775,-0.36551 0.46162,-0.36551c0.15387,0 0.26447,0.03411 0.33179,0.10234c0.06732,0.05848 0.14907,0.12184 0.24524,0.19007c0.78859,0.67255 1.7984,1.00882 3.02938,1.00882c0.7309,0 1.34158,-0.21443 1.83205,-0.6433c0.52894,-0.45812 0.79342,-1.10142 0.79342,-1.92991c0,-0.74077 -0.24524,-1.34509 -0.73571,-1.81295c-0.452,-0.43862 -0.96652,-0.65792 -1.54354,-0.65792c-0.80783,0 -1.47622,0.22418 -2.00516,0.67254c-0.24042,0.20469 -0.5097,0.30703 -0.80783,0.30703c-0.07694,0 -0.15387,-0.00487 -0.23081,-0.01462c-0.06732,-0.0195 -0.16349,-0.03411 -0.28851,-0.04386c-0.12502,-0.0195 -0.23563,-0.03899 -0.3318,-0.05849c-0.09617,-0.02924 -0.17311,-0.06823 -0.23081,-0.11696c-0.09617,-0.07798 -0.14426,-0.2388 -0.14426,-0.48247v-6.28685c0,-0.38988 0.04809,-0.6433 0.14426,-0.76027c0.15387,-0.19494 0.40873,-0.29241 0.76456,-0.29241h6.31842c0.2212,0 0.38468,0.02925 0.49047,0.08773c0.1154,0.05848 0.1731,0.19494 0.1731,0.40938v0.95033c0,0.23393 -0.02405,0.38501 -0.07213,0.45324c-0.07694,0.12671 -0.25485,0.19007 -0.53375,0.19007h-5.07782z" stroke-linecap="butt"/><path d="M175.38554,275.33286c0.38468,0 0.57702,0.17545 0.57702,0.52634v0.52634c0,0.18519 -0.04809,0.32165 -0.14426,0.40938c-0.08656,0.08772 -0.24042,0.15595 -0.46161,0.20469l-1.39928,0.27779v2.64632c0,0.18519 -0.0529,0.3314 -0.15869,0.43862c-0.10579,0.11696 -0.24043,0.17545 -0.40392,0.17545h-1.13962c-0.18272,0 -0.32218,-0.06336 -0.41834,-0.19007c-0.09617,-0.12671 -0.14426,-0.28754 -0.14426,-0.48248v-2.57322h-4.77487c-0.42315,0 -0.76456,-0.11697 -1.02422,-0.3509c-0.25004,-0.23393 -0.37506,-0.53609 -0.37506,-0.90648c0,-0.26317 0.08656,-0.6238 0.25966,-1.08192l0.63472,-1.76909c0.87515,-2.4855 1.50026,-4.63959 1.87533,-6.46229c0.10579,-0.46786 0.36064,-0.70179 0.76456,-0.70179c0.25004,0 0.62511,0.07798 1.1252,0.23393c0.3943,0.13646 0.54818,0.43862 0.46162,0.90648c-0.13464,0.77002 -0.3943,1.72035 -0.77898,2.85101c-0.89439,2.57322 -1.55316,4.34718 -1.97631,5.32189h3.80836v-3.65514c0,-0.22418 0.07694,-0.39475 0.23081,-0.51172c0.15387,-0.11696 0.33179,-0.17545 0.53375,-0.17545h0.80783c0.25004,0 0.42796,0.0731 0.53375,0.21931c0.10579,0.13646 0.15869,0.28753 0.15869,0.45324v3.66976z" stroke-linecap="butt"/><path d="M284.29429,268.72436c-0.63472,0 -0.95209,-0.27779 -0.95209,-0.83337v-0.71641c0,-0.20469 0.03366,-0.36552 0.10099,-0.48248c0.07694,-0.11696 0.24042,-0.17544 0.49047,-0.17544h7.25609c0.24042,0 0.42796,0.0926 0.5626,0.27779c0.14426,0.17545 0.21639,0.38501 0.21639,0.62869c0,0.23393 -0.07694,0.60431 -0.23081,1.11116c-0.79822,2.38803 -1.26464,3.76723 -1.39928,4.13762l-0.30294,0.87724c-0.9617,2.59271 -1.83687,4.44465 -2.62547,5.55581c-0.79822,1.11117 -1.47622,1.66674 -2.03401,1.66674c-0.25004,0 -0.46162,-0.10722 -0.63472,-0.32166l-0.43277,-0.4971c-0.12502,-0.13646 -0.18754,-0.28266 -0.18754,-0.43861c0,-0.24367 0.13464,-0.46785 0.40392,-0.67255c0.2789,-0.19494 0.55779,-0.45811 0.83668,-0.78951c0.28851,-0.3314 0.57703,-0.72615 0.86554,-1.18426c0.56741,-0.92597 1.11077,-2.12973 1.63009,-3.61128l0.76456,-2.16384c0.2789,-0.79926 0.50971,-1.58877 0.69243,-2.36853z" stroke-linecap="butt"/><path d="M408.23753,272.35026c0,-0.89673 0.11541,-1.72035 0.34622,-2.47087c0.24042,-0.75052 0.58664,-1.38896 1.03865,-1.9153c0.9617,-1.12091 2.29367,-1.68137 3.99589,-1.68137c1.70222,0 3.02938,0.56046 3.98147,1.68137c0.94248,1.08192 1.41371,2.55372 1.41371,4.41541c0,1.81295 -0.50008,3.27988 -1.50026,4.40079c-0.99055,1.12091 -2.3081,1.68137 -3.95262,1.68137c-1.61566,0 -2.91397,-0.57508 -3.89491,-1.72523c-0.95209,-1.11117 -1.42814,-2.57322 -1.42814,-4.38617zM412.219,276.09313c0.37506,0.25342 0.83668,0.38013 1.38486,0.38013c0.55778,0 1.02422,-0.11209 1.39929,-0.33628c0.37506,-0.23393 0.678,-0.54096 0.90881,-0.92109c0.43277,-0.71154 0.64916,-1.65213 0.64916,-2.82177c0,-1.89093 -0.52894,-3.16291 -1.58682,-3.81597c-0.37506,-0.22418 -0.83668,-0.33628 -1.38485,-0.33628c-0.53856,0 -0.99537,0.11697 -1.37044,0.3509c-0.36545,0.22418 -0.65877,0.52634 -0.87996,0.90648c-0.43277,0.71154 -0.64916,1.67162 -0.64916,2.88025c0,1.79345 0.5097,3.03133 1.52911,3.71362z" stroke-linecap="butt"/><path d="M402.3827,269.046c-0.40392,0.25342 -0.81745,0.424 -1.2406,0.51172c-0.42315,0.07798 -0.70686,0.11696 -0.85112,0.11696c-0.13464,0 -0.24042,-0.01462 -0.31736,-0.04386c-0.06732,-0.03899 -0.12983,-0.08285 -0.18753,-0.13158c-0.0577,-0.08772 -0.1202,-0.24368 -0.18754,-0.46786c-0.0577,-0.22418 -0.08655,-0.41425 -0.08655,-0.5702c0,-0.1657 0.0529,-0.29728 0.15868,-0.39475c0.10579,-0.10722 0.29813,-0.19007 0.57703,-0.24855c0.8367,-0.17545 1.40891,-0.34602 1.71666,-0.51172c0.30775,-0.17545 0.53375,-0.31678 0.678,-0.42399c0.14426,-0.10722 0.2789,-0.19981 0.40392,-0.27779c0.25966,-0.15595 0.52413,-0.23392 0.79341,-0.23392c0.26928,0 0.48566,0.08284 0.64915,0.24854c0.16349,0.1657 0.24523,0.4045 0.24523,0.71641v10.26364c0,0.1657 -0.0529,0.31191 -0.15868,0.43862c-0.09617,0.11696 -0.21639,0.17544 -0.36065,0.17544h-1.34158c-0.14426,0 -0.26447,-0.05848 -0.36064,-0.17544c-0.08655,-0.12671 -0.12984,-0.27292 -0.12984,-0.43862z" stroke-linecap="butt"/><path d="M324.68602,277.46745c-0.46162,-0.3314 -0.83188,-0.7359 -1.11077,-1.2135c-0.26928,-0.48735 -0.40392,-1.00394 -0.40392,-1.54978c0,-0.55558 0.06732,-1.02344 0.20196,-1.40357c0.13464,-0.38988 0.31256,-0.7359 0.53375,-1.03806c0.3943,-0.54584 0.94728,-1.0137 1.65894,-1.40358c0.02885,-0.0195 0.0529,-0.03411 0.07213,-0.04386c0.02885,-0.00975 0.04328,-0.02924 0.04328,-0.05848c0,-0.02924 -0.06732,-0.07797 -0.20196,-0.14621c-0.12502,-0.06823 -0.31256,-0.18519 -0.5626,-0.35089c-0.25004,-0.1657 -0.47604,-0.36552 -0.678,-0.59945c-0.46162,-0.53609 -0.69243,-1.17452 -0.69243,-1.9153c0,-1.26711 0.5049,-2.22233 1.51469,-2.86563c0.83669,-0.53609 1.83205,-0.80413 2.98611,-0.80413c1.25983,0 2.29367,0.29729 3.10151,0.89186c0.89439,0.6433 1.34158,1.52053 1.34158,2.6317c0,1.23787 -0.452,2.22233 -1.35601,2.95335c-0.25966,0.20469 -0.47124,0.34602 -0.63473,0.424c-0.16349,0.07798 -0.24524,0.12671 -0.24524,0.1462c0,0.0195 0.10578,0.06822 0.31736,0.14621c0.21157,0.07798 0.46644,0.21444 0.76456,0.40938c0.29813,0.19494 0.55779,0.42887 0.77898,0.70179c0.50008,0.60432 0.75013,1.24275 0.75013,1.91529c0,0.67255 -0.13945,1.26224 -0.41834,1.76909c-0.26928,0.50684 -0.63473,0.93572 -1.09635,1.28661c-0.93285,0.74077 -2.0292,1.11117 -3.28904,1.11117c-1.33677,0 -2.46197,-0.3314 -3.37559,-0.9942zM325.42177,274.32403c0,0.35089 0.07213,0.6628 0.21639,0.93572c0.15387,0.26317 0.35583,0.48248 0.60587,0.65792c0.48085,0.3314 1.10596,0.4971 1.87534,0.4971c1.10596,0 1.8561,-0.38988 2.2504,-1.16964c0.13464,-0.25342 0.20195,-0.5507 0.20195,-0.89186c0,-0.34115 -0.09617,-0.64818 -0.28851,-0.92109c-0.18272,-0.27292 -0.42796,-0.50685 -0.73571,-0.70179c-0.50008,-0.3314 -1.22136,-0.62869 -2.16384,-0.89186c-0.47123,0.10722 -0.8992,0.37526 -1.28388,0.80413c-0.45201,0.4971 -0.678,1.05755 -0.678,1.68136zM330.23994,267.93485c0,-0.57508 -0.21639,-1.03318 -0.64916,-1.37433c-0.40392,-0.31191 -0.91362,-0.46786 -1.52912,-0.46786c-0.98094,0 -1.65894,0.3509 -2.034,1.05268c-0.12502,0.22418 -0.18754,0.4776 -0.18754,0.76027c0,0.28267 0.06252,0.53609 0.18754,0.76027c0.13464,0.22418 0.32218,0.43375 0.5626,0.62869c0.44238,0.37039 1.05787,0.68716 1.84647,0.95033c1.20213,-0.51659 1.80321,-1.28661 1.80321,-2.31005z" stroke-linecap="butt"/><path d="M364.75528,278.14c0.15387,-0.23393 0.29813,-0.35089 0.43277,-0.35089c0.14426,0 0.31256,0.06336 0.5049,0.19007c0.19234,0.12671 0.38468,0.23393 0.57702,0.32166c0.20196,0.08772 0.40391,0.16082 0.60587,0.2193c0.44238,0.11696 0.89438,0.17545 1.35601,0.17545c0.46162,0 0.89921,-0.10722 1.31274,-0.32166c0.42315,-0.21443 0.76936,-0.50684 1.03864,-0.87723c0.50008,-0.69204 0.78379,-1.657 0.85111,-2.89487c-0.56741,0.42887 -1.35601,0.71641 -2.3658,0.86262c-0.28851,0.03899 -0.64915,0.05848 -1.08192,0.05848c-0.43277,0 -0.91362,-0.10722 -1.44257,-0.32165c-0.52894,-0.21443 -0.98575,-0.52146 -1.37043,-0.92109c-0.8463,-0.86749 -1.26945,-2.0079 -1.26945,-3.42122c0,-1.34509 0.48085,-2.44651 1.44256,-3.30424c0.92324,-0.848 2.07248,-1.27199 3.44773,-1.27199c2.56776,0 4.12091,1.37921 4.65947,4.13762c0.17311,0.85774 0.25966,1.68624 0.25966,2.4855c0,0.78951 -0.03847,1.47667 -0.11541,2.0615c-0.06732,0.57508 -0.18753,1.1404 -0.36064,1.69599c-0.16349,0.55558 -0.38468,1.08192 -0.66358,1.57902c-0.2789,0.50684 -0.62992,0.95033 -1.05307,1.33047c-0.92324,0.81875 -2.09653,1.22813 -3.51985,1.22813c-0.904,0 -1.78878,-0.21931 -2.65431,-0.65793c-0.76936,-0.38013 -1.15405,-0.72615 -1.15405,-1.03806c0,-0.10722 0.03846,-0.20957 0.1154,-0.30704zM371.37664,272.71576c0,-2.91436 -0.904,-4.37155 -2.71202,-4.37155c-0.73089,0 -1.32716,0.22905 -1.78878,0.68716c-0.47123,0.48735 -0.70686,1.10629 -0.70686,1.85681c0,1.23787 0.48566,2.05176 1.45699,2.44164c0.32698,0.12671 0.70686,0.19007 1.13963,0.19007c1.08672,0 1.95707,-0.26804 2.61104,-0.80413z" stroke-linecap="butt"/><path d="M247.73053,278.46164c-0.79822,0 -1.51469,-0.15108 -2.14941,-0.45324c-0.62511,-0.30216 -1.15405,-0.74077 -1.58683,-1.31585c-0.85592,-1.1404 -1.28388,-2.76328 -1.28388,-4.86865c0,-1.38408 0.10099,-2.46113 0.30295,-3.23114c0.20196,-0.77002 0.43276,-1.40845 0.69243,-1.9153c0.26928,-0.51659 0.6203,-0.96983 1.05307,-1.35971c0.92323,-0.82849 2.17827,-1.24275 3.76509,-1.24275c0.77898,0 1.55797,0.16083 2.33695,0.48248c0.48086,0.18519 0.79822,0.37526 0.95209,0.5702c0.16349,0.18519 0.24524,0.35089 0.24524,0.4971c0,0.14621 -0.06252,0.31678 -0.18754,0.51172l-0.21639,0.32165c-0.23081,0.35089 -0.43758,0.53121 -0.6203,0.54096c-0.18272,0.00975 -0.3895,-0.07798 -0.6203,-0.26317c-0.48086,-0.38013 -1.21657,-0.5702 -2.20712,-0.5702c-1.12519,0 -1.96669,0.48735 -2.52447,1.46206c-0.46162,0.80901 -0.70686,1.90068 -0.73571,3.27501c0.5674,-0.75052 1.42813,-1.21839 2.58218,-1.40357c0.29812,-0.04874 0.65396,-0.07311 1.06749,-0.07311c0.42315,0 0.89439,0.0926 1.41372,0.27779c0.51932,0.18519 0.9617,0.45324 1.32716,0.80413c0.79822,0.75052 1.19732,1.77396 1.19732,3.07032c0,1.33535 -0.40873,2.466 -1.22617,3.39197c-0.88477,0.9942 -2.07729,1.4913 -3.57755,1.4913zM250.28386,273.8123c0,-1.54003 -0.85112,-2.31005 -2.55333,-2.31005c-0.51932,0 -0.99056,0.10722 -1.41372,0.32166c-0.69243,0.35089 -1.12519,0.67255 -1.29831,0.96496v0.02924c0,1.18914 0.27409,2.09562 0.82226,2.71943c0.49047,0.57508 1.15405,0.86262 1.99074,0.86262c0.69243,0 1.26464,-0.22419 1.71664,-0.67255c0.49047,-0.4776 0.73571,-1.11604 0.73571,-1.91529z" stroke-linecap="butt"/><path d="M205.2378,272.40873c0.63472,-0.44836 1.43775,-0.67254 2.40907,-0.67254c1.15405,0 2.11576,0.37039 2.88513,1.11116c0.82707,0.79926 1.2406,1.87631 1.2406,3.23114c0,1.42307 -0.48086,2.56348 -1.44257,3.42122c-0.94247,0.848 -2.20231,1.27199 -3.7795,1.27199c-1.20213,0 -2.26482,-0.25342 -3.18806,-0.76027c-0.38468,-0.20469 -0.76936,-0.51172 -1.15405,-0.9211c-0.19234,-0.20469 -0.17793,-0.46786 0.04328,-0.78951l0.40392,-0.57021c0.15387,-0.24367 0.30775,-0.36551 0.46162,-0.36551c0.15387,0 0.26447,0.03411 0.33179,0.10234c0.06732,0.05848 0.14907,0.12184 0.24524,0.19007c0.78859,0.67255 1.7984,1.00882 3.02938,1.00882c0.7309,0 1.34158,-0.21443 1.83205,-0.6433c0.52894,-0.45812 0.79342,-1.10142 0.79342,-1.92991c0,-0.74077 -0.24524,-1.34509 -0.73571,-1.81295c-0.452,-0.43862 -0.96652,-0.65792 -1.54354,-0.65792c-0.80783,0 -1.47622,0.22418 -2.00516,0.67254c-0.24042,0.20469 -0.5097,0.30703 -0.80783,0.30703c-0.07694,0 -0.15387,-0.00487 -0.23081,-0.01462c-0.06732,-0.0195 -0.16349,-0.03411 -0.28851,-0.04386c-0.12502,-0.0195 -0.23563,-0.03899 -0.3318,-0.05849c-0.09617,-0.02924 -0.17311,-0.06823 -0.23081,-0.11696c-0.09617,-0.07798 -0.14426,-0.2388 -0.14426,-0.48247v-6.28685c0,-0.38988 0.04809,-0.6433 0.14426,-0.76027c0.15387,-0.19494 0.40873,-0.29241 0.76456,-0.29241h6.31842c0.2212,0 0.38468,0.02925 0.49047,0.08773c0.1154,0.05848 0.1731,0.19494 0.1731,0.40938v0.95033c0,0.23393 -0.02405,0.38501 -0.07213,0.45324c-0.07694,0.12671 -0.25485,0.19007 -0.53375,0.19007h-5.07782z" stroke-linecap="butt"/><path d="M175.38554,275.33286c0.38468,0 0.57702,0.17545 0.57702,0.52634v0.52634c0,0.18519 -0.04809,0.32165 -0.14426,0.40938c-0.08656,0.08772 -0.24042,0.15595 -0.46161,0.20469l-1.39928,0.27779v2.64632c0,0.18519 -0.0529,0.3314 -0.15869,0.43862c-0.10579,0.11696 -0.24043,0.17545 -0.40392,0.17545h-1.13962c-0.18272,0 -0.32218,-0.06336 -0.41834,-0.19007c-0.09617,-0.12671 -0.14426,-0.28754 -0.14426,-0.48248v-2.57322h-4.77487c-0.42315,0 -0.76456,-0.11697 -1.02422,-0.3509c-0.25004,-0.23393 -0.37506,-0.53609 -0.37506,-0.90648c0,-0.26317 0.08656,-0.6238 0.25966,-1.08192l0.63472,-1.76909c0.87515,-2.4855 1.50026,-4.63959 1.87533,-6.46229c0.10579,-0.46786 0.36064,-0.70179 0.76456,-0.70179c0.25004,0 0.62511,0.07798 1.1252,0.23393c0.3943,0.13646 0.54818,0.43862 0.46162,0.90648c-0.13464,0.77002 -0.3943,1.72035 -0.77898,2.85101c-0.89439,2.57322 -1.55316,4.34718 -1.97631,5.32189h3.80836v-3.65514c0,-0.22418 0.07694,-0.39475 0.23081,-0.51172c0.15387,-0.11696 0.33179,-0.17545 0.53375,-0.17545h0.80783c0.25004,0 0.42796,0.0731 0.53375,0.21931c0.10579,0.13646 0.15869,0.28753 0.15869,0.45324v3.66976z" stroke-linecap="butt"/><path d="M284.2943,268.72436c-0.63472,0 -0.95209,-0.27779 -0.95209,-0.83337v-0.71641c0,-0.20469 0.03366,-0.36552 0.10099,-0.48248c0.07694,-0.11696 0.24042,-0.17544 0.49047,-0.17544h7.25609c0.24042,0 0.42796,0.0926 0.5626,0.27779c0.14426,0.17545 0.21639,0.38501 0.21639,0.62869c0,0.23393 -0.07694,0.60431 -0.23081,1.11116c-0.79822,2.38803 -1.26464,3.76723 -1.39928,4.13762l-0.30294,0.87724c-0.9617,2.59271 -1.83687,4.44465 -2.62547,5.55581c-0.79822,1.11117 -1.47622,1.66674 -2.03401,1.66674c-0.25004,0 -0.46162,-0.10722 -0.63472,-0.32166l-0.43277,-0.4971c-0.12502,-0.13646 -0.18754,-0.28266 -0.18754,-0.43861c0,-0.24367 0.13464,-0.46785 0.40392,-0.67255c0.2789,-0.19494 0.55779,-0.45811 0.83668,-0.78951c0.28851,-0.3314 0.57703,-0.72615 0.86554,-1.18426c0.56741,-0.92597 1.11077,-2.12973 1.63009,-3.61128l0.76456,-2.16384c0.2789,-0.79926 0.50971,-1.58877 0.69243,-2.36853z" stroke-linecap="butt"/></g></g></svg>