<svg version="1.1" xmlns="http://www.w3.org/2000/svg" xmlns:xlink="http://www.w3.org/1999/xlink" width="49.95192" height="35.20639" viewBox="0,0,49.95192,35.20639"><g transform="translate(-215.08656,-162.3968)"><g data-paper-data="{&quot;isPaintingLayer&quot;:true}" fill="#ffffff" fill-rule="nonzero" stroke-linecap="square" stroke-linejoin="miter" stroke-miterlimit="10" stroke-dasharray="" stroke-dashoffset="0" style="mix-blend-mode: normal"><path d="M224.87057,170.07504l-1.10469,6.49005c1.72608,-1.01262 3.47517,-1.51895 5.24728,-1.51895c2.50858,0 4.67191,0.89757 6.49005,2.69268c1.84114,1.79512 2.76173,4.08505 2.76173,6.8698c0,2.87679 -0.97812,5.35085 -2.93432,7.42215c-1.93321,2.04827 -4.47629,3.07243 -7.62925,3.07243c-3.45216,0 -6.00675,-0.90908 -7.66379,-2.72719c-1.63401,-1.81815 -2.45102,-3.39463 -2.45102,-4.72944c0,-0.46028 0.20713,-0.93207 0.62139,-1.41537c0.41426,-0.4833 0.96661,-0.72495 1.65704,-0.72495c0.94358,0 1.78361,0.65593 2.52008,1.96775c0.87454,1.54197 1.70306,2.5661 2.48556,3.07243c0.8055,0.4833 1.70306,0.72496 2.69268,0.72496c1.63401,0 2.8883,-0.60987 3.76286,-1.82963c0.89756,-1.24277 1.34636,-2.73871 1.34636,-4.48781c0,-1.88719 -0.4833,-3.34858 -1.44991,-4.38423c-0.96661,-1.03565 -2.19788,-1.55346 -3.6938,-1.55346c-0.71346,0 -1.43839,0.12658 -2.17485,0.37975c-0.71346,0.25315 -1.63402,0.89756 -2.76173,1.93321c-0.52933,0.41426 -1.13921,0.62139 -1.82963,0.62139c-0.62139,0 -1.19675,-0.23016 -1.72607,-0.69044c-0.52933,-0.46028 -0.79399,-0.98962 -0.79399,-1.58799c0,-0.16111 0.08055,-0.6329 0.24166,-1.41537l1.69157,-9.63151c0.23015,-1.40389 0.64441,-2.30145 1.24278,-2.69268c0.62139,-0.39123 1.57648,-0.58685 2.8653,-0.58685h9.59699c0.94358,0 1.61102,0.05754 2.00225,0.17262c0.39123,0.09207 0.74796,0.35672 1.07018,0.794c0.3222,0.41426 0.4833,0.88605 0.4833,1.4154c0,1.56497 -1.12771,2.34746 -3.38311,2.34746zM252.05697,164.89681c3.06092,0 5.54647,1.16222 7.45666,3.48669c1.93321,2.30145 2.89981,6.21388 2.89981,11.73733c0,5.56947 -1.01263,9.45891 -3.0379,11.66829c-2.02528,2.20938 -4.43027,3.31407 -7.21499,3.31407c-2.89981,0 -5.36234,-1.16222 -7.38761,-3.48667c-2.00225,-2.34746 -3.00337,-6.14483 -3.00337,-11.39212c0,-5.43139 0.88605,-9.34384 2.65817,-11.73733c1.79512,-2.39349 4.33821,-3.59024 7.62928,-3.59024zM252.05697,190.99511c1.65704,0 2.8653,-0.79399 3.62477,-2.38198c0.78249,-1.61101 1.17373,-4.56835 1.17373,-8.87203c0,-3.88944 -0.37972,-6.65116 -1.1392,-8.28518c-0.75948,-1.65703 -1.97924,-2.48555 -3.65929,-2.48555c-1.58799,0 -2.77324,0.79401 -3.55571,2.382c-0.78249,1.58799 -1.17373,4.44179 -1.17373,8.56135c0,4.18861 0.39123,7.08842 1.17373,8.69943c0.78249,1.58799 1.96775,2.382 3.55574,2.382z" stroke="#000000" stroke-width="5"/><path d="M224.87057,170.07505l-1.10469,6.49005c1.72608,-1.01262 3.47517,-1.51895 5.24728,-1.51895c2.50858,0 4.67191,0.89757 6.49005,2.69268c1.84114,1.79512 2.76173,4.08505 2.76173,6.8698c0,2.87679 -0.97812,5.35085 -2.93432,7.42215c-1.93321,2.04827 -4.47629,3.07243 -7.62925,3.07243c-3.45216,0 -6.00675,-0.90908 -7.66379,-2.72719c-1.63401,-1.81815 -2.45102,-3.39463 -2.45102,-4.72944c0,-0.46028 0.20713,-0.93207 0.62139,-1.41537c0.41426,-0.4833 0.96661,-0.72495 1.65704,-0.72495c0.94358,0 1.78361,0.65593 2.52008,1.96775c0.87454,1.54197 1.70306,2.5661 2.48556,3.07243c0.8055,0.4833 1.70306,0.72496 2.69268,0.72496c1.63401,0 2.8883,-0.60987 3.76286,-1.82963c0.89756,-1.24277 1.34636,-2.73871 1.34636,-4.48781c0,-1.88719 -0.4833,-3.34858 -1.44991,-4.38423c-0.96661,-1.03565 -2.19788,-1.55346 -3.6938,-1.55346c-0.71346,0 -1.43839,0.12658 -2.17485,0.37975c-0.71346,0.25315 -1.63402,0.89756 -2.76173,1.93321c-0.52933,0.41426 -1.13921,0.62139 -1.82963,0.62139c-0.62139,0 -1.19675,-0.23016 -1.72607,-0.69044c-0.52933,-0.46028 -0.79399,-0.98962 -0.79399,-1.58799c0,-0.16111 0.08055,-0.6329 0.24166,-1.41537l1.69157,-9.63151c0.23015,-1.40389 0.64441,-2.30145 1.24278,-2.69268c0.62139,-0.39123 1.57648,-0.58685 2.8653,-0.58685h9.59699c0.94358,0 1.61102,0.05754 2.00225,0.17262c0.39123,0.09207 0.74796,0.35672 1.07018,0.794c0.3222,0.41426 0.4833,0.88605 0.4833,1.4154c0,1.56497 -1.12771,2.34746 -3.38311,2.34746zM252.05697,164.89681c3.06092,0 5.54647,1.16222 7.45666,3.48669c1.93321,2.30145 2.89981,6.21388 2.89981,11.73733c0,5.56947 -1.01263,9.45891 -3.0379,11.66829c-2.02528,2.20938 -4.43027,3.31407 -7.21499,3.31407c-2.89981,0 -5.36234,-1.16222 -7.38761,-3.48667c-2.00225,-2.34746 -3.00337,-6.14483 -3.00337,-11.39212c0,-5.43139 0.88605,-9.34384 2.65817,-11.73733c1.79512,-2.39349 4.33821,-3.59024 7.62928,-3.59024zM252.05697,190.99512c1.65704,0 2.8653,-0.79399 3.62477,-2.38198c0.78249,-1.61101 1.17373,-4.56835 1.17373,-8.87203c0,-3.88944 -0.37972,-6.65116 -1.1392,-8.28518c-0.75948,-1.65703 -1.97924,-2.48555 -3.65929,-2.48555c-1.58799,0 -2.77324,0.79401 -3.55571,2.382c-0.78249,1.58799 -1.17373,4.44179 -1.17373,8.56135c0,4.18861 0.39123,7.08842 1.17373,8.69943c0.78249,1.58799 1.96775,2.382 3.55574,2.382z" stroke="none" stroke-width="1"/></g></g></svg>