<svg version="1.1" xmlns="http://www.w3.org/2000/svg" xmlns:xlink="http://www.w3.org/1999/xlink" width="182.80969" height="86.63347" viewBox="0,0,182.80969,86.63347"><g transform="translate(-114.98165,-171.85151)"><g data-paper-data="{&quot;isPaintingLayer&quot;:true}" fill-rule="nonzero" stroke="none" stroke-width="1" stroke-linejoin="miter" stroke-miterlimit="10" stroke-dasharray="" stroke-dashoffset="0" style="mix-blend-mode: normal"><path d="" fill="#ffffff" stroke-linecap="butt"/><path d="" fill="#ffffff" stroke-linecap="butt"/><path d="" fill="#ffffff" stroke-linecap="butt"/><path d="" fill="#ffffff" stroke-linecap="butt"/><path d="" fill="#ffffff" stroke-linecap="butt"/><path d="" fill="#ffffff" stroke-linecap="butt"/><path d="" fill="#ffffff" stroke-linecap="butt"/><path d="" fill="#ffffff" stroke-linecap="butt"/><path d="" fill="#ffffff" stroke-linecap="butt"/><path d="" fill="#ffffff" stroke-linecap="butt"/><path d="M116.21603,245.66095h1.47272c-0.45893,0.77142 -0.93142,1.62327 -1.47272,2.53959z" fill="none" stroke-linecap="butt"/><path d="M118.63079,258.48498c-1.5494,-0.25358 -2.35318,-1.23157 -2.41137,-2.93396c0.6925,1.19978 1.49807,2.15482 2.41137,2.93396z" fill="none" stroke-linecap="butt"/><path d="M114.98165,248.22345h1.22084c-0.01517,0.02566 -0.0304,0.05138 -0.04569,0.07714c-0.25371,0.42766 -0.77903,0.99281 -1.17515,1.55414z" fill="none" stroke-linecap="butt"/><path d="M191.24333,173.62404v10.06722c0,1.38818 -0.40728,2.47235 -1.22183,3.25249c-0.80309,0.76866 -1.88151,1.153 -3.23528,1.153c-1.36524,0 -2.47235,-0.3958 -3.32132,-1.18741c-0.83751,-0.79161 -1.25625,-1.89872 -1.25625,-3.32132h2.8739c0.01148,0.60806 0.15489,1.08417 0.43023,1.42835c0.28682,0.34418 0.69983,0.51627 1.23904,0.51627c0.51627,0 0.91208,-0.16062 1.18742,-0.48185c0.27534,-0.33271 0.41301,-0.78587 0.41301,-1.3595v-10.06722zM205.17532,182.022c0,0.41301 -0.02294,0.78015 -0.06884,1.10137h-8.32913c0.06884,0.82603 0.35566,1.47423 0.86045,1.94462c0.50479,0.4589 1.13005,0.68836 1.87578,0.68836c1.06695,0 1.82415,-0.4589 2.27158,-1.37672h3.11482c-0.3327,1.10137 -0.9637,2.0077 -1.89298,2.71901c-0.92928,0.69982 -2.07655,1.04975 -3.44179,1.04975c-1.0899,0 -2.07081,-0.24093 -2.94272,-0.72278c-0.87192,-0.49332 -1.55454,-1.18167 -2.04786,-2.06507c-0.48185,-0.89486 -0.72278,-1.9274 -0.72278,-3.09761c0,-1.17021 0.24093,-2.20274 0.72278,-3.09761c0.48185,-0.89486 1.153,-1.57748 2.01345,-2.04786c0.86045,-0.48185 1.85283,-0.72278 2.97715,-0.72278c1.0899,0 2.05933,0.23519 2.90832,0.70557c0.86045,0.4589 1.52586,1.11859 1.99624,1.97903c0.47037,0.84898 0.70557,1.82989 0.70557,2.94273zM202.19816,181.19597c-0.01148,-0.73424 -0.28108,-1.32508 -0.80881,-1.77252c-0.51627,-0.44743 -1.14727,-0.67114 -1.89298,-0.67114c-0.72278,0 -1.32508,0.21797 -1.80693,0.65394c-0.48185,0.42448 -0.78013,1.02107 -0.89486,1.78973zM211.6407,188.14838c-0.94076,0 -1.78399,-0.16635 -2.52971,-0.49905c-0.73425,-0.34418 -1.31936,-0.80308 -1.75531,-1.37672c-0.42449,-0.57364 -0.65394,-1.21036 -0.68836,-1.91019h2.8911c0.05736,0.43597 0.2696,0.79735 0.63674,1.08417c0.3786,0.28681 0.84897,0.43023 1.41113,0.43023c0.55069,0 0.98091,-0.10899 1.29068,-0.32696c0.30976,-0.21797 0.46465,-0.49905 0.46465,-0.84323c0,-0.36713 -0.18929,-0.64247 -0.56789,-0.82603c-0.3786,-0.18355 -0.97518,-0.38433 -1.78973,-0.60231c-0.86045,-0.20651 -1.56028,-0.41875 -2.09949,-0.63673c-0.53921,-0.21797 -1.00386,-0.55069 -1.39392,-0.99812c-0.39007,-0.4589 -0.5851,-1.07269 -0.5851,-1.84135c0,-0.63099 0.17783,-1.20463 0.53348,-1.72089c0.36712,-0.52773 0.88913,-0.94075 1.56602,-1.23904c0.68836,-0.2983 1.49144,-0.44743 2.40925,-0.44743c1.35377,0 2.43219,0.33844 3.23528,1.01533c0.81455,0.67689 1.26199,1.58896 1.3423,2.73623h-2.75343c-0.04589,-0.44743 -0.23519,-0.80308 -0.56789,-1.06695c-0.3327,-0.27534 -0.78013,-0.41301 -1.3423,-0.41301c-0.52774,0 -0.93502,0.09752 -1.22183,0.29256c-0.27534,0.19504 -0.41301,0.46465 -0.41301,0.80883c0,0.3786 0.1893,0.67115 0.5679,0.87766c0.39007,0.19504 0.99238,0.39581 1.80694,0.60232c0.81455,0.19504 1.49144,0.40728 2.03065,0.63674c0.53921,0.21797 1.00386,0.55642 1.39393,1.01533c0.39007,0.4589 0.59084,1.06122 0.60232,1.80694c0,0.6654 -0.18357,1.25626 -0.55069,1.77253c-0.35566,0.51627 -0.87765,0.92354 -1.56601,1.22184c-0.67688,0.2983 -1.46275,0.44743 -2.35762,0.44743zM221.82374,178.94159v5.50686c0,0.3786 0.09178,0.65394 0.27534,0.82603c0.18357,0.17209 0.49333,0.25814 0.92928,0.25814h1.3423v2.42647h-1.80693c-2.42073,0 -3.63108,-1.17595 -3.63108,-3.52783v-5.48965h-1.3595v-2.35762h1.35951v-2.82227h2.8911v2.82227h2.54692v2.35763zM237.02394,182.022c0,0.41301 -0.02294,0.78015 -0.06884,1.10137h-8.32913c0.06884,0.82603 0.35566,1.47423 0.86045,1.94462c0.50479,0.4589 1.13005,0.68836 1.87578,0.68836c1.06695,0 1.82415,-0.4589 2.27158,-1.37672h3.11482c-0.3327,1.10137 -0.9637,2.0077 -1.89298,2.71901c-0.92928,0.69982 -2.07655,1.04975 -3.44179,1.04975c-1.0899,0 -2.07081,-0.24093 -2.94272,-0.72278c-0.87192,-0.49332 -1.55454,-1.18167 -2.04786,-2.06507c-0.48185,-0.89486 -0.72278,-1.9274 -0.72278,-3.09761c0,-1.17021 0.24093,-2.20274 0.72278,-3.09761c0.48185,-0.89486 1.153,-1.57748 2.01345,-2.04786c0.86045,-0.48185 1.85283,-0.72278 2.97715,-0.72278c1.0899,0 2.05933,0.23519 2.90832,0.70557c0.86045,0.4589 1.52586,1.11859 1.99624,1.97903c0.47037,0.84898 0.70557,1.82989 0.70557,2.94273zM234.0468,181.19597c-0.01148,-0.73424 -0.28108,-1.32508 -0.80881,-1.77252c-0.51627,-0.44743 -1.14727,-0.67114 -1.89298,-0.67114c-0.72278,0 -1.32508,0.21797 -1.80693,0.65394c-0.48185,0.42448 -0.78013,1.02107 -0.89486,1.78973zM242.00936,178.33929c0.36712,-0.59657 0.84897,-1.06695 1.44555,-1.41113c0.59658,-0.34418 1.2792,-0.51627 2.04787,-0.51627v3.01157h-0.7744c-0.89486,0 -1.57175,0.21797 -2.03065,0.65394c-0.45891,0.42448 -0.68836,1.15874 -0.68836,2.20274v5.67895h-2.8911v-11.3751h2.8911zM268.09031,176.58397l-3.32132,11.37511h-3.09761l-2.08228,-7.95053l-2.08228,7.95053h-3.11481l-3.35574,-11.3751h2.92552l2.01345,8.6561l2.16833,-8.65609h3.04599l2.13391,8.63889l2.01345,-8.63889zM271.11451,175.22446c-0.50479,0 -0.92928,-0.16062 -1.27346,-0.48185c-0.3327,-0.32124 -0.49905,-0.72278 -0.49905,-1.20463c0,-0.48185 0.16635,-0.8834 0.49906,-1.20463c0.34418,-0.32124 0.76867,-0.48185 1.27346,-0.48185c0.50479,0 0.92354,0.16061 1.25626,0.48185c0.34418,0.32123 0.51627,0.72278 0.51627,1.20463c0,0.48185 -0.17209,0.88339 -0.51627,1.20463c-0.3327,0.32123 -0.75146,0.48185 -1.25625,0.48185zM272.54286,176.58397v11.37511h-2.8911v-11.3751zM281.67966,176.41188c1.35377,0 2.44941,0.43023 3.28691,1.29068c0.83751,0.84898 1.25626,2.04212 1.25626,3.57946v6.67707h-2.87389v-6.28126c0,-0.90633 -0.22945,-1.60043 -0.68836,-2.08228c-0.44743,-0.49332 -1.06122,-0.73998 -1.84135,-0.73998c-0.79161,0 -1.41687,0.24666 -1.87577,0.73999c-0.45891,0.48185 -0.68836,1.17595 -0.68836,2.08229v6.28127h-2.8911v-11.3751h2.8911v1.41113c0.3786,-0.49332 0.86619,-0.87765 1.46277,-1.15299c0.59658,-0.28681 1.25052,-0.43022 1.96182,-0.43022zM293.31694,188.14838c-0.94076,0 -1.78399,-0.16635 -2.52971,-0.49905c-0.73425,-0.34418 -1.31936,-0.80308 -1.75531,-1.37672c-0.42449,-0.57364 -0.65394,-1.21036 -0.68836,-1.91019h2.8911c0.05736,0.43597 0.2696,0.79735 0.63674,1.08417c0.3786,0.28681 0.84897,0.43023 1.41113,0.43023c0.55069,0 0.98091,-0.10899 1.29068,-0.32696c0.30976,-0.21797 0.46465,-0.49905 0.46465,-0.84323c0,-0.36713 -0.18929,-0.64247 -0.56789,-0.82603c-0.3786,-0.18355 -0.97518,-0.38433 -1.78973,-0.60231c-0.86045,-0.20651 -1.56028,-0.41875 -2.09949,-0.63673c-0.53921,-0.21797 -1.00386,-0.55069 -1.39392,-0.99812c-0.39007,-0.4589 -0.5851,-1.07269 -0.5851,-1.84135c0,-0.63099 0.17783,-1.20463 0.53348,-1.72089c0.36712,-0.52773 0.88913,-0.94075 1.56602,-1.23904c0.68836,-0.2983 1.49144,-0.44743 2.40925,-0.44743c1.35377,0 2.43219,0.33844 3.23528,1.01533c0.81455,0.67689 1.26199,1.58896 1.3423,2.73623h-2.75343c-0.04589,-0.44743 -0.23519,-0.80308 -0.56789,-1.06695c-0.3327,-0.27534 -0.78013,-0.41301 -1.3423,-0.41301c-0.52774,0 -0.93502,0.09752 -1.22183,0.29256c-0.27534,0.19504 -0.41301,0.46465 -0.41301,0.80883c0,0.3786 0.1893,0.67115 0.5679,0.87766c0.39007,0.19504 0.99238,0.39581 1.80694,0.60232c0.81455,0.19504 1.49144,0.40728 2.03065,0.63674c0.53921,0.21797 1.00386,0.55642 1.39393,1.01533c0.39007,0.4589 0.59084,1.06122 0.60232,1.80694c0,0.6654 -0.18357,1.25626 -0.55069,1.77253c-0.35566,0.51627 -0.87765,0.92354 -1.56601,1.22184c-0.67688,0.2983 -1.46275,0.44743 -2.35762,0.44743z" fill="#ffffff" stroke-linecap="square"/></g></g></svg>