<svg version="1.1" xmlns="http://www.w3.org/2000/svg" xmlns:xlink="http://www.w3.org/1999/xlink" width="49.72052" height="34.92727" viewBox="-2.5,-2.5,49.72052,34.92727"><g transform="translate(-217.63974,-165.03636)"><g data-paper-data="{&quot;isPaintingLayer&quot;:true}" fill="#ffffff" fill-rule="nonzero" stroke-linecap="square" stroke-linejoin="miter" stroke-miterlimit="10" stroke-dasharray="" stroke-dashoffset="0" style="mix-blend-mode: normal"><path d="M223.14633,178.64899c1.75573,-2.09775 3.94469,-3.14664 6.5669,-3.14664c2.57658,0 4.68576,0.93486 6.32749,2.80461c1.64173,1.84694 2.46259,4.07012 2.46259,6.66952c0,2.80461 -0.93486,5.17598 -2.80461,7.11414c-1.84694,1.91535 -4.28672,2.87302 -7.31936,2.87302c-3.37466,0 -6.00825,-1.2313 -7.90079,-3.69388c-1.89254,-2.4854 -2.83881,-5.96265 -2.83881,-10.43178c0,-5.35841 1.02608,-9.32591 3.07823,-11.9025c2.05215,-2.59939 4.74277,-3.8991 8.07181,-3.8991c2.73621,0 4.83396,0.70686 6.29327,2.12056c1.4821,1.4137 2.22317,2.81602 2.22317,4.20693c0,0.54724 -0.20522,1.03748 -0.61565,1.47072c-0.41043,0.43324 -0.92346,0.64986 -1.5391,0.64986c-1.09448,0 -1.97234,-0.66124 -2.63359,-1.98375c-0.86646,-1.68732 -2.12055,-2.53099 -3.76228,-2.53099c-3.48866,0 -5.35842,3.22645 -5.60923,9.67934zM223.59097,184.77127c0,1.66454 0.45603,3.12383 1.3681,4.37793c0.93487,1.2541 2.13197,1.88116 3.59128,1.88116c1.4137,0 2.51959,-0.55865 3.31766,-1.67592c0.79806,-1.14008 1.1971,-2.57658 1.1971,-4.30953c0,-1.77854 -0.43323,-3.18083 -1.29969,-4.20691c-0.84367,-1.04889 -1.92675,-1.57332 -3.24923,-1.57332c-1.2541,0 -2.39418,0.47884 -3.42026,1.43651c-1.00327,0.95767 -1.50491,2.31438 -1.50491,4.07012zM252.09949,165.03636c3.03263,0 5.49522,1.15148 7.38776,3.45447c1.91535,2.28018 2.87302,6.15646 2.87302,11.62888c0,5.51801 -1.00326,9.37151 -3.00982,11.56047c-2.00656,2.18896 -4.38934,3.28345 -7.14833,3.28345c-2.87302,0 -5.31279,-1.15149 -7.31936,-3.45445c-1.98375,-2.32577 -2.97561,-6.08806 -2.97561,-11.28685c0,-5.3812 0.87786,-9.25751 2.63361,-11.62888c1.77854,-2.37137 4.29812,-3.55707 7.55879,-3.55707zM252.09949,190.89352c1.64173,0 2.83883,-0.78665 3.59128,-2.35997c0.77526,-1.59613 1.16289,-4.52614 1.16289,-8.79005c0,-3.8535 -0.37622,-6.58971 -1.12868,-8.20862c-0.75245,-1.64173 -1.96094,-2.46258 -3.62547,-2.46258c-1.57332,0 -2.74761,0.78667 -3.52285,2.35999c-0.77526,1.57332 -1.16288,4.40074 -1.16288,8.48224c0,4.1499 0.38762,7.02292 1.16288,8.61905c0.77526,1.57332 1.94956,2.35999 3.52288,2.35999z" stroke="#000000" stroke-width="5"/><path d="M223.14632,178.64899c1.75573,-2.09775 3.94469,-3.14664 6.5669,-3.14664c2.57659,0 4.68577,0.93486 6.32749,2.80461c1.64172,1.84694 2.46259,4.07012 2.46259,6.66952c0,2.80461 -0.93486,5.17598 -2.80461,7.11414c-1.84694,1.91534 -4.28672,2.87302 -7.31935,2.87302c-3.37466,0 -6.00825,-1.23129 -7.90079,-3.69388c-1.89254,-2.4854 -2.8388,-5.96265 -2.8388,-10.43178c0,-5.35841 1.02608,-9.32591 3.07823,-11.9025c2.05216,-2.5994 4.74277,-3.89909 8.07181,-3.89909c2.73621,0 4.83396,0.70686 6.29328,2.12056c1.4821,1.4137 2.22318,2.81602 2.22318,4.20693c0,0.54724 -0.20522,1.03748 -0.61565,1.47072c-0.41043,0.43324 -0.92346,0.64986 -1.53911,0.64986c-1.09448,0 -1.97235,-0.66124 -2.63359,-1.98375c-0.86646,-1.68732 -2.12056,-2.53099 -3.76228,-2.53099c-3.48866,0 -5.35841,3.22645 -5.60922,9.67934zM223.59097,184.77127c0,1.66453 0.45603,3.12383 1.3681,4.37793c0.93486,1.2541 2.13196,1.88115 3.59128,1.88115c1.4137,0 2.51959,-0.55865 3.31766,-1.67592c0.79805,-1.14008 1.1971,-2.57659 1.1971,-4.30953c0,-1.77853 -0.43324,-3.18083 -1.2997,-4.20691c-0.84367,-1.04889 -1.92675,-1.57332 -3.24923,-1.57332c-1.2541,0 -2.39418,0.47884 -3.42026,1.43651c-1.00327,0.95767 -1.50491,2.31437 -1.50491,4.07012zM252.09948,165.03636c3.03264,0 5.49522,1.15148 7.38776,3.45447c1.91534,2.28018 2.87302,6.15647 2.87302,11.62888c0,5.51801 -1.00327,9.37151 -3.00983,11.56047c-2.00656,2.18897 -4.38934,3.28345 -7.14833,3.28345c-2.87302,0 -5.31279,-1.15148 -7.31935,-3.45445c-1.98375,-2.32578 -2.97561,-6.08806 -2.97561,-11.28685c0,-5.3812 0.87786,-9.25751 2.63361,-11.62888c1.77853,-2.37137 4.29812,-3.55707 7.55878,-3.55707zM252.09948,190.89352c1.64172,0 2.83883,-0.78665 3.59128,-2.35997c0.77527,-1.59613 1.16289,-4.52615 1.16289,-8.79005c0,-3.8535 -0.37622,-6.58971 -1.12867,-8.20862c-0.75246,-1.64172 -1.96094,-2.46259 -3.62547,-2.46259c-1.57332,0 -2.74761,0.78667 -3.52286,2.35999c-0.77527,1.57332 -1.16289,4.40074 -1.16289,8.48224c0,4.14991 0.38762,7.02292 1.16289,8.61905c0.77527,1.57332 1.94956,2.35999 3.52288,2.35999z" stroke="none" stroke-width="1"/></g></g></svg>