<svg version="1.1" xmlns="http://www.w3.org/2000/svg" xmlns:xlink="http://www.w3.org/1999/xlink" width="51.5" height="51.5" viewBox="0,0,51.5,51.5"><g transform="translate(-211.75,-150.95001)"><g data-paper-data="{&quot;isPaintingLayer&quot;:true}" fill-rule="nonzero" stroke-linecap="butt" stroke-linejoin="miter" stroke-miterlimit="10" stroke-dasharray="" stroke-dashoffset="0" style="mix-blend-mode: normal"><path d="M224.375,180.00003c0,-8.62945 6.99555,-15.625 15.625,-15.625c8.62945,0 15.625,6.99555 15.625,15.625c0,8.62945 -6.99555,15.625 -15.625,15.625c-8.62945,0 -15.625,-6.99555 -15.625,-15.625z" fill="#ffffff" stroke="#000000" stroke-width="7.5"/><path d="M224.375,180.00003c0,-8.62945 6.99555,-15.625 15.625,-15.625c8.62945,0 15.625,6.99555 15.625,15.625c0,8.62945 -6.99555,15.625 -15.625,15.625c-8.62945,0 -15.625,-6.99555 -15.625,-15.625z" fill="#f07173" stroke="#f0f0f0" stroke-width="3.5"/><path d="M211.75,202.45001v-51.5h51.5v51.5z" fill="none" stroke="none" stroke-width="0"/><path d="M223.3125,180c0,-9.21625 7.47125,-16.6875 16.6875,-16.6875c9.21625,0 16.6875,7.47125 16.6875,16.6875c0,9.21625 -7.47125,16.6875 -16.6875,16.6875c-9.21625,0 -16.6875,-7.47125 -16.6875,-16.6875z" fill="#ffffff" stroke="#ffa3f7" stroke-width="2"/><path d="M245.55133,176.77799c0,0 2.02375,-3.07165 3.83635,-0.71055c1.5595,2.01796 0.28412,4.62456 -0.6935,6.088c-0.46106,0.69018 -1.89095,1.92395 -1.88902,1.27166c0.00205,-0.69279 1.02754,-2.87507 0.53479,-4.21596c-0.71935,-1.95753 -1.78862,-2.43314 -1.78862,-2.43314z" data-paper-data="{&quot;index&quot;:null}" fill="#23a6bb" stroke="#000000" stroke-width="2.5"/><path d="M245.55133,176.77799c0,0 2.02375,-3.07165 3.83635,-0.71055c2.29498,2.96966 -2.26367,7.07124 -2.26367,7.07124c0,0 1.17264,-1.32413 0.21594,-3.92754c-0.71935,-1.95753 -1.78862,-2.43314 -1.78862,-2.43314z" data-paper-data="{&quot;index&quot;:null}" fill="#ffa3f7" stroke="none" stroke-width="2.5"/><path d="M238.31479,188.89897c-4.49963,0 -7.93808,-2.22995 -7.78996,-6.18194c0.18839,-5.02651 3.43327,-6.25341 7.9329,-6.25341c4.49963,0 8.00436,1.6189 8.00436,5.46727c0,3.84836 -3.64767,6.96808 -8.1473,6.96808z" data-paper-data="{&quot;index&quot;:null}" fill="#23a6bb" stroke="#000000" stroke-width="2.5"/><path d="M238.45765,188.89897c-2.91914,0 -6.85629,-1.73487 -7.83813,-4.84458c-0.53159,-1.68366 0.51037,-4.37655 1.43781,-6.03408c1.33036,-1.74787 3.84948,-1.55668 6.54325,-1.55668c4.49963,0 8.00436,1.6189 8.00436,5.46726c0,1.62901 -0.65359,3.12745 -1.74873,4.31398c-1.49202,1.61653 -3.80362,2.6541 -6.39856,2.6541z" data-paper-data="{&quot;index&quot;:null}" fill="#23a6bb" stroke="#000000" stroke-width="2.5"/><path d="M231.66842,176.15989c-0.00649,-1.29213 0.56546,-4.0056 5.17232,-5.33223c6.08621,-1.75264 7.87631,0.41173 8.40231,1.78774c0.20966,0.54846 0.34419,1.01644 -0.26834,1.91018c-0.4052,0.59123 -1.04675,1.20144 -1.48699,1.30692c-0.86935,0.20828 -2.15542,-0.70477 -5.2518,-0.6213c-2.84265,0.07662 -4.77492,1.22124 -5.97732,1.52291c-0.57661,0.12674 -0.58798,-0.13462 -0.59019,-0.57421z" data-paper-data="{&quot;index&quot;:null}" fill="#23a6bb" stroke="#000000" stroke-width="2.5"/><path d="M231.66842,176.15989c-0.00649,-1.29213 0.56546,-4.0056 5.17232,-5.33223c6.08621,-1.75264 7.87631,0.41173 8.40231,1.78774c0.20966,0.54846 0.34419,1.01644 -0.26834,1.91018c-0.4052,0.59123 -1.04675,1.20144 -1.48699,1.30692c-0.86935,0.20828 -2.15542,-0.70477 -5.2518,-0.6213c-2.84265,0.07662 -4.77492,1.22124 -5.97732,1.52291c-0.57661,0.12674 -0.58798,-0.13462 -0.59019,-0.57421z" data-paper-data="{&quot;index&quot;:null}" fill="#ffa3f7" stroke="none" stroke-width="2.5"/><path d="M232.45323,173.6094c0.7024,-1.03922 2.00566,-2.09584 4.38751,-2.78174c4.63995,-1.33616 6.78296,-0.39571 7.77251,0.73639c0.04183,0.04786 -0.73098,0.55048 -1.15461,1.09391c-0.20101,0.25785 -0.34315,0.50161 -0.43873,0.69185c-0.1171,0.23306 -0.40663,0.35003 -0.78524,0.29995c-1.01161,-0.1338 -2.99627,-0.36956 -3.9317,-0.29693c-3.42726,0.26611 -6.98103,2.64325 -5.84974,0.25656z" data-paper-data="{&quot;index&quot;:null}" fill="#ffa3f7" stroke="none" stroke-width="2.5"/><path d="M238.31479,188.89897c-4.49963,0 -8.09355,-1.92309 -7.71849,-5.75313c0.28587,-2.91929 3.3618,-6.68222 7.86143,-6.68222c4.49963,0 8.00436,1.6189 8.00436,5.46727c0,1.52135 -0.47511,3.74355 -1.64467,4.68219c-1.69411,1.35963 -3.78181,2.28589 -6.50263,2.28589z" data-paper-data="{&quot;index&quot;:null}" fill="#ffa3f7" stroke="none" stroke-width="2.5"/><path d="M229.88162,181.10902l0.90838,0.68328c0,0 0.02698,0.33474 0.16381,0.60107c0.20806,0.40495 0.57635,0.74551 0.75088,0.24995c0.79575,-2.25949 3.33796,-4.50347 6.18129,-4.53594c3.7445,-0.11894 5.29838,0.97527 6.06263,2.22433c0.82805,1.35333 0.91507,3.9142 -0.32372,5.51366c-0.43683,0.56401 0.4645,1.61035 -0.26574,2.15102c-1.76033,1.30334 -5.54464,1.83165 -5.54464,1.83165c0,0 -2.84429,-0.15305 -4.44724,-0.94746c-1.38054,-0.68418 -1.48965,-1.99174 -2.16797,-2.36066c-1.19337,-0.64903 -1.31768,-5.41092 -1.31768,-5.41092z" data-paper-data="{&quot;index&quot;:null}" fill="#000000" stroke="none" stroke-width="2.5"/><path d="M241.67376,186.25468c-0.38369,-0.05854 -1.46436,-0.49432 -1.52542,-1.23644c-0.11331,-1.08032 1.42433,-1.32511 0.69747,-3.10318c-0.37452,-0.77054 -0.69582,-2.02984 -3.63223,-1.62461c-1.49888,0.20685 -2.7836,2.0238 -3.15043,2.07122c-0.41462,0.0536 -0.78659,-0.22961 -0.90614,-0.67352c-0.08975,-1.01484 3.20243,-4.18649 8.08543,-2.43182c1.20826,0.42576 2.0916,1.47856 2.39627,2.34792c0.74753,2.133 -0.91221,4.81105 -1.96495,4.65043z" data-paper-data="{&quot;index&quot;:null}" fill="#121212" stroke="none" stroke-width="2.5"/><path d="M239.78587,182.2542c0.44373,0.69697 0.17104,1.76907 -1.72798,1.53155c-0.18745,-0.02345 -0.29545,0.55941 0.09437,0.63184c1.60933,0.29901 1.43599,0.97642 1.52716,1.24378c0.18915,0.55467 -0.16698,2.41781 -1.83597,2.52968c-1.61361,0.10816 -3.5822,-0.40126 -2.67461,-2.66703c0.21965,-0.54836 0.51674,-0.9395 0.2095,-1.23265c-0.14856,-0.16175 -0.87212,0.42355 -1.20085,1.1888c-0.28539,0.66434 -0.32453,1.36783 -1.17024,1.25569c-0.03405,-0.00742 -1.45187,0.08537 -0.95789,-2.3703c0.10681,-0.78397 0.43391,-1.10058 1.00381,-1.15119c0.96722,-0.16159 2.11919,0.3774 2.86159,-0.05126c0.55099,-0.33757 0.72286,-0.85901 1.07287,-1.1428c1.53402,-1.19023 2.52192,-0.20013 2.79824,0.23389z" data-paper-data="{&quot;index&quot;:null}" fill="#ffffff" stroke="none" stroke-width="2.5"/><path d="M244.64763,184.12831l0.14293,2.52519c0,0 -1.77279,1.66705 -3.80641,1.65713c-0.12796,-0.00062 -1.76953,-0.24655 -0.94509,-1.16142c0.47387,-0.52584 1.29385,-0.37844 2.18204,-0.55759c1.97288,-0.39794 2.42652,-2.46331 2.42652,-2.46331z" data-paper-data="{&quot;index&quot;:null}" fill="#ffa3f7" stroke="none" stroke-width="2.5"/></g></g></svg>