<svg version="1.1" xmlns="http://www.w3.org/2000/svg" xmlns:xlink="http://www.w3.org/1999/xlink" width="155.63601" height="33.38547" viewBox="0,0,155.63601,33.38547"><g transform="translate(-175.18199,-162.30621)"><g data-paper-data="{&quot;isPaintingLayer&quot;:true}" fill-rule="nonzero" stroke-linecap="square" stroke-linejoin="miter" stroke-miterlimit="10" stroke-dasharray="" stroke-dashoffset="0" style="mix-blend-mode: normal"><path d="M186.89734,183.73503c0,1.86641 -0.37328,3.45693 -1.11984,4.77153c-0.73033,1.3146 -1.75281,2.32085 -3.06742,3.01872c-1.29838,0.71411 -2.80774,1.10363 -4.52808,1.16854v0v-4.11423c1.31461,-0.06491 2.38576,-0.46255 3.21348,-1.19289c0.84394,-0.74656 1.26592,-1.99625 1.26592,-3.74906v-16.79773h4.23595zM198.0131,188.5796c-1.55805,0 -2.87266,-0.28402 -3.94382,-0.85206c-1.07116,-0.58427 -1.89076,-1.38764 -2.4588,-2.41011c-0.56804,-1.0387 -0.85206,-2.22347 -0.85206,-3.5543c0,-1.28215 0.3327,-2.43446 0.99812,-3.45693c0.66542,-1.0387 1.54994,-1.8583 2.65356,-2.45879c1.10362,-0.61673 2.32897,-0.92509 3.67603,-0.92509c1.81772,0 3.31086,0.52746 4.4794,1.58239c1.18476,1.05494 1.94756,2.58052 2.28839,4.57677l-9.85954,3.14045l-0.92509,-2.21535l7.1573,-2.41011l-0.82771,0.38951c-0.1623,-0.50312 -0.44632,-0.94132 -0.85206,-1.31461c-0.38951,-0.38951 -0.98189,-0.58427 -1.77715,-0.58427c-0.60049,0 -1.12797,0.14607 -1.5824,0.43821c-0.45443,0.2759 -0.80337,0.67353 -1.04681,1.19288c-0.24345,0.50312 -0.36517,1.10362 -0.36517,1.80149c0,0.79525 0.14606,1.46068 0.4382,1.99626c0.29214,0.53558 0.68976,0.94132 1.19288,1.21722c0.50312,0.25968 1.06305,0.38952 1.67978,0.38952c0.45443,0 0.88452,-0.07304 1.29026,-0.2191c0.42198,-0.16229 0.83583,-0.36517 1.24157,-0.60861l1.80149,3.01873c-0.68165,0.38952 -1.41198,0.69787 -2.191,0.92509c-0.77902,0.22722 -1.51748,0.34083 -2.21536,0.34083zM211.96937,188.50656c-1.05494,0 -2.03682,-0.18664 -2.94569,-0.55993c-0.89263,-0.37329 -1.64731,-0.88452 -2.26404,-1.5337l1.67977,-2.2397c0.61673,0.55181 1.19289,0.94944 1.72847,1.19289c0.53558,0.24345 1.01436,0.36517 1.43633,0.36517c0.32459,0 0.61672,-0.03247 0.8764,-0.09738c0.27591,-0.06491 0.4869,-0.17041 0.63296,-0.31648c0.16229,-0.14607 0.24345,-0.33271 0.24345,-0.55993c0,-0.34082 -0.12984,-0.60049 -0.38951,-0.77902c-0.25968,-0.19475 -0.6005,-0.35705 -1.02247,-0.48689c-0.40574,-0.12984 -0.83583,-0.25967 -1.29026,-0.38951c-1.16854,-0.37329 -2.01248,-0.90886 -2.53183,-1.60674c-0.50312,-0.71411 -0.75468,-1.49313 -0.75468,-2.33707c0,-0.63296 0.17041,-1.27404 0.51124,-1.92322c0.34082,-0.64918 0.88452,-1.19288 1.63108,-1.63108c0.74656,-0.4382 1.70412,-0.65731 2.87266,-0.65731c1.07116,0 1.97191,0.11361 2.70225,0.34083c0.74656,0.21098 1.44445,0.55181 2.09363,1.02247l-1.5337,2.38576c-0.37329,-0.29214 -0.78715,-0.53558 -1.24158,-0.73033c-0.45443,-0.21098 -0.8764,-0.3246 -1.26592,-0.34082c-0.34082,-0.01622 -0.63296,0.02434 -0.8764,0.12172c-0.24345,0.09738 -0.4382,0.22722 -0.58427,0.38952c-0.12984,0.14606 -0.19475,0.30836 -0.19475,0.48689c-0.01623,0.35705 0.12173,0.64919 0.41386,0.87641c0.30836,0.21098 0.69787,0.37328 1.16853,0.48689c0.47066,0.11361 0.92509,0.25156 1.36329,0.41386c0.61673,0.19475 1.1442,0.45443 1.5824,0.77903c0.45443,0.32459 0.80337,0.7141 1.04681,1.16853c0.24345,0.45443 0.36517,1.00625 0.36517,1.65543c0,0.7628 -0.20288,1.49313 -0.60861,2.19101c-0.38952,0.68165 -0.99001,1.24158 -1.8015,1.67978c-0.79525,0.42197 -1.80962,0.63296 -3.04307,0.63296zM222.01682,169.95602h4.06554v5.52621h3.09175v3.16479h-3.09175v9.59175h-4.06554v-9.59175h-1.9719v-3.16479h1.9719zM238.53297,188.5796c-1.55805,0 -2.87265,-0.28402 -3.94381,-0.85206c-1.07116,-0.58427 -1.89076,-1.38764 -2.4588,-2.41011c-0.56804,-1.0387 -0.85206,-2.22347 -0.85206,-3.5543c0,-1.28215 0.33271,-2.43446 0.99813,-3.45693c0.66542,-1.0387 1.54994,-1.8583 2.65355,-2.45879c1.10362,-0.61673 2.32896,-0.92509 3.67602,-0.92509c1.81772,0 3.31086,0.52746 4.4794,1.58239c1.18477,1.05494 1.94756,2.58052 2.28839,4.57677l-9.85954,3.14045l-0.92509,-2.21535l7.15729,-2.41011l-0.82771,0.38951c-0.16229,-0.50312 -0.44632,-0.94132 -0.85206,-1.31461c-0.38952,-0.38951 -0.9819,-0.58427 -1.77715,-0.58427c-0.6005,0 -1.12797,0.14607 -1.5824,0.43821c-0.45443,0.2759 -0.80337,0.67353 -1.04681,1.19288c-0.24345,0.50312 -0.36517,1.10362 -0.36517,1.80149c0,0.79525 0.14607,1.46068 0.4382,1.99626c0.29213,0.53558 0.68976,0.94132 1.19288,1.21722c0.50312,0.25968 1.06304,0.38952 1.67978,0.38952c0.45443,0 0.88452,-0.07304 1.29026,-0.2191c0.42197,-0.16229 0.83583,-0.36517 1.24157,-0.60861l1.8015,3.01873c-0.68165,0.38952 -1.41199,0.69787 -2.19101,0.92509c-0.77902,0.22722 -1.51748,0.34083 -2.21536,0.34083zM252.00246,175.53092l0.38951,3.50562l-0.09737,-0.53558c0.37329,-0.7628 0.8764,-1.40386 1.50936,-1.92322c0.64918,-0.53558 1.28214,-0.94943 1.89887,-1.24157c0.63296,-0.29214 1.11985,-0.43821 1.46067,-0.43821l-0.2191,4.06554c-0.94132,-0.11361 -1.75281,0.04057 -2.43446,0.46255c-0.68165,0.42198 -1.20911,0.9819 -1.58239,1.67978c-0.35705,0.69788 -0.53558,1.4201 -0.53558,2.16666v4.96628h-4.04119v-12.70785zM270.3726,188.23877v-22.27525h0.04869l11.88014,16.87076l-1.8015,-0.41385l11.8558,-16.45691h0.04869v22.27525h-4.21161v-12.75654l0.26779,2.16666l-7.23033,10.29774h-0.07304l-6.67508,-10.29774l-0.01967,10.58987zM296.27301,181.73878c0,-1.29838 0.30836,-2.4588 0.92509,-3.48127c0.61673,-1.0387 1.4769,-1.85019 2.58052,-2.43446c1.10362,-0.60049 2.36954,-0.90075 3.79775,-0.90075c1.46067,0 2.71847,0.30025 3.77341,0.90075c1.07116,0.58427 1.89075,1.39576 2.45879,2.43446c0.56804,1.02247 0.85206,2.18289 0.85206,3.48127c0,1.29838 -0.28402,2.46691 -0.85206,3.50561c-0.56804,1.02247 -1.38763,1.83396 -2.45879,2.43446c-1.05494,0.6005 -2.32896,0.90075 -3.8221,0.90075c-1.39576,0 -2.64544,-0.26779 -3.74906,-0.80337c-1.08738,-0.55181 -1.94756,-1.33895 -2.58052,-2.36142c-0.61673,-1.02247 -0.92509,-2.24781 -0.92509,-3.67602zM300.38723,181.76312c0,0.64918 0.12984,1.24157 0.38951,1.77715c0.27591,0.53558 0.64108,0.95756 1.09551,1.26592c0.47066,0.30836 0.99813,0.46254 1.5824,0.46254c0.64918,0 1.201,-0.15418 1.65543,-0.46254c0.47066,-0.30836 0.82772,-0.73034 1.07116,-1.26592c0.25968,-0.53558 0.38951,-1.12797 0.38951,-1.77715c0,-0.68165 -0.12984,-1.28214 -0.38951,-1.80149c-0.24345,-0.53558 -0.6005,-0.95756 -1.07116,-1.26592c-0.45443,-0.30836 -1.00624,-0.46255 -1.65543,-0.46255c-0.58427,0 -1.11173,0.15419 -1.5824,0.46255c-0.45443,0.30836 -0.8196,0.73033 -1.09551,1.26592c-0.25968,0.51935 -0.38951,1.11985 -0.38951,1.80149zM319.05399,188.5796c-1.18477,0 -2.24782,-0.27591 -3.18914,-0.82772c-0.92509,-0.55181 -1.65543,-1.34706 -2.19101,-2.38576c-0.53558,-1.05494 -0.80337,-2.29651 -0.80337,-3.72472c0,-1.42821 0.29213,-2.64543 0.8764,-3.65168c0.58427,-1.02247 1.37952,-1.79338 2.38576,-2.31274c1.00624,-0.51935 2.15044,-0.77902 3.43258,-0.77902c0.81149,0 1.59051,0.12984 2.33707,0.38952c0.74656,0.24345 1.37141,0.62483 1.87453,1.14419v1.29027v-12.41572h4.0412v22.93256h-4.06554v-2.4588l0.31648,0.85206c-0.66542,0.55181 -1.40387,1.01435 -2.21535,1.38764c-0.81149,0.37329 -1.74469,0.55993 -2.79962,0.55993zM320.3686,185.14702c0.55181,0 1.03059,-0.06491 1.43633,-0.19475c0.42197,-0.14607 0.79525,-0.35706 1.11985,-0.63296c0.32459,-0.29213 0.6005,-0.64918 0.82772,-1.07116v-3.1161c-0.16229,-0.42198 -0.40574,-0.77902 -0.73033,-1.07116c-0.30836,-0.30836 -0.68977,-0.5437 -1.1442,-0.706c-0.45443,-0.17853 -0.95756,-0.26779 -1.50936,-0.26779c-0.6005,0 -1.16042,0.15419 -1.67978,0.46255c-0.50312,0.29214 -0.90886,0.706 -1.21722,1.24158c-0.30836,0.51935 -0.46255,1.11985 -0.46255,1.80149c0,0.66542 0.15419,1.27403 0.46255,1.82584c0.30836,0.53558 0.7141,0.95756 1.21722,1.26592c0.51936,0.30836 1.07928,0.46254 1.67978,0.46254z" fill="#ffe7e7" stroke="#000000" stroke-width="6"/><path d="M186.89734,183.73503c0,1.86641 -0.37329,3.45693 -1.11985,4.77153c-0.73034,1.31461 -1.75281,2.32085 -3.06741,3.01872c-1.29838,0.71411 -2.80774,1.10362 -4.52809,1.16854v0v-4.11423c1.31461,-0.06492 2.38577,-0.46255 3.21348,-1.19288c0.84394,-0.74656 1.26592,-1.99625 1.26592,-3.74906v-16.79774h4.23595zM198.0131,188.57959c-1.55805,0 -2.87266,-0.28402 -3.94382,-0.85206c-1.07116,-0.58427 -1.89076,-1.38764 -2.4588,-2.41011c-0.56804,-1.0387 -0.85206,-2.22347 -0.85206,-3.5543c0,-1.28214 0.33271,-2.43445 0.99813,-3.45693c0.66542,-1.0387 1.54993,-1.8583 2.65356,-2.4588c1.10362,-0.61673 2.32896,-0.92509 3.67603,-0.92509c1.81772,0 3.31086,0.52746 4.4794,1.5824c1.18477,1.05493 1.94756,2.58052 2.28839,4.57677l-9.85954,3.14045l-0.92509,-2.21535l7.1573,-2.41011l-0.82771,0.38951c-0.16229,-0.50312 -0.44632,-0.94132 -0.85206,-1.31461c-0.38951,-0.38951 -0.9819,-0.58427 -1.77715,-0.58427c-0.6005,0 -1.12797,0.14607 -1.5824,0.4382c-0.45443,0.27591 -0.80337,0.67353 -1.04682,1.19288c-0.24345,0.50312 -0.36517,1.10362 -0.36517,1.8015c0,0.79525 0.14607,1.46067 0.4382,1.99625c0.29213,0.53558 0.68976,0.94132 1.19288,1.21723c0.50312,0.25967 1.06304,0.38951 1.67977,0.38951c0.45443,0 0.88452,-0.07303 1.29026,-0.2191c0.42197,-0.16229 0.83583,-0.36517 1.24157,-0.60861l1.8015,3.01872c-0.68165,0.38951 -1.41198,0.69787 -2.19101,0.92509c-0.77903,0.22722 -1.51748,0.34082 -2.21535,0.34082zM211.96937,188.50656c-1.05493,0 -2.03682,-0.18664 -2.94569,-0.55992c-0.89263,-0.37329 -1.64731,-0.88452 -2.26404,-1.53371l1.67977,-2.2397c0.61673,0.55181 1.19288,0.94944 1.72846,1.19288c0.53558,0.24345 1.01435,0.36517 1.43633,0.36517c0.3246,0 0.61673,-0.03246 0.8764,-0.09738c0.27591,-0.06492 0.48689,-0.17041 0.63296,-0.31648c0.16229,-0.14607 0.24345,-0.33271 0.24345,-0.55992c0,-0.34082 -0.12984,-0.6005 -0.38951,-0.77903c-0.25967,-0.19476 -0.6005,-0.35705 -1.02247,-0.48689c-0.40574,-0.12984 -0.83583,-0.25967 -1.29026,-0.38951c-1.16854,-0.37329 -2.01248,-0.90887 -2.53183,-1.60674c-0.50312,-0.71411 -0.75468,-1.49313 -0.75468,-2.33708c0,-0.63296 0.17041,-1.27403 0.51124,-1.92322c0.34082,-0.64919 0.88452,-1.19288 1.63108,-1.63108c0.74656,-0.4382 1.70412,-0.6573 2.87266,-0.6573c1.07116,0 1.97191,0.11361 2.70224,0.34082c0.74656,0.21098 1.44445,0.55181 2.09363,1.02247l-1.53371,2.38577c-0.37329,-0.29213 -0.78714,-0.53558 -1.24157,-0.73034c-0.45443,-0.21098 -0.8764,-0.3246 -1.26592,-0.34082c-0.34082,-0.01623 -0.63296,0.02434 -0.8764,0.12172c-0.24345,0.09738 -0.4382,0.22722 -0.58427,0.38951c-0.12984,0.14607 -0.19476,0.30836 -0.19476,0.48689c-0.01623,0.35705 0.12172,0.64919 0.41386,0.8764c0.30836,0.21098 0.69787,0.37329 1.16854,0.48689c0.47066,0.11361 0.92509,0.25156 1.36329,0.41386c0.61673,0.19476 1.14419,0.45443 1.5824,0.77903c0.45443,0.3246 0.80337,0.71411 1.04682,1.16854c0.24345,0.45443 0.36517,1.00624 0.36517,1.65543c0,0.7628 -0.20287,1.49313 -0.60861,2.19101c-0.38951,0.68165 -0.99001,1.24157 -1.8015,1.67977c-0.79525,0.42197 -1.80961,0.63296 -3.04307,0.63296zM222.01682,169.95602h4.06554v5.52621h3.09176v3.16479h-3.09176v9.59175h-4.06554v-9.59175h-1.97191v-3.16479h1.97191zM238.53298,188.57959c-1.55805,0 -2.87266,-0.28402 -3.94382,-0.85206c-1.07116,-0.58427 -1.89076,-1.38764 -2.4588,-2.41011c-0.56804,-1.0387 -0.85206,-2.22347 -0.85206,-3.5543c0,-1.28214 0.33271,-2.43445 0.99813,-3.45693c0.66542,-1.0387 1.54993,-1.8583 2.65356,-2.4588c1.10362,-0.61673 2.32896,-0.92509 3.67603,-0.92509c1.81772,0 3.31086,0.52746 4.4794,1.5824c1.18477,1.05493 1.94756,2.58052 2.28839,4.57677l-9.85954,3.14045l-0.92509,-2.21535l7.1573,-2.41011l-0.82771,0.38951c-0.16229,-0.50312 -0.44632,-0.94132 -0.85206,-1.31461c-0.38951,-0.38951 -0.9819,-0.58427 -1.77715,-0.58427c-0.6005,0 -1.12797,0.14607 -1.5824,0.4382c-0.45443,0.27591 -0.80337,0.67353 -1.04682,1.19288c-0.24345,0.50312 -0.36517,1.10362 -0.36517,1.8015c0,0.79525 0.14607,1.46067 0.4382,1.99625c0.29213,0.53558 0.68976,0.94132 1.19288,1.21723c0.50312,0.25967 1.06304,0.38951 1.67977,0.38951c0.45443,0 0.88452,-0.07303 1.29026,-0.2191c0.42197,-0.16229 0.83583,-0.36517 1.24157,-0.60861l1.8015,3.01872c-0.68165,0.38951 -1.41198,0.69787 -2.19101,0.92509c-0.77903,0.22722 -1.51748,0.34082 -2.21535,0.34082zM252.00245,175.53092l0.38951,3.50561l-0.09738,-0.53558c0.37329,-0.7628 0.8764,-1.40387 1.50936,-1.92322c0.64919,-0.53558 1.28214,-0.94944 1.89887,-1.24157c0.63296,-0.29213 1.11985,-0.4382 1.46067,-0.4382l-0.2191,4.06554c-0.94132,-0.11361 -1.75281,0.04057 -2.43445,0.46255c-0.68165,0.42197 -1.20911,0.9819 -1.5824,1.67977c-0.35705,0.69787 -0.53558,1.4201 -0.53558,2.16666v4.96629h-4.04119v-12.70785zM270.3726,188.23877v-22.27526h0.04869l11.88014,16.87077l-1.8015,-0.41386l11.85579,-16.45691h0.04869v22.27526h-4.21161v-12.75654l0.26779,2.16666l-7.23033,10.29774h-0.07303l-7.42509,-10.29774l0.73034,-1.99625v12.58613zM296.27301,181.73878c0,-1.29838 0.30836,-2.4588 0.92509,-3.48127c0.61673,-1.0387 1.4769,-1.85019 2.58052,-2.43445c1.10362,-0.6005 2.36954,-0.90075 3.79775,-0.90075c1.46067,0 2.71847,0.30025 3.7734,0.90075c1.07116,0.58427 1.89076,1.39576 2.4588,2.43445c0.56804,1.02247 0.85206,2.18289 0.85206,3.48127c0,1.29838 -0.28402,2.46692 -0.85206,3.50561c-0.56804,1.02247 -1.38764,1.83396 -2.4588,2.43445c-1.05493,0.6005 -2.32896,0.90075 -3.82209,0.90075c-1.39576,0 -2.64544,-0.26779 -3.74906,-0.80337c-1.08739,-0.55181 -1.94756,-1.33895 -2.58052,-2.36142c-0.61673,-1.02247 -0.92509,-2.24782 -0.92509,-3.67603zM300.38723,181.76312c0,0.64919 0.12984,1.24157 0.38951,1.77715c0.27591,0.53558 0.64108,0.95755 1.0955,1.26592c0.47066,0.30836 0.99813,0.46255 1.5824,0.46255c0.64919,0 1.201,-0.15418 1.65543,-0.46255c0.47066,-0.30836 0.82771,-0.73034 1.07116,-1.26592c0.25967,-0.53558 0.38951,-1.12797 0.38951,-1.77715c0,-0.68165 -0.12984,-1.28214 -0.38951,-1.8015c-0.24345,-0.53558 -0.6005,-0.95755 -1.07116,-1.26592c-0.45443,-0.30836 -1.00624,-0.46255 -1.65543,-0.46255c-0.58427,0 -1.11173,0.15418 -1.5824,0.46255c-0.45443,0.30836 -0.8196,0.73034 -1.0955,1.26592c-0.25967,0.51935 -0.38951,1.11985 -0.38951,1.8015zM319.05399,188.57959c-1.18477,0 -2.24782,-0.27591 -3.18914,-0.82771c-0.92509,-0.55181 -1.65543,-1.34707 -2.19101,-2.38577c-0.53558,-1.05493 -0.80337,-2.2965 -0.80337,-3.72472c0,-1.42821 0.29213,-2.64544 0.8764,-3.65168c0.58427,-1.02247 1.37952,-1.79338 2.38577,-2.31273c1.00624,-0.51935 2.15044,-0.77903 3.43258,-0.77903c0.81149,0 1.59051,0.12984 2.33708,0.38951c0.74656,0.24345 1.37141,0.62484 1.87453,1.14419v1.29026v-12.41572h4.04119v22.93256h-4.06554v-2.4588l0.31648,0.85206c-0.66542,0.55181 -1.40387,1.01435 -2.21535,1.38764c-0.81149,0.37329 -1.74469,0.55992 -2.79962,0.55992zM320.36859,185.14701c0.55181,0 1.03059,-0.06492 1.43633,-0.19476c0.42197,-0.14607 0.79525,-0.35705 1.11985,-0.63296c0.3246,-0.29213 0.6005,-0.64919 0.82771,-1.07116v-3.1161c-0.16229,-0.42197 -0.40574,-0.77903 -0.73034,-1.07116c-0.30836,-0.30836 -0.68976,-0.5437 -1.14419,-0.70599c-0.45443,-0.17853 -0.95755,-0.26779 -1.50936,-0.26779c-0.6005,0 -1.16042,0.15418 -1.67977,0.46255c-0.50312,0.29213 -0.90887,0.70599 -1.21723,1.24157c-0.30836,0.51935 -0.46255,1.11985 -0.46255,1.8015c0,0.66542 0.15418,1.27403 0.46255,1.82584c0.30836,0.53558 0.71411,0.95755 1.21723,1.26592c0.51935,0.30836 1.07928,0.46255 1.67977,0.46255z" fill="#ffa3f7" stroke="none" stroke-width="1"/></g></g></svg>