<svg version="1.1" xmlns="http://www.w3.org/2000/svg" xmlns:xlink="http://www.w3.org/1999/xlink" width="49.32268" height="34.91266" viewBox="0,0,49.32268,34.91266"><g transform="translate(-215.33866,-162.54367)"><g data-paper-data="{&quot;isPaintingLayer&quot;:true}" fill="#ffffff" fill-rule="nonzero" stroke-linecap="square" stroke-linejoin="miter" stroke-miterlimit="10" stroke-dasharray="" stroke-dashoffset="0" style="mix-blend-mode: normal"><path d="M235.20509,194.44353h-13.8111c-1.48139,0 -2.44999,-0.31907 -2.9058,-0.95721c-0.43302,-0.63814 -0.64953,-1.21929 -0.64953,-1.74348c0,-1.00279 0.52419,-2.22208 1.57255,-3.65789c1.07117,-1.43581 3.05394,-3.36162 5.94834,-5.77742c2.89441,-2.4158 4.77463,-4.14789 5.64067,-5.19625c0.88883,-1.07117 1.33325,-2.26767 1.33325,-3.58952c0,-1.32185 -0.45582,-2.37023 -1.36744,-3.1451c-0.88884,-0.77488 -1.96,-1.16232 -3.21348,-1.16232c-1.09395,0 -2.05115,0.29627 -2.87162,0.88884c-0.82047,0.56977 -1.42442,1.41302 -1.81186,2.52976c-0.36464,1.11673 -0.7293,1.92581 -1.09394,2.4272c-0.36464,0.4786 -0.94581,0.71791 -1.74348,0.71791c-0.66093,0 -1.21929,-0.21652 -1.67511,-0.64953c-0.45582,-0.43302 -0.68372,-1.01419 -0.68372,-1.74349c0,-2.02837 0.86605,-3.91997 2.59813,-5.67485c1.73208,-1.77767 4.18208,-2.6665 7.34996,-2.6665c3.41859,0 5.92556,0.83186 7.5209,2.49557c1.59534,1.66371 2.39301,3.6123 2.39301,5.84578c0,1.75488 -0.52418,3.42999 -1.57255,5.02533c-1.04836,1.57255 -2.70069,3.27045 -4.95695,5.0937c-2.23348,1.80045 -3.66929,3.00836 -4.30742,3.62371c-0.63814,0.61534 -1.37884,1.4814 -2.22208,2.59813h9.77716c1.4814,0 2.48416,0.21652 3.00835,0.64953c0.54698,0.41023 0.82047,0.98 0.82047,1.70929c0,0.77488 -0.23931,1.36744 -0.71791,1.77767c-0.4786,0.38744 -1.26488,0.58116 -2.35882,0.58116zM257.47787,178.47872c3.12232,1.64092 4.68347,4.02253 4.68347,7.14485c0,2.48417 -0.9686,4.66068 -2.9058,6.52951c-1.91441,1.86882 -4.43277,2.80325 -7.55508,2.80325c-3.09951,0 -5.52671,-0.95721 -7.28159,-2.87162c-1.73208,-1.9372 -2.59813,-3.68067 -2.59813,-5.23044c0,-0.66093 0.23931,-1.2193 0.71791,-1.67511c0.4786,-0.4786 1.08255,-0.71791 1.81185,-0.71791c0.4786,0 0.90023,0.13674 1.26488,0.41023c0.38744,0.2507 0.75209,0.85465 1.09395,1.81186c0.98,2.89441 2.64372,4.34161 4.99114,4.34161c1.27627,0 2.4272,-0.46721 3.45278,-1.40162c1.04836,-0.93442 1.57255,-2.21069 1.57255,-3.82882c0,-1.50418 -0.42164,-2.70069 -1.26488,-3.58952c-0.84324,-0.91162 -1.97138,-1.36744 -3.3844,-1.36744l-2.52976,0.17093c-1.4586,0 -2.1879,-0.67232 -2.1879,-2.01696c0,-1.4586 0.90024,-2.1879 2.70069,-2.1879c2.21069,0 3.66929,-0.42163 4.37579,-1.26488c0.7065,-0.84324 1.05977,-1.76626 1.05977,-2.76905c0,-1.09395 -0.36465,-1.99419 -1.09395,-2.70069c-0.7065,-0.7293 -1.65232,-1.09395 -2.83743,-1.09395c-2.14231,0 -3.60091,1.07116 -4.37579,3.21347c-0.4786,1.27628 -1.23069,1.91441 -2.25627,1.91441c-0.66093,0 -1.20791,-0.21651 -1.64093,-0.64953c-0.41023,-0.45582 -0.61534,-1.00278 -0.61534,-1.64092c0,-1.52697 0.85465,-3.03115 2.56394,-4.51254c1.73208,-1.50418 3.98835,-2.25627 6.76881,-2.25627c2.68928,0 4.8316,0.69512 6.42694,2.08534c1.59534,1.36744 2.39301,3.08813 2.39301,5.16207c0,2.37023 -1.11674,4.43276 -3.35021,6.18765z" stroke="#000000" stroke-width="5"/><path d="M235.20509,194.44354h-13.8111c-1.48139,0 -2.44999,-0.31907 -2.9058,-0.95721c-0.43302,-0.63814 -0.64953,-1.21929 -0.64953,-1.74348c0,-1.00279 0.52419,-2.22208 1.57255,-3.65789c1.07117,-1.43581 3.05394,-3.36162 5.94834,-5.77742c2.89441,-2.4158 4.77463,-4.14789 5.64067,-5.19625c0.88883,-1.07117 1.33325,-2.26767 1.33325,-3.58952c0,-1.32185 -0.45582,-2.37023 -1.36744,-3.1451c-0.88884,-0.77488 -1.96,-1.16232 -3.21348,-1.16232c-1.09395,0 -2.05115,0.29627 -2.87162,0.88884c-0.82047,0.56977 -1.42442,1.41302 -1.81186,2.52976c-0.36464,1.11673 -0.7293,1.92581 -1.09394,2.4272c-0.36464,0.4786 -0.94581,0.71791 -1.74348,0.71791c-0.66093,0 -1.21929,-0.21652 -1.67511,-0.64953c-0.45582,-0.43302 -0.68372,-1.01419 -0.68372,-1.74349c0,-2.02837 0.86605,-3.91997 2.59813,-5.67485c1.73208,-1.77767 4.18208,-2.6665 7.34996,-2.6665c3.41859,0 5.92556,0.83186 7.5209,2.49557c1.59534,1.66371 2.39301,3.6123 2.39301,5.84578c0,1.75488 -0.52418,3.42999 -1.57255,5.02533c-1.04836,1.57255 -2.70069,3.27045 -4.95695,5.0937c-2.23348,1.80045 -3.66929,3.00836 -4.30742,3.62371c-0.63814,0.61534 -1.37884,1.4814 -2.22208,2.59813h9.77716c1.4814,0 2.48416,0.21652 3.00835,0.64953c0.54698,0.41023 0.82047,0.98 0.82047,1.70929c0,0.77488 -0.23931,1.36744 -0.71791,1.77767c-0.4786,0.38744 -1.26488,0.58116 -2.35882,0.58116zM257.47787,178.47873c3.12232,1.64092 4.68347,4.02253 4.68347,7.14485c0,2.48417 -0.9686,4.66068 -2.9058,6.52951c-1.91441,1.86882 -4.43277,2.80325 -7.55508,2.80325c-3.09951,0 -5.52671,-0.95721 -7.28159,-2.87162c-1.73208,-1.9372 -2.59813,-3.68067 -2.59813,-5.23044c0,-0.66093 0.23931,-1.2193 0.71791,-1.67511c0.4786,-0.4786 1.08255,-0.71791 1.81185,-0.71791c0.4786,0 0.90023,0.13674 1.26488,0.41023c0.38744,0.2507 0.75209,0.85465 1.09395,1.81186c0.98,2.89441 2.64372,4.34161 4.99114,4.34161c1.27627,0 2.4272,-0.46721 3.45278,-1.40162c1.04836,-0.93442 1.57255,-2.21069 1.57255,-3.82882c0,-1.50418 -0.42164,-2.70069 -1.26488,-3.58952c-0.84324,-0.91162 -1.97138,-1.36744 -3.3844,-1.36744l-2.52976,0.17093c-1.4586,0 -2.1879,-0.67232 -2.1879,-2.01696c0,-1.4586 0.90024,-2.1879 2.70069,-2.1879c2.21069,0 3.66929,-0.42163 4.37579,-1.26488c0.7065,-0.84324 1.05977,-1.76626 1.05977,-2.76905c0,-1.09395 -0.36465,-1.99419 -1.09395,-2.70069c-0.7065,-0.7293 -1.65232,-1.09395 -2.83743,-1.09395c-2.14231,0 -3.60091,1.07116 -4.37579,3.21347c-0.4786,1.27628 -1.23069,1.91441 -2.25627,1.91441c-0.66093,0 -1.20791,-0.21651 -1.64093,-0.64953c-0.41023,-0.45582 -0.61534,-1.00278 -0.61534,-1.64092c0,-1.52697 0.85465,-3.03115 2.56394,-4.51254c1.73208,-1.50418 3.98835,-2.25627 6.76881,-2.25627c2.68928,0 4.8316,0.69512 6.42694,2.08534c1.59534,1.36744 2.39301,3.08813 2.39301,5.16207c0,2.37023 -1.11674,4.43276 -3.35021,6.18765z" stroke="none" stroke-width="1"/></g></g></svg>