<svg version="1.1" xmlns="http://www.w3.org/2000/svg" xmlns:xlink="http://www.w3.org/1999/xlink" width="266.87086" height="23.90625" viewBox="0,0,266.87086,23.90625"><g transform="translate(-106.56457,-168.04687)"><g data-paper-data="{&quot;isPaintingLayer&quot;:true}" fill="#ffffff" fill-rule="nonzero" stroke="none" stroke-width="1" stroke-linecap="square" stroke-linejoin="miter" stroke-miterlimit="10" stroke-dasharray="" stroke-dashoffset="0" style="mix-blend-mode: normal"><path d="M120.63811,185.98594h-3.828l-4.69118,-9.70136l-1.72635,9.70136h-3.828l2.77718,-15.72483h3.828l4.69118,9.73889l1.72635,-9.73889h3.828zM129.1364,186.17359c-1.07585,0 -2.03285,-0.21892 -2.871,-0.65677c-0.83816,-0.43785 -1.48867,-1.05082 -1.95153,-1.83894c-0.45035,-0.78812 -0.67553,-1.70759 -0.67553,-2.75841c0,-1.41361 0.33776,-2.70212 1.01329,-3.86553c0.67553,-1.17592 1.60126,-2.09539 2.77718,-2.75841c1.17592,-0.66302 2.48945,-0.99453 3.94059,-0.99453c1.07585,0 2.03285,0.22518 2.871,0.67553c0.85067,0.43785 1.50743,1.05082 1.9703,1.83894c0.46286,0.78812 0.69429,1.70759 0.69429,2.75841c0,1.42612 -0.34402,2.72088 -1.03206,3.8843c-0.67553,1.1509 -1.60751,2.05786 -2.79594,2.72088c-1.18843,0.66302 -2.50196,0.99453 -3.94059,0.99453zM129.66181,182.871c0.62549,0 1.18843,-0.18765 1.68882,-0.56294c0.50039,-0.3878 0.8882,-0.88194 1.16341,-1.48241c0.28773,-0.61298 0.43159,-1.24473 0.43159,-1.89524c0,-0.75059 -0.20641,-1.32604 -0.61924,-1.72635c-0.40032,-0.40032 -0.90696,-0.60047 -1.51994,-0.60047c-0.638,0 -1.20094,0.1939 -1.68882,0.58171c-0.48788,0.37529 -0.86943,0.86943 -1.14465,1.48241c-0.26271,0.61298 -0.39406,1.25098 -0.39406,1.914c0,0.73808 0.1939,1.30727 0.58171,1.70759c0.3878,0.3878 0.8882,0.58171 1.50118,0.58171zM148.58405,175.25253c0.47537,-0.57545 1.07585,-1.04457 1.80141,-1.40735c0.73808,-0.36279 1.53871,-0.54418 2.40188,-0.54418c1.35106,0 2.43941,0.43785 3.26506,1.31353c0.82565,0.87568 1.23847,2.06412 1.23847,3.5653c0,0.48788 -0.04379,1.00079 -0.13135,1.53871c-0.22518,1.276 -0.66927,2.40814 -1.33229,3.39641c-0.65051,0.97577 -1.43863,1.73261 -2.36435,2.27053c-0.92573,0.52541 -1.90774,0.78812 -2.94606,0.78812c-0.87568,0 -1.61377,-0.17514 -2.21424,-0.52541c-0.58796,-0.36279 -1.01955,-0.8319 -1.29477,-1.40735l-0.319,1.74512h-3.828l2.94606,-16.58801h3.828zM153.27523,179.71853c0.05004,-0.26271 0.07506,-0.49414 0.07506,-0.69429c0,-0.75059 -0.21267,-1.33229 -0.638,-1.74512c-0.42533,-0.42533 -0.96951,-0.638 -1.63253,-0.638c-0.7631,0 -1.45739,0.27521 -2.08288,0.82565c-0.62549,0.55043 -1.0258,1.30727 -1.20094,2.27053c-0.05004,0.26271 -0.07506,0.50665 -0.07506,0.73182c0,0.73808 0.20641,1.31979 0.61924,1.74512c0.42533,0.41282 0.96951,0.61924 1.63253,0.61924c0.7631,0 1.45739,-0.28147 2.08288,-0.84441c0.638,-0.56294 1.04457,-1.31979 1.21971,-2.27053zM163.79711,186.17359c-1.07585,0 -2.03285,-0.21892 -2.871,-0.65677c-0.83816,-0.43785 -1.48867,-1.05082 -1.95153,-1.83894c-0.45035,-0.78812 -0.67553,-1.70759 -0.67553,-2.75841c0,-1.41361 0.33776,-2.70212 1.01329,-3.86553c0.67553,-1.17592 1.60126,-2.09539 2.77718,-2.75841c1.17592,-0.66302 2.48945,-0.99453 3.94059,-0.99453c1.07585,0 2.03285,0.22518 2.871,0.67553c0.85067,0.43785 1.50743,1.05082 1.9703,1.83894c0.46286,0.78812 0.69429,1.70759 0.69429,2.75841c0,1.42612 -0.34402,2.72088 -1.03206,3.8843c-0.67553,1.1509 -1.60751,2.05786 -2.79594,2.72088c-1.18843,0.66302 -2.50196,0.99453 -3.94059,0.99453zM164.32252,182.871c0.62549,0 1.18843,-0.18765 1.68882,-0.56294c0.50039,-0.3878 0.8882,-0.88194 1.16341,-1.48241c0.28773,-0.61298 0.43159,-1.24473 0.43159,-1.89524c0,-0.75059 -0.20641,-1.32604 -0.61924,-1.72635c-0.40032,-0.40032 -0.90696,-0.60047 -1.51994,-0.60047c-0.638,0 -1.20094,0.1939 -1.68882,0.58171c-0.48788,0.37529 -0.86943,0.86943 -1.14465,1.48241c-0.26271,0.61298 -0.39406,1.25098 -0.39406,1.914c0,0.73808 0.1939,1.30727 0.58171,1.70759c0.3878,0.3878 0.8882,0.58171 1.50118,0.58171zM172.70243,179.71853c0.22518,-1.28851 0.66302,-2.41439 1.31353,-3.37765c0.66302,-0.97577 1.45739,-1.72635 2.38312,-2.25177c0.92573,-0.52541 1.90774,-0.78812 2.94606,-0.78812c0.81314,0 1.5262,0.17514 2.13918,0.52541c0.62549,0.33776 1.0821,0.80063 1.36982,1.38859l1.03206,-5.81706h3.828l-2.9273,16.58801h-3.828l0.30024,-1.80141c-0.47537,0.60047 -1.06959,1.0821 -1.78265,1.44488c-0.71306,0.36279 -1.51369,0.54418 -2.40188,0.54418c-0.87568,0 -1.65755,-0.20015 -2.34559,-0.60047c-0.67553,-0.41282 -1.2072,-0.98827 -1.595,-1.72635c-0.37529,-0.75059 -0.56294,-1.62627 -0.56294,-2.62706c0,-0.46286 0.04379,-0.96326 0.13135,-1.50118zM182.06602,179.73729c0.05004,-0.27521 0.07506,-0.52541 0.07506,-0.75059c0,-0.72557 -0.21267,-1.29477 -0.638,-1.70759c-0.42533,-0.42533 -0.96951,-0.638 -1.63253,-0.638c-0.7631,0 -1.45739,0.27521 -2.08288,0.82565c-0.62549,0.53792 -1.01955,1.28851 -1.18218,2.25177c-0.05004,0.26271 -0.07506,0.50665 -0.07506,0.73182c0,0.73808 0.21267,1.31979 0.638,1.74512c0.42533,0.42533 0.96326,0.638 1.61377,0.638c0.7631,0 1.45739,-0.27521 2.08288,-0.82565c0.62549,-0.56294 1.0258,-1.31979 1.20094,-2.27053zM191.93113,172.17511c-0.60047,0 -1.07585,-0.15637 -1.42612,-0.46912c-0.35027,-0.32526 -0.52541,-0.73182 -0.52541,-1.21971c0,-0.67553 0.26271,-1.25098 0.78812,-1.72635c0.52541,-0.47537 1.15716,-0.71306 1.89524,-0.71306c0.60047,0 1.06959,0.16263 1.40735,0.48788c0.35027,0.31274 0.52541,0.72557 0.52541,1.23847c0,0.65051 -0.26271,1.21345 -0.78812,1.68882c-0.52541,0.47537 -1.1509,0.71306 -1.87647,0.71306zM193.58243,173.48864l-2.19547,12.4973h-3.828l2.19547,-12.4973zM201.97458,173.301c1.61377,0 2.88977,0.43785 3.828,1.31353c0.95074,0.87568 1.42612,2.06412 1.42612,3.5653c0,0.50039 -0.03753,0.94449 -0.11259,1.33229c-0.06255,0.33776 -0.15012,0.70055 -0.26271,1.08835h-8.6693c-0.01251,0.10008 -0.01876,0.24394 -0.01876,0.43159c0,0.66302 0.17514,1.16967 0.52541,1.51994c0.36279,0.33776 0.84441,0.50665 1.44488,0.50665c0.95074,0 1.68257,-0.40657 2.19547,-1.21971h4.07194c-0.53792,1.276 -1.41361,2.32057 -2.62706,3.13371c-1.20094,0.80063 -2.55826,1.20094 -4.07194,1.20094c-1.61377,0 -2.90227,-0.45035 -3.86553,-1.35106c-0.96326,-0.90071 -1.44488,-2.12041 -1.44488,-3.65912c0,-0.46286 0.04379,-0.93824 0.13135,-1.42612c0.22518,-1.30102 0.68804,-2.43316 1.38859,-3.39641c0.70055,-0.97577 1.57624,-1.72635 2.62706,-2.25177c1.05082,-0.52541 2.19547,-0.78812 3.43394,-0.78812zM203.36317,178.66771c0.02502,-0.21267 0.03753,-0.35653 0.03753,-0.43159c0,-0.60047 -0.18765,-1.05708 -0.56294,-1.36982c-0.37529,-0.32526 -0.86943,-0.48788 -1.48241,-0.48788c-0.65051,0 -1.22596,0.20015 -1.72635,0.60047c-0.50039,0.3878 -0.86318,0.95074 -1.08835,1.68882zM213.16781,186.17359c-0.98827,0 -1.87647,-0.15637 -2.66459,-0.46912c-0.77561,-0.32526 -1.38859,-0.7631 -1.83894,-1.31353c-0.45035,-0.56294 -0.67553,-1.21345 -0.67553,-1.95153c0,-0.10008 0.01876,-0.28773 0.05629,-0.56294h3.69665c-0.03753,0.47537 0.09382,0.85067 0.39406,1.12588c0.31274,0.27521 0.75685,0.41282 1.33229,0.41282c0.47537,0 0.86943,-0.08757 1.18218,-0.26271c0.31274,-0.18765 0.46912,-0.4441 0.46912,-0.76935c0,-0.31274 -0.16888,-0.56294 -0.50665,-0.75059c-0.33776,-0.18765 -0.89445,-0.41908 -1.67006,-0.69429c-0.80063,-0.26271 -1.47616,-0.52541 -2.02659,-0.78812c-0.53792,-0.26271 -1.00704,-0.638 -1.40735,-1.12588c-0.3878,-0.50039 -0.58171,-1.11963 -0.58171,-1.85771c0,-0.73808 0.21892,-1.4011 0.65677,-1.98906c0.43785,-0.58796 1.04457,-1.04457 1.82018,-1.36982c0.78812,-0.33776 1.69508,-0.50665 2.72088,-0.50665c1.03832,0 1.93902,0.16888 2.70212,0.50665c0.7631,0.33776 1.35106,0.80688 1.76388,1.40735c0.42533,0.58796 0.638,1.25724 0.638,2.00782l-0.03753,0.33776h-3.47147c0.03753,-0.45035 -0.09382,-0.80688 -0.39406,-1.06959c-0.30024,-0.27521 -0.72557,-0.41282 -1.276,-0.41282c-0.43785,0 -0.79438,0.09382 -1.06959,0.28147c-0.27521,0.17514 -0.41282,0.41908 -0.41282,0.73182c0,0.32526 0.18139,0.60047 0.54418,0.82565c0.36279,0.21267 0.93198,0.45035 1.70759,0.71306c0.81314,0.27521 1.48241,0.54418 2.00782,0.80688c0.53792,0.26271 0.99453,0.63174 1.36982,1.10712c0.3878,0.46286 0.58171,1.04457 0.58171,1.74512c0,0.80063 -0.24394,1.49492 -0.73182,2.08288c-0.48788,0.58796 -1.15716,1.03832 -2.00782,1.35106c-0.83816,0.30024 -1.79516,0.45035 -2.871,0.45035zM230.84542,181.68882c-0.01251,0.07506 -0.01876,0.16888 -0.01876,0.28147c0,0.27521 0.07506,0.47537 0.22518,0.60047c0.16263,0.11259 0.42533,0.16888 0.78812,0.16888h1.36982l-0.60047,3.2463h-1.93277c-2.51447,0 -3.77171,-1.05082 -3.77171,-3.15247c0,-0.31274 0.03753,-0.71306 0.11259,-1.20094l0.90071,-4.97265h-1.51994l0.54418,-3.17124h1.53871l0.52541,-3.05865h3.828l-0.52541,3.05865h2.49571l-0.54418,3.17124h-2.51447zM240.46725,186.17359c-1.07585,0 -2.03285,-0.21892 -2.871,-0.65677c-0.83816,-0.43785 -1.48867,-1.05082 -1.95153,-1.83894c-0.45035,-0.78812 -0.67553,-1.70759 -0.67553,-2.75841c0,-1.41361 0.33776,-2.70212 1.01329,-3.86553c0.67553,-1.17592 1.60126,-2.09539 2.77718,-2.75841c1.17592,-0.66302 2.48945,-0.99453 3.94059,-0.99453c1.07585,0 2.03285,0.22518 2.871,0.67553c0.85067,0.43785 1.50743,1.05082 1.9703,1.83894c0.46286,0.78812 0.69429,1.70759 0.69429,2.75841c0,1.42612 -0.34402,2.72088 -1.03206,3.8843c-0.67553,1.1509 -1.60751,2.05786 -2.79594,2.72088c-1.18843,0.66302 -2.50196,0.99453 -3.94059,0.99453zM240.99266,182.871c0.62549,0 1.18843,-0.18765 1.68882,-0.56294c0.50039,-0.3878 0.8882,-0.88194 1.16341,-1.48241c0.28773,-0.61298 0.43159,-1.24473 0.43159,-1.89524c0,-0.75059 -0.20641,-1.32604 -0.61924,-1.72635c-0.40032,-0.40032 -0.90696,-0.60047 -1.51994,-0.60047c-0.638,0 -1.20094,0.1939 -1.68882,0.58171c-0.48788,0.37529 -0.86943,0.86943 -1.14465,1.48241c-0.26271,0.61298 -0.39406,1.25098 -0.39406,1.914c0,0.73808 0.1939,1.30727 0.58171,1.70759c0.3878,0.3878 0.8882,0.58171 1.50118,0.58171zM259.38949,181.68882c-0.01251,0.07506 -0.01876,0.16888 -0.01876,0.28147c0,0.27521 0.07506,0.47537 0.22518,0.60047c0.16263,0.11259 0.42533,0.16888 0.78812,0.16888h1.36982l-0.60047,3.2463h-1.93277c-2.51447,0 -3.77171,-1.05082 -3.77171,-3.15247c0,-0.31274 0.03753,-0.71306 0.11259,-1.20094l0.90071,-4.97265h-1.51994l0.54418,-3.17124h1.53871l0.52541,-3.05865h3.828l-0.52541,3.05865h2.49571l-0.54418,3.17124h-2.51447zM271.0942,173.301c1.61377,0 2.88977,0.43785 3.828,1.31353c0.95074,0.87568 1.42612,2.06412 1.42612,3.5653c0,0.50039 -0.03753,0.94449 -0.11259,1.33229c-0.06255,0.33776 -0.15012,0.70055 -0.26271,1.08835h-8.6693c-0.01251,0.10008 -0.01876,0.24394 -0.01876,0.43159c0,0.66302 0.17514,1.16967 0.52541,1.51994c0.36279,0.33776 0.84441,0.50665 1.44488,0.50665c0.95074,0 1.68257,-0.40657 2.19547,-1.21971h4.07194c-0.53792,1.276 -1.41361,2.32057 -2.62706,3.13371c-1.20094,0.80063 -2.55826,1.20094 -4.07194,1.20094c-1.61377,0 -2.90227,-0.45035 -3.86553,-1.35106c-0.96326,-0.90071 -1.44488,-2.12041 -1.44488,-3.65912c0,-0.46286 0.04379,-0.93824 0.13135,-1.42612c0.22518,-1.30102 0.68804,-2.43316 1.38859,-3.39641c0.70055,-0.97577 1.57624,-1.72635 2.62706,-2.25177c1.05082,-0.52541 2.19547,-0.78812 3.43394,-0.78812zM272.48279,178.66771c0.02502,-0.21267 0.03753,-0.35653 0.03753,-0.43159c0,-0.60047 -0.18765,-1.05708 -0.56294,-1.36982c-0.37529,-0.32526 -0.86943,-0.48788 -1.48241,-0.48788c-0.65051,0 -1.22596,0.20015 -1.72635,0.60047c-0.50039,0.3878 -0.86318,0.95074 -1.08835,1.68882zM283.86366,169.39793l-2.94606,16.58801h-3.828l2.94606,-16.58801zM291.50523,173.301c1.61377,0 2.88977,0.43785 3.828,1.31353c0.95074,0.87568 1.42612,2.06412 1.42612,3.5653c0,0.50039 -0.03753,0.94449 -0.11259,1.33229c-0.06255,0.33776 -0.15012,0.70055 -0.26271,1.08835h-8.6693c-0.01251,0.10008 -0.01876,0.24394 -0.01876,0.43159c0,0.66302 0.17514,1.16967 0.52541,1.51994c0.36279,0.33776 0.84441,0.50665 1.44488,0.50665c0.95074,0 1.68257,-0.40657 2.19547,-1.21971h4.07194c-0.53792,1.276 -1.41361,2.32057 -2.62706,3.13371c-1.20094,0.80063 -2.55826,1.20094 -4.07194,1.20094c-1.61377,0 -2.90227,-0.45035 -3.86553,-1.35106c-0.96326,-0.90071 -1.44488,-2.12041 -1.44488,-3.65912c0,-0.46286 0.04379,-0.93824 0.13135,-1.42612c0.22518,-1.30102 0.68804,-2.43316 1.38859,-3.39641c0.70055,-0.97577 1.57624,-1.72635 2.62706,-2.25177c1.05082,-0.52541 2.19547,-0.78812 3.43394,-0.78812zM292.89382,178.66771c0.02502,-0.21267 0.03753,-0.35653 0.03753,-0.43159c0,-0.60047 -0.18765,-1.05708 -0.56294,-1.36982c-0.37529,-0.32526 -0.86943,-0.48788 -1.48241,-0.48788c-0.65051,0 -1.22596,0.20015 -1.72635,0.60047c-0.50039,0.3878 -0.86318,0.95074 -1.08835,1.68882zM303.22387,175.25253c0.47537,-0.57545 1.07585,-1.04457 1.80141,-1.40735c0.72557,-0.36279 1.5262,-0.54418 2.40188,-0.54418c1.35106,0 2.43941,0.4441 3.26506,1.33229c0.82565,0.87568 1.23847,2.07038 1.23847,3.58406c0,0.46286 -0.04379,0.96326 -0.13135,1.50118c-0.22518,1.276 -0.66927,2.40814 -1.33229,3.39641c-0.65051,0.97577 -1.43863,1.73261 -2.36435,2.27053c-0.92573,0.52541 -1.90774,0.78812 -2.94606,0.78812c-0.86318,0 -1.595,-0.18139 -2.19547,-0.54418c-0.58796,-0.36279 -1.0258,-0.82565 -1.31353,-1.38859l-1.36982,7.7123h-3.828l3.2463,-18.46448h3.828zM307.91505,179.71853c0.05004,-0.26271 0.07506,-0.49414 0.07506,-0.69429c0,-0.75059 -0.21267,-1.33229 -0.638,-1.74512c-0.42533,-0.42533 -0.96951,-0.638 -1.63253,-0.638c-0.7631,0 -1.45739,0.27521 -2.08288,0.82565c-0.62549,0.55043 -1.0258,1.30727 -1.20094,2.27053c-0.05004,0.26271 -0.07506,0.50665 -0.07506,0.73182c0,0.73808 0.20641,1.31979 0.61924,1.74512c0.42533,0.41282 0.96951,0.61924 1.63253,0.61924c0.7631,0 1.45739,-0.28147 2.08288,-0.84441c0.638,-0.56294 1.04457,-1.31979 1.21971,-2.27053zM318.43693,186.17359c-1.07585,0 -2.03285,-0.21892 -2.871,-0.65677c-0.83816,-0.43785 -1.48867,-1.05082 -1.95153,-1.83894c-0.45035,-0.78812 -0.67553,-1.70759 -0.67553,-2.75841c0,-1.41361 0.33776,-2.70212 1.01329,-3.86553c0.67553,-1.17592 1.60126,-2.09539 2.77718,-2.75841c1.17592,-0.66302 2.48945,-0.99453 3.94059,-0.99453c1.07585,0 2.03285,0.22518 2.871,0.67553c0.85067,0.43785 1.50743,1.05082 1.9703,1.83894c0.46286,0.78812 0.69429,1.70759 0.69429,2.75841c0,1.42612 -0.34402,2.72088 -1.03206,3.8843c-0.67553,1.1509 -1.60751,2.05786 -2.79594,2.72088c-1.18843,0.66302 -2.50196,0.99453 -3.94059,0.99453zM318.96234,182.871c0.62549,0 1.18843,-0.18765 1.68882,-0.56294c0.50039,-0.3878 0.8882,-0.88194 1.16341,-1.48241c0.28773,-0.61298 0.43159,-1.24473 0.43159,-1.89524c0,-0.75059 -0.20641,-1.32604 -0.61924,-1.72635c-0.40032,-0.40032 -0.90696,-0.60047 -1.51994,-0.60047c-0.638,0 -1.20094,0.1939 -1.68882,0.58171c-0.48788,0.37529 -0.86943,0.86943 -1.14465,1.48241c-0.26271,0.61298 -0.39406,1.25098 -0.39406,1.914c0,0.73808 0.1939,1.30727 0.58171,1.70759c0.3878,0.3878 0.8882,0.58171 1.50118,0.58171zM332.61513,175.74041c0.57545,-0.73808 1.23847,-1.31979 1.98906,-1.74512c0.7631,-0.42533 1.55747,-0.638 2.38312,-0.638l-0.73182,4.05318h-1.05082c-0.95074,0 -1.70133,0.20641 -2.25177,0.61924c-0.55043,0.40032 -0.91947,1.11963 -1.10712,2.15794l-1.03206,5.7983h-3.828l2.19547,-12.4973h3.828zM341.7729,181.68882c-0.01251,0.07506 -0.01876,0.16888 -0.01876,0.28147c0,0.27521 0.07506,0.47537 0.22518,0.60047c0.16263,0.11259 0.42533,0.16888 0.78812,0.16888h1.36982l-0.60047,3.2463h-1.93277c-2.51447,0 -3.77171,-1.05082 -3.77171,-3.15247c0,-0.31274 0.03753,-0.71306 0.11259,-1.20094l0.90071,-4.97265h-1.51994l0.54418,-3.17124h1.53871l0.52541,-3.05865h3.828l-0.52541,3.05865h2.49571l-0.54418,3.17124h-2.51447zM356.04493,181.68882c-0.01251,0.07506 -0.01876,0.16888 -0.01876,0.28147c0,0.27521 0.07506,0.47537 0.22518,0.60047c0.16263,0.11259 0.42533,0.16888 0.78812,0.16888h1.36982l-0.60047,3.2463h-1.93277c-2.51447,0 -3.77171,-1.05082 -3.77171,-3.15247c0,-0.31274 0.03753,-0.71306 0.11259,-1.20094l0.90071,-4.97265h-1.51994l0.54418,-3.17124h1.53871l0.52541,-3.05865h3.828l-0.52541,3.05865h2.49571l-0.54418,3.17124h-2.51447zM365.66684,186.17359c-1.07585,0 -2.03285,-0.21892 -2.871,-0.65677c-0.83816,-0.43785 -1.48867,-1.05082 -1.95153,-1.83894c-0.45035,-0.78812 -0.67553,-1.70759 -0.67553,-2.75841c0,-1.41361 0.33776,-2.70212 1.01329,-3.86553c0.67553,-1.17592 1.60126,-2.09539 2.77718,-2.75841c1.17592,-0.66302 2.48945,-0.99453 3.94059,-0.99453c1.07585,0 2.03285,0.22518 2.871,0.67553c0.85067,0.43785 1.50743,1.05082 1.9703,1.83894c0.46286,0.78812 0.69429,1.70759 0.69429,2.75841c0,1.42612 -0.34402,2.72088 -1.03206,3.8843c-0.67553,1.1509 -1.60751,2.05786 -2.79594,2.72088c-1.18843,0.66302 -2.50196,0.99453 -3.94059,0.99453zM366.19225,182.871c0.62549,0 1.18843,-0.18765 1.68882,-0.56294c0.50039,-0.3878 0.8882,-0.88194 1.16341,-1.48241c0.28773,-0.61298 0.43159,-1.24473 0.43159,-1.89524c0,-0.75059 -0.20641,-1.32604 -0.61924,-1.72635c-0.40032,-0.40032 -0.90696,-0.60047 -1.51994,-0.60047c-0.638,0 -1.20094,0.1939 -1.68882,0.58171c-0.48788,0.37529 -0.86943,0.86943 -1.14465,1.48241c-0.26271,0.61298 -0.39406,1.25098 -0.39406,1.914c0,0.73808 0.1939,1.30727 0.58171,1.70759c0.3878,0.3878 0.8882,0.58171 1.50118,0.58171z"/></g></g></svg>