<svg version="1.1" xmlns="http://www.w3.org/2000/svg" xmlns:xlink="http://www.w3.org/1999/xlink" width="49.66454" height="34.91264" viewBox="0,0,49.66454,34.91264"><g transform="translate(-215.16773,-162.54368)"><g data-paper-data="{&quot;isPaintingLayer&quot;:true}" fill="#ffffff" fill-rule="nonzero" stroke-linecap="square" stroke-linejoin="miter" stroke-miterlimit="10" stroke-dasharray="" stroke-dashoffset="0" style="mix-blend-mode: normal"><path d="M235.03417,194.44356h-13.8111c-1.48139,0 -2.44999,-0.31907 -2.9058,-0.95721c-0.43302,-0.63813 -0.64953,-1.21928 -0.64953,-1.74347c0,-1.00279 0.52419,-2.22209 1.57255,-3.6579c1.07117,-1.43581 3.05394,-3.36162 5.94834,-5.77741c2.89441,-2.4158 4.77463,-4.14789 5.64067,-5.19625c0.88883,-1.07116 1.33325,-2.26767 1.33325,-3.58952c0,-1.32185 -0.45582,-2.37023 -1.36744,-3.14511c-0.88884,-0.77487 -1.96,-1.16232 -3.21348,-1.16232c-1.09395,0 -2.05115,0.29627 -2.87162,0.88884c-0.82047,0.56977 -1.42442,1.41302 -1.81186,2.52975c-0.36464,1.11674 -0.7293,1.92581 -1.09394,2.4272c-0.36464,0.4786 -0.94581,0.7179 -1.74348,0.7179c-0.66093,0 -1.21929,-0.21652 -1.67511,-0.64953c-0.45582,-0.43301 -0.68372,-1.01419 -0.68372,-1.74349c0,-2.02837 0.86605,-3.91997 2.59813,-5.67485c1.73208,-1.77767 4.18208,-2.66651 7.34996,-2.66651c3.41859,0 5.92556,0.83186 7.5209,2.49557c1.59534,1.66371 2.39301,3.6123 2.39301,5.84578c0,1.75488 -0.52418,3.42999 -1.57255,5.02533c-1.04836,1.57255 -2.70069,3.27044 -4.95695,5.09369c-2.23348,1.80045 -3.66929,3.00836 -4.30742,3.62371c-0.63814,0.61534 -1.37884,1.48139 -2.22208,2.59812h9.77716c1.4814,0 2.48416,0.21652 3.00835,0.64954c0.54698,0.41023 0.82047,0.98 0.82047,1.7093c0,0.77488 -0.23931,1.36744 -0.71791,1.77766c-0.4786,0.38744 -1.26488,0.58116 -2.35882,0.58116zM249.06815,170.17156l-1.09394,6.42694c1.70929,-1.00279 3.44137,-1.50417 5.19625,-1.50417c2.48418,0 4.6265,0.88882 6.42695,2.66649c1.82325,1.77767 2.73487,4.04534 2.73487,6.80299c0,2.84882 -0.9686,5.29881 -2.9058,7.34996c-1.91441,2.02837 -4.43277,3.04255 -7.55508,3.04255c-3.41859,0 -5.94835,-0.90024 -7.58927,-2.70068c-1.61813,-1.80045 -2.4272,-3.36162 -2.4272,-4.68346c0,-0.45582 0.20511,-0.92303 0.61534,-1.40163c0.41023,-0.4786 0.95721,-0.7179 1.64092,-0.7179c0.93442,0 1.76627,0.64953 2.49557,1.94859c0.86604,1.52697 1.68651,2.54116 2.46138,3.04255c0.79768,0.4786 1.68651,0.7179 2.6665,0.7179c1.61813,0 2.86021,-0.60395 3.72626,-1.81185c0.88883,-1.23069 1.33325,-2.71209 1.33325,-4.44417c0,-1.86883 -0.4786,-3.31603 -1.43581,-4.34161c-0.9572,-1.02557 -2.1765,-1.53837 -3.65789,-1.53837c-0.7065,0 -1.42441,0.12535 -2.15371,0.37605c-0.7065,0.2507 -1.61814,0.88884 -2.73487,1.91441c-0.52419,0.41023 -1.12814,0.61534 -1.81186,0.61534c-0.61534,0 -1.1851,-0.2279 -1.70929,-0.68371c-0.52419,-0.45582 -0.78627,-0.98 -0.78627,-1.57256c0,-0.15953 0.07977,-0.62674 0.2393,-1.40161l1.67511,-9.53786c0.2279,-1.39022 0.63813,-2.27907 1.23069,-2.66651c0.61534,-0.38744 1.56115,-0.58116 2.83743,-0.58116h9.50368c0.93442,0 1.59534,0.05697 1.98278,0.17093c0.38744,0.09116 0.74069,0.35326 1.05976,0.78628c0.31907,0.41023 0.47861,0.87743 0.47861,1.40162c0,1.54976 -1.11674,2.32464 -3.35022,2.32464z" stroke="#000000" stroke-width="5"/><path d="M235.03417,194.44357h-13.8111c-1.48139,0 -2.44999,-0.31907 -2.9058,-0.95721c-0.43302,-0.63813 -0.64953,-1.21928 -0.64953,-1.74347c0,-1.00279 0.52419,-2.22209 1.57255,-3.6579c1.07117,-1.43581 3.05394,-3.36162 5.94834,-5.77741c2.89441,-2.4158 4.77463,-4.14789 5.64067,-5.19625c0.88883,-1.07116 1.33325,-2.26767 1.33325,-3.58952c0,-1.32185 -0.45582,-2.37023 -1.36744,-3.14511c-0.88884,-0.77487 -1.96,-1.16232 -3.21348,-1.16232c-1.09395,0 -2.05115,0.29627 -2.87162,0.88884c-0.82047,0.56977 -1.42442,1.41302 -1.81186,2.52975c-0.36464,1.11674 -0.7293,1.92581 -1.09394,2.4272c-0.36464,0.4786 -0.94581,0.7179 -1.74348,0.7179c-0.66093,0 -1.21929,-0.21652 -1.67511,-0.64953c-0.45582,-0.43301 -0.68372,-1.01419 -0.68372,-1.74349c0,-2.02837 0.86605,-3.91997 2.59813,-5.67485c1.73208,-1.77767 4.18208,-2.66651 7.34996,-2.66651c3.41859,0 5.92556,0.83186 7.5209,2.49557c1.59534,1.66371 2.39301,3.6123 2.39301,5.84578c0,1.75488 -0.52418,3.42999 -1.57255,5.02533c-1.04836,1.57255 -2.70069,3.27044 -4.95695,5.09369c-2.23348,1.80045 -3.66929,3.00836 -4.30742,3.62371c-0.63814,0.61534 -1.37884,1.48139 -2.22208,2.59812h9.77716c1.4814,0 2.48416,0.21652 3.00835,0.64954c0.54698,0.41023 0.82047,0.98 0.82047,1.7093c0,0.77488 -0.23931,1.36744 -0.71791,1.77766c-0.4786,0.38744 -1.26488,0.58116 -2.35882,0.58116zM249.06815,170.17157l-1.09394,6.42694c1.70929,-1.00279 3.44137,-1.50417 5.19625,-1.50417c2.48418,0 4.6265,0.88882 6.42695,2.66649c1.82325,1.77767 2.73487,4.04534 2.73487,6.80299c0,2.84882 -0.9686,5.29881 -2.9058,7.34996c-1.91441,2.02837 -4.43277,3.04255 -7.55508,3.04255c-3.41859,0 -5.94835,-0.90024 -7.58927,-2.70068c-1.61813,-1.80045 -2.4272,-3.36162 -2.4272,-4.68346c0,-0.45582 0.20511,-0.92303 0.61534,-1.40163c0.41023,-0.4786 0.95721,-0.7179 1.64092,-0.7179c0.93442,0 1.76627,0.64953 2.49557,1.94859c0.86604,1.52697 1.68651,2.54116 2.46138,3.04255c0.79768,0.4786 1.68651,0.7179 2.6665,0.7179c1.61813,0 2.86021,-0.60395 3.72626,-1.81185c0.88883,-1.23069 1.33325,-2.71209 1.33325,-4.44417c0,-1.86883 -0.4786,-3.31603 -1.43581,-4.34161c-0.9572,-1.02557 -2.1765,-1.53837 -3.65789,-1.53837c-0.7065,0 -1.42441,0.12535 -2.15371,0.37605c-0.7065,0.2507 -1.61814,0.88884 -2.73487,1.91441c-0.52419,0.41023 -1.12814,0.61534 -1.81186,0.61534c-0.61534,0 -1.1851,-0.2279 -1.70929,-0.68371c-0.52419,-0.45582 -0.78627,-0.98 -0.78627,-1.57256c0,-0.15953 0.07977,-0.62674 0.2393,-1.40161l1.67511,-9.53786c0.2279,-1.39022 0.63813,-2.27907 1.23069,-2.66651c0.61534,-0.38744 1.56115,-0.58116 2.83743,-0.58116h9.50368c0.93442,0 1.59534,0.05697 1.98278,0.17093c0.38744,0.09116 0.74069,0.35326 1.05976,0.78628c0.31907,0.41023 0.47861,0.87743 0.47861,1.40162c0,1.54976 -1.11674,2.32464 -3.35022,2.32464z" stroke="none" stroke-width="1"/></g></g></svg>