<svg version="1.1" xmlns="http://www.w3.org/2000/svg" xmlns:xlink="http://www.w3.org/1999/xlink" width="375.75269" height="144.54054" viewBox="0,0,375.75269,144.54054"><g transform="translate(-42.35707,-117.07188)"><g data-paper-data="{&quot;isPaintingLayer&quot;:true}" fill-rule="nonzero" stroke-linejoin="miter" stroke-miterlimit="10" stroke-dasharray="" stroke-dashoffset="0" style="mix-blend-mode: normal"><path d="M378.44587,149.35488c0,0 -15.9713,-12.49168 -20.17019,10.00838c-4.45351,21.64781 24.78105,19.073 24.06541,39.5597c-0.94901,7.63465 -5.64951,18.01205 -17.44074,15.55035c-11.53255,-2.40769 -7.21682,-23.59375 -7.21682,-23.59375" fill="none" stroke="#000000" stroke-width="10" stroke-linecap="round"/><path d="M349.27347,146.2011c0,0 2.47749,68.1543 -11.82519,68.70577c-17.29295,-0.36168 -15.50751,-68.96858 -15.50751,-68.96858" fill="none" stroke="#000000" stroke-width="10" stroke-linecap="round"/><path d="M285.96988,187.38841c0,0 -4.80284,-0.03887 -6.30957,-0.05346c-1.04425,-0.01011 -1.83393,0.58378 -1.81378,1.61966c0.0964,4.95522 -0.02323,19.66824 -4.63167,24.10502c-2.14199,2.0622 -10.07508,2.12381 -12.67826,-5.80721c-4.46657,-13.60814 -2.9492,-41.03932 0.29369,-52.12689c3.92583,-13.42256 13.83857,-7.6849 13.83857,-7.6849" fill="none" stroke="#000000" stroke-width="10" stroke-linecap="round"/><path d="M285.96988,187.38842c0,0 -4.80284,-0.03887 -6.30957,-0.05346c-1.04425,-0.01011 -1.83393,0.58376 -1.81378,1.61965c0.09641,4.95522 -0.02321,19.66824 -4.63166,24.10502c-5.81723,5.60054 -12.85864,-3.08621 -13.71026,-6.09659c-0.82372,-2.91172 -3.8072,-34.28794 1.32569,-51.83752c3.92582,-13.42255 13.83857,-7.6849 13.83857,-7.6849" fill="none" stroke="#000000" stroke-width="10" stroke-linecap="round"/><path d="M249.17587,145.60094c0,0 0.99737,27.87016 0.85726,40.19944c-0.09355,8.23215 -1.05109,23.58609 -1.46106,28.93491c-0.11319,1.4768 -0.36388,-0.36556 -0.61173,-1.21483c-0.60477,-2.07233 -3.6454,-11.10169 -6.47517,-22.30773c-1.97219,-7.80996 -3.43649,-16.94751 -5.60761,-24.38724c-2.42404,-8.30639 -4.99567,-14.52893 -5.9062,-17.649c-0.32612,-1.11748 -1.30211,-3.1832 -1.31133,-1.98863c-0.05154,6.67479 -0.50931,68.32173 -0.50931,68.32173" fill="none" stroke="#000000" stroke-width="10" stroke-linecap="round"/><path d="M218.6894,178.84699c0,18.36127 -3.78893,35.87417 -7.49021,35.87417c-5.27817,0 -10.38117,-1.48122 -10.9068,-41.65609c-0.24021,-18.3597 3.52612,-27.4641 7.2274,-27.4641c7.11787,0 11.16961,14.88475 11.16961,33.24602z" fill="none" stroke="#000000" stroke-width="10" stroke-linecap="butt"/><path d="M147.97895,215.97525c0,0 9.9522,-61.41699 11.3055,-69.21837c0.26349,-1.51892 12.58071,68.50535 12.58071,68.50535" fill="none" stroke="#000000" stroke-width="10" stroke-linecap="round"/><path d="M171.84524,214.99941c0,0 11.26596,-69.76145 11.52945,-68.24253c1.3533,7.80138 9.72861,68.69274 9.72861,68.69274" data-paper-data="{&quot;index&quot;:null}" fill="none" stroke="#000000" stroke-width="10" stroke-linecap="round"/><path d="M134.13189,159.27018c0,0 4.22196,-0.13374 7.45121,8.27733c2.04199,4.89708 2.68937,18.01058 2.86155,20.05213c0.30436,3.60887 -5.94228,6.21813 -5.94228,6.21813" fill="none" stroke="#000000" stroke-width="10" stroke-linecap="round"/><path d="M106.2337,171.69696c-0.57704,-1.89178 -0.40584,-4.81895 -0.40584,-6.39135c0,-0.63267 1.1038,-5.94307 4.524,-6.86281c2.5605,-0.68855 8.62574,-0.4333 12.87398,0.75646c2.4026,0.67288 4.34844,6.37122 3.53532,10.8779c-0.63753,3.53352 -2.46236,4.59375 -4.28385,4.59375c-2.1202,0 -7.27273,0.10722 -10.81298,-0.13426c-2.27048,-0.15488 -4.98396,-1.37535 -5.43062,-2.8397z" fill="none" stroke="#000000" stroke-width="10" stroke-linecap="butt"/><path d="M97.94222,214.25656c-0.37959,-5.6952 -1.65202,-29.6093 2.28136,-47.75995c1.01526,-4.68495 3.83009,-18.38649 12.82256,-20.38236c5.43133,-1.20548 15.85842,1.08626 20.00775,12.05479c3.4118,9.0189 4.12402,21.33936 4.81345,31.98429c0.69612,10.74821 1.35221,19.79493 1.22779,23.41519c-0.03521,1.02462 -0.51532,1.5909 -1.32192,1.59792c-1.7363,0.0151 -8.85489,0.07426 -11.88713,0.09942c-0.84938,0.00705 -1.47436,-0.62368 -1.6373,-1.65031c-0.45136,-2.84384 -0.50812,-8.74165 -0.49466,-12.41688c0.00289,-0.78988 -0.3529,-1.53741 -0.76772,-2.13975c-0.57655,-0.83718 -1.69336,-1.38217 -2.78419,-1.363c-2.02949,0.03567 -5.51141,0.09724 -6.85416,0.15759c-1.29677,0.05828 -2.66984,1.99102 -2.68721,3.16897c-0.0413,2.80163 -0.20931,14.19744 -0.20931,14.19744c0,0 -9.92966,0.27045 -10.74478,0.27753c-0.92526,0.00805 -1.71027,-0.42723 -1.7645,-1.24088z" fill="none" stroke="#000000" stroke-width="10" stroke-linecap="butt"/><path d="M97.94223,214.25656c-0.37959,-5.6952 -1.65202,-29.6093 2.28136,-47.75995c1.01526,-4.68495 3.83009,-18.38649 12.82256,-20.38236c5.43133,-1.20548 15.85842,1.08626 20.00775,12.05479c3.4118,9.0189 4.12402,21.33936 4.81345,31.98429c0.69612,10.74821 1.35221,19.79493 1.22779,23.41519c-0.03521,1.02462 -0.51532,1.5909 -1.32192,1.59792c-1.7363,0.0151 -8.85489,0.07426 -11.88713,0.09942c-0.84938,0.00705 -1.47436,-0.62368 -1.6373,-1.65031c-0.45136,-2.84384 -0.50812,-8.74165 -0.49466,-12.41688c0.00289,-0.78988 -0.35291,-1.53742 -0.76773,-2.13976c-0.57655,-0.83718 -1.69336,-1.38217 -2.78419,-1.36299c-2.02949,0.03567 -5.51141,0.09724 -6.85416,0.15759c-1.29678,0.05828 -2.66984,1.99102 -2.6872,3.16897c-0.04131,2.80163 -0.20932,14.19744 -0.20932,14.19744c0,0 -9.92966,0.27045 -10.74478,0.27753c-0.92526,0.00805 -1.71027,-0.42723 -1.7645,-1.24088z" fill="none" stroke="#000000" stroke-width="10" stroke-linecap="butt"/><path d="M134.13189,159.27018c0,0 4.22196,-0.13374 7.45121,8.27733c2.04199,4.89708 2.68937,18.01058 2.86155,20.05213c0.30436,3.60887 -5.94228,6.21813 -5.94228,6.21813" fill="none" stroke="#000000" stroke-width="10" stroke-linecap="round"/><path d="M147.97895,215.97525c0,0 9.9522,-61.41699 11.3055,-69.21837c0.26349,-1.51892 12.58071,68.50535 12.58071,68.50535" fill="none" stroke="#000000" stroke-width="10" stroke-linecap="round"/><path d="M171.84524,215.26222c0,0 11.26596,-70.02427 11.52944,-68.50535c1.3533,7.80138 9.72861,68.69274 9.72861,68.69274" data-paper-data="{&quot;index&quot;:null}" fill="none" stroke="#000000" stroke-width="10" stroke-linecap="round"/><path d="M218.6894,178.84699c0,15.77214 -2.40786,30.91831 -5.76602,34.87622c-0.55127,0.64972 -2.83527,0.98148 -3.38273,0.90493c-4.64483,-0.64949 -8.77805,-5.62412 -9.24826,-41.56307c-0.24021,-18.3597 3.52611,-27.4641 7.2274,-27.4641c7.11787,0 11.16961,14.88475 11.16961,33.24602z" fill="none" stroke="#000000" stroke-width="10" stroke-linecap="butt"/><path d="M249.17588,145.60095c0,0 0.99737,27.87016 0.85726,40.19944c-0.09355,8.23215 -1.31391,23.58609 -1.72387,28.93491c-0.11319,1.4768 -0.10107,-0.36556 -0.34892,-1.21483c-0.60477,-2.07234 -3.6454,-11.1017 -6.47517,-22.30774c-1.97219,-7.80996 -3.43648,-16.94751 -5.60761,-24.38724c-2.42405,-8.30638 -6.04693,-16.36862 -6.95746,-19.48869c-0.32612,-1.11748 -0.25086,1.02183 -0.26008,2.2164c-0.05154,6.67479 -0.50931,65.9564 -0.50931,65.9564" fill="none" stroke="#000000" stroke-width="10" stroke-linecap="round"/><path d="M285.96988,187.38841c0,0 -4.80284,-0.03887 -6.30957,-0.05346c-1.04425,-0.01011 -1.83393,0.58378 -1.81378,1.61966c0.0964,4.95522 -0.02323,19.66824 -4.63167,24.10502c-2.14199,2.0622 -10.07508,2.12381 -12.67826,-5.80721c-4.46657,-13.60814 -2.9492,-41.03932 0.29369,-52.12689c3.92583,-13.42256 13.83857,-7.6849 13.83857,-7.6849" fill="none" stroke="#000000" stroke-width="10" stroke-linecap="round"/><path d="M349.27347,146.2011c0,0 2.47749,68.1543 -11.82519,68.70577c-17.29295,-0.36167 -15.50751,-68.96858 -15.50751,-68.96858" fill="none" stroke="#000000" stroke-width="10" stroke-linecap="round"/><path d="M378.44587,149.35488c0,0 -15.9713,-12.49168 -20.17019,10.00838c-4.45351,21.64781 24.78105,19.07301 24.06541,39.5597c-0.94901,7.63465 -5.64951,18.01205 -17.44074,15.55035c-11.53255,-2.4077 -7.21682,-23.59374 -7.21682,-23.59374" fill="none" stroke="#000000" stroke-width="10" stroke-linecap="round"/><path d="M378.44587,149.35488c0,0 -15.9713,-12.49168 -20.17019,10.00838c-4.45351,21.64781 24.78105,19.073 24.06541,39.5597c-0.94901,7.63465 -5.64951,18.01205 -17.44074,15.55035c-11.53255,-2.40769 -7.21682,-23.59375 -7.21682,-23.59375" fill="none" stroke="#000000" stroke-width="6" stroke-linecap="round"/><path d="M349.27347,146.2011c0,0 2.47749,68.1543 -11.82519,68.70577c-17.29295,-0.36168 -15.50751,-68.96858 -15.50751,-68.96858" fill="none" stroke="#000000" stroke-width="6" stroke-linecap="round"/><path d="M285.96988,187.38841c0,0 -4.80284,-0.03887 -6.30957,-0.05346c-1.04425,-0.01011 -1.83393,0.58378 -1.81378,1.61966c0.0964,4.95522 -0.02323,19.66824 -4.63167,24.10502c-2.14199,2.0622 -10.07508,2.12381 -12.67826,-5.80721c-4.46657,-13.60814 -2.9492,-41.03932 0.29369,-52.12689c3.92583,-13.42256 13.83857,-7.6849 13.83857,-7.6849" fill="none" stroke="#000000" stroke-width="6" stroke-linecap="round"/><path d="M285.96988,187.38842c0,0 -4.80284,-0.03887 -6.30957,-0.05346c-1.04425,-0.01011 -1.83393,0.58376 -1.81378,1.61965c0.09641,4.95522 -0.02321,19.66824 -4.63166,24.10502c-5.81723,5.60054 -12.85864,-3.08621 -13.71026,-6.09659c-0.82372,-2.91172 -3.8072,-34.28794 1.32569,-51.83752c3.92582,-13.42255 13.83857,-7.6849 13.83857,-7.6849" fill="none" stroke="#ffffff" stroke-width="4" stroke-linecap="round"/><path d="M249.17587,145.60094c0,0 0.99737,27.87016 0.85726,40.19944c-0.09355,8.23215 -1.05109,23.58609 -1.46106,28.93491c-0.11319,1.4768 -0.36388,-0.36556 -0.61173,-1.21483c-0.60477,-2.07233 -3.6454,-11.10169 -6.47517,-22.30773c-1.97219,-7.80996 -3.43649,-16.94751 -5.60761,-24.38724c-2.42404,-8.30639 -4.99567,-14.52893 -5.9062,-17.649c-0.32612,-1.11748 -1.30211,-3.1832 -1.31133,-1.98863c-0.05154,6.67479 -0.50931,68.32173 -0.50931,68.32173" fill="none" stroke="#000000" stroke-width="6" stroke-linecap="round"/><path d="M218.6894,178.84699c0,18.36127 -3.78893,35.87417 -7.49021,35.87417c-5.27817,0 -10.38117,-1.48122 -10.9068,-41.65609c-0.24021,-18.3597 3.52612,-27.4641 7.2274,-27.4641c7.11787,0 11.16961,14.88475 11.16961,33.24602z" fill="none" stroke="#000000" stroke-width="6" stroke-linecap="butt"/><path d="M147.97895,215.97525c0,0 9.9522,-61.41699 11.3055,-69.21837c0.26349,-1.51892 12.58071,68.50535 12.58071,68.50535" fill="none" stroke="#000000" stroke-width="6" stroke-linecap="round"/><path d="M171.84524,214.99941c0,0 11.26596,-69.76145 11.52945,-68.24253c1.3533,7.80138 9.72861,68.69274 9.72861,68.69274" data-paper-data="{&quot;index&quot;:null}" fill="none" stroke="#000000" stroke-width="6" stroke-linecap="round"/><path d="M134.13189,159.27018c0,0 4.22196,-0.13374 7.45121,8.27733c2.04199,4.89708 2.68937,18.01058 2.86155,20.05213c0.30436,3.60887 -5.94228,6.21813 -5.94228,6.21813" fill="none" stroke="#000000" stroke-width="6" stroke-linecap="round"/><path d="" fill="none" stroke="#000000" stroke-width="6" stroke-linecap="butt"/><path d="M97.94223,214.25656c-0.37959,-5.6952 -1.65202,-29.6093 2.28136,-47.75995c1.01526,-4.68495 3.83009,-18.38649 12.82256,-20.38236c5.43133,-1.20548 15.85842,1.08626 20.00775,12.05479c3.4118,9.0189 4.12402,21.33936 4.81345,31.98429c0.69612,10.74821 1.35221,19.79493 1.22779,23.41519c-0.03521,1.02462 -0.51532,1.5909 -1.32192,1.59792c-1.7363,0.0151 -8.85489,0.07426 -11.88713,0.09942c-0.84938,0.00705 -1.47436,-0.62368 -1.6373,-1.65031c-0.45136,-2.84384 -0.50812,-8.74165 -0.49466,-12.41688c0.00289,-0.78988 -0.35291,-1.53742 -0.76773,-2.13976c-0.57655,-0.83718 -1.69336,-1.38217 -2.78419,-1.36299c-2.02949,0.03567 -5.51141,0.09724 -6.85416,0.15759c-1.29678,0.05828 -2.66984,1.99102 -2.6872,3.16897c-0.04131,2.80163 -0.20932,14.19744 -0.20932,14.19744c0,0 -9.92966,0.27045 -10.74478,0.27753c-0.92526,0.00805 -1.71027,-0.42723 -1.7645,-1.24088z" fill="#000000" stroke="#ffffff" stroke-width="4" stroke-linecap="butt"/><path d="M105.82786,165.30561c0,-0.63267 1.1038,-5.94308 4.524,-6.86281c2.56049,-0.68855 8.62574,-0.43331 12.87398,0.75646c2.40261,0.67287 4.34844,6.37121 3.53532,10.87791c-0.63754,3.53352 -2.46236,4.59376 -4.28385,4.59376c-2.1202,0 -7.27273,0.10722 -10.81298,-0.13426c-2.27047,-0.15487 -4.98396,-1.37535 -5.43062,-2.8397c0,0 -0.40585,-4.81896 -0.40585,-6.39136z" fill="none" stroke="#ffffff" stroke-width="4" stroke-linecap="butt"/><path d="M134.13189,159.27018c0,0 4.22196,-0.13374 7.45121,8.27733c2.04199,4.89708 2.68937,18.01058 2.86155,20.05213c0.30436,3.60887 -5.94228,6.21813 -5.94228,6.21813" fill="none" stroke="#ffffff" stroke-width="4" stroke-linecap="round"/><path d="M147.97895,215.97525c0,0 9.9522,-61.41699 11.3055,-69.21837c0.26349,-1.51892 12.58071,68.50535 12.58071,68.50535" fill="none" stroke="#ffffff" stroke-width="4" stroke-linecap="round"/><path d="M171.84524,215.26222c0,0 11.26596,-70.02427 11.52944,-68.50535c1.3533,7.80138 9.72861,68.69274 9.72861,68.69274" data-paper-data="{&quot;index&quot;:null}" fill="none" stroke="#ffffff" stroke-width="4" stroke-linecap="round"/><path d="M218.6894,178.84699c0,15.77214 -2.40786,30.91831 -5.76602,34.87622c-0.55127,0.64972 -2.83527,0.98148 -3.38273,0.90493c-4.64483,-0.64949 -8.77805,-5.62412 -9.24826,-41.56307c-0.24021,-18.3597 3.52611,-27.4641 7.2274,-27.4641c7.11787,0 11.16961,14.88475 11.16961,33.24602z" fill="none" stroke="#ffffff" stroke-width="4" stroke-linecap="butt"/><path d="M249.17588,145.60095c0,0 0.99737,27.87016 0.85726,40.19944c-0.09355,8.23215 -1.31391,23.58609 -1.72387,28.93491c-0.11319,1.4768 -0.10107,-0.36556 -0.34892,-1.21483c-0.60477,-2.07234 -3.6454,-11.1017 -6.47517,-22.30774c-1.97219,-7.80996 -3.43648,-16.94751 -5.60761,-24.38724c-2.42405,-8.30638 -6.04693,-16.36862 -6.95746,-19.48869c-0.32612,-1.11748 -0.25086,1.02183 -0.26008,2.2164c-0.05154,6.67479 -0.50931,65.9564 -0.50931,65.9564" fill="none" stroke="#ffffff" stroke-width="4" stroke-linecap="round"/><path d="M285.96988,187.38841c0,0 -4.80284,-0.03887 -6.30957,-0.05346c-1.04425,-0.01011 -1.83393,0.58378 -1.81378,1.61966c0.0964,4.95522 -0.02323,19.66824 -4.63167,24.10502c-2.14199,2.0622 -10.07508,2.12381 -12.67826,-5.80721c-4.46657,-13.60814 -2.9492,-41.03932 0.29369,-52.12689c3.92583,-13.42256 13.83857,-7.6849 13.83857,-7.6849" fill="none" stroke="#ffffff" stroke-width="4" stroke-linecap="round"/><path d="M349.27347,146.2011c0,0 2.47749,68.1543 -11.82519,68.70577c-17.29295,-0.36167 -15.50751,-68.96858 -15.50751,-68.96858" fill="none" stroke="#ffffff" stroke-width="4" stroke-linecap="round"/><path d="M378.44587,149.35488c0,0 -15.9713,-12.49168 -20.17019,10.00838c-4.45351,21.64781 24.78105,19.07301 24.06541,39.5597c-0.94901,7.63465 -5.64951,18.01205 -17.44074,15.55035c-11.53255,-2.4077 -7.21682,-23.59374 -7.21682,-23.59374" fill="none" stroke="#ffffff" stroke-width="4" stroke-linecap="round"/><path d="M418.10976,180.05042c0,34.78209 -84.11511,62.97854 -187.87635,62.97854c-103.76124,0 -187.87634,-28.19645 -187.87634,-62.97854c0,-34.78209 84.1151,-62.97854 187.87634,-62.97854c103.76124,0 187.87635,28.19645 187.87635,62.97854z" fill="none" stroke="none" stroke-width="NaN" stroke-linecap="butt"/><path d="M225.01914,258.40185c0,-0.6204 0.18095,-1.33386 0.54285,-2.14039c0.3619,-0.81686 0.75482,-1.37522 1.17877,-1.67509c0.80652,0.58938 1.62338,0.88407 2.45059,0.88407l0.97713,-0.1551c1.14774,-0.34122 1.74229,-1.25114 1.78366,-2.72976v-8.09623h-2.54364c-0.3619,0 -0.61523,-0.45496 -0.75999,-1.36489c-0.06204,-0.44462 -0.09306,-0.89958 -0.09306,-1.36489c0,-0.47564 0.03102,-0.93578 0.09306,-1.38039c0.14476,-0.90992 0.39809,-1.36489 0.75999,-1.36489h7.55338c0.42394,0 0.73931,0.12408 0.94611,0.37224c0.21714,0.24816 0.32571,0.53768 0.32571,0.86856v14.9982c0,2.07835 -0.69278,3.66037 -2.07835,4.74607c-1.38556,1.07536 -3.0503,1.61305 -4.99423,1.61305c-1.93358,0 -3.44323,-0.28435 -4.52893,-0.85305c-1.07536,-0.57904 -1.61305,-1.36489 -1.61305,-2.35752zM252.8469,260.40265c-1.33386,0.7755 -3.0503,1.16325 -5.14934,1.16325c-2.08868,0 -3.85683,-0.71346 -5.30443,-2.14039c-1.43726,-1.42693 -2.1559,-3.40187 -2.1559,-5.92483c0,-2.53331 0.69278,-4.57029 2.07835,-6.11095c1.3959,-1.55101 3.14853,-2.32651 5.2579,-2.32651c2.1197,0 3.75343,0.53768 4.90117,1.61305c1.15808,1.07536 1.73713,2.38855 1.73713,3.93955c0,3.43289 -1.96978,5.14934 -5.90932,5.14934h-2.18691c0,0.63074 0.17578,1.07019 0.52734,1.31835c0.35156,0.23782 0.86339,0.35673 1.53549,0.35673c1.48897,0 2.90038,-0.33605 4.23424,-1.00815c0.02069,-0.02069 0.11374,0.12408 0.27918,0.43428c0.50666,0.90992 0.75999,1.68025 0.75999,2.31099c0,0.6204 -0.20163,1.02883 -0.60489,1.22529zM248.87633,251.2207c0,-0.88924 -0.43428,-1.33386 -1.30285,-1.33386c-0.40326,0 -0.74966,0.12408 -1.03917,0.37224c-0.27918,0.23782 -0.41877,0.58938 -0.41877,1.05469v0.97713h1.72162c0.69278,0 1.03917,-0.35673 1.03917,-1.07019zM256.94667,255.53249c1.71644,1.04435 3.07099,1.56651 4.06363,1.56651c0.64108,0 0.96162,-0.22231 0.96162,-0.66693c0,-0.32054 -0.55319,-0.73414 -1.65958,-1.24081c-2.64705,-1.0857 -3.97057,-2.85384 -3.97057,-5.30443c0,-1.57168 0.5687,-2.76596 1.7061,-3.58281c1.14774,-0.8272 2.52297,-1.24081 4.12567,-1.24081c1.60271,0 2.95725,0.17061 4.06363,0.51183c1.11673,0.33088 1.67509,0.77033 1.67509,1.31835c0,0.4653 -0.22748,1.08053 -0.68244,1.8457c-0.45496,0.76516 -0.77033,1.17877 -0.94611,1.24081c-0.90992,-0.50666 -1.89222,-0.75999 -2.94691,-0.75999c-0.5687,0 -0.85305,0.20163 -0.85305,0.60489c0,0.24816 0.10857,0.4653 0.32571,0.65142c0.22748,0.17578 0.63591,0.39809 1.22529,0.66693c0.58938,0.2585 1.08053,0.49632 1.47345,0.71346c0.39292,0.2068 0.83237,0.5015 1.31835,0.88407c1.01332,0.80652 1.51998,1.85604 1.51998,3.14853c0,1.69576 -0.56354,3.06582 -1.69059,4.11016c-1.11673,1.04435 -2.80732,1.56651 -5.07178,1.56651c-1.4993,0 -2.86418,-0.25333 -4.09465,-0.75999c-1.23047,-0.50666 -1.8457,-1.20461 -1.8457,-2.09386c0,-0.58938 0.13959,-1.20978 0.41877,-1.8612c0.28952,-0.66176 0.58421,-1.10121 0.88407,-1.31835zM277.87903,261.06958c0,0.24816 -0.88924,0.37224 -2.66772,0.37224c-2.1197,-0.08273 -3.17956,-0.21714 -3.17956,-0.40326v-11.24478h-1.61305c-0.42394,0 -0.63591,-0.73414 -0.63591,-2.20243c0,-0.38258 0.03619,-0.84788 0.10857,-1.3959c0.07238,-0.54802 0.22748,-0.82203 0.4653,-0.82203h1.67509v-2.7918c0,-0.42394 0.89441,-0.63591 2.68324,-0.63591c1.78883,0 2.68324,0.17061 2.68324,0.51183v2.03182l0.04653,0.88407h2.69875c0.35156,0 0.52734,0.74448 0.52734,2.23344c0,1.47863 -0.17578,2.21794 -0.52734,2.21794h-2.26447zM294.26796,260.40265c-1.33386,0.7755 -3.0503,1.16325 -5.14934,1.16325c-2.08868,0 -3.85683,-0.71346 -5.30443,-2.14039c-1.43726,-1.42693 -2.1559,-3.40187 -2.1559,-5.92483c0,-2.53331 0.69278,-4.57029 2.07835,-6.11095c1.3959,-1.55101 3.14853,-2.32651 5.2579,-2.32651c2.1197,0 3.75343,0.53768 4.90117,1.61305c1.15808,1.07536 1.73713,2.38855 1.73713,3.93955c0,3.43289 -1.96978,5.14934 -5.90932,5.14934h-2.18691c0,0.63074 0.17578,1.07019 0.52734,1.31835c0.35156,0.23782 0.86339,0.35673 1.53549,0.35673c1.48897,0 2.90038,-0.33605 4.23424,-1.00815c0.02069,-0.02069 0.11374,0.12408 0.27918,0.43428c0.50666,0.90992 0.75999,1.68025 0.75999,2.31099c0,0.6204 -0.20163,1.02883 -0.60489,1.22529zM290.29739,251.2207c0,-0.88924 -0.43428,-1.33386 -1.30285,-1.33386c-0.40326,0 -0.74966,0.12408 -1.03917,0.37224c-0.27918,0.23782 -0.41877,0.58938 -0.41877,1.05469v0.97713h1.72162c0.69278,0 1.03917,-0.35673 1.03917,-1.07019zM304.6648,261.22467c0,0.14476 -0.96679,0.21714 -2.90038,0.21714c-1.92324,-0.04135 -2.88487,-0.12408 -2.88487,-0.24816v-10.54682h-0.85305c-0.34122,0 -0.61523,-0.2068 -0.82203,-0.6204c-0.19646,-0.4136 -0.29469,-0.92543 -0.29469,-1.53549c0,-2.28515 0.67727,-3.42772 2.03182,-3.42772c0.95128,0 1.74229,0.28952 2.37303,0.86856c0.64108,0.57904 0.96162,1.24081 0.96162,1.98528c0.44462,-0.86856 1.03917,-1.56134 1.78366,-2.07835c0.75482,-0.517 1.52516,-0.7755 2.31099,-0.7755c1.23047,0 1.97495,0.31537 2.23344,0.94611c0.06204,0.16544 0.09306,0.4136 0.09306,0.74448c0,0.33088 -0.1034,0.92026 -0.3102,1.76814c-0.19646,0.84788 -0.40326,1.46312 -0.6204,1.8457c-0.2068,0.37224 -0.33088,0.55836 -0.37224,0.55836c-0.04135,0 -0.23782,-0.07755 -0.58938,-0.23265c-0.35156,-0.1551 -0.66693,-0.23265 -0.94611,-0.23265c-0.79618,0 -1.19427,0.63591 -1.19427,1.90774zM338.64783,261.28671c-1.88188,0 -2.82283,-0.21197 -2.82283,-0.63591l-0.66693,-12.73373l-3.87751,12.88884c-0.08273,0.2585 -0.80135,0.38775 -2.1559,0.38775c-1.35455,0 -2.05766,-0.11891 -2.10936,-0.35673l-4.00159,-13.04394l-0.43428,12.67169c-0.02069,0.32054 -0.42394,0.53768 -1.20978,0.65142c-0.78584,0.11374 -1.43726,0.17061 -1.95426,0.17061c-0.517,0 -1.01849,-0.03102 -1.50447,-0.09306c-1.02366,-0.14476 -1.52516,-0.40843 -1.50447,-0.79101l0.74448,-20.64386c0,-0.517 1.28733,-0.7755 3.862,-0.7755c0.76516,0 1.69576,0.06204 2.7918,0.18612c1.10639,0.11374 1.72162,0.34122 1.8457,0.68244l3.56731,10.00397l3.10201,-10.035c0.19646,-0.55836 1.65958,-0.83754 4.38934,-0.83754c0.78584,0 1.72162,0.06204 2.80732,0.18612c1.09604,0.11374 1.64406,0.32054 1.64406,0.6204l0.91509,20.82998c0,0.23782 -0.4136,0.40843 -1.24081,0.51183c-0.8272,0.1034 -1.55617,0.1551 -2.18691,0.1551zM346.44223,259.37898c-1.32352,-1.45794 -1.98528,-3.47942 -1.98528,-6.06443c0,-2.58501 0.66176,-4.60648 1.98528,-6.06443c1.32352,-1.45794 3.10718,-2.18691 5.35096,-2.18691c2.24378,0 4.02227,0.72897 5.33545,2.18691c1.31318,1.45794 1.96978,3.47942 1.96978,6.06443c0,2.58501 -0.65659,4.60648 -1.96978,6.06443c-1.31318,1.45794 -3.09167,2.18691 -5.33545,2.18691c-2.24378,0 -4.02744,-0.72897 -5.35096,-2.18691zM351.8087,250.36765c-1.1891,0 -1.78366,0.97196 -1.78366,2.91588c0,1.94392 0.59455,2.91588 1.78366,2.91588c1.19944,0 1.79916,-0.97196 1.79916,-2.91588c0,-1.94392 -0.59972,-2.91588 -1.79916,-2.91588zM369.39127,239.21594c0,-0.32054 0.83754,-0.48081 2.51263,-0.48081c0.5687,0 1.23047,0.03619 1.98528,0.10857c0.75482,0.07238 1.13223,0.17578 1.13223,0.3102v16.73533h1.10121c0.53768,0 0.88924,0.47564 1.05469,1.42693c0.04135,0.27918 0.06204,0.65659 0.06204,1.13223c0,0.47564 -0.14993,1.04951 -0.44979,1.72162c-0.4136,0.9306 -1.09087,1.3959 -2.03182,1.3959c-0.69278,0 -1.31318,-0.13442 -1.8612,-0.40326c-0.53768,-0.27918 -0.89958,-0.56354 -1.0857,-0.85305l-0.27918,-0.41877c-1.16843,1.11673 -2.63153,1.67509 -4.38934,1.67509c-1.7578,0 -3.26228,-0.72897 -4.51342,-2.18691c-1.25114,-1.45794 -1.87671,-3.49493 -1.87671,-6.11095c0,-2.61602 0.65659,-4.6375 1.96978,-6.06443c1.31318,-1.42693 2.95725,-2.14039 4.93219,-2.14039c0.5687,0 1.14774,0.06204 1.73713,0.18612zM368.35209,250.135c-1.1891,0 -1.78366,1.07019 -1.78366,3.21057c0,1.07536 0.17061,1.85604 0.51183,2.34202c0.34122,0.47564 0.71346,0.71346 1.11673,0.71346c0.4136,0 0.8117,-0.18095 1.19427,-0.54285v-5.39749c-0.3619,-0.21714 -0.70829,-0.32571 -1.03917,-0.32571z" fill="#ffa3f7" stroke="none" stroke-width="1" stroke-linecap="square"/></g></g></svg>